<svg width="387" height="381" viewBox="0 0 387 381" fill="none" xmlns="http://www.w3.org/2000/svg">
<g filter="url(#filter0_d_1_81)">
<path d="M194.795 34.9791C159.485 49.0301 156.104 84.9483 124.312 88.0313C96.611 90.7162 86.0811 64.7169 66.644 69.3757C37.0352 76.4716 18.4202 147.12 30.3118 205.211C42.5904 265.193 94.1807 344.932 179.65 350.374C275.607 356.484 348.214 264.737 352.647 184.223C353.128 175.516 355.958 102.561 300.228 59.4639C297.444 57.3059 242.528 15.9843 194.795 34.9791Z" fill="#313252"/>
</g>
<path d="M299.605 173.598C299.605 238.224 250.314 294.007 186.121 298.421C117.853 303.119 59.2324 248.574 59.2324 176.315C59.2324 104.056 117.847 48.1869 186.121 51.3396C250.314 54.3048 299.605 108.971 299.605 173.598Z" fill="url(#paint0_linear_1_81)"/>
<path d="M306.082 173.598C306.082 238.224 256.791 294.007 192.598 298.421C124.33 303.119 65.7094 248.574 65.7094 176.315C65.7094 104.056 124.324 48.1869 192.598 51.3396C256.791 54.3048 306.082 108.971 306.082 173.598Z" fill="url(#paint1_linear_1_81)"/>
<g style="mix-blend-mode:multiply" opacity="0.3">
<path style="mix-blend-mode:multiply" opacity="0.3" d="M215.186 256.985C192 230.615 213.91 196.778 189.617 163.925C167.076 133.439 135.349 144.23 110.908 112.093C105.698 105.236 101.894 97.8505 99.1907 90.2519C78.4772 112.681 65.7094 142.931 65.7094 176.315C65.7094 248.574 124.324 303.119 192.598 298.421C216.233 296.795 237.789 288.247 255.553 275.017C235.666 273.192 223.161 266.056 215.186 256.985Z" fill="url(#paint2_linear_1_81)"/>
</g>
<path d="M295.276 173.72C295.276 232.193 250.545 282.413 192.598 286.07C131.346 289.931 79.0686 240.817 79.0686 176.167C79.0686 111.517 131.351 61.2202 192.598 63.6969C250.545 66.0377 295.276 115.248 295.276 173.72Z" fill="url(#paint3_linear_1_81)"/>
<path d="M192.598 286.068C209.035 285.034 225.008 280.196 239.258 271.932C228.412 268.623 220.708 263.272 215.186 256.985C192 230.614 213.91 196.778 189.617 163.925C167.077 133.439 135.349 144.23 110.908 112.093C108.794 109.31 106.871 106.386 105.152 103.343C88.9063 122.985 79.0711 148.385 79.0711 176.165C79.0687 240.815 131.347 289.929 192.598 286.068Z" fill="#EFF2F6"/>
<path d="M273.316 173.968C273.316 219.935 237.939 259.022 192.598 261.359C145.257 263.8 105.322 225.568 105.322 175.867C105.322 126.167 145.257 87.0329 192.598 88.4018C237.939 89.7142 273.316 128.001 273.316 173.968Z" fill="url(#paint4_linear_1_81)"/>
<path style="mix-blend-mode:multiply" opacity="0.3" d="M189.617 163.925C170.386 137.919 144.5 141.942 122.115 123.749C111.574 138.324 105.322 156.347 105.322 175.866C105.322 225.567 145.257 263.797 192.598 261.358C200.294 260.965 207.898 259.493 215.186 256.985C192 230.615 213.91 196.778 189.617 163.925Z" fill="url(#paint5_linear_1_81)"/>
<path d="M250.879 174.227C250.879 207.416 225.181 235.35 192.598 236.657C158.995 238.003 130.973 210.674 130.973 175.584C130.973 140.493 158.995 112.531 192.598 113.116C225.181 113.678 250.879 141.027 250.879 174.227Z" fill="url(#paint6_linear_1_81)"/>
<path d="M144.601 136.197C136.09 146.957 130.973 160.662 130.973 175.578C130.973 210.671 158.995 237.997 192.598 236.651C196.67 236.489 200.715 235.904 204.667 234.905C200.367 212.892 207.596 188.24 189.617 163.925C176.602 146.32 160.559 142.478 144.601 136.197Z" fill="#EFF2F6"/>
<path d="M227.95 174.481C227.95 194.613 212.266 211.382 192.597 211.943C172.56 212.515 156.042 196.111 156.042 175.294C156.042 154.476 172.56 137.7 192.597 137.819C212.266 137.936 227.95 154.349 227.95 174.481Z" fill="url(#paint7_linear_1_81)"/>
<path style="mix-blend-mode:multiply" opacity="0.3" d="M202.796 210.128C202.315 195.111 201.129 179.493 189.617 163.925C183.418 155.541 176.537 150.282 169.305 146.392C161.217 153.275 156.041 163.673 156.041 175.294C156.041 196.111 172.56 212.515 192.597 211.943C196.067 211.845 199.504 211.233 202.796 210.128Z" fill="url(#paint8_linear_1_81)"/>
<path d="M305.131 123.065C305.217 122.986 286.958 129.345 286.958 129.345L292.536 118.063C294.41 114.27 311.376 109.466 315.569 108.65L316.013 109.745L305.131 123.065Z" fill="url(#paint9_linear_1_81)"/>
<path d="M228.305 163.046L195.923 174.891C195.082 175.201 194.557 173.979 195.364 173.582L226.373 158.327C226.421 158.303 226.474 158.289 226.528 158.287C226.581 158.284 226.635 158.293 226.685 158.312C226.735 158.331 226.781 158.36 226.819 158.398C226.858 158.435 226.888 158.48 226.908 158.53L228.533 162.531C228.553 162.58 228.562 162.632 228.562 162.684C228.561 162.737 228.549 162.789 228.528 162.837C228.507 162.885 228.476 162.928 228.438 162.964C228.399 163 228.354 163.028 228.305 163.046Z" fill="url(#paint10_linear_1_81)"/>
<path d="M308.931 131.022C309.051 131.015 291.181 139.743 291.181 139.743L302.916 143.63C306.861 144.936 322.135 135.965 325.651 133.486L325.207 132.391L308.931 131.022Z" fill="url(#paint11_linear_1_81)"/>
<path d="M306.878 131.885C306.998 131.878 289.21 140.57 289.21 140.57L300.899 144.455C302.839 145.101 304.903 145.281 306.925 144.981C308.947 144.681 310.871 143.909 312.54 142.728L325.653 133.483L306.878 131.885Z" fill="url(#paint12_linear_1_81)"/>
<path d="M303.449 123.447C303.535 123.367 284.994 130.197 284.994 130.197L290.536 118.948C292.399 115.169 295.866 112.478 299.93 111.689L315.564 108.65L303.449 123.447Z" fill="url(#paint13_linear_1_81)"/>
<path d="M245.477 161.945L234.872 166.366C231.146 167.92 226.791 165.822 225.114 161.695C223.431 157.568 225.053 152.914 228.751 151.298L239.277 146.681L245.477 161.945Z" fill="url(#paint14_linear_1_81)"/>
<g style="mix-blend-mode:multiply" opacity="0.3">
<path style="mix-blend-mode:multiply" opacity="0.3" d="M235.577 159.972C231.479 160.19 227.729 159.093 224.493 157.504C224.359 158.931 224.572 160.369 225.114 161.695C226.796 165.822 231.146 167.92 234.872 166.366L245.476 161.945L243.655 157.463C241.271 158.875 238.788 159.802 235.577 159.972Z" fill="url(#paint15_linear_1_81)"/>
</g>
<path d="M310.541 130.147L245.476 161.945C241.325 163.629 235.125 148.375 239.277 146.685L307.342 122.267L310.541 130.147Z" fill="url(#paint16_linear_1_81)"/>
<g style="mix-blend-mode:multiply" opacity="0.3">
<path style="mix-blend-mode:multiply" opacity="0.3" d="M289.479 137.246C276.116 142.11 272.885 139.623 261.527 145.439C251.059 150.799 246.913 156.44 240.914 158.826C242.333 161.063 244.029 162.535 245.481 161.945L310.546 130.147L309.302 127.085C301.734 132.177 294.913 135.268 289.479 137.246Z" fill="url(#paint17_linear_1_81)"/>
</g>
<path d="M310.241 125.689C311.133 127.884 311.277 129.906 310.565 130.207C309.854 130.508 308.558 128.977 307.67 126.787C306.782 124.598 306.634 122.577 307.342 122.272C308.05 121.966 309.35 123.495 310.241 125.689Z" fill="url(#paint18_linear_1_81)"/>
<path d="M95.1642 339.701C94.3938 340.929 94.514 341.505 94.6462 341.766C95.0344 342.532 96.2195 341.971 99.0932 342.62C99.6844 342.774 100.299 342.817 100.906 342.747C101.618 342.655 102.479 342.37 102.468 342.179C102.462 342.11 102.341 342.069 102.295 342.058C101.505 341.802 96.6125 339.72 96.6125 339.72L95.1642 339.701Z" fill="url(#paint19_linear_1_81)"/>
<path d="M95.0732 336.813L95.2222 339.755C95.2222 339.755 96.3736 340.764 96.8111 339.731C97.126 338.988 97.3363 336.919 97.3363 336.919L95.0732 336.813Z" fill="url(#paint20_linear_1_81)"/>
<path d="M109.597 339.78L108.028 342.987L106.285 342.519L107.019 339.475L109.597 339.78Z" fill="url(#paint21_linear_1_81)"/>
<path d="M107.286 344.765C106.533 343.657 105.758 343.669 105.676 342.952C105.611 342.389 106.019 341.749 106.554 341.546C107.306 341.261 108.116 341.914 108.294 342.062C109.531 343.064 109.028 344.376 110.217 345.093C110.457 345.238 110.843 345.404 111.223 345.843C111.384 346.029 111.783 346.49 111.65 346.765C111.495 347.083 110.707 346.989 109.959 346.9C109.06 346.793 108.61 346.739 108.205 346.419C107.645 345.986 107.865 345.621 107.286 344.765Z" fill="url(#paint22_linear_1_81)"/>
<path d="M92.8208 266.562C92.4908 272.374 92.6895 278.205 93.4146 283.982C94.0672 289.147 94.6165 290.077 94.6634 293.615C94.7595 301.313 92.2091 302.202 91.042 310.798C89.7536 320.29 91.6598 328.076 92.4158 331.05C92.9504 333.15 93.6086 335.216 94.3869 337.239C95.197 338.072 96.5503 337.891 97.9926 337.72C99.2282 329.117 100.548 321.032 101.783 312.429L110.028 273.826L92.8208 266.562Z" fill="url(#paint23_linear_1_81)"/>
<path style="mix-blend-mode:multiply" opacity="0.3" d="M97.9876 337.721C99.2231 329.118 100.543 321.033 101.778 312.43L110.028 273.826L92.8206 266.564C92.7954 267.013 92.7822 267.446 92.7641 267.887C100.439 275.763 101.587 281.592 101.185 285.47C100.697 290.173 97.9287 292.295 97.8662 299.168C97.8205 304.082 99.2171 305.062 98.8517 309.472C98.3806 315.147 95.6823 318.133 94.2256 321.318C92.817 324.393 92.037 328.85 93.722 335.419C93.9624 336.102 94.1836 336.715 94.3867 337.242C95.1968 338.072 96.5561 337.89 97.9876 337.721Z" fill="url(#paint24_linear_1_81)"/>
<path d="M102.721 273.933C106.447 281.618 108.378 287.583 109.39 291.255C110.008 293.492 110.543 295.815 110.466 298.795C110.381 301.699 109.754 304.562 108.617 307.235C107.358 309.913 106.367 312.709 105.658 315.583C103.116 325.912 104.84 334.876 106.34 340.073L109.386 341.499C113.348 332.753 116.579 323.694 119.047 314.414C120.714 308.159 121.997 303.252 122.533 296.929C123.094 290.257 123.02 279.626 118.61 266.566L102.721 273.933Z" fill="url(#paint25_linear_1_81)"/>
<path d="M109.925 216.387C116.493 218.085 121.463 219.698 123.444 223.379C125.53 227.267 121.497 229.728 119.793 237.737C117.182 249.998 123.917 255.217 120.836 267.525C120.02 270.75 118.711 273.83 116.957 276.656C113.705 278.91 110.085 280.579 106.26 281.588C99.3074 283.393 96.0887 281.742 86.9543 281.508C72.0147 281.124 69.4306 285.256 62.9331 282.044C56.3659 278.796 52.0523 271.142 53.7482 268.165C54.765 266.381 57.3888 267.766 61.4788 265.812C66.7503 263.295 66.2383 259.218 70.6024 256.121C76.8703 251.67 82.095 257.123 87.4627 253.247C92.8917 249.326 94.3712 238.812 92.7378 232.354C91.6693 228.132 92.0167 223.666 91.3172 219.363C91.2308 218.843 91.2968 218.31 91.5071 217.827C92.5383 215.475 97.0034 215.378 100.376 215.336C105.52 215.277 109.385 216.247 109.925 216.387Z" fill="url(#paint26_linear_1_81)"/>
<path style="mix-blend-mode:multiply" opacity="0.3" d="M64.1012 277.412C66.273 276.209 65.481 272.225 68.7009 270.412C71.69 268.728 73.6888 271.42 77.9663 270.487C83.4518 269.284 83.5984 264.111 88.8615 262.89C92.6451 262.013 93.5622 264.461 98.871 265.004C104.18 265.546 111.311 263.931 116.184 258.665C118.035 256.647 119.429 254.254 120.271 251.648C121.31 256.355 122.483 260.92 120.83 267.526C120.014 270.752 118.705 273.831 116.951 276.657C113.699 278.911 110.079 280.58 106.254 281.589C99.3012 283.394 96.0826 281.743 86.9481 281.509C72.0085 281.125 69.4244 285.257 62.9269 282.045C58.7299 279.971 55.4619 276.098 54.087 272.794C59.6145 277.561 62.5243 278.285 64.1012 277.412Z" fill="url(#paint27_linear_1_81)"/>
<path d="M114.73 205.165C114.73 205.165 116.28 208.774 116.195 211.198C116.11 213.621 113.396 213.226 113.396 213.226L113.372 214.76C113.362 215.403 113.538 216.034 113.88 216.578C114.221 217.122 114.713 217.555 115.295 217.824L116.339 218.305C116.339 218.305 109.184 219.229 105.57 216.196L106.686 216.18C107.452 216.168 108.19 215.892 108.776 215.397C109.361 214.903 109.758 214.221 109.898 213.467L110.019 212.82C110.019 212.82 109.42 205.177 114.73 205.165Z" fill="url(#paint28_linear_1_81)"/>
<path d="M121.899 244.487L132.596 226.018C132.661 225.908 132.759 225.82 132.877 225.77C132.994 225.719 133.125 225.707 133.25 225.736L148.217 229.236C148.31 229.258 148.396 229.302 148.468 229.364C148.54 229.426 148.597 229.504 148.633 229.592C148.669 229.68 148.684 229.775 148.676 229.87C148.669 229.964 148.639 230.056 148.589 230.137L136.176 250.009C136.102 250.123 135.992 250.21 135.862 250.253C135.733 250.297 135.593 250.296 135.465 250.249L122.31 245.494L121.899 244.487Z" fill="url(#paint29_linear_1_81)"/>
<path d="M124.53 242.391L133.192 227.436C133.244 227.346 133.324 227.275 133.419 227.234C133.515 227.192 133.621 227.183 133.722 227.208L145.841 230.041C145.917 230.057 145.988 230.092 146.047 230.142C146.106 230.192 146.153 230.255 146.183 230.327C146.212 230.399 146.224 230.476 146.217 230.554C146.21 230.631 146.185 230.706 146.143 230.771L136.091 246.857C136.033 246.951 135.944 247.023 135.839 247.059C135.734 247.095 135.62 247.094 135.516 247.055L124.863 243.206L124.53 242.391Z" fill="url(#paint30_linear_1_81)"/>
<path d="M135.749 227.609L136.438 226.406C136.484 226.323 136.556 226.258 136.643 226.221C136.73 226.183 136.826 226.174 136.918 226.196L143.151 227.599C143.219 227.614 143.281 227.645 143.334 227.689C143.388 227.733 143.43 227.789 143.457 227.852C143.485 227.915 143.497 227.984 143.493 228.053C143.489 228.122 143.469 228.189 143.434 228.249L142.659 229.56C142.611 229.641 142.539 229.705 142.452 229.742C142.365 229.778 142.269 229.786 142.178 229.764L136.022 228.256C135.955 228.239 135.894 228.208 135.842 228.164C135.79 228.119 135.749 228.064 135.723 228.001C135.696 227.938 135.685 227.87 135.689 227.802C135.694 227.733 135.714 227.667 135.749 227.609Z" fill="#D8DEE8"/>
<path d="M143.915 232.751H143.886L132.912 230.16C132.846 230.144 132.79 230.103 132.755 230.045C132.721 229.988 132.71 229.919 132.726 229.854C132.742 229.788 132.783 229.732 132.84 229.697C132.898 229.663 132.967 229.652 133.032 229.668L144.007 232.26C144.07 232.275 144.125 232.313 144.161 232.367C144.197 232.421 144.21 232.486 144.199 232.55C144.188 232.614 144.152 232.671 144.101 232.709C144.049 232.748 143.984 232.765 143.92 232.757L143.915 232.751Z" fill="white"/>
<path d="M143.226 233.815L143.196 233.809L132.288 231.115C132.223 231.099 132.166 231.058 132.132 231.001C132.097 230.943 132.087 230.875 132.102 230.809C132.118 230.744 132.16 230.688 132.217 230.654C132.274 230.619 132.343 230.608 132.408 230.624L143.315 233.319C143.347 233.327 143.378 233.341 143.405 233.36C143.431 233.38 143.454 233.405 143.471 233.434C143.488 233.462 143.5 233.494 143.505 233.527C143.51 233.56 143.508 233.593 143.5 233.625C143.485 233.685 143.449 233.737 143.398 233.772C143.348 233.806 143.287 233.822 143.226 233.815Z" fill="white"/>
<path d="M137.473 235C137.46 234.999 137.448 234.997 137.435 234.993L131.505 233.355C131.469 233.35 131.434 233.338 131.403 233.319C131.372 233.3 131.346 233.275 131.325 233.245C131.305 233.214 131.292 233.18 131.286 233.144C131.28 233.108 131.282 233.071 131.292 233.036C131.302 233.001 131.319 232.969 131.342 232.941C131.366 232.913 131.395 232.891 131.428 232.875C131.461 232.86 131.497 232.851 131.533 232.851C131.569 232.851 131.605 232.859 131.639 232.873L137.57 234.511C137.63 234.529 137.681 234.569 137.714 234.623C137.746 234.677 137.757 234.741 137.745 234.802C137.733 234.864 137.699 234.919 137.648 234.957C137.598 234.995 137.535 235.012 137.473 235.006V235Z" fill="white"/>
<path d="M139.214 245.142C139.214 245.142 141.858 243.718 142.274 242.562C142.69 241.406 142.846 239.166 142.846 239.166L141.078 242.16C141.078 242.16 140.403 241.887 140.21 240.82C140.018 239.753 139.412 240.648 139.536 241.453C139.66 242.257 139.214 245.142 139.214 245.142Z" fill="url(#paint31_linear_1_81)"/>
<path d="M122.384 222.086C124.191 223.451 125.733 225.136 126.933 227.058C131.213 233.989 128.57 240.619 132.412 243.464C133.511 244.278 135.507 245.054 139.356 244.128L140.7 245.035C140.7 245.035 141.513 254.056 130.748 253.269C119.982 252.481 116.031 238.567 116.031 238.567L122.384 222.086Z" fill="url(#paint32_linear_1_81)"/>
<path d="M113.347 208.509C112.986 208.449 112.724 207.963 112.464 208.079C112.205 208.196 112.164 208.876 112.351 209.367C112.474 209.673 112.683 209.938 112.952 210.128C112.518 210.625 112.198 211.212 112.017 211.847C111.544 213.568 112.356 215.051 112.674 215.907C114.107 219.756 110.913 225.409 107.694 228.118C105.079 230.327 104.032 229.265 102.426 231.112C99.3012 234.707 102.829 239.235 100.95 244.267C98.0933 251.918 85.5406 253.223 85.0202 253.271C84.8159 253.29 84.6777 253.301 84.4649 253.316C78.8473 253.739 70.333 254.377 64.7922 249.331C60.6469 245.557 59.1073 239.458 59.8753 234.262C60.0772 232.895 60.9245 227.713 65.5242 223.808C66.2538 223.189 70.5722 219.527 75.9735 219.927C78.8328 220.138 79.3256 221.193 81.5612 220.752C84.6236 220.15 86.6909 217.579 87.9733 215.985C90.3338 213.053 89.5358 212.32 91.1728 210.918C94.3842 208.172 97.663 210.81 101.051 208.432C104.388 206.088 102.798 202.401 105.996 200.397C109.295 198.331 115.172 199.635 116.212 202.508C117.101 204.971 114.454 208.688 113.347 208.509Z" fill="url(#paint33_linear_1_81)"/>
<path d="M272.475 336.356C272.475 336.356 265.089 340.111 264.969 340.71C264.848 341.309 269.717 340.509 271.699 340.59C273.681 340.67 275.323 340.018 275.143 339.077C274.963 338.135 274.268 335.765 274.268 335.765L272.475 336.356Z" fill="url(#paint34_linear_1_81)"/>
<path d="M272.204 333.308L272.652 337.028C272.652 337.028 273.822 337.494 274.608 336.943L274.942 332.863L272.204 333.308Z" fill="url(#paint35_linear_1_81)"/>
<path d="M306.981 333.397L307.84 334.94C308.082 335.38 308.153 335.894 308.038 336.383C307.737 337.667 307.137 340.168 306.875 340.82C306.515 341.707 301.74 342.235 301.74 342.235C301.74 342.235 301.314 341.564 302.306 340.753C303.297 339.943 303.936 339.815 304.286 338.62C304.637 337.424 304.871 334.04 304.871 334.04L306.981 333.397Z" fill="url(#paint36_linear_1_81)"/>
<path d="M303.407 329.475C303.72 329.755 305.255 334.969 305.255 334.969C305.255 334.969 305.751 335.679 306.697 334.629C307.643 333.579 307.125 334.159 307.125 334.159L306.947 329.032L303.407 329.475Z" fill="url(#paint37_linear_1_81)"/>
<path d="M268.137 258.559C267.747 269.657 267.732 281.716 268.303 294.596C268.944 309.102 270.237 322.503 271.863 334.662C272.464 334.683 273.104 334.687 273.768 334.662C274.216 334.647 274.651 334.623 275.071 334.591C276.148 331.375 277.061 328.107 277.807 324.798C278.656 321.015 279.294 317.187 279.717 313.332C281.139 300.762 279.477 299.665 280.627 290.349C281.649 282.099 283.103 281.777 284.809 270.062C286.66 257.352 285.282 255.446 284.612 254.756C281.763 251.829 275.06 253.825 268.137 258.559Z" fill="url(#paint38_linear_1_81)"/>
<path style="mix-blend-mode:multiply" opacity="0.3" d="M284.616 254.761C281.894 251.964 275.671 253.658 269.097 257.927C276.66 267.069 277.484 272.999 276.577 276.847C275.553 281.197 272.437 282.449 272.449 287.206C272.464 293.049 277.178 294.597 277.078 300.783C277.012 304.872 274.94 304.829 274.451 309.88C273.873 315.856 276.578 317.915 275.702 322.337C275.324 324.239 274.249 326.725 271.184 329.285C271.404 331.101 271.631 332.894 271.868 334.662C272.469 334.684 273.108 334.687 273.772 334.662C274.22 334.649 274.655 334.625 275.074 334.592C276.151 331.376 277.065 328.108 277.811 324.799C278.66 321.016 279.298 317.188 279.721 313.333C281.143 300.763 279.481 299.666 280.631 290.35C281.652 282.1 283.107 281.778 284.812 270.063C286.664 257.357 285.286 255.45 284.616 254.761Z" fill="url(#paint39_linear_1_81)"/>
<path d="M272.824 258.372C280.558 271.051 287.187 284.372 292.64 298.188C296.928 309.046 300.507 320.172 303.352 331.495C304.021 331.846 304.783 331.979 305.531 331.874C306.938 331.666 307.78 330.661 308 330.381C308.841 324.521 309.032 318.586 308.567 312.684C308.343 309.867 307.947 305.174 306.343 299.382C304.54 292.894 303.309 292.526 300.964 285.67C298.53 278.545 299.119 276.768 296.789 267.851C295.394 262.531 293.655 257.308 291.583 252.214L272.824 258.372Z" fill="url(#paint40_linear_1_81)"/>
<path d="M271.093 212.051C267.578 210.265 263.821 209.617 260.095 205.676C259.544 205.082 259.086 204.407 258.737 203.675C256.676 199.499 256.681 192.875 260.093 189.36C260.343 189.103 262.941 186.513 266.463 186.954C271.781 187.626 272.173 194.35 278.139 197.43C283.193 200.041 288.706 198.205 292.442 196.962C301.425 193.97 302.759 188.31 307.418 189.212C313.254 190.343 313.77 199.735 319.584 200.314C323.471 200.7 324.392 196.62 329.506 195.502C335.51 194.179 342.097 198.086 345.792 202.834C352.544 211.51 350.765 224.463 346.541 232.368C343.069 238.864 335.603 246.334 329.319 244.727C324.351 243.458 322.735 237.191 318.462 237.815C315.577 238.236 315.691 241.136 311.723 243.26C306.469 246.074 299.641 244.407 295.438 241.807C293.585 240.661 292.355 239.297 289.896 236.57C286.497 232.798 285.048 230.249 282.304 226.197C276.474 217.604 273.564 213.307 271.093 212.051Z" fill="url(#paint41_linear_1_81)"/>
<path d="M219.598 193.772C219.598 193.772 218.383 192.07 217.613 190.806C216.842 189.542 213.243 185.995 213.243 185.995C213.243 185.995 212.969 186.559 213.744 187.461C214.519 188.363 216.148 189.909 215.774 190.562C215.4 191.215 214.344 191.792 215.104 193.028C215.865 194.263 217.191 193.419 217.869 194.41C218.547 195.401 219.24 196.48 219.24 196.48L219.598 193.772Z" fill="#F4F7FA"/>
<path d="M220.073 192.662L217.614 196.824C218.766 200.607 220.413 204.221 222.514 207.571C223.651 209.375 227.174 214.661 233.14 218.912C241.26 224.7 256.056 230.099 260.386 223.941C264.251 218.445 258.014 206.258 256.864 204.076C253.435 205.888 249.673 206.984 245.807 207.297C244.198 207.417 240.009 207.708 235.29 206.085C226.557 203.083 221.709 195.506 220.073 192.662Z" fill="url(#paint42_linear_1_81)"/>
<path d="M247.39 211.256C247.798 213.312 254.185 212.209 255.504 215.94C256.211 217.942 254.709 219.213 254.646 222.613C254.576 226.419 256.388 228.58 257.779 231.574C259.815 235.96 259.822 240.259 259.838 248.856C259.859 261.093 257.155 263.554 259.464 267.501C262.469 272.635 269.68 272.963 271.631 273.051C278.299 273.354 279.09 269.803 286.325 269.386C294.588 268.905 295.766 273.398 301.676 271.48C307.074 269.729 308.887 265.07 313.094 266.035C315.721 266.636 316.419 268.781 318.897 268.549C321.375 268.317 323.963 265.845 324.138 263.311C324.357 260.162 320.917 256.196 315.528 256.19C313.386 257.032 309.836 258.007 305.887 256.923C299.418 255.149 296.054 248.992 292.316 242.156C289.73 237.426 284.978 228.733 284.921 217.333C284.899 212.632 285.692 211.258 284.548 208.746C280.829 200.587 266.406 201.804 265.185 201.922C255.357 202.867 246.896 208.775 247.39 211.256Z" fill="url(#paint43_linear_1_81)"/>
<path d="M244.168 221.524L262.284 222.316C262.385 222.323 262.482 222.362 262.561 222.427C262.64 222.491 262.697 222.578 262.725 222.677L271.262 249.167C271.382 249.547 271 250.497 270.642 250.454L252.734 247.727C252.64 247.713 252.553 247.673 252.482 247.611C252.41 247.55 252.357 247.469 252.33 247.379L243.45 222.651C243.318 222.288 243.817 221.51 244.168 221.524Z" fill="url(#paint44_linear_1_81)"/>
<path d="M243.886 222.173L262.002 222.964C262.104 222.972 262.201 223.01 262.28 223.075C262.359 223.14 262.416 223.227 262.444 223.325L270.977 249.819C271.097 250.199 270.824 250.591 270.465 250.548L252.445 248.382C252.352 248.368 252.264 248.328 252.193 248.267C252.121 248.205 252.069 248.125 252.041 248.035L243.41 222.92C243.285 222.549 243.535 222.158 243.886 222.173Z" fill="url(#paint45_linear_1_81)"/>
<path d="M248.841 223.16L248.142 221.048C248.126 221.006 248.119 220.962 248.123 220.917C248.127 220.873 248.141 220.829 248.165 220.791C248.188 220.753 248.22 220.721 248.258 220.697C248.295 220.674 248.338 220.659 248.383 220.655H254.976C255.034 220.657 255.09 220.677 255.135 220.714C255.18 220.751 255.212 220.801 255.225 220.858L255.889 223.194C255.903 223.236 255.908 223.281 255.902 223.325C255.896 223.369 255.88 223.412 255.855 223.449C255.83 223.485 255.797 223.516 255.758 223.538C255.719 223.56 255.676 223.572 255.631 223.574L249.073 223.35C249.019 223.346 248.969 223.325 248.927 223.291C248.886 223.257 248.856 223.212 248.841 223.16Z" fill="url(#paint46_linear_1_81)"/>
<path style="mix-blend-mode:multiply" opacity="0.3" d="M259.993 244.134C258.815 239.865 260.752 237.084 258.775 233.766C255.979 229.075 249.972 231.058 248.106 227.271C247.602 226.249 247.361 224.728 248.04 222.353L243.886 222.173C243.535 222.157 243.285 222.548 243.405 222.915L252.036 248.03C252.064 248.12 252.116 248.201 252.188 248.262C252.259 248.324 252.347 248.364 252.44 248.378L263.391 249.701C261.447 247.794 260.47 245.87 259.993 244.134Z" fill="url(#paint47_linear_1_81)"/>
<path d="M273.222 240.962C273.222 240.962 270.484 240.352 269.429 239.609C268.373 238.865 267.253 237.67 265.696 237.734C264.138 237.799 262.571 238.686 263.292 238.889C264.013 239.093 265.354 240.694 266.381 241.317C267.407 241.94 269.746 242.002 270.188 241.967C270.631 241.932 272.352 243.093 272.352 243.093L273.222 240.962Z" fill="#F4F7FA"/>
<path style="mix-blend-mode:multiply" opacity="0.3" d="M315.528 256.188C313.386 257.03 309.836 258.004 305.888 256.92C299.418 255.146 296.054 248.99 292.316 242.154C289.73 237.424 284.978 228.731 284.922 217.331C284.899 212.63 285.692 211.255 284.548 208.744C284.366 208.353 284.156 207.976 283.919 207.616C281.096 209.753 280.001 211.892 279.68 213.77C278.901 218.341 282.574 222.081 280.663 226.024C278.833 229.801 274.306 228.756 273.363 231.994C272.345 235.483 277.353 237.594 277.57 242.991C277.835 249.469 270.875 252.641 272.094 256.973C273.151 260.728 278.977 260.462 278.973 262.472C278.973 264.866 279.154 259.922 272.094 256.973C269.954 256.08 259.886 263.517 258.662 262.212C258.398 264.322 258.446 265.768 259.459 267.505C262.464 272.639 269.675 272.967 271.626 273.055C278.294 273.358 279.085 269.807 286.321 269.39C294.584 268.908 295.762 273.401 301.671 271.484C307.069 269.732 308.883 265.074 313.089 266.038C315.717 266.64 316.414 268.785 318.892 268.552C321.37 268.32 323.958 265.848 324.134 263.315C324.357 260.16 320.917 256.194 315.528 256.188Z" fill="url(#paint48_linear_1_81)"/>
<path d="M273.152 239.692L270.628 244.72C271.928 245.431 285.812 252.779 295.876 245.505C297.121 244.605 300.427 242.214 302.21 237.53C304.175 232.37 303.073 227.57 302.357 224.453C300.588 216.737 295.583 208.644 288.481 205.392C285.77 204.15 282.549 203.522 279.52 202.93C276.952 202.428 272.91 201.815 272.828 202.249C272.786 202.462 273.725 202.73 274.376 203.145C278.264 205.608 275.791 213.81 277.998 221.154C280.608 229.829 288.354 231.655 287.3 235.287C286.727 237.249 283.723 239.284 273.152 239.692Z" fill="url(#paint49_linear_1_81)"/>
<path d="M263.728 194.397C263.728 194.397 265.358 199.701 267.389 200.531C269.421 201.361 272.631 202.305 273.038 202.673C273.446 203.041 262.249 207.106 255.971 205.235C257.759 204.359 258.237 204.079 258.237 204.079C259.04 203.632 259.782 203.083 260.445 202.446C261.013 201.884 261.904 200.835 262.575 199.092L261.988 196.084L263.728 194.397Z" fill="#F4F7FA"/>
<path d="M264.46 196.712C264.46 196.712 263.514 199.064 261.274 198.703C259.267 198.38 259.369 192.731 260.732 191.768C261.186 191.448 262.109 191.326 262.794 191.606C263.275 191.803 264.709 193.117 264.389 195.041C264.832 194.778 265.273 194.82 265.425 195.056C265.619 195.357 265.305 195.898 265.234 196.018C265.057 196.327 264.786 196.57 264.46 196.712Z" fill="#F4F7FA"/>
<path d="M141.75 214.568C141.013 214.847 129.776 219.319 127.465 231.058C127.279 232.006 125.474 242.091 132.307 249.222C139.97 257.21 154.726 257.013 160.583 250.335C161.948 248.771 162.669 247.051 163.072 245.6L161.529 241.491C159.646 239.216 157.081 238.676 155.713 238.339C152.338 237.507 149.79 239.011 147.856 237.377C146.786 236.476 146.573 235.178 146.383 234.02C145.737 230.073 147.964 227.645 148.125 225.209C148.245 223.39 148.883 219.402 146.51 216.803C145.007 215.161 142.926 214.712 141.75 214.568Z" fill="url(#paint50_linear_1_81)"/>
<path d="M137.37 345.387C137.239 344.665 134.907 344.011 133.754 344.978C133.18 345.459 132.785 346.433 133.117 346.874C133.237 347.034 132.743 347.315 133.216 347.32C134.787 347.338 137.501 346.105 137.37 345.387Z" fill="url(#paint51_linear_1_81)"/>
<path d="M134.927 345.651L132.529 345.311C133.639 343.972 133.434 339.709 133.434 339.709L135.984 340.278C135.984 340.278 135.694 341.449 135.2 343.175C135.03 343.766 134.954 344.691 134.927 345.651Z" fill="url(#paint52_linear_1_81)"/>
<path d="M135.14 345.354C135.14 345.354 132.255 344.689 131.94 345.262C131.625 345.834 131.385 347.369 133.217 347.32C135.048 347.271 135.302 345.84 135.14 345.354Z" fill="url(#paint53_linear_1_81)"/>
<path d="M170.275 348.097C170.044 347.399 167.644 347.078 166.637 348.199C166.135 348.755 165.881 349.775 166.276 350.164C166.418 350.306 165.967 350.653 166.437 350.593C167.99 350.391 170.504 348.79 170.275 348.097Z" fill="url(#paint54_linear_1_81)"/>
<path d="M167.891 348.7H165.47C166.383 347.219 165.583 343.026 165.583 343.026L168.188 343.233C168.188 343.233 168.068 344.435 167.816 346.211C167.73 346.82 167.786 347.746 167.891 348.7Z" fill="url(#paint55_linear_1_81)"/>
<path d="M174.169 257.037C175.868 262.664 177.124 268.415 177.923 274.239C180.866 295.65 174.613 296.338 175.78 320.069C176.153 327.647 169.223 345.112 168.612 345.498C168.293 345.531 167.972 345.543 167.651 345.535C166.823 345.506 166.002 345.369 165.21 345.128C164.111 344.938 160.153 334.21 161.07 327.83C161.721 323.315 161.532 318.47 161.156 308.778C161.094 307.209 157.08 278.225 157.08 278.225C155.859 288.951 154.455 298.065 153.234 305.132C149.323 327.836 136.605 341.58 135.941 341.798C135.81 341.85 134.619 342.285 133.641 341.641C133.389 341.481 133.187 341.254 133.059 340.984C132.719 340.719 133.16 318.318 137.038 301.46C142.669 276.991 140.217 271.267 142.001 260.336C143.552 250.884 174.169 257.037 174.169 257.037Z" fill="url(#paint56_linear_1_81)"/>
<path d="M175.676 260.735C172.295 262.471 163.587 265.584 153.208 264.037C149.381 263.462 145.677 262.255 142.245 260.467C142.165 260.426 142.083 260.386 142.005 260.346C144.702 252.186 142.589 247.821 141.591 243.796C140.168 238.058 140.149 238.492 138.977 233.932C137.047 226.409 136.731 218.724 138.057 217.154C141.632 212.914 148.078 212.76 151.423 212.658C155.161 212.548 163.756 211.23 168.49 215.491C168.571 215.563 167.602 216.082 168.08 216.643C169.342 218.134 170.461 219.741 171.421 221.443C172.418 223.224 173.323 225.301 174.23 228.393C175.385 232.35 176.128 236.415 176.448 240.525C176.497 241.196 176.542 241.844 176.582 242.469C177.209 252.522 176.411 257.375 175.676 260.735Z" fill="url(#paint57_linear_1_81)"/>
<path d="M168.061 348.377C168.061 348.377 165.109 348.122 164.881 348.738C164.652 349.354 164.626 350.903 166.432 350.598C168.239 350.292 168.29 348.836 168.061 348.377Z" fill="url(#paint58_linear_1_81)"/>
<path d="M162.184 207.876C163.203 205.84 162.532 203.643 162.382 203.169C161.756 201.183 161.554 200.89 161.149 200.488L160.58 199.965C160.58 199.965 160.545 199.942 160.508 199.92C160.122 199.693 158.718 199.377 158.42 199.383C157.469 199.402 155.776 202.941 155.037 208.264C154.961 208.457 154.885 208.653 154.81 208.851C154.346 210.079 153.957 211.282 153.633 212.451C147.263 213.442 146.422 214.255 146.422 214.693C146.422 215.613 150.148 216.414 152.927 216.625C158.978 217.083 165.025 215.072 164.919 213.956C164.872 213.475 163.638 212.919 158.513 212.609L158.693 210.061C159.103 209.941 161.434 209.375 162.184 207.876Z" fill="url(#paint59_linear_1_81)"/>
<path d="M162.763 198.834C162.443 200.465 161.337 202.06 160.893 202.265C160.625 202.402 160.381 202.581 160.172 202.796C160.121 202.849 160.078 202.908 160.042 202.971C159.486 203.933 160.883 205.457 160.483 205.858C160.19 206.148 159.161 205.486 158.977 205.748C158.793 206.011 159.615 206.737 159.411 207.035C159.257 207.26 158.732 206.926 158.301 207.233C158.086 207.385 158.11 207.544 157.811 208.075C157.655 208.358 157.473 208.627 157.269 208.878C156.52 209.729 154.856 209.77 154.625 209.327C154.56 209.207 154.651 209.127 154.633 208.752C154.611 208.486 154.552 208.225 154.459 207.975C154.235 207.361 153.513 206.815 152.821 206.08C151.538 204.719 151.31 203.725 151.249 203.392C151.226 203.272 151.215 203.185 151.208 203.122C151.053 201.844 151.392 200.076 152.142 199.094C153.399 197.447 155.274 198.707 157.294 197.226C159.625 195.518 159.025 192.45 160.132 192.339C161.355 192.219 163.355 195.817 162.763 198.834Z" fill="#26264F"/>
<path d="M159.976 205.36C159.681 204.733 158.88 205.119 158.738 205.824C158.596 206.529 159.143 207.408 159.838 207.396C160.532 207.384 160.37 206.204 159.976 205.36Z" fill="url(#paint60_linear_1_81)"/>
<path style="mix-blend-mode:multiply" opacity="0.3" d="M175.676 260.735C172.295 262.471 163.587 265.584 153.208 264.037C149.381 263.462 145.677 262.255 142.245 260.467C143.447 259.529 144.934 257.959 147.387 255.294C150.358 252.064 153.841 253.27 155.888 254.487C156.613 254.916 157.437 255.147 158.279 255.159C159.121 255.171 159.952 254.963 160.688 254.555C161.425 254.147 162.043 253.554 162.48 252.833C162.917 252.113 163.159 251.291 163.181 250.449C163.202 249.548 163.165 248.647 163.072 247.751C162.371 240.402 172.543 239.778 172.543 239.778C173.978 239.031 175.34 240.236 176.581 242.473C177.209 252.521 176.411 257.375 175.676 260.735Z" fill="url(#paint61_linear_1_81)"/>
<path d="M211.235 227.996C210.827 228.036 210.332 228.451 209.983 228.648C209.488 228.929 208.99 229.205 208.485 229.468C207.512 229.976 206.479 230.352 205.36 230.332C205.394 230.17 205.443 230.013 205.508 229.862C205.697 229.42 205.946 229.038 205.798 228.899C205.585 228.707 204.65 229.104 203.787 229.931C203.412 230.285 203.088 230.69 202.826 231.134C202.386 231.886 202.465 232.296 202.091 232.869C201.543 233.361 201.13 233.47 201.13 233.47V233.627L201.192 233.819C200.743 234.144 200.244 234.394 199.715 234.559C200.478 234.763 201.224 234.973 201.982 235.181L202.508 236.061C202.508 236.061 205.383 235.46 207.118 234.406C207.928 233.912 208.207 233.301 208.275 232.795C208.311 232.524 208.296 232.249 208.231 231.983C208.212 231.911 208.189 231.84 208.162 231.771C208.162 231.771 210.53 230.787 211.465 228.657C211.62 228.34 211.634 227.962 211.235 227.996Z" fill="url(#paint62_linear_1_81)"/>
<path d="M201.206 232.588C202.556 233.535 203.282 234.821 203.657 235.641C202.663 237.976 200.412 242.311 195.744 245.505C188.094 250.744 176.874 250.918 169.062 244.946C159.727 237.809 158.168 224.122 162.091 218.261C162.542 217.586 164.026 215.374 166.33 215.113C167.784 214.953 169.764 215.553 172.892 219.218C179.412 226.857 177.109 231.626 180.96 233.861C186.735 237.214 195.316 228.464 201.206 232.588Z" fill="url(#paint63_linear_1_81)"/>
<path d="M71.8041 90.2651C72.2272 77.974 82.6837 67.6231 95.0957 67.1528C107.434 66.6849 117.047 76.1661 116.633 88.3237C116.218 100.481 105.932 110.835 93.5886 111.436C81.1705 112.037 71.3859 102.565 71.8041 90.2651Z" fill="url(#paint64_linear_1_81)"/>
<path d="M46.5223 88.2767L46.3192 94.2598C46.2591 96.016 47.6666 97.3729 49.461 97.2935L52.7205 97.148C53.0208 99.9297 53.6378 102.668 54.5594 105.31L51.8059 106.964C50.2326 107.913 49.6317 109.879 50.473 111.355L53.3491 116.382C54.1905 117.856 58.2637 118.731 59.8394 117.78L60.3358 115.753C62.0814 117.934 64.078 119.902 66.284 121.616L64.778 124.111C63.8357 125.674 64.2972 127.577 65.8104 128.371L70.9558 131.074C72.463 131.865 77.3571 131.988 78.2946 130.432L76.8258 127.291C79.5585 128.219 82.388 128.832 85.2596 129.118L85.1694 131.765C85.1105 133.504 86.4915 134.837 88.2535 134.743L94.2498 134.422C96.0058 134.328 97.4757 132.846 97.5346 131.112L97.6247 128.465C100.546 127.865 103.396 126.959 106.128 125.763L107.395 128.003C108.217 129.456 113.263 130.203 114.801 129.259L116.908 125.711C118.443 124.769 119.023 122.832 118.205 121.38L116.896 119.056C119.172 117.14 121.251 115 123.103 112.67L125.535 113.974C127.005 114.761 131.358 115.164 132.274 113.63L132.97 107.399C133.882 105.868 133.435 103.986 131.97 103.196L129.414 101.831C130.472 99.1834 131.252 96.4328 131.739 93.6235L134.879 93.484C136.602 93.407 138.047 91.9515 138.105 90.2362L138.304 84.3781C138.324 83.9784 138.259 83.5789 138.115 83.2059C137.97 82.8329 137.748 82.4946 137.464 82.2132C137.179 81.9318 136.839 81.7136 136.464 81.5728C136.09 81.432 135.69 81.3718 135.291 81.3961L131.962 81.5309C131.593 78.8642 130.932 76.2464 129.988 73.7253L133.031 71.8897C134.556 70.9707 135.131 69.0449 134.32 67.5882L134.899 61.7674C134.086 60.3083 128.84 60.7209 127.312 61.6375L124.111 63.5621C122.447 61.5464 120.565 59.7206 118.501 58.1178L120.472 54.8436C121.391 53.3183 120.94 51.425 119.466 50.6142L117.271 47.4422C115.791 46.6291 111.002 47.6142 110.079 49.1431L108.051 52.4943C105.527 51.6298 102.919 51.0346 100.27 50.7189L100.401 46.8781C100.46 45.1435 99.0862 43.7842 97.3315 43.842L91.3376 44.0368C89.5768 44.0946 88.1009 45.5513 88.042 47.2906L87.911 51.1399C85.1771 51.6533 82.5003 52.4349 79.9195 53.4735L81.1106 49.4113C80.2753 47.9306 75.3115 48.2987 73.7466 49.2225L68.3993 52.3741C66.8296 53.3015 66.2359 55.261 67.0772 56.7369L68.8741 59.9138C66.6371 61.6954 64.576 63.6877 62.7191 65.8632L62.8526 63.8316C61.3346 63.0136 56.0294 63.9302 55.0835 65.4819L51.8552 70.7782C50.9069 72.3312 51.3744 74.2522 52.8948 75.0677L55.9272 76.6916C54.7836 79.3056 53.9135 82.031 53.3311 84.8244L49.8805 84.9687C48.086 85.0373 46.5824 86.5216 46.5223 88.2767ZM61.7865 91.2081C62.3622 74.2799 76.7621 60.0292 93.8532 59.3809C110.838 58.7373 124.073 71.7899 123.503 88.5329C122.933 105.276 108.765 119.516 91.7763 120.344C74.6781 121.179 61.2084 108.135 61.7841 91.2081H61.7865Z" fill="url(#paint65_linear_1_81)"/>
<path d="M50.5377 88.2262L50.3346 94.2093C50.2745 95.9643 51.6819 97.3224 53.4752 97.243L56.7359 97.0975C57.0374 99.8794 57.6556 102.618 58.5784 105.259L55.8249 106.912C54.242 107.861 53.6446 109.829 54.4896 111.305L57.3657 116.332C58.2071 117.804 60.1722 118.226 61.749 117.275L64.3548 115.703C66.1008 117.884 68.0977 119.852 70.3042 121.565L68.797 124.059C67.8559 125.623 68.3162 127.527 69.8306 128.321L74.976 131.023C76.4831 131.814 78.4615 131.193 79.4025 129.637L80.8448 127.241C83.5761 128.17 86.4044 128.785 89.2749 129.073L89.1848 131.719C89.1259 133.458 90.5069 134.791 92.2689 134.697L98.264 134.376C100.02 134.281 101.49 132.799 101.55 131.065L101.639 128.418C104.56 127.818 107.411 126.912 110.144 125.717L111.409 127.964C112.23 129.417 114.145 129.828 115.684 128.885L120.922 125.672C122.456 124.73 123.036 122.792 122.219 121.342L120.911 119.014C123.187 117.101 125.266 114.965 127.118 112.639L129.551 113.943C131.021 114.729 132.953 114.124 133.869 112.591L136.984 107.367C137.898 105.835 137.451 103.955 135.986 103.165L133.429 101.786C134.487 99.1389 135.267 96.3883 135.755 93.579L138.894 93.4395C140.618 93.3625 142.062 91.907 142.12 90.1917L142.32 84.3324C142.339 83.9327 142.274 83.5333 142.129 83.1603C141.984 82.7873 141.762 82.4491 141.478 82.1678C141.194 81.8865 140.853 81.6684 140.479 81.5278C140.104 81.3872 139.704 81.3271 139.305 81.3516L135.982 81.484C135.613 78.8159 134.95 76.1969 134.005 73.6748L137.048 71.8392C138.571 70.919 139.148 68.9944 138.336 67.5377L135.567 62.5685C134.755 61.1094 132.857 60.6692 131.329 61.587L128.128 63.5116C126.461 61.4963 124.577 59.6713 122.51 58.0697L124.482 54.7967C125.402 53.2714 124.951 51.3781 123.476 50.5673L118.441 47.8007C116.963 46.9875 115.015 47.5661 114.092 49.0938L112.064 52.4486C109.54 51.5841 106.932 50.9889 104.283 50.6732L104.414 46.8324C104.473 45.0978 103.099 43.7385 101.344 43.7963L95.3529 43.9923C93.5922 44.0513 92.1162 45.5068 92.0573 47.2474L91.9263 51.0966C89.1914 51.6098 86.5134 52.391 83.9313 53.429L82.102 50.1812C81.2679 48.7016 79.3232 48.2506 77.7571 49.1744L72.4123 52.3296C70.8414 53.257 70.2489 55.2105 71.0902 56.6924L72.8931 59.8693C70.6563 61.6508 68.5953 63.6426 66.7381 65.8175L63.5651 64.107C62.0483 63.2891 60.0508 63.8821 59.1049 65.4302L55.8778 70.7229C54.9295 72.2771 55.397 74.1981 56.9174 75.0136L59.9486 76.6375C58.8059 79.2517 57.9363 81.9771 57.3537 84.7703L53.9018 84.9146C52.1014 84.9868 50.593 86.4699 50.5377 88.2262ZM64.4906 91.2129C65.0915 73.5678 80.1008 58.7121 97.9166 58.0373C115.625 57.3661 129.421 70.9731 128.827 88.4258C128.233 105.879 113.469 120.722 95.7544 121.586C77.9314 122.456 63.8896 108.859 64.4906 91.2129Z" fill="url(#paint66_linear_1_81)"/>
<path d="M74.2442 90.7907C74.6624 78.4948 85.1214 68.1439 97.5358 67.6736C109.874 67.2056 119.487 76.6868 119.073 88.8444C118.658 101.002 108.372 111.352 96.025 111.954C83.6106 112.559 73.8259 103.087 74.2442 90.7907Z" fill="url(#paint67_linear_1_81)"/>
<path d="M148.507 103.576L148.428 105.903C148.421 106.063 148.449 106.223 148.508 106.372C148.568 106.521 148.658 106.655 148.774 106.767C148.889 106.878 149.027 106.964 149.177 107.019C149.328 107.073 149.489 107.095 149.649 107.083L150.916 107.026C151.035 108.107 151.277 109.172 151.637 110.198L150.566 110.84C149.952 111.21 149.725 111.975 150.047 112.549L151.166 114.502C151.493 115.075 153.076 115.415 153.69 115.046L153.883 114.258C154.562 115.106 155.338 115.871 156.196 116.537L155.61 117.507C155.25 118.108 155.424 118.854 156.012 119.163L158.012 120.213C158.597 120.521 160.5 120.568 160.864 119.963L160.293 118.743C161.355 119.104 162.455 119.343 163.57 119.456L163.536 120.485C163.528 120.643 163.555 120.801 163.613 120.948C163.671 121.095 163.76 121.227 163.874 121.337C163.988 121.447 164.124 121.531 164.273 121.584C164.422 121.637 164.58 121.657 164.738 121.644L167.068 121.523C167.401 121.502 167.715 121.359 167.95 121.122C168.186 120.885 168.326 120.57 168.346 120.236L168.381 119.209C169.516 118.976 170.624 118.624 171.686 118.159L172.179 119.029C172.497 119.594 174.462 119.884 175.063 119.517L175.882 118.138C176.483 117.778 176.704 117.019 176.386 116.454L175.877 115.552C176.762 114.807 177.57 113.975 178.29 113.069L179.236 113.576C179.807 113.883 181.499 114.039 181.855 113.442L182.125 111.02C182.486 110.425 182.307 109.697 181.737 109.387L180.743 108.851C181.155 107.822 181.458 106.753 181.647 105.661L182.868 105.607C183.194 105.584 183.5 105.442 183.728 105.208C183.956 104.975 184.091 104.665 184.106 104.339L184.183 102.062C184.191 101.906 184.166 101.751 184.109 101.606C184.053 101.461 183.967 101.33 183.857 101.22C183.746 101.111 183.614 101.026 183.468 100.971C183.323 100.916 183.168 100.893 183.012 100.902L181.719 100.956C181.576 99.9199 181.319 98.9024 180.952 97.9227L182.135 97.2081C182.728 96.8473 182.952 96.1027 182.636 95.5373L182.861 93.2735C182.545 92.7069 180.506 92.8669 179.913 93.223L178.668 93.97C178.02 93.1869 177.287 92.4777 176.484 91.8553L177.251 90.5826C177.611 89.9896 177.433 89.2534 176.86 88.9383L176.008 87.7041C175.432 87.3878 173.57 87.7703 173.212 88.3645L172.424 89.6636C171.442 89.3275 170.428 89.096 169.399 88.9732L169.45 87.4804C169.457 87.3224 169.43 87.1648 169.372 87.0177C169.315 86.8706 169.227 86.7372 169.114 86.6261C169.002 86.515 168.868 86.4286 168.72 86.3725C168.572 86.3164 168.414 86.2918 168.257 86.3004L165.927 86.3773C165.595 86.3904 165.279 86.5272 165.042 86.7611C164.805 86.9949 164.664 87.309 164.646 87.6416L164.596 89.1392C163.533 89.3385 162.492 89.6419 161.488 90.0449L161.95 88.4656C161.626 87.8906 159.697 88.0337 159.089 88.3934L157.011 89.6191C156.4 89.98 156.169 90.739 156.495 91.3152L157.193 92.5506C156.324 93.2427 155.523 94.0169 154.801 94.8625L154.853 94.071C154.264 93.7535 152.202 94.1095 151.834 94.7134L150.579 96.7691C150.211 97.3705 150.392 98.1199 150.983 98.4363L152.162 99.0678C151.718 100.084 151.38 101.143 151.154 102.229L149.811 102.286C149.473 102.301 149.152 102.442 148.911 102.68C148.67 102.918 148.526 103.238 148.507 103.576ZM157.107 104.6C157.281 99.4828 161.633 95.1753 166.799 94.9768C171.935 94.7819 175.933 98.7274 175.763 103.789C175.592 108.851 171.316 113.154 166.173 113.405C161.004 113.659 156.932 109.717 157.107 104.6Z" fill="url(#paint68_linear_1_81)"/>
<path d="M150.067 103.556L149.987 105.882C149.981 106.042 150.009 106.202 150.069 106.351C150.129 106.5 150.219 106.634 150.334 106.745C150.45 106.857 150.587 106.942 150.738 106.997C150.888 107.051 151.049 107.073 151.209 107.061L152.477 107.005C152.595 108.086 152.836 109.151 153.198 110.178L152.127 110.82C151.512 111.189 151.286 111.953 151.608 112.527L152.725 114.482C153.054 115.054 153.817 115.218 154.43 114.843L155.443 114.231C156.121 115.079 156.898 115.844 157.755 116.51L157.169 117.479C156.808 118.081 156.983 118.828 157.57 119.136L159.571 120.186C160.157 120.494 160.927 120.252 161.291 119.648L161.853 118.716C162.914 119.077 164.013 119.316 165.129 119.428L165.094 120.459C165.087 120.617 165.113 120.774 165.172 120.921C165.23 121.068 165.319 121.2 165.433 121.31C165.547 121.419 165.683 121.503 165.832 121.556C165.98 121.609 166.139 121.629 166.296 121.616L168.627 121.496C168.957 121.473 169.268 121.331 169.502 121.096C169.736 120.86 169.875 120.548 169.896 120.217L169.931 119.189C171.066 118.956 172.174 118.604 173.236 118.138L173.729 119.009C174.048 119.573 174.792 119.731 175.391 119.37L177.427 118.122C178.028 117.761 178.249 117.003 177.93 116.438L177.422 115.534C178.307 114.789 179.115 113.958 179.835 113.053L180.78 113.559C181.352 113.865 182.102 113.63 182.463 113.033L183.674 111.003C184.035 110.401 183.855 109.68 183.285 109.369L182.291 108.834C182.703 107.805 183.006 106.735 183.196 105.643L184.416 105.589C184.744 105.57 185.053 105.431 185.285 105.198C185.516 104.964 185.653 104.654 185.669 104.326L185.748 102.047C185.755 101.892 185.73 101.737 185.674 101.592C185.618 101.447 185.531 101.315 185.421 101.206C185.31 101.096 185.178 101.012 185.032 100.957C184.886 100.903 184.731 100.879 184.576 100.889L183.284 100.943C183.141 99.9063 182.884 98.8885 182.517 97.9083L183.7 97.1949C184.292 96.8341 184.516 96.0895 184.201 95.5229L183.119 93.5911C182.803 93.0245 182.065 92.8537 181.471 93.2098L180.227 93.9568C179.58 93.1691 178.848 92.4555 178.045 91.8289L178.811 90.5574C179.172 89.9644 178.993 89.2342 178.42 88.9131L176.463 87.8305C175.888 87.5141 175.131 87.739 174.772 88.3333L173.985 89.6372C173.003 89.3011 171.989 89.0697 170.959 88.9467L171.01 87.4539C171.017 87.296 170.99 87.1385 170.933 86.9914C170.875 86.8442 170.787 86.7108 170.675 86.5997C170.563 86.4886 170.428 86.4022 170.281 86.3461C170.133 86.29 169.975 86.2654 169.818 86.2739L167.488 86.3497C167.156 86.363 166.84 86.5001 166.603 86.7342C166.366 86.9682 166.225 87.2824 166.207 87.6151L166.155 89.1115C165.093 89.3111 164.052 89.6149 163.049 90.0185L162.337 88.7567C162.014 88.1817 161.255 88.0061 160.654 88.3657L158.576 89.5927C157.967 89.9536 157.735 90.7126 158.062 91.2888L158.76 92.5229C157.888 93.2184 157.084 93.9963 156.36 94.8457L155.127 94.1805C154.537 93.8617 153.761 94.0927 153.394 94.6953L152.139 96.7523C151.77 97.3537 151.951 98.1019 152.543 98.4195L153.722 99.051C153.277 100.067 152.938 101.126 152.712 102.212L151.371 102.269C151.033 102.284 150.713 102.424 150.472 102.662C150.231 102.9 150.087 103.218 150.067 103.556ZM158.666 104.579C158.841 99.4636 163.193 95.156 168.36 94.9564C173.494 94.7615 177.494 98.707 177.322 103.768C177.15 108.828 172.869 113.133 167.732 113.383C162.564 113.64 158.492 109.697 158.666 104.579Z" fill="url(#paint69_linear_1_81)"/>
<path d="M216.076 347.407C212.47 347.12 207.847 346.116 203.415 343.216C198.619 340.079 192.373 333.63 194.003 329.566C194.612 328.048 196.364 326.749 197.904 326.873C200.18 327.056 200.445 330.22 204.394 333.661C205.125 334.297 208.901 337.586 210.779 336.478C211.711 335.927 211.988 334.401 211.835 333.24C211.391 329.847 207.251 329.326 203.272 325.652C199.237 321.923 195.874 315.428 197.796 311.04C198.902 308.514 201.823 306.523 203.744 307.083C204.565 307.324 205.085 307.994 207.578 313.383C209.621 317.806 210.079 319.095 211.398 319.518C212.755 319.949 214.866 319.407 215.668 318.074C217.757 314.586 208.727 309.441 207.907 299.684C207.54 295.312 208.722 288.832 212.678 287.443C215.352 286.504 219.168 287.938 220.539 290.393C221.782 292.608 220.273 294.273 221.221 299.245C221.508 300.755 222.099 303.86 223.348 304.023C224.813 304.214 226.453 300.254 226.834 299.291C229.687 292.03 226.415 288.298 229.107 284.773C231.204 282.026 235.769 280.924 239.385 282.31C242.549 283.525 245.081 286.682 245.249 289.957C245.421 293.286 242.623 296.603 237.025 303.233C234.371 306.377 232.258 308.503 232.378 311.628C232.437 313.152 233.04 315.294 234.132 315.49C236.535 315.922 237.722 306.228 243.426 304.726C246.345 303.958 249.974 305.465 251.568 308.1C253.521 311.326 252.212 315.9 249.759 318.305C246.557 321.443 243.269 319.059 237.249 322.43C234.576 323.925 230.376 327.105 230.991 329.736C231.259 330.881 232.459 332.002 233.775 332.153C236.725 332.487 237.7 327.648 242.443 325.521C245.861 323.987 250.587 324.153 251.709 326.083C253.294 328.806 247.665 334.984 244.674 337.72C241.056 341.014 232.524 347.277 216.076 347.407Z" fill="url(#paint70_linear_1_81)"/>
<g style="mix-blend-mode:soft-light" opacity="0.5">
<path d="M217.696 345.856C217.215 337.762 222.575 321.275 226.47 313.48C230.283 305.854 233.931 293.788 233.968 293.668L234.209 293.739C234.173 293.859 230.518 305.946 226.696 313.586C222.81 321.357 217.469 337.782 217.943 345.836L217.696 345.856Z" fill="white"/>
</g>
<path d="M207.561 348.463C204.843 344.686 200.857 337.871 200.142 328.753C199.847 324.997 199.271 317.66 203.756 311.331C205.991 308.176 210.727 303.512 213.936 304.857C215.996 305.722 217.276 309.016 216.7 311.521C216.114 314.047 213.98 314.28 211.652 318.566C210.793 320.153 209.811 322.014 210.571 323.066C211.2 323.944 212.931 324.104 214.228 323.577C216.908 322.495 216.072 319.15 218.969 316.753C221.029 315.05 224.465 314.249 225.94 315.644C227.228 316.856 227.003 319.686 225.866 321.572C224.045 324.594 220.779 323.707 218.655 327.009C217.71 328.476 217.039 330.688 217.865 331.563C218.807 332.559 221.579 331.698 223.355 330.601C225.701 329.147 225.788 327.594 227.332 327.404C229.055 327.187 231.21 328.829 231.546 330.652C232.017 333.196 228.902 335.944 226.428 337.133C223.266 338.659 220.917 337.763 219.373 339.848C218.806 340.614 218.292 341.862 218.752 342.62C219.414 343.703 221.811 343.342 223.403 343.109C227.276 342.531 228.342 341.125 229.73 341.808C231.118 342.492 231.86 344.836 231.252 346.474C230.914 347.384 229.9 348.795 224.873 349.678C221.356 350.285 215.445 350.719 207.561 348.463Z" fill="url(#paint71_linear_1_81)"/>
<defs>
<filter id="filter0_d_1_81" x="0.675293" y="0" width="386.145" height="380.664" filterUnits="userSpaceOnUse" color-interpolation-filters="sRGB">
<feFlood flood-opacity="0" result="BackgroundImageFix"/>
<feColorMatrix in="SourceAlpha" type="matrix" values="0 0 0 0 0 0 0 0 0 0 0 0 0 0 0 0 0 0 127 0" result="hardAlpha"/>
<feOffset dx="4"/>
<feGaussianBlur stdDeviation="15"/>
<feColorMatrix type="matrix" values="0 0 0 0 0.121569 0 0 0 0 0.121569 0 0 0 0 0.207843 0 0 0 1 0"/>
<feBlend mode="normal" in2="BackgroundImageFix" result="effect1_dropShadow_1_81"/>
<feBlend mode="normal" in="SourceGraphic" in2="effect1_dropShadow_1_81" result="shape"/>
</filter>
<linearGradient id="paint0_linear_1_81" x1="210.709" y1="66.2843" x2="109.817" y2="415.239" gradientUnits="userSpaceOnUse">
<stop stop-color="#AB316D"/>
<stop offset="1" stop-color="#792D3D"/>
</linearGradient>
<linearGradient id="paint1_linear_1_81" x1="217.186" y1="66.2843" x2="116.294" y2="415.239" gradientUnits="userSpaceOnUse">
<stop stop-color="#FFC444"/>
<stop offset="1" stop-color="#F36F56"/>
</linearGradient>
<linearGradient id="paint2_linear_1_81" x1="284072" y1="48138.3" x2="91038.3" y2="656681" gradientUnits="userSpaceOnUse">
<stop stop-color="#FFC444"/>
<stop offset="1" stop-color="#F36F56"/>
</linearGradient>
<linearGradient id="paint3_linear_1_81" x1="215.332" y1="77.1681" x2="124.559" y2="391.123" gradientUnits="userSpaceOnUse">
<stop stop-color="white"/>
<stop offset="1" stop-color="#EBEFF2"/>
</linearGradient>
<linearGradient id="paint4_linear_1_81" x1="258051" y1="99257.2" x2="153989" y2="448841" gradientUnits="userSpaceOnUse">
<stop stop-color="#FFC444"/>
<stop offset="1" stop-color="#F36F56"/>
</linearGradient>
<linearGradient id="paint5_linear_1_81" x1="139254" y1="132310" x2="73721.9" y2="313274" gradientUnits="userSpaceOnUse">
<stop stop-color="#FFC444"/>
<stop offset="1" stop-color="#F36F56"/>
</linearGradient>
<linearGradient id="paint6_linear_1_81" x1="179602" y1="93237.2" x2="126536" y2="271443" gradientUnits="userSpaceOnUse">
<stop stop-color="white"/>
<stop offset="1" stop-color="#EBEFF2"/>
</linearGradient>
<linearGradient id="paint7_linear_1_81" x1="104683" y1="69375.3" x2="85585.3" y2="133492" gradientUnits="userSpaceOnUse">
<stop stop-color="#FFC444"/>
<stop offset="1" stop-color="#F36F56"/>
</linearGradient>
<linearGradient id="paint8_linear_1_81" x1="63517.1" y1="68210.4" x2="46674.4" y2="109788" gradientUnits="userSpaceOnUse">
<stop stop-color="#FFC444"/>
<stop offset="1" stop-color="#F36F56"/>
</linearGradient>
<linearGradient id="paint9_linear_1_81" x1="71150.4" y1="8903.64" x2="78757.2" y2="5479.25" gradientUnits="userSpaceOnUse">
<stop stop-color="#FFC444"/>
<stop offset="1" stop-color="#F36F56"/>
</linearGradient>
<linearGradient id="paint10_linear_1_81" x1="194.793" y1="173.958" x2="227.733" y2="160.581" gradientUnits="userSpaceOnUse">
<stop stop-color="#444B8C"/>
<stop offset="1" stop-color="#26264F"/>
</linearGradient>
<linearGradient id="paint11_linear_1_81" x1="76388.2" y1="-6891.14" x2="85276.6" y2="-10892.5" gradientUnits="userSpaceOnUse">
<stop stop-color="#FFC444"/>
<stop offset="1" stop-color="#F36F56"/>
</linearGradient>
<linearGradient id="paint12_linear_1_81" x1="80010" y1="-7335.79" x2="89985.9" y2="-11826.7" gradientUnits="userSpaceOnUse">
<stop stop-color="#AB316D"/>
<stop offset="1" stop-color="#792D3D"/>
</linearGradient>
<linearGradient id="paint13_linear_1_81" x1="74101.3" y1="9034.78" x2="82600.4" y2="5208.65" gradientUnits="userSpaceOnUse">
<stop stop-color="#AB316D"/>
<stop offset="1" stop-color="#792D3D"/>
</linearGradient>
<linearGradient id="paint14_linear_1_81" x1="45555" y1="18912.7" x2="47830.9" y2="23689.1" gradientUnits="userSpaceOnUse">
<stop stop-color="#AB316D"/>
<stop offset="1" stop-color="#792D3D"/>
</linearGradient>
<linearGradient id="paint15_linear_1_81" x1="37645.4" y1="1506.07" x2="38681.4" y2="3744.79" gradientUnits="userSpaceOnUse">
<stop stop-color="#AB316D"/>
<stop offset="1" stop-color="#792D3D"/>
</linearGradient>
<linearGradient id="paint16_linear_1_81" x1="237.904" y1="142.173" x2="310.541" y2="142.173" gradientUnits="userSpaceOnUse">
<stop stop-color="#AA80F9"/>
<stop offset="1" stop-color="#6165D7"/>
</linearGradient>
<linearGradient id="paint17_linear_1_81" x1="124360" y1="33456.7" x2="164698" y2="33456.7" gradientUnits="userSpaceOnUse">
<stop stop-color="#AA80F9"/>
<stop offset="1" stop-color="#6165D7"/>
</linearGradient>
<linearGradient id="paint18_linear_1_81" x1="9919.68" y1="6532.3" x2="10061.1" y2="6532.3" gradientUnits="userSpaceOnUse">
<stop stop-color="#AA80F9"/>
<stop offset="1" stop-color="#6165D7"/>
</linearGradient>
<linearGradient id="paint19_linear_1_81" x1="-25559" y1="6745.67" x2="-25557.1" y2="6176.32" gradientUnits="userSpaceOnUse">
<stop stop-color="#444B8C"/>
<stop offset="1" stop-color="#26264F"/>
</linearGradient>
<linearGradient id="paint20_linear_1_81" x1="-7923.66" y1="9718.17" x2="-7812.01" y2="8797.82" gradientUnits="userSpaceOnUse">
<stop stop-color="#FFC444"/>
<stop offset="1" stop-color="#F36F56"/>
</linearGradient>
<linearGradient id="paint21_linear_1_81" x1="-10979.6" y1="9745.8" x2="-10863.7" y2="8790.43" gradientUnits="userSpaceOnUse">
<stop stop-color="#FFC444"/>
<stop offset="1" stop-color="#F36F56"/>
</linearGradient>
<linearGradient id="paint22_linear_1_81" x1="-19956.9" y1="14863.5" x2="-20105.3" y2="13886" gradientUnits="userSpaceOnUse">
<stop stop-color="#444B8C"/>
<stop offset="1" stop-color="#26264F"/>
</linearGradient>
<linearGradient id="paint23_linear_1_81" x1="101.2" y1="272.765" x2="89.992" y2="340.004" gradientUnits="userSpaceOnUse">
<stop stop-color="#311944"/>
<stop offset="1" stop-color="#A03976"/>
</linearGradient>
<linearGradient id="paint24_linear_1_81" x1="101.2" y1="272.765" x2="89.9918" y2="340.004" gradientUnits="userSpaceOnUse">
<stop stop-color="#FF9085"/>
<stop offset="1" stop-color="#FB6FBB"/>
</linearGradient>
<linearGradient id="paint25_linear_1_81" x1="-57433.1" y1="203402" x2="-66728.6" y2="203289" gradientUnits="userSpaceOnUse">
<stop stop-color="#311944"/>
<stop offset="1" stop-color="#A03976"/>
</linearGradient>
<linearGradient id="paint26_linear_1_81" x1="98.7846" y1="243.294" x2="22.7356" y2="409.59" gradientUnits="userSpaceOnUse">
<stop stop-color="#E38DDD"/>
<stop offset="1" stop-color="#9571F6"/>
</linearGradient>
<linearGradient id="paint27_linear_1_81" x1="-326212" y1="-8371.25" x2="-336174" y2="9136.28" gradientUnits="userSpaceOnUse">
<stop stop-color="#E38DDD"/>
<stop offset="1" stop-color="#9571F6"/>
</linearGradient>
<linearGradient id="paint28_linear_1_81" x1="116.395" y1="208.567" x2="107.966" y2="219.105" gradientUnits="userSpaceOnUse">
<stop stop-color="#FFC444"/>
<stop offset="0.46" stop-color="#FFC244"/>
<stop offset="0.63" stop-color="#FEBB46"/>
<stop offset="0.75" stop-color="#FCB048"/>
<stop offset="0.84" stop-color="#FA9F4C"/>
<stop offset="0.93" stop-color="#F78951"/>
<stop offset="1" stop-color="#F36F56"/>
</linearGradient>
<linearGradient id="paint29_linear_1_81" x1="-84284.8" y1="41040.4" x2="-87662.2" y2="45609.8" gradientUnits="userSpaceOnUse">
<stop stop-color="#444B8C"/>
<stop offset="1" stop-color="#26264F"/>
</linearGradient>
<linearGradient id="paint30_linear_1_81" x1="-66896.1" y1="33709.4" x2="-69223.3" y2="37461.9" gradientUnits="userSpaceOnUse">
<stop stop-color="#FFC444"/>
<stop offset="1" stop-color="#F36F56"/>
</linearGradient>
<linearGradient id="paint31_linear_1_81" x1="142.383" y1="238.84" x2="138.306" y2="243.936" gradientUnits="userSpaceOnUse">
<stop stop-color="#311944"/>
<stop offset="1" stop-color="#893976"/>
</linearGradient>
<linearGradient id="paint32_linear_1_81" x1="19827.6" y1="58435.3" x2="-2794" y2="97562.2" gradientUnits="userSpaceOnUse">
<stop stop-color="#E38DDD"/>
<stop offset="1" stop-color="#9571F6"/>
</linearGradient>
<linearGradient id="paint33_linear_1_81" x1="-234111" y1="76135.9" x2="-243282" y2="100513" gradientUnits="userSpaceOnUse">
<stop stop-color="#444B8C"/>
<stop offset="1" stop-color="#26264F"/>
</linearGradient>
<linearGradient id="paint34_linear_1_81" x1="27094.8" y1="12937.5" x2="27139.9" y2="14068.9" gradientUnits="userSpaceOnUse">
<stop stop-color="#AA80F9"/>
<stop offset="1" stop-color="#6165D7"/>
</linearGradient>
<linearGradient id="paint35_linear_1_81" x1="7537.28" y1="11464.5" x2="7515.87" y2="10485.9" gradientUnits="userSpaceOnUse">
<stop stop-color="#FFC444"/>
<stop offset="1" stop-color="#F36F56"/>
</linearGradient>
<linearGradient id="paint36_linear_1_81" x1="19094.5" y1="21655.8" x2="19301.6" y2="23576.3" gradientUnits="userSpaceOnUse">
<stop stop-color="#AA80F9"/>
<stop offset="1" stop-color="#6165D7"/>
</linearGradient>
<linearGradient id="paint37_linear_1_81" x1="11597.8" y1="16099.1" x2="11567.2" y2="14710.8" gradientUnits="userSpaceOnUse">
<stop stop-color="#FFC444"/>
<stop offset="1" stop-color="#F36F56"/>
</linearGradient>
<linearGradient id="paint38_linear_1_81" x1="43001.4" y1="147552" x2="25655.2" y2="151931" gradientUnits="userSpaceOnUse">
<stop stop-color="#311944"/>
<stop offset="1" stop-color="#A03976"/>
</linearGradient>
<linearGradient id="paint39_linear_1_81" x1="33839" y1="178684" x2="36143.7" y2="178684" gradientUnits="userSpaceOnUse">
<stop stop-color="#FF9085"/>
<stop offset="1" stop-color="#FB6FBB"/>
</linearGradient>
<linearGradient id="paint40_linear_1_81" x1="73980.9" y1="173876" x2="84759.2" y2="173876" gradientUnits="userSpaceOnUse">
<stop stop-color="#311944"/>
<stop offset="1" stop-color="#A03976"/>
</linearGradient>
<linearGradient id="paint41_linear_1_81" x1="297.603" y1="201.215" x2="332.026" y2="232.695" gradientUnits="userSpaceOnUse">
<stop stop-color="#26264F"/>
<stop offset="1" stop-color="#444B8C"/>
</linearGradient>
<linearGradient id="paint42_linear_1_81" x1="82061.6" y1="52387.9" x2="103093" y2="68567.2" gradientUnits="userSpaceOnUse">
<stop stop-color="#FF9085"/>
<stop offset="1" stop-color="#FB6FBB"/>
</linearGradient>
<linearGradient id="paint43_linear_1_81" x1="140139" y1="114067" x2="181556" y2="140581" gradientUnits="userSpaceOnUse">
<stop stop-color="#FF9085"/>
<stop offset="1" stop-color="#FB6FBB"/>
</linearGradient>
<linearGradient id="paint44_linear_1_81" x1="260.129" y1="231.408" x2="248.911" y2="249.987" gradientUnits="userSpaceOnUse">
<stop stop-color="#6165D7"/>
<stop offset="1" stop-color="#AA80F9"/>
</linearGradient>
<linearGradient id="paint45_linear_1_81" x1="50057" y1="48907" x2="56408.2" y2="48907" gradientUnits="userSpaceOnUse">
<stop stop-color="#26264F"/>
<stop offset="1" stop-color="#444B8C"/>
</linearGradient>
<linearGradient id="paint46_linear_1_81" x1="15040.3" y1="4635.79" x2="15007.9" y2="4918.42" gradientUnits="userSpaceOnUse">
<stop stop-color="#26264F"/>
<stop offset="1" stop-color="#444B8C"/>
</linearGradient>
<linearGradient id="paint47_linear_1_81" x1="36333.9" y1="47351.2" x2="39668.2" y2="47351.2" gradientUnits="userSpaceOnUse">
<stop stop-color="#26264F"/>
<stop offset="1" stop-color="#444B8C"/>
</linearGradient>
<linearGradient id="paint48_linear_1_81" x1="127107" y1="93378.7" x2="152230" y2="142084" gradientUnits="userSpaceOnUse">
<stop stop-color="#FF9085"/>
<stop offset="1" stop-color="#FB6FBB"/>
</linearGradient>
<linearGradient id="paint49_linear_1_81" x1="64464.1" y1="76460.7" x2="81921.3" y2="75401.6" gradientUnits="userSpaceOnUse">
<stop stop-color="#FF9085"/>
<stop offset="1" stop-color="#FB6FBB"/>
</linearGradient>
<linearGradient id="paint50_linear_1_81" x1="-18444.7" y1="75784.3" x2="-22108.1" y2="62842.6" gradientUnits="userSpaceOnUse">
<stop stop-color="#AA80F9"/>
<stop offset="1" stop-color="#6165D7"/>
</linearGradient>
<linearGradient id="paint51_linear_1_81" x1="-2132.54" y1="7270.61" x2="-2255.28" y2="7397.56" gradientUnits="userSpaceOnUse">
<stop stop-color="#444B8C"/>
<stop offset="1" stop-color="#26264F"/>
</linearGradient>
<linearGradient id="paint52_linear_1_81" x1="-82.254" y1="15725.3" x2="-26.6904" y2="15332.7" gradientUnits="userSpaceOnUse">
<stop stop-color="#FFC444"/>
<stop offset="1" stop-color="#F36F56"/>
</linearGradient>
<linearGradient id="paint53_linear_1_81" x1="-1701.65" y1="5947.82" x2="-1801.44" y2="6048.55" gradientUnits="userSpaceOnUse">
<stop stop-color="#444B8C"/>
<stop offset="1" stop-color="#26264F"/>
</linearGradient>
<linearGradient id="paint54_linear_1_81" x1="-1283.68" y1="8582.61" x2="-1402.82" y2="8724.78" gradientUnits="userSpaceOnUse">
<stop stop-color="#444B8C"/>
<stop offset="1" stop-color="#26264F"/>
</linearGradient>
<linearGradient id="paint55_linear_1_81" x1="1500.12" y1="15435.4" x2="1500.12" y2="15056.6" gradientUnits="userSpaceOnUse">
<stop stop-color="#FFC444"/>
<stop offset="1" stop-color="#F36F56"/>
</linearGradient>
<linearGradient id="paint56_linear_1_81" x1="43513.1" y1="243663" x2="5247.03" y2="165529" gradientUnits="userSpaceOnUse">
<stop stop-color="#444B8C"/>
<stop offset="1" stop-color="#26264F"/>
</linearGradient>
<linearGradient id="paint57_linear_1_81" x1="54411.3" y1="101153" x2="25418.8" y2="85836.6" gradientUnits="userSpaceOnUse">
<stop stop-color="#AA80F9"/>
<stop offset="1" stop-color="#6165D7"/>
</linearGradient>
<linearGradient id="paint58_linear_1_81" x1="-1030.89" y1="6409.83" x2="-1117.07" y2="6522.09" gradientUnits="userSpaceOnUse">
<stop stop-color="#444B8C"/>
<stop offset="1" stop-color="#26264F"/>
</linearGradient>
<linearGradient id="paint59_linear_1_81" x1="-6674.49" y1="23677" x2="-9873.54" y2="28672.5" gradientUnits="userSpaceOnUse">
<stop stop-color="#FFC444"/>
<stop offset="1" stop-color="#F36F56"/>
</linearGradient>
<linearGradient id="paint60_linear_1_81" x1="-432.308" y1="3364.81" x2="-897.739" y2="3823.07" gradientUnits="userSpaceOnUse">
<stop stop-color="#FFC444"/>
<stop offset="1" stop-color="#F36F56"/>
</linearGradient>
<linearGradient id="paint61_linear_1_81" x1="33376.1" y1="46191.8" x2="43315.3" y2="46191.8" gradientUnits="userSpaceOnUse">
<stop stop-color="#AA80F9"/>
<stop offset="1" stop-color="#6165D7"/>
</linearGradient>
<linearGradient id="paint62_linear_1_81" x1="17634.5" y1="13551" x2="18031.9" y2="14285.5" gradientUnits="userSpaceOnUse">
<stop stop-color="#FFC444"/>
<stop offset="1" stop-color="#F36F56"/>
</linearGradient>
<linearGradient id="paint63_linear_1_81" x1="-29876.7" y1="67981.8" x2="-7928.16" y2="48611.9" gradientUnits="userSpaceOnUse">
<stop stop-color="#AA80F9"/>
<stop offset="1" stop-color="#6165D7"/>
</linearGradient>
<linearGradient id="paint64_linear_1_81" x1="10749.2" y1="13965.2" x2="-9530.83" y2="46489.1" gradientUnits="userSpaceOnUse">
<stop stop-color="#444B8C"/>
<stop offset="1" stop-color="#26264F"/>
</linearGradient>
<linearGradient id="paint65_linear_1_81" x1="42049.3" y1="-3262.25" x2="-44631.8" y2="135754" gradientUnits="userSpaceOnUse">
<stop stop-color="#444B8C"/>
<stop offset="1" stop-color="#26264F"/>
</linearGradient>
<linearGradient id="paint66_linear_1_81" x1="4683.59" y1="55935.4" x2="-428.819" y2="2440.03" gradientUnits="userSpaceOnUse">
<stop stop-color="#AA80F9"/>
<stop offset="1" stop-color="#6165D7"/>
</linearGradient>
<linearGradient id="paint67_linear_1_81" x1="2396.65" y1="27299.6" x2="-95.9334" y2="1215.82" gradientUnits="userSpaceOnUse">
<stop stop-color="#AA80F9"/>
<stop offset="1" stop-color="#6165D7"/>
</linearGradient>
<linearGradient id="paint68_linear_1_81" x1="28766.1" y1="17576.9" x2="15662.2" y2="38585.2" gradientUnits="userSpaceOnUse">
<stop stop-color="#444B8C"/>
<stop offset="1" stop-color="#26264F"/>
</linearGradient>
<linearGradient id="paint69_linear_1_81" x1="28968.5" y1="17706.6" x2="16070" y2="38388.7" gradientUnits="userSpaceOnUse">
<stop stop-color="#AA80F9"/>
<stop offset="1" stop-color="#6165D7"/>
</linearGradient>
<linearGradient id="paint70_linear_1_81" x1="109570" y1="131926" x2="91623" y2="162565" gradientUnits="userSpaceOnUse">
<stop stop-color="#AA80F9"/>
<stop offset="1" stop-color="#6165D7"/>
</linearGradient>
<linearGradient id="paint71_linear_1_81" x1="53402.1" y1="108414" x2="39941.2" y2="119627" gradientUnits="userSpaceOnUse">
<stop stop-color="#E38DDD"/>
<stop offset="1" stop-color="#9571F6"/>
</linearGradient>
</defs>
</svg>
