<svg width="539" height="536" viewBox="0 0 539 536" fill="none" xmlns="http://www.w3.org/2000/svg">
<g filter="url(#filter0_d_1_684)">
<path d="M497.843 364.586C483.926 418.094 444.732 467.657 349.794 493.297C315.49 502.568 275.562 507.118 239.969 504.307C187.583 500.167 132.68 476.524 89.0484 449.712C58.8609 431.161 46.8339 406.127 42.5802 377.829C39.9474 360.336 40.2801 341.59 41.1206 322.359C42.383 293.429 37.7828 264.298 30.9735 236.148C20.4936 192.808 29.1262 147.347 54.9862 110.065C80.8463 72.7825 121.704 46.8432 168.309 38.1276C246.826 23.4489 326.481 33.1352 326.481 33.1352C431.4 44.0323 484.498 148.174 497.451 232.943C503.373 271.685 509.563 319.535 497.843 364.586Z" fill="#313252"/>
</g>
<path d="M193.674 313.184C205.534 259.616 253.534 101.852 155.082 111.644C88.8357 118.233 133.299 172.151 90.9574 189.55C48.6161 206.949 42.5305 258.15 98.8062 324.047C155.082 389.944 227.808 414.655 227.808 414.655C227.808 414.655 181.815 366.75 193.674 313.184Z" fill="url(#paint0_linear_1_684)"/>
<g style="mix-blend-mode:soft-light" opacity="0.8">
<g style="mix-blend-mode:soft-light" opacity="0.8">
<path d="M237.833 420.766C237.714 420.766 237.597 420.738 237.49 420.685C129.719 366.805 144.331 254.174 153.059 186.88C154.088 178.968 155.056 171.494 155.706 164.967C158.814 133.771 152.378 117.679 146.434 109.674C140.041 101.068 132.834 99.7269 132.762 99.7269C132.563 99.6932 132.386 99.582 132.269 99.4176C132.152 99.2533 132.105 99.0493 132.139 98.8505C132.173 98.6517 132.284 98.4745 132.448 98.3577C132.613 98.241 132.817 98.1943 133.016 98.228C133.331 98.2811 140.808 99.6325 147.566 108.655C153.718 116.87 160.387 133.334 157.22 165.125C156.567 171.674 155.596 179.159 154.569 187.077C145.89 253.97 131.367 365.931 238.171 419.325C238.324 419.402 238.447 419.529 238.52 419.684C238.593 419.84 238.611 420.015 238.571 420.182C238.531 420.349 238.436 420.498 238.301 420.604C238.166 420.711 238 420.768 237.828 420.768L237.833 420.766Z" fill="white"/>
</g>
<g style="mix-blend-mode:soft-light" opacity="0.8">
<path d="M149.5 225.411C149.373 225.411 149.248 225.38 149.136 225.321C149.024 225.261 148.929 225.174 148.859 225.068C148.775 224.934 140.214 211.668 126.688 199.514C114.274 188.341 95.0034 175.849 73.7144 179.72C73.6162 179.737 73.5154 179.736 73.4178 179.715C73.3202 179.694 73.2278 179.654 73.1457 179.597C73.0635 179.54 72.9934 179.468 72.9393 179.384C72.8852 179.3 72.8481 179.206 72.8302 179.108C72.8123 179.01 72.8139 178.909 72.8349 178.812C72.856 178.714 72.896 178.622 72.9528 178.539C73.0096 178.457 73.082 178.387 73.1659 178.333C73.2497 178.279 73.3435 178.242 73.4417 178.224C90.7823 175.07 109.557 182.047 127.731 198.394C141.403 210.691 150.054 224.105 150.14 224.241C150.214 224.356 150.255 224.488 150.26 224.624C150.265 224.761 150.232 224.896 150.167 225.015C150.102 225.135 150.005 225.235 149.888 225.304C149.771 225.374 149.637 225.411 149.5 225.411Z" fill="white"/>
</g>
<g style="mix-blend-mode:soft-light" opacity="0.8">
<path d="M150.926 301.543C150.815 301.542 150.706 301.518 150.606 301.472C150.506 301.425 150.417 301.358 150.346 301.273C150.229 301.136 138.393 287.31 120.26 275.07C103.581 263.813 78.0022 251.626 50.8575 257.505C50.7599 257.526 50.6591 257.528 50.5608 257.51C50.4625 257.492 50.3687 257.455 50.2848 257.401C50.2009 257.346 50.1284 257.276 50.0716 257.194C50.0148 257.112 49.9747 257.019 49.9536 256.922C49.9326 256.824 49.9309 256.723 49.9488 256.625C49.9668 256.527 50.0038 256.433 50.058 256.349C50.1122 256.265 50.1823 256.193 50.2645 256.136C50.3466 256.079 50.4391 256.039 50.5368 256.018C78.2184 250.016 104.21 262.396 121.141 273.832C139.439 286.18 151.387 300.15 151.5 300.289C151.594 300.4 151.654 300.535 151.674 300.679C151.693 300.823 151.671 300.969 151.61 301.101C151.549 301.233 151.452 301.344 151.33 301.422C151.208 301.501 151.066 301.542 150.92 301.543H150.926Z" fill="white"/>
</g>
<g style="mix-blend-mode:soft-light" opacity="0.8">
<path d="M153.682 187.391C153.546 187.39 153.412 187.354 153.295 187.284C153.178 187.215 153.081 187.115 153.016 186.995C152.95 186.876 152.918 186.741 152.923 186.605C152.927 186.469 152.968 186.336 153.041 186.221C153.127 186.087 161.78 172.673 175.45 160.374C193.631 144.027 212.399 137.05 229.741 140.204C229.933 140.247 230.102 140.362 230.211 140.526C230.32 140.69 230.361 140.89 230.325 141.084C230.29 141.278 230.181 141.45 230.021 141.566C229.862 141.681 229.663 141.729 229.468 141.701C208.178 137.829 188.909 150.321 176.493 161.482C162.967 173.642 154.408 186.907 154.322 187.036C154.254 187.144 154.16 187.234 154.048 187.296C153.936 187.358 153.81 187.39 153.682 187.391Z" fill="white"/>
</g>
<g style="mix-blend-mode:soft-light" opacity="0.8">
<path d="M148.255 275.977C148.123 275.978 147.994 275.944 147.879 275.878C147.706 275.778 147.579 275.614 147.525 275.422C147.472 275.229 147.496 275.023 147.593 274.849C147.686 274.687 156.879 258.661 171.501 245.778C180.122 238.182 188.921 233.138 197.654 230.787C208.62 227.835 219.489 229.142 229.958 234.67C230.137 234.764 230.27 234.925 230.33 235.118C230.389 235.31 230.37 235.519 230.276 235.697C230.229 235.785 230.166 235.864 230.089 235.927C230.012 235.991 229.923 236.039 229.828 236.068C229.635 236.128 229.427 236.108 229.248 236.014C210.837 226.295 191.747 229.964 172.506 246.918C158.073 259.637 149.008 275.442 148.915 275.6C148.849 275.716 148.752 275.811 148.636 275.878C148.52 275.944 148.389 275.978 148.255 275.977Z" fill="white"/>
</g>
<g style="mix-blend-mode:soft-light" opacity="0.8">
<path d="M161.943 342.893C161.81 342.893 161.679 342.857 161.564 342.791C161.449 342.724 161.353 342.629 161.286 342.514C161.219 342.399 161.184 342.268 161.183 342.135C161.182 342.002 161.217 341.872 161.282 341.756C161.375 341.595 170.568 325.57 185.19 312.685C193.811 305.089 202.61 300.046 211.344 297.696C222.309 294.745 233.178 296.05 243.648 301.577C243.826 301.671 243.96 301.832 244.019 302.025C244.079 302.218 244.059 302.426 243.965 302.604C243.871 302.783 243.71 302.916 243.517 302.976C243.324 303.035 243.116 303.016 242.938 302.922C224.527 293.203 205.437 296.873 186.195 313.826C171.762 326.544 162.697 342.349 162.605 342.507C162.538 342.624 162.442 342.722 162.326 342.79C162.21 342.858 162.077 342.893 161.943 342.893Z" fill="white"/>
</g>
</g>
<path d="M168.419 357.026C154.111 335.05 154.996 326.115 135.659 295.259C113.852 260.445 100.612 240.11 76.4656 240.305C59.9997 240.437 40.6746 250.098 32.3113 262.657C18.3187 283.673 36.1036 311.21 42.1788 320.624C52.3636 336.402 62.7131 341.204 62.214 355.953C61.7921 368.402 54.1938 371.705 54.0428 381.019C53.6106 407.461 114.226 418.952 124.037 420.807C162.484 428.096 199.589 423.147 227.924 416.088C196.848 395.019 179.038 373.343 168.419 357.026Z" fill="#D8DEE8"/>
<g style="mix-blend-mode:soft-light" opacity="0.8">
<g style="mix-blend-mode:soft-light" opacity="0.8">
<path d="M233.947 417.833C233.91 417.834 233.874 417.831 233.838 417.825C200.469 412.337 169.726 400.131 142.46 381.575C120.653 366.73 101.012 347.808 84.0828 325.333C55.2572 287.078 44.1581 251.269 44.0501 250.912C43.9984 250.744 44.0161 250.561 44.099 250.405C44.182 250.249 44.3236 250.132 44.4926 250.081C44.6616 250.029 44.8442 250.047 45.0002 250.13C45.1562 250.213 45.2728 250.354 45.3245 250.523C45.4325 250.88 56.4853 286.494 85.1754 324.57C111.634 359.685 158.939 404.146 234.055 416.511C234.22 416.538 234.369 416.626 234.472 416.758C234.575 416.889 234.625 417.055 234.611 417.222C234.598 417.389 234.522 417.544 234.398 417.658C234.275 417.771 234.114 417.834 233.947 417.833Z" fill="white"/>
</g>
<g style="mix-blend-mode:soft-light" opacity="0.8">
<path d="M85.587 326.88C85.4717 326.88 85.3584 326.85 85.2582 326.793C85.1579 326.736 85.0742 326.654 85.0152 326.555C84.9563 326.456 84.9241 326.343 84.9218 326.228C84.9195 326.113 84.9472 325.999 85.0022 325.897C85.1737 325.566 102.861 292.366 99.0753 246.641C99.0681 246.553 99.0782 246.466 99.1049 246.382C99.1316 246.299 99.1744 246.222 99.231 246.155C99.2875 246.088 99.3566 246.033 99.4344 245.993C99.5122 245.953 99.5971 245.929 99.6842 245.922C99.7714 245.915 99.8591 245.925 99.9424 245.951C100.026 245.978 100.103 246.021 100.17 246.078C100.236 246.134 100.291 246.203 100.331 246.281C100.371 246.359 100.396 246.444 100.403 246.531C104.223 292.664 86.3537 326.199 86.1668 326.532C86.1101 326.637 86.0264 326.724 85.9244 326.785C85.8225 326.846 85.706 326.879 85.587 326.88Z" fill="white"/>
</g>
<g style="mix-blend-mode:soft-light" opacity="0.8">
<path d="M83.3435 326.782C79.5958 326.782 71.6665 326.481 61.696 324.381C48.832 321.682 29.8105 315.364 12.2709 300.594C12.1975 300.54 12.136 300.472 12.0902 300.393C12.0444 300.314 12.0153 300.227 12.0046 300.136C11.9939 300.045 12.0019 299.954 12.0281 299.866C12.0542 299.779 12.098 299.698 12.1568 299.628C12.2155 299.558 12.2879 299.501 12.3695 299.461C12.4511 299.42 12.5402 299.397 12.6313 299.392C12.7223 299.387 12.8134 299.4 12.899 299.432C12.9845 299.464 13.0626 299.513 13.1285 299.576C30.44 314.153 49.218 320.398 61.9207 323.071C75.7023 325.968 85.5115 325.405 85.6093 325.4C85.7856 325.389 85.959 325.449 86.0913 325.566C86.2237 325.683 86.3042 325.847 86.3151 326.024C86.326 326.2 86.2665 326.373 86.1495 326.506C86.0326 326.638 85.8679 326.718 85.6916 326.729C85.6642 326.734 84.8357 326.782 83.3435 326.782Z" fill="white"/>
</g>
<g style="mix-blend-mode:soft-light" opacity="0.8">
<path d="M97.6431 378.174C81.7432 378.174 57.0186 373.583 22.5929 354.697C22.5162 354.655 22.4485 354.598 22.3938 354.53C22.3391 354.462 22.2983 354.384 22.2739 354.3C22.2494 354.216 22.2417 354.128 22.2513 354.041C22.2609 353.954 22.2875 353.869 22.3296 353.793C22.3717 353.716 22.4285 353.648 22.4968 353.594C22.5651 353.539 22.6434 353.498 22.7274 353.474C22.8115 353.449 22.8995 353.442 22.9864 353.451C23.0734 353.461 23.1577 353.487 23.2344 353.529C61.7423 374.656 87.9402 377.762 103.137 376.648C119.555 375.447 126.997 369.187 127.069 369.124C127.134 369.062 127.212 369.013 127.297 368.981C127.381 368.95 127.471 368.936 127.562 368.94C127.652 368.945 127.74 368.967 127.822 369.007C127.903 369.046 127.975 369.102 128.034 369.17C128.094 369.239 128.138 369.319 128.166 369.405C128.193 369.491 128.202 369.582 128.194 369.672C128.185 369.762 128.158 369.849 128.114 369.928C128.071 370.007 128.012 370.077 127.94 370.132C127.632 370.4 120.182 376.697 103.384 377.965C101.617 378.097 99.703 378.174 97.6431 378.174Z" fill="white"/>
</g>
<g style="mix-blend-mode:soft-light" opacity="0.8">
<path d="M71.6666 442.404C71.4981 442.4 71.3374 442.332 71.2167 442.215C71.0961 442.097 71.0244 441.938 71.0162 441.77C71.0079 441.602 71.0637 441.436 71.1723 441.307C71.2808 441.179 71.4342 441.096 71.6014 441.075C115.406 436.666 138.772 424.34 150.658 414.779C163.445 404.489 165.982 395.209 166.006 395.116C166.052 394.948 166.163 394.805 166.315 394.718C166.466 394.63 166.646 394.606 166.815 394.65C166.984 394.694 167.129 394.802 167.218 394.952C167.308 395.102 167.335 395.281 167.294 395.451C167.191 395.847 164.622 405.257 151.494 415.816C139.465 425.491 115.864 437.957 71.7369 442.399C71.7137 442.403 71.6902 442.404 71.6666 442.404Z" fill="white"/>
</g>
<g style="mix-blend-mode:soft-light" opacity="0.8">
<path d="M130.726 372.852C130.595 372.852 130.467 372.813 130.359 372.741C130.25 372.669 130.164 372.567 130.113 372.446C130.062 372.326 130.047 372.194 130.071 372.065C130.094 371.937 130.155 371.818 130.245 371.724C130.309 371.659 136.506 365.118 140.866 352.607C144.89 341.06 148.125 321.908 140.694 296.279C140.67 296.195 140.662 296.107 140.672 296.021C140.682 295.934 140.708 295.849 140.751 295.773C140.793 295.696 140.85 295.629 140.918 295.574C140.986 295.519 141.065 295.479 141.149 295.455C141.233 295.43 141.321 295.423 141.408 295.432C141.495 295.442 141.579 295.469 141.655 295.511C141.732 295.553 141.8 295.61 141.854 295.678C141.909 295.747 141.949 295.825 141.974 295.909C149.521 321.92 146.207 341.377 142.101 353.12C137.641 365.881 131.467 372.377 131.209 372.648C131.147 372.713 131.072 372.765 130.988 372.8C130.905 372.835 130.816 372.853 130.726 372.852Z" fill="white"/>
</g>
</g>
<path d="M477.818 180.032L465.37 95.9968L437.537 98.7888C435.189 98.3532 430.724 100.795 429.669 103.258L393.122 188.411C391.99 191.052 393.727 194.083 396.357 194.071L406.792 193.632V392.11C406.792 395.646 409.365 398.185 412.521 397.782L437.537 403.342C440.53 402.956 468.544 387.864 468.544 384.454V185.491L474.87 185.456C477.27 185.444 478.846 182.541 477.818 180.032Z" fill="url(#paint1_linear_1_684)"/>
<path style="mix-blend-mode:multiply" opacity="0.3" d="M434.396 192.733L406.792 193.626V392.11C406.792 395.646 409.365 398.185 412.521 397.782L437.537 403.342C438.768 403.182 444.257 400.524 450.279 397.216L434.396 192.733Z" fill="url(#paint2_linear_1_684)"/>
<path d="M501.704 192.301L495.317 192.338V390.366C495.317 393.758 493.063 396.818 490.13 397.193L440.012 403.683C436.883 404.089 434.4 401.563 434.4 398.044V192.729L427.613 192.774C425.011 192.796 423.287 189.781 424.407 187.151L462.476 97.8335C463.7 94.9609 467.362 95.141 468.582 98.1336L504.692 186.895C505.707 189.39 504.081 192.285 501.704 192.301Z" fill="url(#paint3_linear_1_684)"/>
<path d="M357.326 414.237L331.188 408.157C327.9 408.578 325.224 406.068 325.224 402.551V240.43C325.224 236.913 327.9 233.982 331.188 233.886L387.232 232.238C390.319 232.147 416.377 233.622 416.377 233.622L392.798 394.172C392.798 397.553 357.326 414.237 357.326 414.237Z" fill="url(#paint4_linear_1_684)"/>
<path d="M420.863 239.412V400.107C420.863 401.047 420.503 401.964 420.157 402.806C419.277 404.971 417.306 406.641 415.104 406.922L359.723 414.096C356.465 414.516 353.931 412.028 353.931 408.524V241.631C353.931 238.136 356.416 235.217 359.68 235.114L371.738 234.754L415.225 233.468C418.278 233.38 420.863 236.042 420.863 239.412Z" fill="url(#paint5_linear_1_684)"/>
<path d="M269.748 425.606L242.185 419.528C238.564 419.989 235.619 417.374 235.619 413.683L236.452 300.077C236.452 296.386 239.396 293.217 243.015 293.004L304.59 289.33C307.966 289.13 336.291 293.031 336.291 293.031L309.877 404.463C309.878 408.01 273.165 425.165 269.748 425.606Z" fill="url(#paint6_linear_1_684)"/>
<path d="M338.139 297.763V410.438C338.139 413.971 335.567 417.183 332.227 417.61L271.463 425.499C267.883 425.966 265.19 423.364 265.19 419.694V302.462C265.19 298.785 267.95 295.635 271.537 295.417L290.358 294.273L332.261 291.74C335.615 291.537 338.139 294.237 338.139 297.763Z" fill="url(#paint7_linear_1_684)"/>
<path d="M169.788 437.196L143.989 432.063C139.984 432.577 136.727 429.844 136.727 425.962V366.929C136.727 363.048 139.986 359.607 143.989 359.247L211.988 353.126C215.71 352.783 241.474 355.807 241.474 355.807L218.715 415.782C218.715 419.505 173.561 436.709 169.788 437.196Z" fill="url(#paint8_linear_1_684)"/>
<path d="M247.894 361.912V421.798C247.894 422.956 247.723 424.084 247.208 425.098C246.08 427.327 243.949 429.042 241.409 429.363L238.823 429.692L173.974 438.07C170.011 438.585 166.671 435.866 166.671 432.003V369.57C166.671 365.704 170.04 362.283 174.004 361.923L182.622 361.141L195.128 360.005L241.311 355.802C244.999 355.476 247.894 358.204 247.894 361.912Z" fill="url(#paint9_linear_1_684)"/>
<path d="M110.567 388.407L35.0984 396.197C31.8772 396.53 29.0952 398.558 27.8019 401.205C27.298 402.211 27.031 403.319 27.0215 404.444V436.884C27.0215 440.977 30.4879 444.33 35.0984 445.964L61.7748 451.264C65.9633 450.722 118.025 432.203 118.025 428.283L130.53 413.241L143.19 391.803C143.19 391.803 114.69 387.982 110.567 388.407Z" fill="url(#paint10_linear_1_684)"/>
<path d="M148.624 398.322V434.337C148.624 438.238 145.236 441.826 141.152 442.353L124.858 444.45L66.3886 452.008C61.9823 452.579 58.3821 449.744 58.3821 445.663V408.037C58.3821 403.969 61.9583 400.292 66.3646 399.826L77.8359 398.625L141.156 392.036C145.24 391.608 148.624 394.427 148.624 398.322Z" fill="url(#paint11_linear_1_684)"/>
<path style="mix-blend-mode:multiply" opacity="0.3" d="M495.317 356.514V390.366C495.317 393.758 493.063 396.818 490.13 397.193L440.012 403.683C436.884 404.089 434.4 401.563 434.4 398.044V193.076C442.672 193.518 459.763 207.31 454.204 251.244C446.602 311.401 446.814 314.41 456.336 324.434C462.292 330.706 485.54 337.76 495.317 356.514Z" fill="url(#paint12_linear_1_684)"/>
<path style="mix-blend-mode:multiply" opacity="0.3" d="M419.991 402.812C419.111 404.976 417.224 406.646 415.016 406.928L359.677 414.101C356.418 414.522 353.928 412.033 353.928 408.529V241.631C353.928 238.136 356.413 235.217 359.677 235.114L371.735 234.754C380.997 241.71 383.795 251.708 379.687 264.456C365.022 309.95 367.238 335.457 376.759 345.479C384.862 354.01 424.819 363.981 419.991 402.812Z" fill="url(#paint13_linear_1_684)"/>
<path style="mix-blend-mode:multiply" opacity="0.3" d="M338.139 400.81V410.437C338.139 413.969 335.567 417.182 332.227 417.609L271.463 425.498C267.883 425.964 265.19 423.362 265.19 419.692V302.462C265.19 298.785 267.95 295.635 271.537 295.417L290.358 294.273C310.822 309.396 272.216 346.994 296.783 378.575C313.706 400.34 330.618 378.102 338.139 400.81Z" fill="url(#paint14_linear_1_684)"/>
<path style="mix-blend-mode:multiply" opacity="0.3" d="M238.825 429.692L173.976 438.07C170.013 438.585 166.673 435.866 166.673 432.003V369.57C166.673 365.704 170.042 362.283 174.006 361.923L182.624 361.141C184.28 369.479 187.466 373.983 191.724 378.462C199.677 386.84 236.14 396.495 238.825 429.692Z" fill="url(#paint15_linear_1_684)"/>
<path style="mix-blend-mode:multiply" opacity="0.3" d="M124.807 444.447L66.3614 452.005C61.9551 452.576 58.3789 449.741 58.3789 445.659V408.037C58.3789 403.969 61.9551 400.292 66.3614 399.826L77.8327 398.625C79.2048 400.963 80.8308 402.927 82.6953 404.889C89.3897 411.93 117.843 419.97 124.807 444.447Z" fill="url(#paint16_linear_1_684)"/>
<path d="M372.037 131.091C372.037 167.975 343.193 196.991 306.324 195.859C267.957 194.681 235.696 161.549 235.696 121.9C235.696 82.251 267.966 53.4716 306.333 57.4641C343.193 61.3023 372.037 94.2063 372.037 131.091Z" fill="url(#paint17_linear_1_684)"/>
<path d="M382.002 127.911C382.002 164.796 353.158 193.812 316.29 192.678C277.919 191.502 245.644 158.368 245.644 118.719C245.644 79.0697 277.914 50.2904 316.281 54.2829C353.154 58.1262 382.002 91.025 382.002 127.911Z" fill="url(#paint18_linear_1_684)"/>
<path d="M379.105 127.716C379.105 162.976 351.506 190.666 316.286 189.526C279.701 188.342 248.982 156.723 248.982 118.943C248.982 81.1637 279.701 53.6877 316.286 57.435C351.506 61.0416 379.105 92.4552 379.105 127.716Z" fill="url(#paint19_linear_1_684)"/>
<path d="M377.028 127.584C377.028 161.681 350.323 188.427 316.281 187.284C280.965 186.098 251.351 155.557 251.351 119.113C251.351 82.6695 280.977 56.1111 316.286 59.6868C350.328 63.134 377.028 93.4792 377.028 127.584Z" fill="url(#paint20_linear_1_684)"/>
<path d="M315.938 71.2871C317.75 71.4586 319.216 73.0896 319.216 74.9281V81.2067C322.878 81.6177 326.511 82.2477 330.097 83.0932C332.776 83.7231 335.437 84.472 338.078 85.3398C338.857 85.5987 339.526 86.111 339.979 86.7949C340.433 87.4789 340.644 88.2949 340.579 89.1128L339.809 96.9847C339.773 97.4634 339.622 97.9263 339.367 98.3332C339.112 98.7401 338.762 99.0789 338.347 99.3201C337.932 99.5613 337.465 99.6977 336.985 99.7175C336.505 99.7373 336.028 99.6399 335.594 99.4337C333.854 98.6565 332.066 97.9904 330.241 97.4391C326.951 96.4556 323.566 95.8232 320.142 95.5526L319.216 95.4772V113.45C328.665 116.095 335.605 119.65 340.09 124.123C344.575 128.596 346.779 134.123 346.779 140.784C346.779 147.987 344.314 153.761 339.383 158.105C334.421 162.478 327.446 164.932 318.458 165.47V172.398C318.465 172.827 318.385 173.253 318.223 173.65C318.06 174.047 317.817 174.407 317.511 174.707C317.204 175.007 316.839 175.241 316.439 175.395C316.038 175.55 315.611 175.62 315.182 175.604H315.125C314.236 175.555 313.4 175.167 312.788 174.521C312.175 173.875 311.833 173.019 311.832 172.129V165.286L310.372 165.221C306.309 165.048 302.261 164.616 298.253 163.928C295.429 163.439 292.633 162.796 289.879 162.002C288.231 161.527 287.101 159.958 287.252 158.272L288.159 148.153C288.354 145.967 290.56 144.692 292.632 145.514C295.041 146.464 297.504 147.271 300.008 147.932C303.863 148.949 307.805 149.608 311.782 149.899L311.841 129.899C302.771 127.656 295.997 124.332 291.519 119.928C287.035 115.504 284.791 109.849 284.787 102.961C284.787 95.8373 287.22 90.3436 292.085 86.4803C296.918 82.6404 303.791 80.7316 312.657 80.7368V74.3158C312.649 72.4705 314.124 71.1139 315.938 71.2871ZM312.649 95.2868C309.846 95.4892 307.661 96.2592 306.095 97.5969C304.528 98.9346 303.744 100.734 303.743 102.994C303.743 105.132 304.469 106.92 305.92 108.357C307.371 109.794 309.614 110.937 312.649 111.787V95.2868ZM318.463 131.501V149.841C321.51 149.841 323.849 149.114 325.478 147.659C327.108 146.205 327.922 144.147 327.921 141.485C327.921 139.06 327.164 137.049 325.651 135.45C324.139 133.852 321.743 132.535 318.463 131.501Z" fill="url(#paint21_linear_1_684)"/>
<path style="mix-blend-mode:multiply" opacity="0.3" d="M305.294 135.925C307.352 115.658 325.976 107.077 323.545 88.4336C322.046 76.9432 313.336 67.2586 303.62 59.6971C274.147 62.7841 251.356 87.1886 251.356 119.105C251.356 155.55 280.971 186.089 316.286 187.276C319.639 187.387 322.995 187.223 326.32 186.785C312.295 172.83 303.531 153.339 305.294 135.925Z" fill="url(#paint22_linear_1_684)"/>
<path d="M185.398 245.678L185.31 245.668C183.887 245.497 182.583 246.442 182.394 247.76L149.5 485.519C149.31 486.891 150.358 487.966 151.838 487.92H151.931C153.408 487.877 154.757 486.733 154.944 485.367L187.639 248.354C187.821 247.037 186.813 245.84 185.398 245.678Z" fill="#99A0AA"/>
<path d="M290.474 465.244L261.695 247.323C261.603 246.711 261.272 246.161 260.775 245.791C260.278 245.422 259.656 245.264 259.043 245.352L258.963 245.363C258.658 245.396 258.364 245.489 258.096 245.637C257.828 245.784 257.591 245.983 257.4 246.222C257.209 246.461 257.067 246.735 256.982 247.029C256.897 247.323 256.87 247.631 256.904 247.935L285.853 466.483C286.015 467.697 287.162 468.403 288.416 468.064L288.495 468.042C289.75 467.711 290.634 466.455 290.474 465.244Z" fill="#99A0AA"/>
<path d="M198.596 446.854L208.436 227.263C208.475 226.645 208.756 226.068 209.219 225.657C209.682 225.246 210.288 225.035 210.906 225.069H210.987C211.294 225.076 211.597 225.144 211.878 225.269C212.158 225.394 212.412 225.573 212.623 225.796C212.834 226.02 212.999 226.282 213.108 226.57C213.217 226.857 213.268 227.163 213.258 227.47L203.31 447.702C203.255 448.924 202.171 449.729 200.893 449.497L200.814 449.484C199.529 449.249 198.541 448.074 198.596 446.854Z" fill="#99A0AA"/>
<path d="M308.844 175.223V381.186L241.068 387.361L125.941 397.86V167.831L146.19 168.646L308.844 175.223Z" fill="white"/>
<path d="M311.336 172.806V176.845C311.334 177.1 311.281 177.353 311.178 177.587C311.076 177.821 310.927 178.031 310.741 178.206C310.555 178.381 310.335 178.516 310.095 178.604C309.855 178.691 309.6 178.729 309.345 178.715L308.637 178.69L150.007 172.604L126.095 171.69H125.948C124.603 171.64 123.454 170.625 123.454 169.421V164.885C123.454 163.684 124.56 162.756 125.905 162.813L138.36 163.353L309.338 170.779C310.41 170.824 311.336 171.734 311.336 172.806Z" fill="#B7C0CE"/>
<path d="M311.336 378.435V382.473C311.336 383.55 310.422 384.501 309.345 384.602L249.107 390.249L125.956 401.8C124.611 401.925 123.441 401.05 123.441 399.848V395.319C123.441 394.118 124.548 393.045 125.892 392.928L126.043 392.918L232.557 383.465L308.568 376.721L309.338 376.666C309.588 376.637 309.842 376.661 310.082 376.736C310.322 376.811 310.544 376.936 310.733 377.103C310.921 377.27 311.073 377.475 311.177 377.705C311.281 377.934 311.335 378.183 311.336 378.435Z" fill="#B7C0CE"/>
<path d="M183.738 307.691L164.359 308.703V279.032L183.738 278.337V307.691Z" fill="#B7C0CE"/>
<path d="M215.132 306.053L196.428 307.029V268.285L215.132 267.716V306.053Z" fill="#B7C0CE"/>
<path d="M245.449 304.47L227.386 305.413V254.806L245.449 254.385V304.47Z" fill="#B7C0CE"/>
<path d="M274.741 302.942L257.287 303.853V237.731L274.741 237.489V302.942Z" fill="#B7C0CE"/>
<path d="M267.624 197.828C266.204 197.008 264.343 197.408 263.479 198.734C262.549 200.149 261.587 201.534 260.592 202.887C242.003 228.153 211.452 243.12 168.486 247.164C167.085 247.296 165.978 247.397 165.158 247.507C164.461 247.576 163.775 247.734 163.117 247.976C162.293 248.273 161.617 248.878 161.231 249.664C160.503 251.207 161.316 252.934 163.04 253.542C163.463 253.689 163.908 253.76 164.356 253.749C164.846 253.737 165.33 253.632 165.781 253.44C166.407 253.344 167.757 253.212 169.062 253.087C176.928 252.319 195.078 250.554 214.541 243.312C236.356 235.195 253.393 222.713 265.522 206.189C266.599 204.728 267.635 203.233 268.629 201.706C269.494 200.38 269.045 198.646 267.624 197.828Z" fill="#B7C0CE"/>
<path d="M268.959 215.076C267.386 215.076 266.06 213.934 265.957 212.443L265.099 200.109L252.438 207.914C251.03 208.782 249.121 208.429 248.175 207.118C247.23 205.808 247.608 204.031 249.021 203.174L270.43 190.061L271.958 212.083C272.067 213.627 270.814 214.966 269.159 215.067C269.091 215.072 269.024 215.076 268.959 215.076Z" fill="#B7C0CE"/>
<path d="M291.899 329.056L147.869 337.314V330.744L291.899 323.037V329.056Z" fill="#B7C0CE"/>
<path d="M291.899 345.112L147.869 354.833V347.716L291.899 338.59V345.112Z" fill="#B7C0CE"/>
<path d="M291.899 361.166L147.869 372.35V364.686L291.899 354.143V361.166Z" fill="#B7C0CE"/>
<g style="mix-blend-mode:multiply" opacity="0.2">
<path d="M249.05 390.249L125.935 401.8C124.591 401.925 123.448 401.05 123.448 399.848V395.319C123.448 394.118 124.488 393.045 125.832 392.928L125.94 392.918V171.683H125.867C124.524 171.633 123.448 170.618 123.448 169.414V164.885C123.448 163.684 124.555 162.756 125.899 162.813L138.355 163.353C141.142 164.803 143.747 166.58 146.113 168.646C147.5 169.863 148.791 171.186 149.972 172.604C154.764 178.387 158.205 186.374 158.574 197.403C159.742 231.837 154.445 238.878 163.116 247.973C164.477 249.366 165.933 250.663 167.474 251.856C167.988 252.254 168.503 252.663 169.062 253.084C176.674 258.831 187.67 263.703 196.426 272.393C203.973 279.874 209.844 290.176 210.491 306.297C210.74 312.453 210.224 319.464 208.743 327.487C208.334 329.696 208.017 331.826 207.791 333.876C207.413 337.216 207.275 340.58 207.378 343.941C207.454 346.229 207.671 348.509 208.03 350.77C208.529 353.959 209.368 357.085 210.532 360.096C211.495 362.579 212.701 364.959 214.134 367.203C218.82 374.523 225.454 379.664 232.571 383.465C235.305 384.919 238.119 386.22 240.998 387.363C243.726 388.448 246.436 389.399 249.05 390.249Z" fill="#B7C0CE"/>
</g>
<path d="M197.193 298.778C197.193 298.778 197.193 294.674 196.094 293.174C194.994 291.673 192.89 290.987 192.59 289.778C192.289 288.569 196.094 291.272 197.495 291.872C198.896 292.472 206.5 288.399 207.203 287.969C209.006 286.868 206.503 291.272 203.9 292.573C201.296 293.875 199.896 293.974 199.896 293.974L200.598 298.776H197.193V298.778Z" fill="url(#paint23_linear_1_684)"/>
<path d="M131.347 287.828C134.906 284.322 141.693 284.858 145.778 286.188C153.462 288.691 154.073 294.811 165.532 303.964C171.021 308.351 173.849 310.543 177.669 310.522C187.019 310.473 193.377 297.288 194.396 295.11L203.57 296.482C205.021 312.496 196.138 327.523 181.931 333.485C160.066 342.662 141.334 323.762 140.53 322.922C130.422 312.366 124.911 294.168 131.347 287.828Z" fill="url(#paint24_linear_1_684)"/>
<path d="M100.91 496.745C100.224 497.38 100.176 498.865 100.147 499.833C100.135 500.266 100.128 500.483 100.185 500.632C100.605 501.721 102.758 501.707 106.166 501.844C111.538 502.064 113.152 502.388 113.522 501.566C113.865 500.798 112.836 499.637 112.73 499.508C112.112 498.822 111.392 498.601 110.004 498.236C107.432 497.562 105.704 497.207 105.181 497.106C101.91 496.449 101.365 496.327 100.91 496.745Z" fill="url(#paint25_linear_1_684)"/>
<path d="M104.677 491.388L104.888 497.502C104.717 497.788 102.864 498.574 101.468 497.74L100.413 491.686L104.677 491.388Z" fill="url(#paint26_linear_1_684)"/>
<path d="M146.163 495.892C145.24 496.809 144.947 498.572 145.658 499.493C146.37 500.414 147.514 499.807 150.689 500.071C154.089 500.354 154.934 501.205 157.284 500.69C158.232 500.481 159.917 499.942 159.92 499.274C159.92 498.802 159.095 498.515 156.339 497.425C152.423 495.881 152.445 495.806 151.607 495.621C149.497 495.149 147.382 494.681 146.163 495.892Z" fill="url(#paint27_linear_1_684)"/>
<path d="M148.639 490.453L150.046 496.226C149.9 496.524 148.109 497.449 146.653 496.725L144.41 491.076L148.639 490.453Z" fill="url(#paint28_linear_1_684)"/>
<path d="M140.084 365.217C138.365 407.794 141.759 450.424 150.193 492.192L143.561 493.602C138.307 488.157 131.764 479.673 129.011 468.025C127.296 460.796 128.191 457.175 127.332 448.35C125.959 434.299 122.08 426.769 118.262 415.294C114.831 404.981 110.927 389.912 109.466 369.961L140.084 365.217Z" fill="url(#paint29_linear_1_684)"/>
<path style="mix-blend-mode:multiply" opacity="0.3" d="M137.048 454.51C134.613 444.872 129.922 442.323 129.753 433.225C129.633 426.791 131.947 426.262 131.793 420.104C131.558 410.761 126.083 405.869 123.332 399.985C120.426 393.779 119.311 383.808 127.136 367.229L109.469 369.973C110.931 389.92 114.833 404.993 118.265 415.305C122.083 426.78 125.968 434.311 127.335 448.362C128.193 457.187 127.304 460.808 129.014 468.036C131.769 479.683 138.312 488.169 143.566 493.617L145.254 493.259C139.573 486.481 137.568 480.429 137.057 475.517C136.215 467.513 139.504 464.238 137.048 454.51Z" fill="url(#paint30_linear_1_684)"/>
<path d="M117.989 364.027C115.359 388.239 112.958 412.912 110.785 438.046C109.156 456.902 107.701 475.527 106.42 493.919L99.698 494.387C96.9427 488.544 94.9261 482.379 93.6948 476.037C91.8236 466.38 92.676 460.75 92.1597 450.816C91.58 439.669 90.0089 437.172 87.7431 423.033C83.143 394.345 80.8446 380.001 88.1273 371.542C90.4806 368.807 97.7942 361.991 117.989 364.027Z" fill="url(#paint31_linear_1_684)"/>
<path d="M59.9417 288.747C72.0458 284.641 90.5151 280.09 113.102 281.018C124.353 281.483 135.511 283.253 146.353 286.291C147.559 293.037 148.765 299.776 149.972 306.509C150.34 315.419 150.214 324.342 149.593 333.238C148.835 344.052 148.093 344.214 146.355 359.477C143.523 384.367 144.712 390.862 139.709 393.861C136.45 395.806 135.278 393.458 118.673 391.817C107.538 390.714 101.865 390.203 96.2181 392.112C88.5391 394.712 85.9715 399.073 82.8035 397.655C79.7659 396.295 79.3731 391.05 79.0095 381.909C78.4418 367.807 78.4744 358.222 78.4212 354.792C78.1793 339.05 74.1898 327.031 69.0819 311.637C66.4898 303.834 63.4377 296.19 59.9417 288.747Z" fill="url(#paint32_linear_1_684)"/>
<path d="M111.605 265.423C111.475 268.525 111.033 271.607 110.286 274.621C109.677 277.058 109.298 277.675 108.832 278.167C108.128 278.91 107.089 279.508 101.345 280.611C98.2196 281.213 97.8234 281.17 97.7428 281.469C97.3311 282.944 105.473 288.481 114.229 287.716C119.589 287.25 124.591 284.472 124.378 282.863C124.165 281.254 118.805 281.822 117.377 278.836C116.382 276.759 117.769 273.959 119.356 271.664C118.078 268.944 112.878 268.147 111.605 265.423Z" fill="url(#paint33_linear_1_684)"/>
<path d="M121.394 267.512C122.738 265.912 122.972 263.005 121.622 261.088C120.462 259.438 118.515 259.107 117.349 258.91C113.972 258.337 109.608 259.527 107.95 262.575C106.967 264.38 108.674 268.333 108.938 269.042C109.235 269.843 109.835 270.145 110.372 270.767C111.116 271.625 112.281 272.997 114.178 275.29C114.41 274.51 114.71 273.753 115.073 273.026C115.544 272.079 116.135 271.198 116.831 270.402C118.72 268.337 120.121 269.028 121.394 267.512Z" fill="url(#paint34_linear_1_684)"/>
<path d="M111.402 273.302C111.402 273.302 113.442 277.085 117.907 277.032C121.903 276.986 122.961 268.087 120.519 266.056C119.702 265.37 118.018 265.027 116.615 265.339C115.787 265.524 115.492 265.854 114.131 266.125C112.878 266.38 112.536 266.224 112.145 266.519C111.658 266.888 111.265 267.833 111.905 270.484C111.186 269.675 110.289 269.332 109.627 269.601C109.4 269.71 109.208 269.879 109.07 270.09C108.459 271.081 109.322 272.432 111.402 273.302Z" fill="url(#paint35_linear_1_684)"/>
<path d="M111.994 265.984C112.178 266.137 111.553 266.823 111.455 267.834C111.265 269.798 113.133 272.268 115.155 272.575C116.356 272.758 116.719 272.052 118.718 271.947C119.691 271.898 120.667 272.007 121.606 272.268C122.121 274.461 121.414 276.583 119.918 277.504C118.306 278.496 116.356 277.738 115.541 277.421C114.996 277.209 113.248 276.535 112.404 274.849C111.527 273.096 112.533 272.124 111.481 270.914C110.951 270.304 110.229 270.014 109.572 268.856C109.431 268.607 109.31 268.347 109.208 268.08C110.294 267.039 111.726 265.752 111.994 265.984Z" fill="url(#paint36_linear_1_684)"/>
<path d="M120.119 272.983C120.119 272.983 119.234 273.388 117.752 273.225C117.68 273.225 117.599 273.225 117.58 273.269C117.539 273.41 118.459 274.092 119.351 273.892C119.985 273.749 120.501 273.185 120.426 273.034C120.4 272.966 120.263 272.966 120.119 272.983Z" fill="white"/>
<path d="M109.765 287.605C110.495 290.366 111.349 291.092 112.018 291.207L113.861 291.174C114.186 289.992 114.511 288.811 114.835 287.631C113.151 287.846 111.446 287.834 109.765 287.596V287.605Z" fill="url(#paint37_linear_1_684)"/>
<path d="M111.481 290.982C111.481 290.982 112.641 317.451 105.032 322.728C105.353 323.538 106.051 330.37 106.051 330.37C106.051 330.37 113.36 327.064 113.812 327.156C114.265 327.249 121.111 311.517 113.86 291.182L111.481 290.982Z" fill="url(#paint38_linear_1_684)"/>
<path style="mix-blend-mode:multiply" opacity="0.3" d="M133.244 385.691C125.076 382.208 125.123 374.996 117.493 371.988C106.609 367.701 94.5852 377.675 92.7071 374.904C90.7518 372.026 105.113 363.195 103.201 354.495C101.681 347.577 91.6557 348.805 86.2837 339.336C81.1878 330.353 86.1259 322.046 81.6149 318.928C79.9958 317.81 77.1434 317.367 71.7336 319.749C75.5071 331.53 78.2154 341.917 78.4126 354.795C78.4658 358.225 78.4332 367.81 79.0009 381.913C79.3697 391.054 79.7573 396.298 82.795 397.658C85.9629 399.076 88.5323 394.715 96.2095 392.115C101.847 390.206 107.53 390.718 118.665 391.82C135.27 393.462 136.446 395.809 139.7 393.865C141.82 392.597 142.827 390.694 143.499 387.035C140.172 387.396 136.64 387.143 133.244 385.691Z" fill="url(#paint39_linear_1_684)"/>
<path d="M119.124 319.689L85.6778 322.497C85.5059 322.511 85.3433 322.581 85.2153 322.697C85.0873 322.812 85.0009 322.967 84.9694 323.136L75.481 368.217C75.3437 368.862 76.2168 370.496 76.8394 370.432L109.034 366.145C109.198 366.129 109.353 366.062 109.476 365.952C109.599 365.843 109.685 365.697 109.72 365.536L120.805 321.608C120.949 320.957 119.798 319.633 119.124 319.689Z" fill="url(#paint40_linear_1_684)"/>
<path d="M119.828 320.802L86.316 323.567C86.144 323.581 85.9813 323.651 85.8531 323.767C85.7248 323.882 85.638 324.037 85.6059 324.206L76.1055 369.331C75.97 369.976 76.536 370.655 77.1586 370.592L109.722 367.306C109.886 367.291 110.041 367.224 110.165 367.114C110.288 367.005 110.373 366.859 110.408 366.697L120.932 322.064C120.962 321.906 120.956 321.742 120.914 321.586C120.871 321.43 120.794 321.286 120.687 321.164C120.581 321.043 120.448 320.947 120.299 320.884C120.15 320.821 119.989 320.793 119.828 320.802Z" fill="url(#paint41_linear_1_684)"/>
<path d="M110.576 322.922L111.397 319.202C111.413 319.121 111.41 319.037 111.389 318.957C111.368 318.877 111.329 318.802 111.276 318.739C111.223 318.676 111.156 318.625 111.08 318.591C111.005 318.557 110.923 318.54 110.84 318.542L98.5314 319.104C98.4308 319.108 98.3346 319.147 98.2595 319.214C98.1843 319.281 98.1349 319.372 98.1198 319.471L97.4337 323.512C97.4217 323.591 97.4272 323.673 97.4498 323.75C97.4725 323.827 97.5118 323.898 97.5649 323.958C97.618 324.019 97.6837 324.067 97.7574 324.099C97.831 324.131 97.9108 324.147 97.9911 324.145L110.169 323.27C110.266 323.265 110.358 323.228 110.432 323.165C110.505 323.102 110.556 323.017 110.576 322.922Z" fill="white"/>
<g style="mix-blend-mode:soft-light" opacity="0.3">
<path d="M94.6138 359.729C95.8144 352.317 91.6533 347.553 94.5211 341.787C98.5999 333.593 110.301 336.747 112.953 330.027C113.67 328.211 113.764 325.537 111.901 321.452L119.827 320.799C119.989 320.79 120.15 320.818 120.299 320.881C120.448 320.944 120.581 321.04 120.688 321.161C120.794 321.283 120.872 321.428 120.914 321.584C120.956 321.74 120.962 321.904 120.932 322.063L110.409 366.694C110.375 366.855 110.289 367.001 110.166 367.111C110.043 367.22 109.887 367.288 109.723 367.303L89.6294 369.335C92.7648 366.073 94.1249 362.742 94.6138 359.729Z" fill="white"/>
</g>
<path d="M71.7334 355.299C71.7334 355.299 75.2855 355.076 75.4622 354.663C75.6389 354.25 79.5221 350.623 79.3952 351.768C79.2682 352.914 78.589 354.902 78.8223 355.109C79.0555 355.317 85.918 353.55 87.0638 352.627C88.2096 351.705 88.177 356.635 86.3949 358.417C84.6128 360.199 81.0177 360.422 78.6319 360.582C76.246 360.741 71.5395 359.875 70.9341 360.149C71.9272 358.103 71.7334 355.299 71.7334 355.299Z" fill="url(#paint42_linear_1_684)"/>
<path d="M72.3334 353.408C72.6147 356.695 71.8994 358.928 70.7039 360.46C65.4091 367.246 47.4098 364.475 36.7104 355.387C28.7897 348.661 24.596 338.215 24.7487 328.854C25.0471 310.589 41.9727 292.69 67.1535 286.494C70.884 297.641 74.6129 306.875 78.3434 318.017C62.8175 318.255 53.3873 331.86 54.7886 340.214C55.8315 346.445 63.0919 352.041 72.3334 353.408Z" fill="url(#paint43_linear_1_684)"/>
<path d="M358.719 318.851C354.678 314.536 365.864 298.331 371.852 291.229C377.082 285.026 382.459 278.649 389.061 279.457C394.856 280.165 400.496 286.278 400.834 292.134C401.743 307.893 364.463 324.98 358.719 318.851Z" fill="white"/>
<path d="M407.235 485.378C407.994 485.998 408.135 487.541 408.226 488.55C408.267 489.001 408.288 489.227 408.238 489.386C407.869 490.547 405.617 490.669 402.084 491.029C396.503 491.6 394.841 492.04 394.405 491.209C393.995 490.431 394.985 489.151 395.091 489.016C395.69 488.26 396.425 487.987 397.849 487.517C400.483 486.649 402.262 486.176 402.802 486.032C406.173 485.133 406.735 484.974 407.235 485.378Z" fill="url(#paint44_linear_1_684)"/>
<path d="M403.914 480.28L403.356 486.641C403.514 486.948 405.406 487.869 406.907 487.078L408.343 480.827L403.914 480.28Z" fill="url(#paint45_linear_1_684)"/>
<path d="M362.963 484.562C363.876 485.569 364.083 487.421 363.291 488.335C362.499 489.249 361.339 488.56 358.017 488.659C354.458 488.766 353.528 489.606 351.11 488.939C350.132 488.668 348.407 488.013 348.439 487.315C348.461 486.824 349.34 486.572 352.274 485.588C356.441 484.193 356.422 484.116 357.307 483.97C359.533 483.602 361.763 483.233 362.963 484.562Z" fill="url(#paint46_linear_1_684)"/>
<path d="M360.682 478.757L358.897 484.694C359.031 485.013 360.847 486.077 362.404 485.403L365.056 479.64L360.682 478.757Z" fill="url(#paint47_linear_1_684)"/>
<path d="M376.545 348.707C376.258 371.042 374.627 393.34 371.66 415.479C368.724 437.378 364.486 459.082 358.967 480.477L365.801 482.315C371.579 476.927 378.87 468.446 382.388 456.46C384.57 449.02 383.843 445.198 385.229 436.052C387.433 421.483 391.899 413.851 396.516 402.103C400.664 391.546 405.567 376.052 408.197 355.344L376.545 348.707Z" fill="url(#paint48_linear_1_684)"/>
<path d="M397.106 346.803C398.499 372.185 399.636 398.033 400.516 424.347C401.168 444.092 401.65 463.586 401.964 482.828L408.944 483.686C412.142 477.75 414.587 471.44 416.226 464.9C418.709 454.939 418.135 449.024 419.224 438.7C420.447 427.122 422.222 424.599 425.368 409.992C431.753 380.349 434.945 365.526 427.822 356.313C425.512 353.31 418.263 345.802 397.106 346.803Z" fill="url(#paint49_linear_1_684)"/>
<path d="M431.016 283.014C423.441 280.883 415.657 279.584 407.8 279.138C393.852 278.349 386.875 277.955 381.935 281.277C370.519 288.948 379.362 306.659 374.685 350.544C374.018 356.812 373.867 363.125 373.385 369.409C372.584 379.815 372.402 380.385 373.126 381.434C377.666 388.046 394.609 378.073 419.436 382.016C433.329 384.221 439.631 389.303 443.437 385.638C447.876 381.362 444.068 369.86 440.791 359.968C437.027 348.607 434.703 348.462 432.568 339.902C430.338 330.958 431.686 326.354 432.034 312.251C432.266 302.494 431.926 292.731 431.016 283.014Z" fill="white"/>
<g style="mix-blend-mode:multiply" opacity="0.1">
<path style="mix-blend-mode:multiply" opacity="0.1" d="M391.779 368.69C395.647 368.815 399.761 370.285 403.442 370.577C408.12 370.947 415.296 367.418 416.239 362.291C417.298 356.546 408.456 356.685 405.322 355.26C403.615 354.483 401.406 352.758 401.161 350.701C398.111 325.114 419.605 333.582 412.603 320.132C410.289 315.688 417.406 312.191 429.16 305.971C429.318 311.207 432.127 308.715 432.04 312.258C431.697 326.36 430.342 330.965 432.573 339.909C434.709 348.465 437.033 348.611 440.796 359.974C444.074 369.872 447.881 381.369 443.442 385.645C439.636 389.31 433.335 384.228 419.442 382.023C398.045 378.625 382.515 385.55 375.721 383.305C378.212 379.189 380.759 374.437 384.38 371.155C386.578 369.151 389.119 368.604 391.779 368.69Z" fill="url(#paint50_linear_1_684)"/>
</g>
<path d="M422.164 283.914C426.795 280.107 436.119 284.417 438.611 285.569C452.504 291.995 464.977 309.31 461.886 327.609C461.423 330.353 459.274 343.19 448.403 349.41C438.594 355.021 425.349 353.579 414.737 345.637L410.387 341.777L406.099 337.146C409.466 334.344 413.337 332.211 417.505 330.862C424.562 328.587 429.699 332.672 432.971 329.566C435.232 327.422 435.237 323.637 434.686 321.334C433.563 316.703 429.486 315.408 426.083 312.126C418.087 304.422 416.613 288.474 422.164 283.914Z" fill="white"/>
<path d="M355.552 343.653L417.68 342.725L401.159 350.698L355.393 347.702L355.552 343.653Z" fill="url(#paint51_linear_1_684)"/>
<path d="M419.874 344.377C419.873 344.944 419.698 345.498 419.373 345.963C419.047 346.428 418.586 346.781 418.052 346.975L398.201 354.756L398.11 349.362L417.68 342.725C417.936 342.651 418.206 342.637 418.468 342.685C418.73 342.733 418.977 342.841 419.19 343.002C419.403 343.162 419.576 343.37 419.694 343.608C419.813 343.847 419.875 344.11 419.874 344.377Z" fill="url(#paint52_linear_1_684)"/>
<path d="M406.759 263.899C406.721 267.139 407.008 270.376 407.617 273.559C408.118 276.132 408.475 276.797 408.938 277.332C409.624 278.143 410.679 278.824 416.605 280.294C419.829 281.093 420.244 281.071 420.315 281.391C420.658 282.952 411.869 288.272 402.785 286.989C397.225 286.205 392.167 283.034 392.477 281.367C392.787 279.701 398.343 280.591 399.998 277.558C401.149 275.449 399.859 272.455 398.333 269.975C399.816 267.21 405.283 266.67 406.759 263.899Z" fill="url(#paint53_linear_1_684)"/>
<path d="M397.268 264.125C393.513 260.594 396.534 249.41 399.232 249.204C400.775 249.086 400.58 252.724 404.748 255.948C407.995 258.459 410.804 258.332 411.574 260.829C411.936 262.002 411.787 263.554 411.257 264.754C410.982 265.372 410.475 266.126 409.355 267.576C408.362 268.858 408.425 268.815 408.123 269.188C407.394 270.079 406 271.573 403.501 273.259C403.382 272.42 403.19 271.592 402.928 270.786C402.589 269.738 402.117 268.737 401.523 267.809C400.04 265.61 398.336 265.137 397.268 264.125Z" fill="url(#paint54_linear_1_684)"/>
<path d="M406.658 271.643C406.658 271.643 403.97 275.226 399.379 274.482C395.262 273.813 395.556 264.478 398.387 262.765C399.333 262.192 401.123 262.091 402.521 262.631C403.346 262.95 403.598 263.329 404.957 263.832C406.21 264.29 406.586 264.175 406.943 264.545C407.389 265.001 407.648 266.035 406.578 268.661C407.435 267.937 408.42 267.723 409.061 268.104C409.278 268.251 409.451 268.455 409.56 268.694C410.035 269.805 408.931 271.065 406.658 271.643Z" fill="url(#paint55_linear_1_684)"/>
<path d="M405.042 287.101C403.873 289.982 402.849 290.646 402.109 290.687L400.123 290.397C399.936 289.076 399.574 287.536 399.387 286.218C400.277 286.443 401.182 286.608 402.094 286.711C403.099 286.833 404.236 287.111 405.042 287.101Z" fill="url(#paint56_linear_1_684)"/>
<path d="M402.722 290.508C402.722 290.508 397.808 318.935 405.295 325.687C404.835 326.517 403.135 333.798 403.135 333.798C403.135 333.798 395.702 329.216 395.197 329.254C394.693 329.291 389.481 311.354 400.123 290.395L402.722 290.508Z" fill="url(#paint57_linear_1_684)"/>
<path d="M410.303 340.701C410.684 340.616 408.446 336.155 406.687 336.669C404.929 337.184 396.335 342.157 395.552 344.215L394.772 346.273C394.772 346.273 398.521 346.567 400.847 345.785C403.173 345.003 407.205 341.392 410.303 340.701Z" fill="url(#paint58_linear_1_684)"/>
<path d="M396.461 311.509L400.842 351.377C400.993 352.749 399.067 354.807 397.684 354.737L333.44 350.792C332.928 350.768 332.439 350.57 332.055 350.23C331.67 349.891 331.414 349.43 331.327 348.925L323.265 310.418C323.023 309.017 325.543 307.569 326.965 307.609L394.288 309.495C394.833 309.511 395.354 309.723 395.753 310.093C396.153 310.464 396.405 310.967 396.461 311.509Z" fill="url(#paint59_linear_1_684)"/>
<path d="M394.994 312.671L399.374 352.54C399.41 352.864 399.375 353.191 399.271 353.5C399.168 353.809 398.999 354.092 398.776 354.329C398.553 354.566 398.282 354.753 397.98 354.875C397.678 354.997 397.353 355.052 397.028 355.037L331.972 351.95C331.46 351.926 330.971 351.727 330.587 351.388C330.203 351.048 329.946 350.588 329.859 350.082L323.213 311.399C323.156 311.07 323.173 310.733 323.263 310.412C323.352 310.091 323.512 309.794 323.731 309.542C323.949 309.29 324.221 309.09 324.526 308.956C324.831 308.822 325.162 308.757 325.495 308.766L392.819 310.653C393.364 310.668 393.886 310.881 394.286 311.253C394.687 311.624 394.938 312.128 394.994 312.671Z" fill="url(#paint60_linear_1_684)"/>
<path style="mix-blend-mode:multiply" opacity="0.3" d="M356.789 342.613C362.47 340.212 360.465 335.616 367.173 329.897C376.023 322.351 385.042 325.623 388.2 319.778C389.184 317.957 389.652 315.122 387.941 310.534L392.815 310.672C393.359 310.686 393.879 310.897 394.279 311.266C394.679 311.635 394.931 312.136 394.99 312.676L399.371 352.545C399.406 352.869 399.371 353.196 399.267 353.505C399.164 353.814 398.995 354.096 398.772 354.333C398.549 354.571 398.278 354.757 397.976 354.879C397.674 355.002 397.35 355.057 397.024 355.042L331.969 351.955C331.456 351.931 330.968 351.733 330.583 351.393C330.199 351.053 329.942 350.593 329.855 350.087L328.938 344.749C331.152 343.503 333.546 342.608 336.035 342.096C345.57 340.159 350.253 345.388 356.789 342.613Z" fill="url(#paint61_linear_1_684)"/>
<path d="M327.872 346.38C327.849 346.305 327.843 346.227 327.854 346.149C327.865 346.072 327.894 345.999 327.938 345.934C327.982 345.87 328.04 345.816 328.108 345.777C328.175 345.739 328.251 345.716 328.329 345.711C329.701 345.64 332.893 345.613 334.654 346.69C336.941 348.091 339.898 350.647 337.399 351.936L335.075 353.137C334.969 353.192 334.848 353.209 334.732 353.183C333.905 353.001 330.428 352.229 330.047 352.037C329.711 351.869 328.385 347.935 327.872 346.38Z" fill="url(#paint62_linear_1_684)"/>
<defs>
<filter id="filter0_d_1_684" x="0.624023" y="0" width="537.856" height="535.131" filterUnits="userSpaceOnUse" color-interpolation-filters="sRGB">
<feFlood flood-opacity="0" result="BackgroundImageFix"/>
<feColorMatrix in="SourceAlpha" type="matrix" values="0 0 0 0 0 0 0 0 0 0 0 0 0 0 0 0 0 0 127 0" result="hardAlpha"/>
<feOffset dx="4"/>
<feGaussianBlur stdDeviation="15"/>
<feColorMatrix type="matrix" values="0 0 0 0 0 0 0 0 0 0 0 0 0 0 0 0 0 0 0.25 0"/>
<feBlend mode="normal" in2="BackgroundImageFix" result="effect1_dropShadow_1_684"/>
<feBlend mode="normal" in="SourceGraphic" in2="effect1_dropShadow_1_684" result="shape"/>
</filter>
<linearGradient id="paint0_linear_1_684" x1="57.9056" y1="262.931" x2="227.817" y2="262.931" gradientUnits="userSpaceOnUse">
<stop stop-color="#FF9085"/>
<stop offset="1" stop-color="#FB6FBB"/>
</linearGradient>
<linearGradient id="paint1_linear_1_684" x1="492.008" y1="433.757" x2="417.525" y2="181.715" gradientUnits="userSpaceOnUse">
<stop stop-color="#311944"/>
<stop offset="1" stop-color="#893976"/>
</linearGradient>
<linearGradient id="paint2_linear_1_684" x1="106366" y1="414163" x2="63246.6" y2="343330" gradientUnits="userSpaceOnUse">
<stop stop-color="#311944"/>
<stop offset="1" stop-color="#893976"/>
</linearGradient>
<linearGradient id="paint3_linear_1_684" x1="463.172" y1="225.486" x2="435.495" y2="735.278" gradientUnits="userSpaceOnUse">
<stop stop-color="#E38DDD"/>
<stop offset="1" stop-color="#9571F6"/>
</linearGradient>
<linearGradient id="paint4_linear_1_684" x1="213845" y1="460889" x2="86604.2" y2="245275" gradientUnits="userSpaceOnUse">
<stop stop-color="#311944"/>
<stop offset="1" stop-color="#893976"/>
</linearGradient>
<linearGradient id="paint5_linear_1_684" x1="148937" y1="201988" x2="71723.3" y2="728799" gradientUnits="userSpaceOnUse">
<stop stop-color="#E38DDD"/>
<stop offset="1" stop-color="#9571F6"/>
</linearGradient>
<linearGradient id="paint6_linear_1_684" x1="185860" y1="371449" x2="110216" y2="182385" gradientUnits="userSpaceOnUse">
<stop stop-color="#311944"/>
<stop offset="1" stop-color="#893976"/>
</linearGradient>
<linearGradient id="paint7_linear_1_684" x1="126674" y1="146034" x2="87387.6" y2="540438" gradientUnits="userSpaceOnUse">
<stop stop-color="#E38DDD"/>
<stop offset="1" stop-color="#9571F6"/>
</linearGradient>
<linearGradient id="paint8_linear_1_684" x1="133699" y1="246621" x2="103523" y2="119453" gradientUnits="userSpaceOnUse">
<stop stop-color="#311944"/>
<stop offset="1" stop-color="#893976"/>
</linearGradient>
<linearGradient id="paint9_linear_1_684" x1="97359.1" y1="87630.6" x2="83922.2" y2="331682" gradientUnits="userSpaceOnUse">
<stop stop-color="#E38DDD"/>
<stop offset="1" stop-color="#9571F6"/>
</linearGradient>
<linearGradient id="paint10_linear_1_684" x1="89093.5" y1="214010" x2="69677.1" y2="92660.2" gradientUnits="userSpaceOnUse">
<stop stop-color="#311944"/>
<stop offset="1" stop-color="#893976"/>
</linearGradient>
<linearGradient id="paint11_linear_1_684" x1="54324.3" y1="62130.6" x2="47886.2" y2="240201" gradientUnits="userSpaceOnUse">
<stop stop-color="#E38DDD"/>
<stop offset="1" stop-color="#9571F6"/>
</linearGradient>
<linearGradient id="paint12_linear_1_684" x1="177656" y1="61007.7" x2="-167922" y2="521319" gradientUnits="userSpaceOnUse">
<stop stop-color="#E38DDD"/>
<stop offset="1" stop-color="#9571F6"/>
</linearGradient>
<linearGradient id="paint13_linear_1_684" x1="161454" y1="108931" x2="-70833.4" y2="505345" gradientUnits="userSpaceOnUse">
<stop stop-color="#E38DDD"/>
<stop offset="1" stop-color="#9571F6"/>
</linearGradient>
<linearGradient id="paint14_linear_1_684" x1="136134" y1="145025" x2="37800" y2="396716" gradientUnits="userSpaceOnUse">
<stop stop-color="#E38DDD"/>
<stop offset="1" stop-color="#9571F6"/>
</linearGradient>
<linearGradient id="paint15_linear_1_684" x1="87622.9" y1="130604" x2="65778" y2="224897" gradientUnits="userSpaceOnUse">
<stop stop-color="#E38DDD"/>
<stop offset="1" stop-color="#9571F6"/>
</linearGradient>
<linearGradient id="paint16_linear_1_684" x1="35624.5" y1="106161" x2="27306.2" y2="153777" gradientUnits="userSpaceOnUse">
<stop stop-color="#E38DDD"/>
<stop offset="1" stop-color="#9571F6"/>
</linearGradient>
<linearGradient id="paint17_linear_1_684" x1="280.495" y1="133.975" x2="200.979" y2="159.498" gradientUnits="userSpaceOnUse">
<stop stop-color="#FCB148"/>
<stop offset="0.05" stop-color="#FDBA46"/>
<stop offset="0.14" stop-color="#FFC244"/>
<stop offset="0.32" stop-color="#FFC444"/>
<stop offset="0.48" stop-color="#FDB946"/>
<stop offset="0.78" stop-color="#F99C4D"/>
<stop offset="0.87" stop-color="#F8924F"/>
<stop offset="1" stop-color="#F8924F"/>
</linearGradient>
<linearGradient id="paint18_linear_1_684" x1="344.82" y1="54.8334" x2="273.845" y2="211.434" gradientUnits="userSpaceOnUse">
<stop stop-color="#FFDB44"/>
<stop offset="1" stop-color="#FEEF06"/>
</linearGradient>
<linearGradient id="paint19_linear_1_684" x1="242811" y1="146954" x2="232054" y2="89230.2" gradientUnits="userSpaceOnUse">
<stop stop-color="#FCB148"/>
<stop offset="0.05" stop-color="#FDBA46"/>
<stop offset="0.14" stop-color="#FFC244"/>
<stop offset="0.32" stop-color="#FFC444"/>
<stop offset="0.48" stop-color="#FDB946"/>
<stop offset="0.78" stop-color="#F99C4D"/>
<stop offset="0.87" stop-color="#F8924F"/>
<stop offset="1" stop-color="#F8924F"/>
</linearGradient>
<linearGradient id="paint20_linear_1_684" x1="213246" y1="51597.2" x2="255838" y2="140402" gradientUnits="userSpaceOnUse">
<stop stop-color="#FCB148"/>
<stop offset="0.05" stop-color="#FDBA46"/>
<stop offset="0.14" stop-color="#FFC244"/>
<stop offset="0.32" stop-color="#FFC444"/>
<stop offset="0.48" stop-color="#FDB946"/>
<stop offset="0.78" stop-color="#F99C4D"/>
<stop offset="0.87" stop-color="#F8924F"/>
<stop offset="1" stop-color="#F8924F"/>
</linearGradient>
<linearGradient id="paint21_linear_1_684" x1="104535" y1="26410.4" x2="130439" y2="84093.5" gradientUnits="userSpaceOnUse">
<stop stop-color="#FFDB44"/>
<stop offset="1" stop-color="#FEEF06"/>
</linearGradient>
<linearGradient id="paint22_linear_1_684" x1="120041" y1="57228.8" x2="173102" y2="123398" gradientUnits="userSpaceOnUse">
<stop stop-color="#FCB148"/>
<stop offset="0.05" stop-color="#FDBA46"/>
<stop offset="0.14" stop-color="#FFC244"/>
<stop offset="0.32" stop-color="#FFC444"/>
<stop offset="0.48" stop-color="#FDB946"/>
<stop offset="0.78" stop-color="#F99C4D"/>
<stop offset="0.87" stop-color="#F8924F"/>
<stop offset="1" stop-color="#F8924F"/>
</linearGradient>
<linearGradient id="paint23_linear_1_684" x1="142.214" y1="322.334" x2="63.2025" y2="363.285" gradientUnits="userSpaceOnUse">
<stop stop-color="#FFC444"/>
<stop offset="1" stop-color="#F36F56"/>
</linearGradient>
<linearGradient id="paint24_linear_1_684" x1="165.658" y1="144.2" x2="166.674" y2="459.815" gradientUnits="userSpaceOnUse">
<stop stop-color="#AA80F9"/>
<stop offset="1" stop-color="#6165D7"/>
</linearGradient>
<linearGradient id="paint25_linear_1_684" x1="112.457" y1="500.623" x2="99.1299" y2="501.823" gradientUnits="userSpaceOnUse">
<stop stop-color="#444B8C"/>
<stop offset="1" stop-color="#26264F"/>
</linearGradient>
<linearGradient id="paint26_linear_1_684" x1="-2828.31" y1="19029.4" x2="-3133.36" y2="18665.7" gradientUnits="userSpaceOnUse">
<stop stop-color="#FFC444"/>
<stop offset="1" stop-color="#F36F56"/>
</linearGradient>
<linearGradient id="paint27_linear_1_684" x1="-11739.5" y1="18884.9" x2="-12925.2" y2="19139" gradientUnits="userSpaceOnUse">
<stop stop-color="#444B8C"/>
<stop offset="1" stop-color="#26264F"/>
</linearGradient>
<linearGradient id="paint28_linear_1_684" x1="-2084.29" y1="18784.1" x2="-2396.2" y2="18383.4" gradientUnits="userSpaceOnUse">
<stop stop-color="#FFC444"/>
<stop offset="1" stop-color="#F36F56"/>
</linearGradient>
<linearGradient id="paint29_linear_1_684" x1="155.918" y1="473.155" x2="122.728" y2="386.149" gradientUnits="userSpaceOnUse">
<stop stop-color="#40447E"/>
<stop offset="1" stop-color="#3C3B6B"/>
</linearGradient>
<linearGradient id="paint30_linear_1_684" x1="43140.3" y1="321087" x2="9093.51" y2="299357" gradientUnits="userSpaceOnUse">
<stop stop-color="#40447E"/>
<stop offset="1" stop-color="#3C3B6B"/>
</linearGradient>
<linearGradient id="paint31_linear_1_684" x1="46597.3" y1="337768" x2="11125.8" y2="319862" gradientUnits="userSpaceOnUse">
<stop stop-color="#40447E"/>
<stop offset="1" stop-color="#3C3B6B"/>
</linearGradient>
<linearGradient id="paint32_linear_1_684" x1="48731.4" y1="78348.4" x2="49633.1" y2="293730" gradientUnits="userSpaceOnUse">
<stop stop-color="#AA80F9"/>
<stop offset="1" stop-color="#6165D7"/>
</linearGradient>
<linearGradient id="paint33_linear_1_684" x1="16514.3" y1="32211.9" x2="5238.09" y2="39177" gradientUnits="userSpaceOnUse">
<stop stop-color="#FFC444"/>
<stop offset="1" stop-color="#F36F56"/>
</linearGradient>
<linearGradient id="paint34_linear_1_684" x1="105.397" y1="285.494" x2="116.754" y2="260.402" gradientUnits="userSpaceOnUse">
<stop stop-color="#311944"/>
<stop offset="1" stop-color="#6B3976"/>
</linearGradient>
<linearGradient id="paint35_linear_1_684" x1="7944.45" y1="16894.4" x2="2225.31" y2="20143.1" gradientUnits="userSpaceOnUse">
<stop stop-color="#FFC444"/>
<stop offset="1" stop-color="#F36F56"/>
</linearGradient>
<linearGradient id="paint36_linear_1_684" x1="4881.9" y1="15733.7" x2="4195.64" y2="13914.8" gradientUnits="userSpaceOnUse">
<stop stop-color="#311944"/>
<stop offset="1" stop-color="#6B3976"/>
</linearGradient>
<linearGradient id="paint37_linear_1_684" x1="18180.4" y1="2286.46" x2="18257.9" y2="2714.71" gradientUnits="userSpaceOnUse">
<stop stop-color="#FF9085"/>
<stop offset="1" stop-color="#FB6FBB"/>
</linearGradient>
<linearGradient id="paint38_linear_1_684" x1="49796.5" y1="50551.2" x2="48413" y2="40014.1" gradientUnits="userSpaceOnUse">
<stop stop-color="#FF9085"/>
<stop offset="1" stop-color="#FB6FBB"/>
</linearGradient>
<linearGradient id="paint39_linear_1_684" x1="25050.5" y1="153146" x2="55077.9" y2="153146" gradientUnits="userSpaceOnUse">
<stop stop-color="#AA80F9"/>
<stop offset="1" stop-color="#6165D7"/>
</linearGradient>
<linearGradient id="paint40_linear_1_684" x1="115.479" y1="358.28" x2="92.1444" y2="340.58" gradientUnits="userSpaceOnUse">
<stop stop-color="#26264F"/>
<stop offset="1" stop-color="#444B8C"/>
</linearGradient>
<linearGradient id="paint41_linear_1_684" x1="34028.5" y1="88958.4" x2="48788" y2="94287.2" gradientUnits="userSpaceOnUse">
<stop stop-color="#26264F"/>
<stop offset="1" stop-color="#444B8C"/>
</linearGradient>
<linearGradient id="paint42_linear_1_684" x1="12982" y1="15867.8" x2="7878.73" y2="20806" gradientUnits="userSpaceOnUse">
<stop stop-color="#FFC444"/>
<stop offset="1" stop-color="#F36F56"/>
</linearGradient>
<linearGradient id="paint43_linear_1_684" x1="12190.6" y1="52220.7" x2="12860.4" y2="195285" gradientUnits="userSpaceOnUse">
<stop stop-color="#AA80F9"/>
<stop offset="1" stop-color="#6165D7"/>
</linearGradient>
<linearGradient id="paint44_linear_1_684" x1="-10645.2" y1="17820.1" x2="-9513.13" y2="17854.1" gradientUnits="userSpaceOnUse">
<stop stop-color="#311944"/>
<stop offset="1" stop-color="#893976"/>
</linearGradient>
<linearGradient id="paint45_linear_1_684" x1="11779.1" y1="19298.1" x2="11924.1" y2="19298.1" gradientUnits="userSpaceOnUse">
<stop stop-color="#FFC444"/>
<stop offset="1" stop-color="#F36F56"/>
</linearGradient>
<linearGradient id="paint46_linear_1_684" x1="-7106.06" y1="15858.1" x2="-5836.97" y2="16215.1" gradientUnits="userSpaceOnUse">
<stop stop-color="#311944"/>
<stop offset="1" stop-color="#893976"/>
</linearGradient>
<linearGradient id="paint47_linear_1_684" x1="12814.8" y1="18580.1" x2="13036" y2="18580.1" gradientUnits="userSpaceOnUse">
<stop stop-color="#FFC444"/>
<stop offset="1" stop-color="#F36F56"/>
</linearGradient>
<linearGradient id="paint48_linear_1_684" x1="-125610" y1="335613" x2="-84897.7" y2="301797" gradientUnits="userSpaceOnUse">
<stop stop-color="#26264F"/>
<stop offset="1" stop-color="#444B8C"/>
</linearGradient>
<linearGradient id="paint49_linear_1_684" x1="-113166" y1="363583" x2="-74413.5" y2="347240" gradientUnits="userSpaceOnUse">
<stop stop-color="#26264F"/>
<stop offset="1" stop-color="#444B8C"/>
</linearGradient>
<linearGradient id="paint50_linear_1_684" x1="-150070" y1="193312" x2="-158916" y2="157124" gradientUnits="userSpaceOnUse">
<stop stop-color="#AA80F9"/>
<stop offset="1" stop-color="#6165D7"/>
</linearGradient>
<linearGradient id="paint51_linear_1_684" x1="-150580" y1="16118.4" x2="-150529" y2="15007.5" gradientUnits="userSpaceOnUse">
<stop stop-color="#444B8C"/>
<stop offset="1" stop-color="#26264F"/>
</linearGradient>
<linearGradient id="paint52_linear_1_684" x1="-48198.8" y1="22105.5" x2="-48308.4" y2="23467.8" gradientUnits="userSpaceOnUse">
<stop stop-color="#444B8C"/>
<stop offset="1" stop-color="#26264F"/>
</linearGradient>
<linearGradient id="paint53_linear_1_684" x1="62188.5" y1="33607.1" x2="66714.3" y2="33607.1" gradientUnits="userSpaceOnUse">
<stop stop-color="#FFC444"/>
<stop offset="1" stop-color="#F36F56"/>
</linearGradient>
<linearGradient id="paint54_linear_1_684" x1="26970.6" y1="34707.7" x2="24795.9" y2="29935" gradientUnits="userSpaceOnUse">
<stop stop-color="#311944"/>
<stop offset="1" stop-color="#6B3976"/>
</linearGradient>
<linearGradient id="paint55_linear_1_684" x1="12540.1" y1="15764.7" x2="12124.9" y2="18534" gradientUnits="userSpaceOnUse">
<stop stop-color="#FFC444"/>
<stop offset="1" stop-color="#F36F56"/>
</linearGradient>
<linearGradient id="paint56_linear_1_684" x1="-14347.6" y1="403.696" x2="-14530.8" y2="964.481" gradientUnits="userSpaceOnUse">
<stop stop-color="#FF9085"/>
<stop offset="1" stop-color="#FB6FBB"/>
</linearGradient>
<linearGradient id="paint57_linear_1_684" x1="-40651.3" y1="39726" x2="-37331.4" y2="27338.9" gradientUnits="userSpaceOnUse">
<stop stop-color="#FF9085"/>
<stop offset="1" stop-color="#FB6FBB"/>
</linearGradient>
<linearGradient id="paint58_linear_1_684" x1="35147.5" y1="17952" x2="36561.6" y2="17952" gradientUnits="userSpaceOnUse">
<stop stop-color="#FFC444"/>
<stop offset="1" stop-color="#F36F56"/>
</linearGradient>
<linearGradient id="paint59_linear_1_684" x1="-197529" y1="85542.5" x2="-194437" y2="78312.3" gradientUnits="userSpaceOnUse">
<stop stop-color="#444B8C"/>
<stop offset="1" stop-color="#26264F"/>
</linearGradient>
<linearGradient id="paint60_linear_1_684" x1="-181485" y1="93284.3" x2="-187476" y2="73243.5" gradientUnits="userSpaceOnUse">
<stop stop-color="#444B8C"/>
<stop offset="1" stop-color="#26264F"/>
</linearGradient>
<linearGradient id="paint61_linear_1_684" x1="-161300" y1="78893" x2="-190233" y2="78893" gradientUnits="userSpaceOnUse">
<stop stop-color="#444B8C"/>
<stop offset="1" stop-color="#26264F"/>
</linearGradient>
<linearGradient id="paint62_linear_1_684" x1="19664.5" y1="14339.6" x2="20307.9" y2="14339.6" gradientUnits="userSpaceOnUse">
<stop stop-color="#FFC444"/>
<stop offset="1" stop-color="#F36F56"/>
</linearGradient>
</defs>
</svg>
