<svg width="34" height="35" viewBox="0 0 34 35" fill="none" xmlns="http://www.w3.org/2000/svg">
<g id="Group">
<g id="Group_2">
<path id="Vector" d="M32.3647 25.2409L28.235 21.0385C27.0964 19.88 25.2437 19.88 24.1052 21.0385L22.2281 22.9487C21.3655 23.8264 19.962 23.8261 19.0998 22.949L10.9634 14.6625C10.0989 13.7827 10.0987 12.3588 10.9634 11.4789C11.2658 11.1712 12.134 10.2877 12.8406 9.5687C13.9741 8.41525 13.99 6.53587 12.8395 5.36526L8.71083 1.1772C7.57226 0.0186699 5.71966 0.0186699 4.58414 1.17416C3.73443 2.03129 3.46036 2.3078 3.07937 2.69213C-1.02642 6.87009 -1.02642 13.6682 3.07918 17.846L15.9709 30.9714C20.0863 35.1592 26.7472 35.1596 30.8629 30.9714L32.3647 29.4432C33.5033 28.2846 33.5033 26.3995 32.3647 25.2409ZM5.95771 2.57797C6.33721 2.1918 6.95464 2.19173 7.33537 2.57903L11.464 6.76709C11.8444 7.15419 11.8444 7.78069 11.464 8.16786L10.7757 8.86825L5.27294 3.26872L5.95771 2.57797ZM17.3477 29.5708L4.45593 16.4453C1.27939 13.2129 1.10479 8.13723 3.91896 4.69254L9.40572 10.2758C7.96402 11.9389 8.02411 14.4731 9.58655 16.0631L17.7226 24.3492C17.7227 24.3493 17.7228 24.3494 17.7229 24.3494C19.2836 25.9377 21.7739 26.0028 23.4103 24.5338L28.8972 30.1172C25.5228 32.9759 20.5461 32.8255 17.3477 29.5708ZM30.9882 28.0425L30.2999 28.7429L24.7936 23.1397L25.4818 22.4393C25.8614 22.0531 26.4788 22.0531 26.8584 22.4393L30.9881 26.6417C31.3677 27.0279 31.3677 27.6563 30.9882 28.0425Z" fill="#FB6FBB"/>
</g>
</g>
</svg>
