<svg width="33" height="34" viewBox="0 0 33 34" fill="none" xmlns="http://www.w3.org/2000/svg">
<g id="Group 187">
<g id="Group">
<g id="Group_2">
<path id="Vector" d="M16.4355 0.278137C7.35152 0.278137 0 7.75832 0 17.0028C0 26.1781 7.28481 33.8586 16.4355 33.8586C25.5005 33.8586 33 26.2562 33 17.0028C33 7.68093 25.4424 0.278137 16.4355 0.278137ZM16.4355 31.9041C8.43917 31.9041 1.9207 25.2122 1.9207 17.0028C1.9207 8.86576 8.43917 2.23263 16.4355 2.23263C24.503 2.23263 31.0793 8.86576 31.0793 17.0028C31.0793 25.2122 24.503 31.9041 16.4355 31.9041Z" fill="#FB6FBB"/>
</g>
</g>
<g id="Group_3">
<g id="Group_4">
<path id="Vector_2" d="M16.4355 6.18092C10.5715 6.18092 5.80078 11.0356 5.80078 17.0028C5.80078 22.9924 10.5617 27.9558 16.4355 27.9558C18.8122 27.9558 21.2164 27.143 23.0316 25.7258C23.4553 25.395 23.5352 24.7774 23.2102 24.3463C22.8851 23.9152 22.2782 23.8339 21.8546 24.1647C20.3703 25.3235 18.3951 26.0013 16.4355 26.0013C11.6377 26.0013 7.73438 21.9573 7.73438 17.0028C7.73438 12.1205 11.6377 8.13541 16.4355 8.13541C21.3045 8.13541 25.2656 12.1205 25.2656 17.0028V17.9866C25.2656 19.0715 24.3982 19.9542 23.332 19.9542C22.2658 19.9542 21.3984 19.0715 21.3984 17.9866C21.3984 17.4993 21.3984 13.5815 21.3984 13.0676C21.3984 12.5242 20.9656 12.0837 20.4316 12.0837C19.8977 12.0837 19.4648 12.5242 19.4648 13.0676V13.1299C18.5918 12.4525 17.5356 12.0837 16.4355 12.0837C13.7701 12.0837 11.6016 14.2904 11.6016 17.0028C11.6016 19.7151 13.7701 21.9218 16.4355 21.9218C17.8808 21.9218 19.2108 21.2907 20.1567 20.2289C20.8559 21.251 22.0182 21.9218 23.332 21.9218C25.4644 21.9218 27.1992 20.1565 27.1992 17.9866V17.0028C27.1992 11.0177 22.3143 6.18092 16.4355 6.18092ZM16.4355 19.9673C14.8363 19.9673 13.5352 18.6302 13.5352 17.0028C13.5352 15.3754 14.8363 14.0382 16.4355 14.0382C18.0776 14.0382 19.4648 15.4029 19.4648 17.0028C19.4648 18.6026 18.0776 19.9673 16.4355 19.9673Z" fill="#FB6FBB"/>
</g>
</g>
</g>
</svg>
