<svg width="26" height="38" viewBox="0 0 26 38" fill="none" xmlns="http://www.w3.org/2000/svg">
<g id="Group 186">
<g id="Group">
<g id="Group_2">
<path id="Vector" d="M13 0.307922C5.8318 0.307922 0 6.24231 0 13.5366C0 16.0011 0.670873 18.4062 1.94054 20.4928L12.26 37.4151C12.4577 37.7392 12.8059 37.9362 13.1805 37.9362C13.1834 37.9362 13.1862 37.9362 13.1891 37.9362C13.5669 37.9332 13.9159 37.7301 14.1099 37.4003L24.1664 20.3141C25.366 18.2716 26 15.928 26 13.5366C26 6.24231 20.1682 0.307922 13 0.307922ZM22.307 19.1822L13.1641 34.7162L3.78206 19.3312C2.72523 17.5944 2.15222 15.5907 2.15222 13.5366C2.15222 7.45803 7.0265 2.49801 13 2.49801C18.9735 2.49801 23.8406 7.45803 23.8406 13.5366C23.8406 15.5298 23.3053 17.4823 22.307 19.1822Z" fill="#FB6FBB"/>
</g>
</g>
<g id="Group_3">
<g id="Group_4">
<path id="Vector_2" d="M13 6.92232C9.4159 6.92232 6.5 9.88951 6.5 13.5367C6.5 17.1605 9.36845 20.151 13 20.151C16.6763 20.151 19.5 17.1207 19.5 13.5367C19.5 9.88951 16.5841 6.92232 13 6.92232ZM13 17.9609C10.5981 17.9609 8.65222 15.9742 8.65222 13.5367C8.65222 11.1052 10.6106 9.1124 13 9.1124C15.3894 9.1124 17.3406 11.1052 17.3406 13.5367C17.3406 15.9386 15.44 17.9609 13 17.9609Z" fill="#FB6FBB"/>
</g>
</g>
</g>
</svg>
