<svg width="415" height="421" viewBox="0 0 415 421" fill="none" xmlns="http://www.w3.org/2000/svg">
<g filter="url(#filter0_d_1_1148)">
<path d="M176.268 30.032C128.234 30.8799 53.9165 49.1434 32.5253 96.0758C25.055 112.467 25.5603 136.565 26.5723 184.762C26.8695 198.927 27.3619 219.575 30.8244 245.194C38.0168 298.412 42.9126 334.641 61.4437 355.737C107.877 408.597 275.601 407.068 347.227 311.905C386.299 259.992 392.309 186.15 356.583 125.114C317.25 57.9165 240.574 28.896 176.268 30.032Z" fill="#313252"/>
</g>
<path d="M223.58 297.805C214.19 296.923 207.882 303.545 204.064 309.05C204.404 309.89 204.386 310.46 204.539 311.376C205.93 319.685 208.294 322.933 210.959 330.905C211.533 332.621 214.747 337.146 216.18 338.91L218.902 342.158C218.902 342.158 240.601 341.529 241.607 329.216C242.612 316.903 263.145 313.699 273.816 310.656C280.367 308.789 282.764 305.835 285.06 304.763C309.373 293.406 319.73 297.982 325.367 289.433C331.59 279.998 320.752 271.716 326.979 261.091C334.012 249.095 352.555 251.594 356.673 238.754C357.378 236.557 358.044 234.27 357.757 231.199C357.05 223.621 350.907 219.677 354.564 212.614C361.921 198.418 359.432 180.848 343.764 175.751C328.299 170.72 309.928 190.915 303.078 226.415C295.323 251.1 290.815 253.152 278.918 255.947C270.586 257.906 246.696 257.696 243.158 272.216C239.619 286.737 234.315 298.816 223.58 297.805Z" fill="url(#paint0_linear_1_1148)"/>
<g style="mix-blend-mode:soft-light" opacity="0.5">
<g style="mix-blend-mode:soft-light" opacity="0.5">
<path d="M209.005 326.977L209.305 327.52C212.314 325.893 215.325 324.211 218.257 322.525C239.963 310.026 259.616 295.8 276.656 280.24C291.099 267.057 303.882 252.73 314.645 237.664C323.305 225.548 330.706 212.888 336.653 200.036C340.834 191.002 344.258 181.966 346.827 173.182C347.274 171.65 347.648 170.053 348.01 168.508C348.49 166.449 348.988 164.321 349.667 162.334L349.111 162.098C348.423 164.111 347.922 166.254 347.431 168.327C347.073 169.864 346.7 171.454 346.257 172.97C343.695 181.727 340.283 190.736 336.114 199.744C330.182 212.564 322.794 225.193 314.158 237.282C303.416 252.317 290.66 266.62 276.244 279.772C259.228 295.307 239.61 309.51 217.938 321.988C215.017 323.675 212.01 325.353 209.005 326.977Z" fill="#FCFDFE"/>
</g>
<g style="mix-blend-mode:soft-light" opacity="0.5">
<path d="M300.297 254.996L300.739 255.428C317.364 237.075 359.754 231.596 360.18 231.543L360.07 230.94C359.643 230.994 317.055 236.501 300.297 254.996Z" fill="#FCFDFE"/>
</g>
<g style="mix-blend-mode:soft-light" opacity="0.5">
<path d="M249.148 301.785L249.536 302.263C262.34 291.264 261.656 257.06 261.648 256.716L261.06 256.689C261.077 257.031 261.752 290.959 249.148 301.785Z" fill="#FCFDFE"/>
</g>
<g style="mix-blend-mode:soft-light" opacity="0.5">
<path d="M241.316 307.337L241.626 307.874C251.19 302.427 267.399 300.495 287.275 302.434C288.275 302.532 288.275 302.532 288.371 302.479L288.067 301.939L288.219 302.209L288.172 301.908C288.105 301.908 287.727 301.873 287.291 301.83C267.299 299.88 250.973 301.835 241.316 307.337Z" fill="#FCFDFE"/>
</g>
<g style="mix-blend-mode:soft-light" opacity="0.5">
<path d="M214.449 323.926L214.889 324.357C223.105 315.368 220.03 296.448 219.998 296.258L219.42 296.322C219.451 296.509 222.477 315.141 214.449 323.926Z" fill="#FCFDFE"/>
</g>
<g style="mix-blend-mode:soft-light" opacity="0.5">
<path d="M209.319 327.859C219.141 326.627 229.818 328.302 241.967 332.981L242.138 332.413C229.896 327.7 219.124 326.013 209.209 327.255L209.319 327.859Z" fill="#FCFDFE"/>
</g>
<g style="mix-blend-mode:soft-light" opacity="0.5">
<path d="M332.493 207.245L332.955 207.651C341.612 196.877 353.266 187.807 357.095 184.834C358.023 184.113 358.347 183.859 358.444 183.749L357.998 183.324C357.923 183.406 357.394 183.819 356.722 184.341C352.88 187.326 341.189 196.421 332.493 207.245Z" fill="#FCFDFE"/>
</g>
<g style="mix-blend-mode:soft-light" opacity="0.5">
<path d="M321.075 227.097L321.624 227.356C326.331 215.017 315.529 189.487 315.066 188.409L314.532 188.623C314.643 188.885 325.699 214.991 321.075 227.097Z" fill="#FCFDFE"/>
</g>
</g>
<path d="M316.542 92.9546C285.283 73.6572 257.756 123.999 265.878 165.06C268.233 176.972 267.934 184.366 265.927 189.077C259.151 202.542 256.423 214.022 255.183 222.013C251.585 245.191 257.742 256.953 251.453 275.497C247.482 287.211 240.614 295.529 235.534 300.655C236.763 301.743 237.842 302.99 238.742 304.363L243.783 312.031C251.02 310.714 257.59 308.133 255.027 298.848C251.04 284.421 271.577 271.931 280.965 271.005C292.584 269.86 319.555 266.627 313.733 244.241C308.887 225.606 302.054 214.372 320.808 201.834C339.563 189.296 344.924 171.04 332.536 153.238C319.495 134.5 334.481 104.031 316.542 92.9546Z" fill="url(#paint1_linear_1_1148)"/>
<g style="mix-blend-mode:soft-light" opacity="0.3">
<g style="mix-blend-mode:soft-light" opacity="0.3">
<g style="mix-blend-mode:soft-light" opacity="0.3">
<path d="M196.233 318.682C223.245 300.349 271.936 259.205 294.634 189.637C309.819 143.096 308.005 103.253 305.572 83.6452L304.693 83.7538C307.117 103.289 308.923 142.985 293.793 189.358C271.175 258.677 222.649 299.676 195.735 317.946L196.233 318.682Z" fill="#FCFDFE"/>
</g>
<g style="mix-blend-mode:soft-light" opacity="0.3">
<path d="M304.633 146.966C304.736 144.413 304.683 141.856 304.475 139.309C303.189 123.645 295.786 108.249 283.067 94.7873L282.421 95.3961C295 108.708 302.324 123.92 303.59 139.382C303.795 141.892 303.846 144.413 303.745 146.93L304.633 146.966Z" fill="#FCFDFE"/>
</g>
<g style="mix-blend-mode:soft-light" opacity="0.3">
<path d="M259.927 257.02C261.989 255.746 264.167 254.671 266.432 253.808C287.321 246.007 307.096 250.431 317.025 253.762L317.307 252.921C307.267 249.553 287.268 245.08 266.126 252.978C263.809 253.86 261.581 254.96 259.471 256.262L259.927 257.02Z" fill="#FCFDFE"/>
</g>
<g style="mix-blend-mode:soft-light" opacity="0.3">
<path d="M293.267 193.668C294.154 192.288 295.117 190.959 296.152 189.686C309.082 173.789 330.556 170.079 346.298 169.761L346.28 168.875C330.356 169.197 308.615 172.972 295.469 189.128C294.413 190.426 293.431 191.782 292.526 193.19L293.267 193.668Z" fill="#FCFDFE"/>
</g>
</g>
</g>
<path d="M159.476 108.927L213.104 108.464V90.9436L159.476 89.1691V108.927Z" fill="#97A6B7"/>
<path d="M219.259 137.138L282.998 144.112V115.537L219.259 109.281V137.138Z" fill="#E6EBF4"/>
<path d="M239.479 394.961L297.505 387.51V141.777L239.479 137.46V394.961Z" fill="#E6EBF4"/>
<path d="M245.195 143.957L299.704 147.898V137.444L245.195 133.209V143.957Z" fill="#97A6B7"/>
<path d="M233.326 111.346L286.955 115.597V105.204L233.326 100.532V111.346Z" fill="#97A6B7"/>
<path d="M245.195 219.198L299.704 221.071V211.036L245.195 208.88V219.198Z" fill="#97A6B7"/>
<path d="M245.195 294.01L299.704 293.826V283.791L245.195 283.691V294.01Z" fill="#97A6B7"/>
<path d="M143.619 105.491C143.619 114.121 150.784 120.871 159.668 120.583C168.606 120.286 175.887 112.975 175.887 104.253C175.887 95.5317 168.606 88.78 159.668 89.169C150.784 89.5555 143.619 96.8616 143.619 105.491Z" fill="#D8DEE8"/>
<path d="M93.5376 141.819L229.368 138.173V110.229L93.5376 115.086V141.819Z" fill="white"/>
<path d="M82.5483 386.34L241.238 395.059V137.411L82.5483 141.709V386.34Z" fill="white"/>
<path d="M88.262 116.494L234.644 111.327V100.561L88.262 106.229V116.494Z" fill="#D8DEE8"/>
<path d="M89.2793 147.537L245.194 143.349V132.546L89.2793 137.306V147.537Z" fill="#D8DEE8"/>
<path d="M82.5482 219.156L245.194 218.972V208.168L82.5482 208.925V219.156Z" fill="#D8DEE8"/>
<path d="M78.5921 290.367L245.194 294.162V283.791L78.5921 280.545V290.367Z" fill="#D8DEE8"/>
<path d="M78.5921 386.132L245.194 395.28V393.552L78.5921 384.495V386.132Z" fill="#D8DEE8"/>
<path d="M193.323 199.055L230.688 198.778V152.76L193.323 153.58V199.055Z" fill="#D8DEE8"/>
<path d="M212.665 194.63L228.49 194.499V155.389L212.665 155.712V194.63Z" fill="url(#paint2_linear_1_1148)"/>
<path d="M195.521 194.785L210.907 194.645V155.751L195.521 156.084V194.785Z" fill="url(#paint3_linear_1_1148)"/>
<path d="M141.892 199.448L177.938 199.171V153.923L141.892 154.731V199.448Z" fill="#D8DEE8"/>
<path d="M160.355 195.096L175.3 194.966V156.516L160.355 156.831V195.096Z" fill="url(#paint4_linear_1_1148)"/>
<path d="M144.53 195.246L158.596 195.111V156.868L144.53 157.184V195.246Z" fill="url(#paint5_linear_1_1148)"/>
<path d="M91.779 199.821L126.946 199.555V155.059L91.779 155.84V199.821Z" fill="#D8DEE8"/>
<path d="M110.241 195.549L124.308 195.419V157.608L110.241 157.915V195.549Z" fill="url(#paint6_linear_1_1148)"/>
<path d="M94.4165 195.691L108.483 195.563V157.95L94.4165 158.254V195.691Z" fill="url(#paint7_linear_1_1148)"/>
<path d="M193.323 275.128L230.688 275.765V229.745L193.323 229.655V275.128Z" fill="#D8DEE8"/>
<path d="M212.665 271.181L228.49 271.429V232.32L212.665 232.263V271.181Z" fill="url(#paint8_linear_1_1148)"/>
<path d="M195.521 270.914L210.907 271.154V232.258L195.521 232.211V270.914Z" fill="url(#paint9_linear_1_1148)"/>
<path d="M141.892 274.256L177.938 274.867V229.619L141.892 229.539V274.256Z" fill="#D8DEE8"/>
<path d="M160.355 270.364L175.3 270.597V232.148L160.355 232.099V270.364Z" fill="url(#paint10_linear_1_1148)"/>
<path d="M144.53 270.117L158.596 270.337V232.094L144.53 232.055V270.117Z" fill="url(#paint11_linear_1_1148)"/>
<path d="M91.779 273.402L126.946 273.996V229.499L91.779 229.418V273.402Z" fill="#D8DEE8"/>
<path d="M110.241 269.577L124.308 269.796V231.984L110.241 231.943V269.577Z" fill="url(#paint12_linear_1_1148)"/>
<path d="M94.4165 269.332L108.483 269.55V231.936L94.4165 231.893V269.332Z" fill="url(#paint13_linear_1_1148)"/>
<path d="M193.323 369.902L230.688 371.675V326.085L193.323 324.852V369.902Z" fill="#D8DEE8"/>
<path d="M212.665 366.978L228.49 367.701V328.59L212.665 328.06V366.978Z" fill="url(#paint14_linear_1_1148)"/>
<path d="M195.521 366.178L210.907 366.895V328.001L195.521 327.477V366.178Z" fill="url(#paint15_linear_1_1148)"/>
<path d="M91.779 365.067L126.946 366.733V322.651L91.779 321.495V365.067Z" fill="#D8DEE8"/>
<path d="M110.241 362.216L124.308 362.871V325.059L110.241 324.581V362.216Z" fill="url(#paint16_linear_1_1148)"/>
<path d="M94.4165 361.485L108.483 362.137V324.523L94.4165 324.047V361.485Z" fill="url(#paint17_linear_1_1148)"/>
<path d="M185.851 131.278L221.897 130.202V114.759L185.851 116.014V131.278Z" fill="#D8DEE8"/>
<path d="M142.332 132.569L177.938 131.509V116.286L142.332 117.521V132.569Z" fill="#D8DEE8"/>
<path d="M99.6928 133.823L134.419 132.794V117.785L99.6928 118.986V133.823Z" fill="#D8DEE8"/>
<g style="mix-blend-mode:multiply" opacity="0.1">
<path d="M241.238 143.453C241.238 143.453 209.283 148.527 195.521 170.119C181.879 191.52 151.099 183.445 124.285 189.605C97.9375 195.657 82.2446 208.909 82.2446 208.909L241.238 208.615V143.453Z" fill="#97A6B7"/>
</g>
<g style="mix-blend-mode:multiply" opacity="0.1">
<path d="M241.238 219.41C241.238 219.41 209.283 223.712 195.521 244.972C181.879 266.038 151.099 257.224 124.285 262.736C97.9375 268.153 82.2446 281.026 82.2446 281.026L241.238 284.576V219.41Z" fill="#97A6B7"/>
</g>
<g style="mix-blend-mode:multiply" opacity="0.1">
<path d="M241.238 328.197C241.238 328.197 209.283 331.412 195.521 352.203C181.879 372.811 151.099 362.945 124.285 367.544C97.9375 372.068 82.2446 384.404 82.2446 384.404L241.238 393.365V328.197Z" fill="#97A6B7"/>
</g>
<path d="M141.892 379.572L177.938 381.434V315.887L141.892 314.793V379.572Z" fill="#E4E9F2"/>
<path d="M136.177 317.96L183.212 319.436V310.116L136.177 308.783V317.96Z" fill="#D8DEE8"/>
<path d="M131.781 379.06L187.608 381.932V376.417L131.781 373.645V379.06Z" fill="url(#paint18_linear_1_1148)"/>
<path d="M126.507 384.177L193.763 387.775V382.25L126.507 378.77V384.177Z" fill="#D8DEE8"/>
<path d="M122.99 389.392L196.84 393.471V387.939L122.99 383.993V389.392Z" fill="url(#paint19_linear_1_1148)"/>
<path d="M224.495 124.396H274.536V83.3582L224.495 76.1257V124.396Z" fill="url(#paint20_linear_1_1148)"/>
<path d="M82.3415 100.562V299.319H224.495V73.4684L219.348 74.4468L208.578 76.5018L85.8841 99.8885L82.3415 100.562Z" fill="url(#paint21_linear_1_1148)"/>
<path d="M185.524 80.5536H189.51V299.318H185.524V80.5536Z" fill="white"/>
<path d="M126.625 90.7394H130.611V299.319H126.625V90.7394Z" fill="white"/>
<path d="M82.342 214.555L223.906 215.707L223.868 211.4L82.342 210.606V214.555Z" fill="white"/>
<path d="M82.3415 275.348L224.495 282.048L224.456 277.704L82.3415 271.368V275.348Z" fill="white"/>
<path d="M82.3416 142.036L223.204 136.631L223.166 132.366L82.3416 138.124V142.036Z" fill="white"/>
<path d="M82.3412 96.0538H85.8838V299.319H82.3412V96.0538Z" fill="white"/>
<path d="M84.3926 101.319L224.495 78.5568V72.3945L83.5409 96.0733L84.3926 101.319Z" fill="white"/>
<g style="mix-blend-mode:soft-light" opacity="0.5">
<path d="M82.3415 292.804V299.319H204.703C211.288 298.447 217.885 297.449 224.495 296.324V76.1257C222.914 73.4026 221.2 76.3842 219.348 74.4456L208.578 76.5005C208.406 84.1001 206.581 94.4577 205.984 96.2335C198.513 118.351 172.793 122.151 155.659 133.801C141.093 143.704 124.532 155.602 117.403 172.285C109.192 191.487 114.569 211.937 115.436 231.842C116.145 248.103 110.99 263.765 100.034 275.892C96.1991 280.139 91.3007 285.284 85.8893 289.916C84.7248 290.909 83.5461 291.878 82.3415 292.804Z" fill="white"/>
</g>
<path d="M224.495 72.3428L276.75 80.5536V86.7535L224.495 78.5568V72.3428Z" fill="white"/>
<path d="M271.878 103.891L276.75 104.315V80.5536H271.878V103.891Z" fill="white"/>
<defs>
<filter id="filter0_d_1_1148" x="-0.000488281" y="0" width="414.25" height="420.651" filterUnits="userSpaceOnUse" color-interpolation-filters="sRGB">
<feFlood flood-opacity="0" result="BackgroundImageFix"/>
<feColorMatrix in="SourceAlpha" type="matrix" values="0 0 0 0 0 0 0 0 0 0 0 0 0 0 0 0 0 0 127 0" result="hardAlpha"/>
<feOffset dx="4"/>
<feGaussianBlur stdDeviation="15"/>
<feColorMatrix type="matrix" values="0 0 0 0 0.121569 0 0 0 0 0.121569 0 0 0 0 0.207843 0 0 0 1 0"/>
<feBlend mode="normal" in2="BackgroundImageFix" result="effect1_dropShadow_1_1148"/>
<feBlend mode="normal" in="SourceGraphic" in2="effect1_dropShadow_1_1148" result="shape"/>
</filter>
<linearGradient id="paint0_linear_1_1148" x1="367.467" y1="193.876" x2="198.312" y2="371.339" gradientUnits="userSpaceOnUse">
<stop stop-color="#FFC444"/>
<stop offset="1" stop-color="#F36F56"/>
</linearGradient>
<linearGradient id="paint1_linear_1_1148" x1="325.034" y1="123.308" x2="221.55" y2="324.087" gradientUnits="userSpaceOnUse">
<stop stop-color="#E38DDD"/>
<stop offset="1" stop-color="#9571F6"/>
</linearGradient>
<linearGradient id="paint2_linear_1_1148" x1="222.163" y1="144.368" x2="216.279" y2="258.463" gradientUnits="userSpaceOnUse">
<stop offset="0.49" stop-color="#EBEFF2"/>
<stop offset="1" stop-color="white"/>
</linearGradient>
<linearGradient id="paint3_linear_1_1148" x1="-18891.6" y1="34828" x2="-23310.8" y2="68604.1" gradientUnits="userSpaceOnUse">
<stop offset="0.49" stop-color="#EBEFF2"/>
<stop offset="1" stop-color="white"/>
</linearGradient>
<linearGradient id="paint4_linear_1_1148" x1="-22474.3" y1="34695.5" x2="-26863.1" y2="67658.5" gradientUnits="userSpaceOnUse">
<stop offset="0.49" stop-color="#EBEFF2"/>
<stop offset="1" stop-color="white"/>
</linearGradient>
<linearGradient id="paint5_linear_1_1148" x1="-22928.3" y1="34644.7" x2="-27504.6" y2="67163" gradientUnits="userSpaceOnUse">
<stop offset="0.49" stop-color="#EBEFF2"/>
<stop offset="1" stop-color="white"/>
</linearGradient>
<linearGradient id="paint6_linear_1_1148" x1="-26698.6" y1="34504" x2="-31122.5" y2="66306.8" gradientUnits="userSpaceOnUse">
<stop offset="0.49" stop-color="#EBEFF2"/>
<stop offset="1" stop-color="white"/>
</linearGradient>
<linearGradient id="paint7_linear_1_1148" x1="-28437.5" y1="34438.9" x2="-32793.8" y2="65915" gradientUnits="userSpaceOnUse">
<stop offset="0.49" stop-color="#EBEFF2"/>
<stop offset="1" stop-color="white"/>
</linearGradient>
<linearGradient id="paint8_linear_1_1148" x1="-17292.7" y1="58233.8" x2="-21605.9" y2="92022.8" gradientUnits="userSpaceOnUse">
<stop offset="0.49" stop-color="#EBEFF2"/>
<stop offset="1" stop-color="white"/>
</linearGradient>
<linearGradient id="paint9_linear_1_1148" x1="-18893.5" y1="57906.2" x2="-23249.5" y2="91283.2" gradientUnits="userSpaceOnUse">
<stop offset="0.49" stop-color="#EBEFF2"/>
<stop offset="1" stop-color="white"/>
</linearGradient>
<linearGradient id="paint10_linear_1_1148" x1="-22475.9" y1="57254.1" x2="-26806.2" y2="89845" gradientUnits="userSpaceOnUse">
<stop offset="0.49" stop-color="#EBEFF2"/>
<stop offset="1" stop-color="white"/>
</linearGradient>
<linearGradient id="paint11_linear_1_1148" x1="-22929.9" y1="56943.6" x2="-27442.8" y2="89089.6" gradientUnits="userSpaceOnUse">
<stop offset="0.49" stop-color="#EBEFF2"/>
<stop offset="1" stop-color="white"/>
</linearGradient>
<linearGradient id="paint12_linear_1_1148" x1="-26700.1" y1="56309.3" x2="-31063.9" y2="87755.3" gradientUnits="userSpaceOnUse">
<stop offset="0.49" stop-color="#EBEFF2"/>
<stop offset="1" stop-color="white"/>
</linearGradient>
<linearGradient id="paint13_linear_1_1148" x1="-28439.1" y1="56019.8" x2="-32736.7" y2="87146.2" gradientUnits="userSpaceOnUse">
<stop offset="0.49" stop-color="#EBEFF2"/>
<stop offset="1" stop-color="white"/>
</linearGradient>
<linearGradient id="paint14_linear_1_1148" x1="-17294.9" y1="88597.9" x2="-21658.6" y2="122374" gradientUnits="userSpaceOnUse">
<stop offset="0.49" stop-color="#EBEFF2"/>
<stop offset="1" stop-color="white"/>
</linearGradient>
<linearGradient id="paint15_linear_1_1148" x1="-18895.6" y1="87944.7" x2="-23304.1" y2="121308" gradientUnits="userSpaceOnUse">
<stop offset="0.49" stop-color="#EBEFF2"/>
<stop offset="1" stop-color="white"/>
</linearGradient>
<linearGradient id="paint16_linear_1_1148" x1="-26701.9" y1="84657.7" x2="-31114.8" y2="116090" gradientUnits="userSpaceOnUse">
<stop offset="0.49" stop-color="#EBEFF2"/>
<stop offset="1" stop-color="white"/>
</linearGradient>
<linearGradient id="paint17_linear_1_1148" x1="-28440.9" y1="84073.5" x2="-32786.3" y2="115187" gradientUnits="userSpaceOnUse">
<stop offset="0.49" stop-color="#EBEFF2"/>
<stop offset="1" stop-color="white"/>
</linearGradient>
<linearGradient id="paint18_linear_1_1148" x1="-76543.9" y1="22673.9" x2="-100658" y2="22673.9" gradientUnits="userSpaceOnUse">
<stop offset="0.49" stop-color="#EBEFF2"/>
<stop offset="1" stop-color="white"/>
</linearGradient>
<linearGradient id="paint19_linear_1_1148" x1="-96031.4" y1="26689.8" x2="-138229" y2="26689.8" gradientUnits="userSpaceOnUse">
<stop offset="0.49" stop-color="#EBEFF2"/>
<stop offset="1" stop-color="white"/>
</linearGradient>
<linearGradient id="paint20_linear_1_1148" x1="274.536" y1="100.261" x2="224.495" y2="100.261" gradientUnits="userSpaceOnUse">
<stop stop-color="#6165D7"/>
<stop offset="1" stop-color="#AA80F9"/>
</linearGradient>
<linearGradient id="paint21_linear_1_1148" x1="-154587" y1="273366" x2="-310939" y2="273366" gradientUnits="userSpaceOnUse">
<stop stop-color="#6165D7"/>
<stop offset="1" stop-color="#AA80F9"/>
</linearGradient>
</defs>
</svg>
