<svg width="373" height="377" viewBox="0 0 373 377" fill="none" xmlns="http://www.w3.org/2000/svg">
<g filter="url(#filter0_d_1_383)">
<path d="M325.88 243.664C295.513 315.239 214.621 355.336 144.471 344.52C133.058 342.759 101.762 337.517 74.0544 312.785C20.7164 265.171 9.31185 170.89 52.3369 104.449C83.652 56.0905 139.787 28.6781 193.126 30.0491C204.615 30.3453 248.648 32.1647 287.343 64.1109C293.027 68.8023 305.564 79.9496 316.862 97.6352C343.391 139.159 345.671 197.017 325.88 243.664Z" fill="#313252"/>
</g>
<path d="M140.137 138.225C140.038 138.218 139.941 138.186 139.857 138.133C139.773 138.079 139.703 138.006 139.653 137.919C139.261 137.225 138.847 136.532 138.422 135.862C138.379 135.794 138.351 135.719 138.337 135.641C138.323 135.562 138.325 135.481 138.343 135.403C138.36 135.326 138.393 135.252 138.439 135.187C138.485 135.122 138.543 135.066 138.611 135.023C138.678 134.981 138.753 134.952 138.832 134.938C138.91 134.925 138.991 134.927 139.069 134.944C139.146 134.962 139.22 134.994 139.285 135.04C139.35 135.086 139.406 135.145 139.448 135.212C139.883 135.9 140.306 136.609 140.709 137.32C140.763 137.416 140.791 137.525 140.788 137.635C140.786 137.745 140.753 137.852 140.694 137.945C140.636 138.038 140.553 138.113 140.455 138.162C140.357 138.211 140.247 138.233 140.137 138.225Z" fill="white"/>
<path d="M91.9425 214.417C91.0252 214.36 90.0847 214.255 89.1685 214.136C89.089 214.126 89.0123 214.101 88.9427 214.062C88.8731 214.022 88.812 213.969 88.7629 213.906C88.7138 213.843 88.6776 213.771 88.6566 213.693C88.6355 213.616 88.6299 213.535 88.6401 213.456C88.6617 213.296 88.745 213.152 88.872 213.053C88.999 212.954 89.1597 212.909 89.3196 212.927C90.2136 213.043 91.1404 213.139 92.0281 213.202C92.6864 213.252 93.3606 213.288 94.0359 213.308C94.1163 213.308 94.1958 213.325 94.2695 213.357C94.3432 213.389 94.4096 213.436 94.4645 213.494C94.5193 213.553 94.5616 213.623 94.5886 213.698C94.6155 213.774 94.6267 213.855 94.6214 213.935C94.6188 214.015 94.6005 214.093 94.5677 214.166C94.5348 214.238 94.488 214.303 94.4299 214.358C94.3718 214.412 94.3036 214.455 94.2291 214.483C94.1546 214.511 94.0753 214.524 93.9958 214.521C93.3099 214.505 92.6188 214.468 91.9425 214.417ZM101.734 214.192C101.583 214.182 101.442 214.115 101.337 214.006C101.233 213.896 101.173 213.751 101.17 213.6C101.166 213.448 101.22 213.301 101.319 213.187C101.419 213.073 101.558 213 101.708 212.983C103.219 212.802 104.745 212.549 106.244 212.231L106.374 212.203C106.531 212.17 106.695 212.2 106.83 212.288C106.965 212.376 107.06 212.513 107.093 212.671C107.127 212.829 107.096 212.993 107.009 213.128C106.921 213.263 106.784 213.358 106.626 213.391L106.495 213.419C104.962 213.745 103.399 214.004 101.852 214.189C101.814 214.194 101.775 214.195 101.737 214.192H101.734ZM113.908 211.205C113.771 211.195 113.641 211.138 113.54 211.043C113.439 210.949 113.373 210.823 113.353 210.687C113.333 210.55 113.361 210.411 113.431 210.291C113.501 210.172 113.609 210.081 113.738 210.032C115.21 209.472 116.669 208.836 118.071 208.146C118.143 208.108 118.221 208.085 118.302 208.078C118.383 208.071 118.464 208.081 118.541 208.106C118.618 208.131 118.689 208.171 118.751 208.225C118.812 208.278 118.862 208.343 118.897 208.415C118.933 208.488 118.954 208.567 118.959 208.648C118.963 208.729 118.952 208.811 118.924 208.887C118.897 208.963 118.855 209.034 118.8 209.093C118.746 209.153 118.679 209.201 118.606 209.235C117.167 209.944 115.673 210.593 114.167 211.167C114.085 211.198 113.996 211.211 113.908 211.205ZM124.983 205.339C124.859 205.33 124.74 205.282 124.643 205.203C124.547 205.123 124.477 205.016 124.444 204.895C124.411 204.774 124.416 204.646 124.458 204.529C124.5 204.411 124.578 204.309 124.68 204.237C125.965 203.336 127.224 202.364 128.42 201.345C128.542 201.241 128.701 201.189 128.862 201.202C129.022 201.215 129.171 201.291 129.275 201.414C129.38 201.537 129.431 201.696 129.418 201.857C129.405 202.017 129.329 202.166 129.206 202.271C127.98 203.314 126.692 204.309 125.376 205.232C125.261 205.311 125.122 205.348 124.983 205.336V205.339ZM134.283 196.938C134.171 196.93 134.063 196.89 133.972 196.824C133.881 196.758 133.81 196.668 133.767 196.564C133.724 196.46 133.711 196.346 133.73 196.235C133.748 196.124 133.797 196.02 133.871 195.935C134.897 194.748 135.878 193.502 136.796 192.218C136.891 192.091 137.032 192.006 137.188 191.982C137.345 191.958 137.505 191.996 137.634 192.088C137.763 192.18 137.851 192.319 137.879 192.475C137.906 192.632 137.872 192.792 137.783 192.924C136.846 194.234 135.838 195.515 134.787 196.732C134.725 196.802 134.647 196.857 134.56 196.892C134.473 196.927 134.379 196.942 134.286 196.935L134.283 196.938ZM141.271 186.524C141.191 186.518 141.114 186.496 141.043 186.459C140.899 186.387 140.791 186.26 140.741 186.107C140.69 185.954 140.703 185.787 140.775 185.644C141.487 184.24 142.139 182.788 142.714 181.327C142.773 181.178 142.889 181.059 143.036 180.995C143.184 180.931 143.35 180.929 143.499 180.988C143.648 181.046 143.768 181.162 143.832 181.309C143.897 181.456 143.9 181.623 143.842 181.772C143.254 183.268 142.586 184.756 141.858 186.193C141.803 186.298 141.719 186.386 141.615 186.444C141.511 186.502 141.393 186.529 141.274 186.521L141.271 186.524ZM145.527 174.724C145.497 174.721 145.467 174.716 145.437 174.71C145.28 174.674 145.144 174.578 145.058 174.441C144.972 174.305 144.944 174.141 144.979 173.983C145.327 172.447 145.605 170.88 145.806 169.323C145.815 169.243 145.839 169.166 145.878 169.095C145.918 169.025 145.97 168.964 146.034 168.915C146.097 168.865 146.17 168.829 146.247 168.808C146.325 168.788 146.406 168.783 146.485 168.794C146.565 168.803 146.641 168.828 146.711 168.868C146.78 168.907 146.842 168.96 146.891 169.023C146.94 169.086 146.976 169.159 146.997 169.236C147.018 169.313 147.024 169.393 147.014 169.473C146.807 171.068 146.522 172.674 146.168 174.247C146.137 174.389 146.055 174.516 145.937 174.603C145.82 174.69 145.675 174.732 145.53 174.721L145.527 174.724ZM146.767 162.228C146.617 162.217 146.477 162.15 146.374 162.041C146.27 161.932 146.211 161.788 146.207 161.638C146.168 160.067 146.053 158.479 145.867 156.917C145.848 156.757 145.893 156.596 145.993 156.469C146.092 156.343 146.238 156.261 146.397 156.242C146.557 156.223 146.718 156.268 146.844 156.367C146.971 156.467 147.053 156.613 147.072 156.773C147.262 158.372 147.379 159.999 147.419 161.607C147.421 161.687 147.408 161.766 147.379 161.841C147.351 161.915 147.308 161.983 147.253 162.041C147.198 162.099 147.132 162.145 147.06 162.178C146.987 162.21 146.908 162.228 146.829 162.23C146.808 162.23 146.788 162.23 146.767 162.228ZM144.926 149.815C144.802 149.806 144.683 149.758 144.586 149.679C144.49 149.599 144.42 149.492 144.386 149.371C143.964 147.851 143.473 146.337 142.919 144.872C142.887 144.797 142.871 144.716 142.871 144.635C142.871 144.553 142.888 144.472 142.92 144.397C142.953 144.322 142.999 144.255 143.058 144.198C143.117 144.142 143.187 144.098 143.263 144.069C143.339 144.04 143.421 144.027 143.502 144.03C143.583 144.033 143.663 144.053 143.737 144.088C143.811 144.123 143.877 144.172 143.931 144.233C143.985 144.294 144.026 144.365 144.053 144.443C144.621 145.942 145.127 147.491 145.556 149.049C145.599 149.204 145.578 149.369 145.499 149.509C145.42 149.649 145.288 149.752 145.134 149.795C145.066 149.815 144.996 149.823 144.926 149.819V149.815Z" fill="white"/>
<path d="M81.5671 212.549C81.5249 212.546 81.4831 212.539 81.4424 212.527C80.6635 212.3 79.8762 212.052 79.1037 211.787C79.0265 211.762 78.9548 211.723 78.893 211.671C78.8313 211.618 78.7806 211.554 78.744 211.482C78.7074 211.409 78.6856 211.331 78.6799 211.25C78.6743 211.169 78.6849 211.088 78.711 211.011C78.7372 210.934 78.7785 210.864 78.8324 210.803C78.8862 210.743 78.9517 210.694 79.0248 210.659C79.098 210.624 79.1773 210.604 79.2582 210.601C79.3391 210.597 79.4199 210.61 79.4958 210.638C80.2503 210.895 81.0186 211.138 81.7805 211.359C81.9245 211.401 82.048 211.494 82.1271 211.622C82.2063 211.749 82.2356 211.901 82.2094 212.049C82.1831 212.197 82.1032 212.329 81.985 212.422C81.8668 212.514 81.7187 212.559 81.5692 212.548L81.5671 212.549Z" fill="white"/>
<path d="M50.4183 187.005C50.315 186.997 50.2154 186.963 50.1289 186.906C50.0424 186.849 49.9718 186.771 49.9237 186.679C49.5517 185.961 49.1892 185.219 48.8458 184.472C48.7861 184.326 48.7848 184.164 48.8422 184.018C48.8996 183.871 49.0113 183.753 49.1539 183.688C49.2964 183.622 49.4588 183.614 49.607 183.666C49.7552 183.717 49.8778 183.824 49.9491 183.964C50.283 184.694 50.637 185.418 51.0005 186.12C51.0503 186.216 51.0735 186.323 51.068 186.431C51.0624 186.539 51.0282 186.643 50.9688 186.733C50.9095 186.824 50.8272 186.896 50.7304 186.944C50.6336 186.992 50.5259 187.013 50.4183 187.005Z" fill="white"/>
<path d="M46.6923 177.648C46.5687 177.639 46.4509 177.592 46.3547 177.514C46.2586 177.436 46.1886 177.33 46.1544 177.211C45.8109 176.017 45.5055 174.795 45.2477 173.577C45.1772 173.242 45.1096 172.907 45.0448 172.573C45.0277 172.494 45.0265 172.413 45.0414 172.333C45.0563 172.254 45.087 172.178 45.1315 172.11C45.1761 172.043 45.2336 171.985 45.3009 171.94C45.3681 171.895 45.4436 171.864 45.5229 171.849C45.6023 171.833 45.6839 171.834 45.763 171.851C45.8421 171.868 45.917 171.9 45.9834 171.946C46.0498 171.992 46.1064 172.051 46.1497 172.119C46.193 172.188 46.2223 172.264 46.2357 172.344C46.2981 172.671 46.3647 172.998 46.4334 173.325C46.6859 174.513 46.9839 175.708 47.32 176.874C47.3421 176.951 47.3489 177.031 47.34 177.111C47.3311 177.19 47.3066 177.266 47.268 177.336C47.2295 177.406 47.1775 177.467 47.1151 177.517C47.0528 177.567 46.9813 177.604 46.9047 177.625C46.8358 177.646 46.7638 177.653 46.6923 177.648ZM44.714 165.462C44.5659 165.451 44.4269 165.385 44.3237 165.279C44.2204 165.172 44.16 165.031 44.1539 164.882C44.0895 163.295 44.099 161.694 44.1814 160.112C44.1896 159.952 44.2609 159.801 44.3797 159.693C44.4986 159.586 44.6552 159.529 44.8154 159.537C44.9745 159.548 45.123 159.62 45.23 159.739C45.3369 159.857 45.394 160.012 45.3893 160.171C45.309 161.716 45.2994 163.283 45.3629 164.826C45.3665 164.906 45.3544 164.986 45.3271 165.061C45.2997 165.136 45.2578 165.206 45.2037 165.265C45.1496 165.324 45.0843 165.371 45.0117 165.405C44.9391 165.439 44.8605 165.457 44.7806 165.461C44.7585 165.463 44.7362 165.463 44.714 165.462ZM45.7169 153.155C45.6906 153.153 45.6644 153.15 45.6387 153.144C45.4812 153.112 45.3431 153.018 45.2547 152.883C45.1663 152.749 45.1349 152.585 45.1673 152.427C45.4844 150.875 45.8828 149.32 46.3446 147.807C46.3915 147.652 46.4978 147.523 46.64 147.447C46.7822 147.371 46.9487 147.355 47.1028 147.402C47.257 147.449 47.3861 147.555 47.462 147.698C47.5378 147.84 47.554 148.007 47.507 148.161C47.0558 149.642 46.669 151.158 46.3573 152.673C46.3278 152.817 46.2464 152.946 46.1284 153.035C46.0104 153.124 45.864 153.167 45.7169 153.155ZM49.6512 141.456C49.5759 141.45 49.5024 141.43 49.4346 141.397C49.2894 141.328 49.1777 141.204 49.124 141.052C49.0703 140.9 49.079 140.733 49.1482 140.588C49.8308 139.159 50.5875 137.745 51.397 136.385C51.4816 136.252 51.6149 136.157 51.7683 136.121C51.9218 136.084 52.0835 136.109 52.2191 136.189C52.3547 136.27 52.4535 136.401 52.4945 136.553C52.5356 136.706 52.5156 136.868 52.4389 137.006C51.6474 138.335 50.9098 139.715 50.243 141.112C50.1904 141.222 50.1057 141.314 50.0001 141.375C49.8946 141.436 49.7729 141.464 49.6512 141.456ZM56.2634 131.037C56.1528 131.029 56.0467 130.99 55.9566 130.925C55.8664 130.86 55.7957 130.772 55.7522 130.67C55.7086 130.568 55.6938 130.456 55.7094 130.346C55.725 130.236 55.7704 130.133 55.8407 130.047C56.8414 128.823 57.913 127.631 59.0247 126.502C59.0801 126.443 59.1467 126.396 59.2207 126.363C59.2946 126.33 59.3744 126.312 59.4552 126.311C59.5361 126.309 59.6165 126.324 59.6916 126.354C59.7668 126.384 59.8351 126.429 59.8927 126.486C59.9503 126.543 59.996 126.61 60.027 126.685C60.058 126.76 60.0737 126.84 60.0733 126.921C60.0729 127.002 60.0563 127.082 60.0244 127.157C59.9926 127.231 59.9463 127.299 59.8881 127.355C58.8028 128.457 57.7566 129.622 56.778 130.816C56.7163 130.892 56.6373 130.951 56.5477 130.99C56.4581 131.028 56.3606 131.044 56.2634 131.037ZM65.1708 122.504C65.0477 122.494 64.9305 122.447 64.8347 122.37C64.7388 122.292 64.6691 122.186 64.6346 122.068C64.6001 121.949 64.6027 121.823 64.6418 121.706C64.681 121.588 64.7549 121.486 64.8538 121.412C66.1219 120.46 67.4439 119.565 68.7945 118.737C68.9317 118.653 69.0966 118.626 69.2531 118.664C69.4096 118.702 69.5447 118.8 69.6288 118.937C69.7129 119.075 69.739 119.24 69.7014 119.396C69.6639 119.553 69.5657 119.688 69.4285 119.772C68.1097 120.581 66.8151 121.465 65.5808 122.384C65.4631 122.472 65.3174 122.515 65.1708 122.504ZM75.8674 116.368C75.7322 116.358 75.6045 116.302 75.5047 116.21C75.4049 116.118 75.3388 115.995 75.3169 115.861C75.295 115.727 75.3186 115.59 75.3839 115.471C75.4492 115.352 75.5524 115.258 75.6772 115.205C77.1344 114.591 78.6361 114.041 80.1462 113.56C80.2225 113.536 80.3028 113.527 80.3825 113.534C80.4622 113.541 80.5398 113.564 80.6107 113.601C80.6817 113.638 80.7446 113.688 80.796 113.75C80.8474 113.811 80.8862 113.882 80.9102 113.959C80.9342 114.035 80.943 114.115 80.936 114.195C80.9289 114.275 80.9063 114.353 80.8693 114.424C80.8323 114.495 80.7817 114.558 80.7204 114.609C80.659 114.661 80.5882 114.699 80.5118 114.723C79.0387 115.19 77.5709 115.729 76.1474 116.33C76.0583 116.364 75.9624 116.377 75.8674 116.368ZM87.7243 112.983C87.5762 112.972 87.4375 112.906 87.3344 112.799C87.2313 112.693 87.171 112.551 87.1649 112.403C87.1588 112.254 87.2073 112.109 87.3012 111.994C87.3952 111.879 87.528 111.802 87.6746 111.778C89.2375 111.529 90.8301 111.348 92.4089 111.242C92.4884 111.237 92.5682 111.247 92.6437 111.273C92.7191 111.298 92.7889 111.339 92.8488 111.391C92.9088 111.444 92.9578 111.508 92.9931 111.579C93.0284 111.651 93.0493 111.728 93.0546 111.808C93.0598 111.888 93.0494 111.967 93.0238 112.043C92.9983 112.119 92.9581 112.188 92.9056 112.248C92.8531 112.308 92.7893 112.358 92.7179 112.393C92.6464 112.428 92.5687 112.449 92.4892 112.454C90.9484 112.56 89.3929 112.734 87.8659 112.977C87.819 112.984 87.7715 112.986 87.7243 112.982V112.983ZM104.718 113.138C104.697 113.138 104.676 113.138 104.655 113.13C103.132 112.856 101.581 112.652 100.043 112.522C99.8857 112.505 99.7411 112.428 99.6401 112.306C99.539 112.184 99.4895 112.028 99.502 111.87C99.5146 111.712 99.5882 111.566 99.7072 111.461C99.8262 111.357 99.9812 111.303 100.139 111.312H100.145C101.72 111.445 103.309 111.655 104.869 111.935C105.021 111.963 105.157 112.049 105.248 112.174C105.339 112.299 105.379 112.454 105.36 112.608C105.34 112.761 105.263 112.902 105.144 113C105.025 113.099 104.872 113.148 104.718 113.138Z" fill="white"/>
<path d="M114.422 115.895C114.361 115.891 114.301 115.877 114.244 115.855C113.505 115.563 112.751 115.285 111.997 115.028C111.921 115.002 111.852 114.962 111.792 114.909C111.732 114.857 111.683 114.793 111.648 114.721C111.613 114.65 111.592 114.572 111.587 114.492C111.582 114.413 111.592 114.333 111.618 114.257C111.643 114.182 111.684 114.112 111.736 114.052C111.789 113.992 111.853 113.943 111.924 113.908C111.996 113.873 112.073 113.852 112.153 113.847C112.232 113.842 112.312 113.853 112.388 113.878C113.16 114.142 113.935 114.427 114.69 114.724C114.826 114.777 114.938 114.877 115.006 115.006C115.074 115.135 115.094 115.284 115.061 115.426C115.029 115.568 114.946 115.694 114.829 115.78C114.712 115.866 114.567 115.907 114.422 115.895Z" fill="white"/>
<path d="M114.619 128.419C114.514 128.346 114.39 128.308 114.262 128.309C114.135 128.311 114.011 128.352 113.908 128.426L107.884 132.828C104.603 131.522 101.131 130.76 97.6042 130.573L93.9721 124.06C93.9098 123.948 93.8145 123.859 93.6993 123.805C93.5842 123.75 93.455 123.733 93.3296 123.755L84.5246 125.333C84.3991 125.356 84.2838 125.417 84.1948 125.509C84.1058 125.6 84.0474 125.717 84.0279 125.843L82.8792 133.213C79.6372 134.614 76.645 136.535 74.0204 138.9L66.846 136.866C66.7234 136.831 66.593 136.835 66.4729 136.878C66.3529 136.921 66.2491 137 66.176 137.105L61.0666 144.457C60.9934 144.561 60.9548 144.686 60.9561 144.814C60.9574 144.941 60.9986 145.065 61.074 145.169L65.4712 151.198C64.166 154.482 63.405 157.958 63.2182 161.487L56.7117 165.125C56.6002 165.187 56.511 165.283 56.4564 165.398C56.4018 165.513 56.3846 165.643 56.4073 165.768L57.984 174.581C58.0064 174.707 58.0674 174.822 58.1586 174.912C58.2497 175.001 58.3663 175.06 58.4923 175.079L65.8558 176.229C67.2549 179.475 69.1738 182.47 71.537 185.096L69.5048 192.27C69.4699 192.393 69.4741 192.523 69.5169 192.644C69.5597 192.764 69.639 192.868 69.7437 192.941L77.0839 198.056C77.1888 198.129 77.3138 198.168 77.4414 198.166C77.5691 198.165 77.6931 198.123 77.7962 198.048L83.8197 193.647C87.1009 194.953 90.5728 195.715 94.0989 195.903L97.732 202.416C97.7944 202.527 97.8899 202.616 98.0052 202.671C98.1205 202.725 98.25 202.743 98.3756 202.72L107.179 201.141C107.305 201.119 107.42 201.057 107.509 200.966C107.598 200.875 107.657 200.758 107.676 200.632L108.826 193.262C112.068 191.861 115.059 189.939 117.684 187.574L124.858 189.61C124.981 189.645 125.111 189.64 125.232 189.597C125.352 189.554 125.455 189.474 125.528 189.369L130.639 182.022C130.711 181.917 130.75 181.792 130.748 181.665C130.747 181.537 130.705 181.413 130.63 181.31L126.234 175.28C127.539 171.996 128.3 168.52 128.487 164.99L134.993 161.353C135.105 161.291 135.194 161.195 135.248 161.08C135.302 160.965 135.319 160.835 135.297 160.71L133.72 151.897C133.698 151.772 133.637 151.656 133.546 151.567C133.455 151.477 133.338 151.419 133.212 151.399L125.849 150.249C124.448 147.006 122.529 144.014 120.166 141.389L122.199 134.208C122.234 134.086 122.229 133.955 122.186 133.835C122.143 133.715 122.064 133.611 121.959 133.538L114.619 128.419Z" fill="url(#paint0_linear_1_383)"/>
<path opacity="0.64" d="M95.2039 172.08C94.3559 172.016 93.5214 171.83 92.7258 171.529C90.6476 170.738 88.9456 169.189 87.9622 167.193C86.9787 165.197 86.7866 162.902 87.4245 160.77C88.0624 158.638 89.4831 156.827 91.4008 155.701C93.3185 154.574 95.591 154.217 97.7615 154.699C99.9319 155.182 101.839 156.469 103.1 158.302C104.361 160.136 104.882 162.379 104.558 164.58C104.234 166.782 103.089 168.78 101.354 170.171C99.6184 171.563 97.4212 172.245 95.2039 172.08ZM96.3663 156.213C94.5875 156.079 92.8239 156.624 91.4304 157.739C90.037 158.854 89.117 160.456 88.8558 162.222C88.5946 163.988 89.0114 165.788 90.0225 167.259C91.0335 168.731 92.5637 169.764 94.3051 170.151C96.0465 170.538 97.8698 170.251 99.4081 169.347C100.946 168.443 102.086 166.989 102.596 165.278C103.107 163.568 102.951 161.726 102.161 160.126C101.37 158.525 100.003 157.284 98.3351 156.651C97.7027 156.412 97.0393 156.265 96.3653 156.215L96.3663 156.213Z" fill="url(#paint1_linear_1_383)"/>
<path opacity="0.64" d="M94.0423 185.862C89.0739 185.477 84.3735 183.453 80.6772 180.107C76.9809 176.762 74.4975 172.284 73.6161 167.374C73.2787 165.498 73.1793 163.587 73.3202 161.686C73.7054 156.713 75.7275 152.008 79.0698 148.309C82.4121 144.609 86.8858 142.124 91.7903 141.242C91.9446 141.214 92.0989 141.188 92.2532 141.165C93.5213 140.964 94.8043 140.871 96.0882 140.889C96.2477 140.889 96.4052 140.889 96.5658 140.899L96.5014 142.72C95.0307 142.67 93.5589 142.777 92.1105 143.037C87.0078 143.937 82.434 146.736 79.3068 150.871C79.1299 151.105 78.9577 151.343 78.79 151.583C76.6768 154.607 75.416 158.145 75.1399 161.825C75.0099 163.572 75.1011 165.328 75.4115 167.053C76.3786 172.455 79.4497 177.251 83.9493 180.386C88.449 183.522 94.0086 184.74 99.4053 183.772C108.877 182.074 115.693 174.129 116.377 164.943C116.579 162.215 116.239 159.473 115.376 156.877C114.514 154.281 113.147 151.881 111.353 149.817L112.727 148.619C114.678 150.865 116.166 153.476 117.104 156.301C118.043 159.125 118.413 162.108 118.195 165.077C117.455 175.077 110.034 183.721 99.7277 185.569C97.8524 185.906 95.9422 186.004 94.0423 185.862Z" fill="url(#paint2_linear_1_383)"/>
<path d="M206.073 114.669C205.934 114.66 205.8 114.614 205.685 114.537C205.569 114.46 205.475 114.354 205.412 114.229C204.936 113.293 204.411 112.37 203.852 111.479C203.744 111.298 203.711 111.082 203.76 110.876C203.809 110.671 203.936 110.493 204.114 110.38C204.292 110.268 204.507 110.229 204.714 110.273C204.92 110.317 205.101 110.439 205.218 110.615C205.803 111.541 206.353 112.51 206.852 113.491C206.916 113.619 206.946 113.761 206.938 113.904C206.929 114.047 206.883 114.186 206.804 114.305C206.725 114.424 206.615 114.52 206.487 114.583C206.358 114.647 206.216 114.674 206.073 114.664V114.669Z" fill="white"/>
<path d="M177.397 165.412C177.194 165.395 177.005 165.303 176.868 165.154C176.73 165.004 176.654 164.809 176.654 164.605C176.654 164.402 176.73 164.206 176.868 164.057C177.005 163.907 177.194 163.815 177.397 163.799C178.974 163.685 180.542 163.463 182.089 163.133C182.635 163.018 183.176 162.89 183.711 162.748C183.915 162.702 184.129 162.737 184.308 162.846C184.487 162.955 184.617 163.13 184.67 163.332C184.723 163.535 184.696 163.751 184.593 163.934C184.491 164.117 184.321 164.252 184.121 164.313C183.562 164.46 182.999 164.594 182.43 164.716C180.811 165.061 179.17 165.293 177.518 165.412C177.478 165.415 177.437 165.415 177.397 165.412ZM193.595 160.105C193.425 160.092 193.264 160.027 193.134 159.917C193.004 159.808 192.912 159.66 192.871 159.495C192.829 159.33 192.841 159.156 192.904 158.998C192.968 158.84 193.079 158.706 193.223 158.615C195.029 157.472 196.723 156.162 198.284 154.701C198.44 154.555 198.648 154.477 198.863 154.484C199.077 154.491 199.279 154.583 199.425 154.74C199.572 154.897 199.65 155.105 199.643 155.32C199.635 155.534 199.543 155.737 199.387 155.883C197.752 157.413 195.977 158.785 194.085 159.982C193.939 160.075 193.767 160.118 193.595 160.105ZM205.342 147.752C205.206 147.741 205.075 147.697 204.961 147.623C204.847 147.548 204.754 147.446 204.69 147.326C204.626 147.206 204.593 147.071 204.595 146.935C204.597 146.799 204.633 146.665 204.7 146.547C205.753 144.685 206.63 142.729 207.319 140.703C207.388 140.5 207.535 140.333 207.727 140.238C207.919 140.144 208.141 140.129 208.343 140.198C208.546 140.267 208.713 140.414 208.808 140.606C208.903 140.799 208.917 141.021 208.848 141.224C208.125 143.345 207.205 145.394 206.101 147.343C206.025 147.476 205.914 147.585 205.78 147.657C205.646 147.729 205.494 147.762 205.342 147.752ZM209.868 131.305C209.662 131.289 209.47 131.195 209.331 131.042C209.192 130.889 209.117 130.688 209.122 130.482C209.165 128.343 209.009 126.204 208.654 124.095C208.628 123.887 208.683 123.678 208.808 123.51C208.933 123.343 209.117 123.23 209.323 123.196C209.529 123.162 209.74 123.208 209.912 123.326C210.085 123.444 210.205 123.625 210.247 123.829C210.619 126.039 210.783 128.278 210.737 130.519C210.732 130.733 210.642 130.937 210.488 131.085C210.333 131.234 210.126 131.315 209.912 131.311L209.868 131.305Z" fill="white"/>
<path d="M166.781 164.532C166.737 164.528 166.693 164.521 166.651 164.512C165.582 164.254 164.515 163.943 163.48 163.587C163.38 163.553 163.287 163.498 163.208 163.428C163.128 163.357 163.063 163.272 163.017 163.176C162.971 163.08 162.943 162.977 162.937 162.87C162.931 162.764 162.945 162.658 162.98 162.557C163.015 162.457 163.069 162.364 163.139 162.285C163.21 162.205 163.295 162.14 163.391 162.094C163.486 162.047 163.59 162.02 163.696 162.014C163.802 162.007 163.908 162.022 164.009 162.057C164.998 162.396 166.017 162.691 167.037 162.939C167.234 162.987 167.405 163.108 167.517 163.276C167.629 163.445 167.674 163.65 167.643 163.85C167.612 164.05 167.506 164.231 167.348 164.357C167.19 164.484 166.99 164.546 166.788 164.532H166.781Z" fill="white"/>
<path d="M143.952 146.654C143.815 146.644 143.682 146.599 143.567 146.523C143.452 146.447 143.358 146.343 143.295 146.22C142.791 145.247 142.326 144.235 141.912 143.214C141.871 143.115 141.849 143.009 141.849 142.902C141.849 142.796 141.87 142.69 141.912 142.591C141.953 142.493 142.013 142.403 142.089 142.328C142.165 142.253 142.255 142.193 142.353 142.153C142.452 142.113 142.558 142.093 142.665 142.094C142.772 142.095 142.877 142.117 142.975 142.16C143.073 142.202 143.162 142.263 143.236 142.34C143.311 142.416 143.369 142.507 143.408 142.606C143.803 143.582 144.253 144.546 144.729 145.475C144.795 145.603 144.826 145.746 144.819 145.89C144.811 146.034 144.766 146.173 144.686 146.293C144.607 146.413 144.497 146.51 144.368 146.573C144.239 146.637 144.096 146.664 143.952 146.654Z" fill="white"/>
<path d="M140.154 133.551C139.963 133.536 139.784 133.453 139.649 133.317C139.513 133.182 139.43 133.002 139.415 132.811C139.247 130.895 139.234 128.968 139.377 127.049C139.398 126.77 139.421 126.491 139.449 126.212C139.477 126.002 139.584 125.809 139.748 125.674C139.912 125.54 140.121 125.473 140.333 125.487C140.546 125.508 140.742 125.614 140.878 125.78C141.013 125.946 141.078 126.159 141.057 126.372C141.031 126.637 141.008 126.903 140.987 127.17C140.852 129.001 140.864 130.841 141.023 132.67C141.032 132.776 141.021 132.883 140.989 132.984C140.957 133.085 140.906 133.179 140.838 133.261C140.77 133.342 140.686 133.409 140.592 133.458C140.498 133.507 140.395 133.537 140.29 133.546C140.245 133.552 140.2 133.554 140.154 133.551ZM142.762 116.975C142.634 116.966 142.51 116.926 142.401 116.86C142.291 116.793 142.199 116.701 142.132 116.591C142.065 116.481 142.025 116.357 142.016 116.229C142.006 116.101 142.028 115.972 142.078 115.854C142.934 113.824 143.974 111.876 145.186 110.036C145.244 109.948 145.319 109.871 145.407 109.812C145.495 109.752 145.594 109.711 145.698 109.689C145.802 109.668 145.909 109.667 146.013 109.688C146.117 109.708 146.216 109.748 146.305 109.807C146.393 109.865 146.469 109.94 146.529 110.028C146.588 110.116 146.63 110.215 146.651 110.319C146.672 110.423 146.673 110.53 146.653 110.635C146.633 110.739 146.592 110.838 146.534 110.927C145.377 112.683 144.384 114.541 143.567 116.478C143.502 116.635 143.389 116.768 143.245 116.857C143.1 116.946 142.932 116.988 142.762 116.975ZM152.778 103.519C152.618 103.507 152.464 103.447 152.338 103.347C152.211 103.247 152.118 103.111 152.069 102.957C152.021 102.803 152.019 102.638 152.065 102.483C152.111 102.329 152.202 102.191 152.326 102.089C154.026 100.689 155.851 99.4495 157.779 98.3864C157.872 98.3352 157.974 98.3029 158.079 98.2912C158.185 98.2795 158.292 98.2886 158.393 98.3182C158.495 98.3478 158.59 98.3971 158.673 98.4635C158.756 98.5298 158.825 98.6118 158.876 98.7048C158.927 98.7978 158.959 98.9 158.971 99.0055C158.983 99.111 158.974 99.2178 158.944 99.3198C158.915 99.4217 158.865 99.5169 158.799 99.5998C158.733 99.6826 158.651 99.7516 158.558 99.8028C156.718 100.817 154.975 102 153.352 103.336C153.192 103.469 152.986 103.534 152.778 103.519ZM167.906 96.2983C167.711 96.285 167.527 96.2014 167.389 96.0629C167.251 95.9245 167.168 95.7406 167.155 95.5453C167.142 95.3501 167.201 95.1568 167.319 95.0014C167.438 94.8459 167.609 94.7388 167.8 94.6999C169.957 94.2546 172.15 94.0085 174.352 93.9647C174.459 93.9602 174.565 93.9773 174.665 94.0151C174.765 94.0529 174.856 94.1105 174.933 94.1846C175.01 94.2586 175.071 94.3476 175.113 94.446C175.155 94.5444 175.176 94.6502 175.176 94.757C175.179 94.9713 175.098 95.1784 174.95 95.3329C174.802 95.4874 174.598 95.5766 174.384 95.5811C172.283 95.6232 170.19 95.8583 168.131 96.2835C168.057 96.3005 167.982 96.3069 167.906 96.3025V96.2983Z" fill="white"/>
<path d="M187.739 98.0077C187.657 98.0021 187.577 97.9839 187.502 97.9538C186.526 97.5687 185.522 97.2239 184.518 96.9319C184.416 96.9022 184.321 96.8528 184.238 96.7864C184.155 96.72 184.086 96.6379 184.035 96.5448C183.984 96.4517 183.952 96.3495 183.94 96.244C183.929 96.1384 183.938 96.0316 183.967 95.9296C183.997 95.8277 184.046 95.7326 184.113 95.6497C184.179 95.5668 184.261 95.4979 184.354 95.4468C184.447 95.3956 184.549 95.3633 184.655 95.3517C184.76 95.3401 184.867 95.3494 184.969 95.379C186.026 95.6858 187.074 96.0455 188.096 96.4495C188.276 96.5202 188.425 96.6533 188.515 96.8246C188.605 96.9959 188.631 97.1939 188.588 97.3827C188.545 97.5715 188.435 97.7384 188.279 97.8531C188.123 97.9678 187.931 98.0227 187.739 98.0077Z" fill="white"/>
<path d="M187.897 106.183C187.825 106.133 187.74 106.107 187.653 106.108C187.566 106.109 187.481 106.137 187.411 106.188L183.289 109.199C181.044 108.306 178.669 107.785 176.256 107.656L173.776 103.202C173.734 103.125 173.669 103.064 173.59 103.026C173.511 102.988 173.423 102.976 173.337 102.99L167.313 104.07C167.227 104.086 167.149 104.128 167.088 104.19C167.027 104.252 166.987 104.332 166.973 104.418L166.187 109.461C163.969 110.421 161.922 111.737 160.128 113.357L155.219 111.965C155.136 111.941 155.047 111.945 154.965 111.974C154.883 112.004 154.812 112.057 154.762 112.129L151.266 117.155C151.217 117.227 151.191 117.312 151.192 117.399C151.193 117.487 151.221 117.571 151.271 117.642L154.279 121.767C153.387 124.013 152.866 126.388 152.737 128.801L148.287 131.29C148.211 131.332 148.149 131.398 148.112 131.476C148.074 131.555 148.061 131.644 148.076 131.73L149.155 137.76C149.17 137.845 149.212 137.924 149.275 137.985C149.337 138.046 149.416 138.086 149.502 138.1L154.539 138.887C155.496 141.107 156.809 143.156 158.426 144.953L157.039 149.865C157.016 149.949 157.019 150.039 157.048 150.121C157.078 150.203 157.132 150.274 157.203 150.324L162.225 153.824C162.296 153.874 162.381 153.901 162.468 153.901C162.556 153.901 162.641 153.874 162.712 153.824L166.833 150.813C169.078 151.706 171.454 152.228 173.866 152.356L176.352 156.811C176.394 156.887 176.459 156.949 176.538 156.986C176.616 157.024 176.705 157.037 176.791 157.022L182.815 155.942C182.9 155.927 182.979 155.885 183.04 155.822C183.101 155.76 183.141 155.68 183.155 155.594L183.941 150.553C186.159 149.594 188.206 148.28 190.002 146.662L194.909 148.054C194.993 148.077 195.082 148.074 195.164 148.045C195.246 148.015 195.317 147.961 195.367 147.89L198.864 142.863C198.913 142.791 198.939 142.706 198.938 142.619C198.937 142.531 198.909 142.447 198.857 142.376L195.85 138.25C196.742 136.003 197.263 133.625 197.392 131.211L201.843 128.723C201.919 128.68 201.98 128.615 202.018 128.536C202.056 128.457 202.069 128.369 202.054 128.283L200.975 122.253C200.959 122.167 200.917 122.088 200.855 122.027C200.792 121.966 200.713 121.926 200.626 121.912L195.59 121.125C194.633 118.902 193.319 116.849 191.701 115.049L193.092 110.137C193.115 110.053 193.112 109.963 193.083 109.881C193.053 109.799 192.999 109.728 192.928 109.678L187.897 106.183Z" fill="url(#paint3_linear_1_383)"/>
<path opacity="0.64" d="M174.581 136.636C173.107 136.529 171.711 135.933 170.614 134.942C169.516 133.952 168.78 132.623 168.521 131.167C168.262 129.71 168.496 128.209 169.186 126.901C169.875 125.592 170.98 124.551 172.327 123.942C173.249 123.525 174.254 123.323 175.266 123.354C176.278 123.384 177.269 123.645 178.164 124.118C179.06 124.59 179.835 125.261 180.432 126.079C181.029 126.897 181.432 127.841 181.609 128.838C181.786 129.836 181.733 130.86 181.454 131.834C181.176 132.808 180.678 133.706 180 134.458C179.323 135.21 178.482 135.797 177.543 136.175C176.604 136.552 175.591 136.71 174.581 136.636ZM173.324 126.156C172.563 126.502 171.922 127.065 171.482 127.774C171.041 128.484 170.821 129.309 170.848 130.144C170.876 130.979 171.15 131.788 171.636 132.467C172.123 133.146 172.799 133.666 173.581 133.96C174.362 134.254 175.213 134.31 176.026 134.121C176.839 133.931 177.578 133.504 178.148 132.894C178.719 132.285 179.097 131.519 179.233 130.695C179.369 129.87 179.258 129.024 178.914 128.262C178.451 127.242 177.602 126.447 176.554 126.052C175.506 125.657 174.344 125.694 173.324 126.156Z" fill="url(#paint4_linear_1_383)"/>
<path opacity="0.64" d="M173.78 146.068C170.251 145.794 166.913 144.356 164.287 141.98C161.661 139.604 159.897 136.423 159.271 132.936C159.032 131.603 158.961 130.246 159.06 128.896C159.334 125.364 160.77 122.022 163.144 119.394C165.518 116.766 168.696 115.001 172.179 114.374C173.298 114.174 174.435 114.092 175.572 114.131L175.485 116.555C174.521 116.524 173.556 116.595 172.606 116.767C169.226 117.365 166.202 119.232 164.152 121.987C164.121 122.029 164.09 122.07 164.06 122.112C163.997 122.197 163.936 122.283 163.875 122.37C162.489 124.351 161.661 126.669 161.478 129.081C161.394 130.225 161.454 131.375 161.657 132.503C162.24 135.752 163.986 138.676 166.568 140.729C169.149 142.782 172.39 143.823 175.683 143.656C178.976 143.49 182.096 142.128 184.458 139.825C186.82 137.522 188.263 134.437 188.516 131.146C188.649 129.353 188.426 127.551 187.86 125.845C187.295 124.138 186.398 122.561 185.221 121.202L187.051 119.613C189.128 122.008 190.447 124.966 190.841 128.113C191.236 131.259 190.688 134.452 189.266 137.286C187.845 140.12 185.615 142.468 182.858 144.032C180.102 145.595 176.944 146.304 173.785 146.068H173.78Z" fill="url(#paint5_linear_1_383)"/>
<path d="M153.142 276.97C132.142 272.334 147.964 241.151 148.704 239.946L111.07 253.172C111.07 253.172 107.71 271.301 131.128 287.984C137.053 292.204 143.048 294.024 148.7 294.395C148.318 287.118 150.471 281.301 153.142 276.97Z" fill="#F8AF73"/>
<path d="M195.887 278.405C189.717 270.856 179.478 273.73 179.478 273.73C167.276 277.539 158.852 278.23 153.142 276.97C150.471 281.307 148.318 287.118 148.704 294.395C160.933 295.199 171.551 289.199 176.351 285.932C178.079 284.758 180.439 285.141 181.662 286.836C182.904 288.558 183.967 290.736 183.166 292.48C181.581 295.92 185.433 298.253 186.119 297.037C186.804 295.822 187.262 287.589 187.262 287.589C187.262 287.589 193.218 298.364 195.558 302.519C197.897 306.674 202.91 304.613 202.91 304.613C202.91 304.613 202.058 285.954 195.887 278.405Z" fill="url(#paint6_linear_1_383)"/>
<path d="M69.3772 197.757C69.3772 197.757 95.7963 176.918 165.104 206.558C165.104 206.558 172.6 214.833 170.046 224.918C167.491 235.004 131.4 291.117 131.579 316.283C131.579 316.283 105.502 334.16 69.1363 320.713C69.131 320.713 52.7628 255.354 69.3772 197.757Z" fill="url(#paint7_linear_1_383)"/>
<path d="M125.442 169.585L115.963 191.827C115.497 192.907 115.351 194.098 115.543 195.259C115.736 196.419 116.258 197.5 117.047 198.372C120.323 201.948 126.97 206.6 137.494 202.585C139.033 201.997 140.392 201.016 141.435 199.74C142.478 198.464 143.17 196.936 143.44 195.309L147.474 170.933L125.442 169.585Z" fill="url(#paint8_linear_1_383)"/>
<path d="M68.6601 281.411C61.0112 268.259 86.9421 226.269 86.9421 226.269L69.3047 197.936C69.3047 197.936 8.15509 271.045 39.5293 306.088C44.0269 311.112 48.9218 314.117 54.007 315.593C55.2762 297.285 62.8088 286.839 68.6601 281.411Z" fill="#4AA4FC"/>
<path d="M68.1013 281.219C67.9151 281.274 67.716 281.264 67.5357 281.192C67.3554 281.12 67.2044 280.99 67.1069 280.822C59.2868 267.375 84.3321 226.52 85.3963 224.787C85.5172 224.591 85.7111 224.451 85.9354 224.397C86.1596 224.344 86.3958 224.382 86.592 224.503C86.7882 224.624 86.9283 224.818 86.9815 225.043C87.0347 225.267 86.9967 225.504 86.8757 225.7C86.619 226.116 61.3084 267.395 68.6085 279.948C68.6658 280.047 68.703 280.156 68.718 280.269C68.7331 280.383 68.7257 280.498 68.6962 280.608C68.6668 280.718 68.6159 280.822 68.5464 280.913C68.477 281.003 68.3903 281.079 68.2915 281.136C68.2313 281.171 68.1675 281.198 68.1013 281.219Z" fill="url(#paint9_linear_1_383)"/>
<path d="M130.212 279.786C125.52 281.089 121.154 283.424 116.44 284.625C111.206 285.959 106.031 287.525 100.76 288.713C92.5593 290.562 81.7697 292.68 74.5679 287.039C73.9603 286.563 69.0727 281.036 68.7324 281.235C55.6561 288.797 53.1124 306.47 53.1124 315.044C76.9541 328.094 114.451 302.682 124.551 295.256C126.206 294.034 128.273 293.506 130.311 293.786C134.441 294.353 141.561 295.114 145.317 294.27C150.812 293.035 160.119 312.087 168.703 305.427C168.701 305.427 158.673 271.888 130.212 279.786Z" fill="url(#paint10_linear_1_383)"/>
<path d="M156.173 138.148C156.173 138.148 162.162 157.559 161.62 167.335C161.077 177.111 162.465 183.651 151.024 184.354C139.584 185.058 130.751 178.405 126.71 168.152C126.71 168.152 120.347 152.342 122.828 146.435C125.309 140.528 156.173 138.148 156.173 138.148Z" fill="#F7A670"/>
<path d="M131.319 161.624L132.738 161.783C132.738 161.783 128.229 149.127 133.6 147.591C138.972 146.055 159.783 144.174 164.978 137.436C169.987 130.942 167.215 121.521 161.849 118.372C161.681 118.279 161.485 118.253 161.3 118.299C161.114 118.345 160.953 118.459 160.848 118.619L160.281 119.453C160.195 119.58 160.074 119.678 159.932 119.734C159.79 119.791 159.634 119.804 159.484 119.772C159.335 119.739 159.199 119.663 159.093 119.553C158.987 119.442 158.917 119.302 158.891 119.151C158.785 118.506 157.952 118.276 157.548 118.79C155.962 120.799 151.933 123.909 141.972 124.622C127.839 125.635 118.058 130.223 116.766 139.778C116.748 139.914 116.694 140.043 116.61 140.151C116.526 140.259 116.414 140.343 116.286 140.393C116.159 140.444 116.02 140.459 115.885 140.438C115.749 140.416 115.622 140.359 115.516 140.272C114.565 139.531 112.96 139.059 110.568 140.655C106.409 143.43 107.04 151.907 114.614 159.667C114.7 159.751 114.765 159.853 114.804 159.967C114.842 160.08 114.854 160.201 114.837 160.32C114.82 160.439 114.776 160.552 114.707 160.65C114.639 160.748 114.548 160.829 114.442 160.886C112.821 161.702 110.308 163.794 115.797 167.569C121.412 171.43 124.984 171.476 126.356 171.284C126.534 171.26 126.698 171.175 126.82 171.042C126.941 170.91 127.012 170.739 127.021 170.559L127.444 162.01C127.449 161.906 127.475 161.804 127.521 161.71C127.566 161.616 127.631 161.533 127.71 161.465C127.789 161.397 127.881 161.346 127.981 161.316C128.081 161.285 128.185 161.274 128.289 161.285L131.319 161.624Z" fill="url(#paint11_linear_1_383)"/>
<path d="M131.466 163.439C131.466 163.439 129.711 151.274 124.046 153.995C118.381 156.716 125.314 167.552 129.527 168.47L131.466 163.439Z" fill="url(#paint12_linear_1_383)"/>
<path d="M112.872 316.657C112.946 316.657 113.02 316.657 113.094 316.657L209.308 315.167C211.686 315.13 213.577 313.269 213.535 311.008C213.492 308.747 211.515 306.908 209.144 306.982L112.929 308.472C110.55 308.508 108.661 310.371 108.707 312.631C108.745 314.822 110.594 316.583 112.872 316.657Z" fill="url(#paint13_linear_1_383)"/>
<path d="M150.324 175.655C133.181 177.11 119.156 163.674 119.057 163.472V160.443C119.152 160.636 133.93 175.57 150.224 174.185L150.324 175.655Z" fill="url(#paint14_linear_1_383)"/>
<path d="M157.311 174.91C157.311 176.053 156.488 176.978 155.472 176.978H150.567C149.55 176.978 148.727 176.053 148.727 174.91C148.727 173.769 149.55 172.842 150.567 172.842H155.472C156.488 172.842 157.311 173.769 157.311 174.91Z" fill="url(#paint15_linear_1_383)"/>
<path d="M127.815 145.207C127.815 145.207 123.9 124.297 148.048 124.179C148.117 124.178 148.183 124.152 148.233 124.106C148.284 124.06 148.317 123.997 148.324 123.929C148.332 123.861 148.315 123.793 148.276 123.736C148.237 123.68 148.179 123.639 148.113 123.623C141.497 122.097 122.296 119.838 122.011 144.929C125.686 146.255 127.815 145.207 127.815 145.207Z" fill="url(#paint16_linear_1_383)"/>
<path d="M123.39 142.658C113.967 144.573 115.125 156.502 115.125 156.502C114.445 165.159 116.97 169.451 120.205 171.496C121.292 172.181 122.538 172.574 123.821 172.635C125.104 172.696 126.382 172.423 127.529 171.844C128.676 171.264 129.654 170.397 130.367 169.328C131.08 168.258 131.505 167.022 131.6 165.739C131.774 163.383 131.973 161.144 132.148 160.344C132.571 158.42 132.814 140.74 123.39 142.658Z" fill="url(#paint17_linear_1_383)"/>
<path d="M124.256 145.672C123.307 145.505 122.329 145.664 121.482 146.122C120.634 146.58 119.965 147.311 119.584 148.197C113.951 161.257 120.867 169.753 124.261 169.93C127.839 170.116 127.766 152.885 127.009 148.468C126.688 146.617 125.513 145.891 124.256 145.672Z" fill="url(#paint18_linear_1_383)"/>
<path d="M35.6826 319.949C35.5219 318.759 35.7407 317.528 36.2786 316.594C36.8165 315.66 37.6175 315.113 38.4629 315.113H324.794C325.906 315.113 326.94 315.925 327.542 317.267C328.143 318.609 328.22 320.297 327.753 321.744L324.65 331.37C323.94 333.574 322.4 334.986 320.706 334.986H40.4274C38.8518 334.986 37.497 333.384 37.198 331.166L35.6826 319.949Z" fill="url(#paint19_linear_1_383)"/>
<path d="M187.093 205.741C185.475 218.969 178.199 272.717 176.116 288.074C176.048 288.581 176.09 289.097 176.241 289.586C176.391 290.075 176.646 290.525 176.988 290.905C177.33 291.285 177.751 291.587 178.22 291.788C178.69 291.989 179.198 292.086 179.709 292.071L303.139 288.536C303.924 288.513 304.679 288.229 305.285 287.728C305.89 287.228 306.311 286.539 306.481 285.772L325.682 199.219C325.8 198.686 325.793 198.132 325.661 197.602C325.53 197.072 325.277 196.58 324.923 196.164C324.57 195.749 324.124 195.421 323.623 195.206C323.121 194.992 322.576 194.896 322.032 194.928L190.387 202.65C189.563 202.698 188.782 203.033 188.18 203.598C187.578 204.163 187.193 204.921 187.093 205.741Z" fill="url(#paint20_linear_1_383)"/>
<path d="M179.612 292.427C179.058 292.428 178.511 292.31 178.007 292.082C177.503 291.853 177.054 291.519 176.689 291.102C176.325 290.686 176.054 290.195 175.894 289.665C175.735 289.134 175.691 288.576 175.765 288.027C177.932 272.054 185.126 218.897 186.74 205.698C186.85 204.795 187.273 203.959 187.936 203.337C188.599 202.715 189.459 202.345 190.367 202.293L322.011 194.571C322.61 194.536 323.209 194.641 323.761 194.877C324.313 195.113 324.803 195.474 325.192 195.932C325.581 196.389 325.859 196.931 326.004 197.514C326.149 198.097 326.156 198.706 326.027 199.293L306.826 285.846C306.639 286.691 306.176 287.449 305.509 288C304.843 288.551 304.012 288.864 303.148 288.888L179.718 292.423L179.612 292.427ZM187.445 205.784C185.83 218.988 178.634 272.145 176.468 288.122C176.406 288.578 176.445 289.043 176.581 289.483C176.716 289.923 176.946 290.328 177.254 290.67C177.562 291.013 177.941 291.284 178.364 291.465C178.787 291.646 179.244 291.732 179.704 291.719L303.134 288.182C303.84 288.163 304.519 287.907 305.064 287.457C305.609 287.007 305.988 286.387 306.14 285.697L325.335 199.146C325.442 198.666 325.436 198.168 325.318 197.691C325.2 197.215 324.973 196.772 324.655 196.397C324.337 196.023 323.936 195.728 323.485 195.536C323.033 195.343 322.543 195.258 322.053 195.287L190.408 203.009C189.667 203.053 188.966 203.355 188.425 203.864C187.884 204.372 187.539 205.054 187.449 205.791L187.445 205.784Z" fill="white"/>
<path d="M236.704 260.019L218.462 311.846L260.879 312.746L264.406 260.33C264.445 259.75 264.36 259.169 264.156 258.625C263.952 258.081 263.634 257.587 263.224 257.177C262.813 256.766 262.32 256.448 261.777 256.244C261.233 256.039 260.653 255.954 260.074 255.993L240.266 257.309C239.472 257.363 238.712 257.649 238.08 258.13C237.447 258.612 236.969 259.268 236.704 260.019Z" fill="url(#paint21_linear_1_383)"/>
<path d="M261.211 313.108L260.872 313.1L217.967 312.191L236.372 259.901C236.659 259.083 237.18 258.368 237.87 257.844C238.559 257.32 239.387 257.011 240.251 256.953L260.058 255.633C260.688 255.591 261.319 255.684 261.909 255.907C262.499 256.129 263.035 256.475 263.481 256.921C263.927 257.368 264.272 257.905 264.494 258.496C264.715 259.087 264.808 259.719 264.765 260.349L261.211 313.108ZM218.966 311.501L260.554 312.383L264.062 260.306C264.098 259.777 264.02 259.246 263.834 258.75C263.648 258.254 263.358 257.803 262.984 257.428C262.61 257.053 262.16 256.762 261.664 256.576C261.168 256.389 260.638 256.311 260.11 256.346L240.302 257.662C239.577 257.71 238.881 257.97 238.302 258.41C237.723 258.849 237.286 259.45 237.045 260.136L218.966 311.501Z" fill="white"/>
<path d="M201.267 312.584C201.158 312.915 201.13 313.268 201.183 313.612C201.237 313.956 201.372 314.283 201.576 314.565C201.78 314.847 202.048 315.077 202.359 315.236C202.669 315.394 203.012 315.476 203.36 315.476H269.786C270.37 315.476 270.931 315.244 271.344 314.831C271.757 314.417 271.989 313.856 271.989 313.272V310.416C271.989 310.118 271.929 309.823 271.812 309.55C271.695 309.276 271.525 309.029 271.31 308.823C271.095 308.617 270.841 308.457 270.563 308.352C270.285 308.247 269.988 308.199 269.691 308.212L203.265 311.068C202.818 311.088 202.387 311.243 202.029 311.514C201.672 311.785 201.406 312.158 201.267 312.584Z" fill="url(#paint22_linear_1_383)"/>
<path d="M269.786 315.832H203.36C202.956 315.832 202.557 315.736 202.197 315.552C201.836 315.369 201.525 315.102 201.288 314.774C201.05 314.446 200.894 314.067 200.832 313.667C200.77 313.267 200.803 312.858 200.93 312.473C201.093 311.979 201.403 311.546 201.819 311.231C202.234 310.917 202.734 310.737 203.254 310.714L269.68 307.858C270.025 307.843 270.37 307.898 270.692 308.02C271.015 308.142 271.31 308.328 271.56 308.567C271.809 308.806 272.007 309.093 272.143 309.411C272.278 309.728 272.348 310.07 272.348 310.416V313.272C272.347 313.951 272.077 314.602 271.596 315.082C271.116 315.562 270.465 315.832 269.786 315.832ZM269.786 308.57H269.705L203.279 311.426C202.904 311.443 202.543 311.573 202.243 311.8C201.944 312.027 201.72 312.339 201.602 312.695C201.51 312.973 201.486 313.269 201.531 313.558C201.576 313.847 201.689 314.121 201.861 314.358C202.032 314.594 202.257 314.787 202.517 314.92C202.778 315.053 203.066 315.122 203.358 315.122H269.784C270.274 315.121 270.744 314.926 271.09 314.579C271.437 314.233 271.632 313.762 271.632 313.272V310.416C271.632 309.925 271.438 309.455 271.092 309.108C270.746 308.761 270.276 308.566 269.786 308.565V308.57Z" fill="white"/>
<path d="M185.227 260.419L184.351 260.313L190.416 212.44C190.599 211 191.279 209.669 192.337 208.677C193.396 207.684 194.768 207.093 196.216 207.004L309.977 200.128L310.031 201.011L196.268 207.887C195.026 207.962 193.849 208.469 192.941 209.321C192.032 210.172 191.449 211.315 191.292 212.55L185.227 260.419Z" fill="white"/>
<path d="M182.611 273.923L181.306 284.288L182.182 284.399L183.486 274.034L182.611 273.923Z" fill="white"/>
<path d="M224.618 78.5925V105.25C224.618 106.774 225.204 108.24 226.256 109.343C227.307 110.446 228.743 111.102 230.264 111.173L263.561 112.736C264.361 112.773 265.161 112.648 265.912 112.367C266.663 112.087 267.349 111.656 267.928 111.103C268.508 110.549 268.97 109.883 269.285 109.145C269.6 108.408 269.763 107.614 269.763 106.812V78.5925C269.763 77.0197 269.139 75.5114 268.028 74.3993C266.917 73.2871 265.41 72.6624 263.839 72.6624H230.542C228.971 72.6624 227.464 73.2871 226.353 74.3993C225.242 75.5114 224.618 77.0197 224.618 78.5925Z" fill="url(#paint23_linear_1_383)"/>
<path d="M237.327 85.7667L236.027 80.9568L232.234 78.8877L231.729 79.8133L235.123 81.6475L239.168 96.494L239.293 96.9351H255.797C256.583 96.9402 257.359 96.7466 258.051 96.3724C258.743 95.9982 259.329 95.4554 259.756 94.7941L260.496 93.8156C261.293 92.5811 261.818 91.1615 261.818 89.6901V85.7656L237.327 85.7667ZM260.622 89.6912C260.61 90.9567 260.234 92.1919 259.538 93.2486L258.884 94.3498C258.208 95.397 257.043 96.1375 255.797 96.1375H240.101L239.242 92.9641L237.614 86.9631H260.62L260.622 89.6912Z" fill="white"/>
<path d="M259.594 102.321C259.594 102.613 259.356 102.919 259.066 102.919H239.698C239.404 102.919 239.103 102.46 239.103 102.167V93.0275C239.103 92.9217 239.164 92.9471 239.209 92.8667L240.1 96.1375H240.296V101.721H259.059C259.356 101.721 259.594 102.027 259.594 102.321Z" fill="white"/>
<path d="M249.551 86.2976H248.844V96.2475H249.551V86.2976Z" fill="white"/>
<path d="M243.306 86.2976H242.599V96.2475H243.306V86.2976Z" fill="white"/>
<path d="M255.647 86.2976H254.94V96.2475H255.647V86.2976Z" fill="white"/>
<path d="M260.876 89.2247H237.885V89.8572H260.876V89.2247Z" fill="white"/>
<path d="M260.3 92.6879H238.889V93.3205H260.3V92.6879Z" fill="white"/>
<path d="M242.179 103.601C241.727 103.601 241.285 103.735 240.91 103.986C240.534 104.237 240.241 104.594 240.068 105.012C239.895 105.43 239.85 105.889 239.938 106.333C240.026 106.776 240.243 107.184 240.563 107.503C240.882 107.823 241.289 108.041 241.732 108.129C242.175 108.218 242.634 108.172 243.051 107.999C243.469 107.826 243.825 107.533 244.076 107.158C244.327 106.782 244.461 106.34 244.461 105.887C244.461 105.281 244.221 104.7 243.793 104.271C243.365 103.843 242.784 103.602 242.179 103.601ZM242.179 107.267C241.907 107.267 241.641 107.186 241.416 107.035C241.19 106.884 241.014 106.669 240.91 106.418C240.806 106.167 240.778 105.89 240.831 105.623C240.884 105.357 241.015 105.112 241.207 104.919C241.399 104.727 241.644 104.596 241.911 104.543C242.177 104.49 242.453 104.517 242.704 104.621C242.956 104.725 243.17 104.901 243.321 105.128C243.472 105.354 243.553 105.62 243.553 105.892C243.553 106.256 243.408 106.606 243.15 106.864C242.893 107.122 242.543 107.267 242.179 107.267Z" fill="white"/>
<path d="M256.367 103.601C255.915 103.601 255.474 103.736 255.098 103.987C254.723 104.238 254.43 104.595 254.257 105.013C254.084 105.43 254.039 105.89 254.127 106.333C254.215 106.777 254.433 107.184 254.752 107.504C255.072 107.824 255.479 108.041 255.922 108.129C256.365 108.218 256.824 108.172 257.241 107.999C257.658 107.826 258.015 107.533 258.266 107.157C258.517 106.781 258.651 106.34 258.651 105.887C258.651 105.281 258.41 104.7 257.982 104.271C257.554 103.842 256.973 103.601 256.367 103.601ZM256.367 107.267C256.095 107.267 255.83 107.186 255.604 107.035C255.378 106.884 255.202 106.669 255.098 106.418C254.994 106.167 254.967 105.89 255.02 105.623C255.073 105.357 255.204 105.112 255.396 104.919C255.588 104.727 255.833 104.596 256.099 104.543C256.366 104.49 256.642 104.517 256.893 104.621C257.144 104.725 257.358 104.901 257.509 105.128C257.66 105.354 257.741 105.62 257.741 105.892C257.741 106.256 257.596 106.606 257.339 106.864C257.081 107.122 256.731 107.267 256.367 107.267Z" fill="white"/>
<path d="M234.587 79.8101C234.586 80.0945 234.473 80.367 234.272 80.5679C234.071 80.7688 233.798 80.8816 233.514 80.8816H229.944C229.66 80.8816 229.387 80.7685 229.186 80.5672C228.985 80.3658 228.872 80.0927 228.872 79.8079C228.872 79.5232 228.985 79.2501 229.186 79.0487C229.387 78.8474 229.66 78.7343 229.944 78.7343H233.514C233.798 78.7343 234.071 78.8474 234.272 79.0487C234.474 79.2501 234.587 79.5232 234.587 79.8079V79.8101Z" fill="white"/>
<path d="M152.437 47.7783V76.369C152.437 78.0044 153.066 79.5771 154.194 80.7603C155.322 81.9436 156.862 82.6466 158.494 82.7233L194.212 84.4031C195.071 84.4442 195.93 84.3103 196.736 84.0095C197.541 83.7087 198.278 83.2473 198.9 82.6532C199.523 82.059 200.018 81.3446 200.357 80.5532C200.695 79.7617 200.87 78.9097 200.87 78.0488V47.7783C200.87 46.0913 200.2 44.4734 199.009 43.2806C197.817 42.0877 196.201 41.4176 194.515 41.4176H158.797C157.962 41.4169 157.135 41.5809 156.364 41.9002C155.592 42.2196 154.891 42.688 154.3 43.2787C153.71 43.8694 153.241 44.5709 152.921 45.3429C152.602 46.115 152.437 46.9425 152.437 47.7783Z" fill="url(#paint24_linear_1_383)"/>
<path d="M189.014 75.8506H164.4C163.513 75.8498 162.663 75.4967 162.035 74.8688C161.408 74.2409 161.055 73.3896 161.054 72.5016V54.4838C161.055 53.5958 161.408 52.7445 162.035 52.1166C162.663 51.4887 163.513 51.1356 164.4 51.1347H189.014C189.901 51.1358 190.752 51.489 191.379 52.1169C192.006 52.7447 192.359 53.5959 192.36 54.4838V72.5016C192.359 73.3895 192.006 74.2407 191.379 74.8685C190.752 75.4963 189.901 75.8495 189.014 75.8506ZM164.4 53.3413C164.098 53.3419 163.808 53.4624 163.594 53.6766C163.38 53.8907 163.259 54.1809 163.259 54.4838V72.5016C163.259 72.8045 163.379 73.0949 163.593 73.3091C163.807 73.5233 164.098 73.6437 164.4 73.644H189.014C189.317 73.6437 189.607 73.5233 189.821 73.309C190.034 73.0948 190.155 72.8044 190.155 72.5016V54.4838C190.154 54.181 190.034 53.8908 189.82 53.6766C189.607 53.4625 189.317 53.3419 189.014 53.3413H164.4Z" fill="white"/>
<path d="M176.729 63.8899C176.501 63.8894 176.28 63.8184 176.094 63.6868L162.302 53.8956C162.178 53.814 162.073 53.7083 161.991 53.585C161.91 53.4617 161.854 53.3233 161.827 53.1779C161.8 53.0325 161.802 52.8831 161.834 52.7387C161.866 52.5943 161.926 52.4577 162.012 52.3371C162.097 52.2165 162.206 52.1144 162.332 52.0367C162.458 51.9591 162.598 51.9076 162.744 51.8852C162.89 51.8629 163.039 51.8701 163.182 51.9065C163.325 51.943 163.459 52.0079 163.577 52.0973L176.732 61.4347L189.715 52.2042C189.954 52.0424 190.246 51.9805 190.529 52.0317C190.813 52.083 191.065 52.2433 191.232 52.4784C191.399 52.7135 191.467 53.0046 191.422 53.2895C191.377 53.5743 191.223 53.8303 190.992 54.0025L177.37 63.6868C177.183 63.8197 176.958 63.8907 176.729 63.8899Z" fill="white"/>
<path d="M163.106 75.0806L162.789 72.8962L162.938 73.9899L162.014 73.3891C162.27 72.9776 167.244 64.2686 170.525 58.5151C170.597 58.3893 170.693 58.2788 170.807 58.19C170.922 58.1012 171.052 58.0358 171.192 57.9976C171.332 57.9594 171.478 57.9491 171.621 57.9673C171.765 57.9855 171.903 58.0318 172.029 58.1036C172.155 58.1754 172.265 58.2713 172.354 58.3859C172.443 58.5004 172.508 58.6313 172.546 58.771C172.584 58.9108 172.595 59.0567 172.576 59.2005C172.558 59.3443 172.512 59.483 172.44 59.6089C172.44 59.6089 170.313 63.3398 168.18 67.0718C167.114 68.9378 166.047 70.8038 165.244 72.2043C163.641 74.9959 163.641 74.9959 163.106 75.0806Z" fill="white"/>
<path d="M190.268 75.0795C189.74 74.9949 189.74 74.9949 188.134 72.2043C187.331 70.8038 186.264 68.9378 185.198 67.0718C183.065 63.3398 180.938 59.6089 180.938 59.6089C180.793 59.3547 180.755 59.0533 180.832 58.771C180.909 58.4887 181.095 58.2487 181.349 58.1036C181.603 57.9586 181.904 57.9204 182.186 57.9976C182.468 58.0748 182.708 58.2609 182.853 58.5151C186.129 64.2675 191.108 72.9765 191.364 73.388L190.44 73.9899L190.268 75.0795Z" fill="white"/>
<path d="M265.963 136.507V161.656C265.963 163.094 266.516 164.477 267.508 165.518C268.5 166.558 269.855 167.177 271.29 167.244L302.707 168.725C303.462 168.761 304.216 168.642 304.925 168.377C305.633 168.113 306.28 167.707 306.827 167.184C307.374 166.662 307.809 166.034 308.107 165.338C308.404 164.642 308.558 163.893 308.558 163.137V136.507C308.557 135.024 307.967 133.602 306.919 132.554C305.871 131.505 304.45 130.916 302.969 130.916H271.552C270.071 130.916 268.65 131.505 267.601 132.554C266.553 133.602 265.964 135.024 265.963 136.507Z" fill="url(#paint25_linear_1_383)"/>
<path d="M274.001 166.727C273.565 166.74 273.139 166.587 272.812 166.297L271.903 165.463C271.462 165.058 271.279 164.437 271.388 163.714C271.519 162.973 271.865 162.286 272.385 161.741L272.99 161.079C273.033 161.033 273.077 160.987 273.121 160.943L284.453 149.6C284.505 149.547 284.576 149.518 284.65 149.518C284.724 149.518 284.795 149.548 284.848 149.6C284.9 149.653 284.929 149.724 284.929 149.798C284.929 149.872 284.899 149.943 284.847 149.995L273.516 161.337C273.477 161.376 273.439 161.417 273.401 161.457L272.796 162.119C272.352 162.582 272.054 163.165 271.94 163.797C271.859 164.331 271.98 164.776 272.28 165.05L273.189 165.886C273.823 166.472 275.144 166.121 276.062 165.118L276.669 164.457C276.706 164.416 276.743 164.374 276.774 164.332L285.827 153.554C285.877 153.506 285.942 153.479 286.011 153.477C286.08 153.475 286.147 153.499 286.199 153.544C286.252 153.588 286.286 153.651 286.295 153.719C286.304 153.787 286.288 153.857 286.249 153.913L277.201 164.687C277.16 164.735 277.118 164.784 277.076 164.83L276.469 165.491C275.744 166.292 274.81 166.727 274.001 166.727ZM274.276 164.948C273.982 164.957 273.696 164.853 273.476 164.658C272.842 164.079 273.054 162.859 273.958 161.873C274.334 161.446 274.816 161.127 275.355 160.947C275.895 160.784 276.369 160.857 276.69 161.151C277.011 161.445 277.123 161.912 277.007 162.464C276.874 163.017 276.598 163.525 276.206 163.937C275.608 164.588 274.883 164.948 274.276 164.948ZM275.893 161.421C275.765 161.423 275.638 161.444 275.516 161.481C275.073 161.633 274.678 161.898 274.369 162.25C273.715 162.965 273.473 163.898 273.854 164.246C274.191 164.556 275.071 164.352 275.796 163.56C276.12 163.222 276.35 162.805 276.462 162.35C276.504 162.146 276.542 161.773 276.313 161.564C276.196 161.465 276.046 161.414 275.893 161.421ZM290.002 149.3C289.949 149.3 289.897 149.284 289.853 149.256C289.808 149.227 289.773 149.186 289.751 149.138C289.728 149.09 289.72 149.036 289.728 148.984C289.735 148.931 289.756 148.882 289.791 148.841L293.055 144.955L293.26 145.08C295.801 146.629 298.851 146.206 300.847 144.022C301.483 143.335 301.965 142.52 302.263 141.633C302.56 140.745 302.665 139.804 302.571 138.872C302.56 138.752 302.513 138.637 302.437 138.543C302.361 138.449 302.259 138.379 302.143 138.343C302.025 138.304 301.898 138.3 301.778 138.331C301.657 138.362 301.549 138.427 301.465 138.519L297.948 142.358C297.795 142.524 297.606 142.652 297.396 142.734C297.186 142.816 296.96 142.849 296.736 142.83L294.843 142.667C294.519 142.639 294.214 142.504 293.974 142.284C293.735 142.064 293.575 141.771 293.519 141.45L293.192 139.578C293.154 139.355 293.167 139.127 293.231 138.91C293.294 138.693 293.407 138.494 293.559 138.328L297.076 134.489C297.161 134.398 297.217 134.284 297.238 134.161C297.258 134.038 297.243 133.912 297.192 133.798C297.146 133.686 297.069 133.59 296.969 133.522C296.869 133.454 296.751 133.417 296.63 133.416C295.695 133.404 294.768 133.59 293.91 133.963C293.052 134.335 292.283 134.886 291.654 135.578C289.656 137.757 289.498 140.836 291.259 143.237L291.401 143.43L287.174 147.662C287.121 147.71 287.051 147.737 286.979 147.735C286.908 147.734 286.839 147.704 286.788 147.653C286.737 147.602 286.708 147.534 286.707 147.462C286.705 147.39 286.731 147.32 286.78 147.267L290.673 143.37C288.898 140.776 289.116 137.522 291.244 135.2C291.926 134.45 292.759 133.853 293.689 133.451C294.619 133.048 295.624 132.848 296.637 132.864C296.866 132.867 297.088 132.937 297.277 133.065C297.466 133.193 297.613 133.374 297.701 133.584C297.795 133.797 297.823 134.032 297.785 134.261C297.746 134.49 297.641 134.703 297.483 134.873L293.966 138.712C293.871 138.815 293.802 138.939 293.762 139.073C293.723 139.208 293.715 139.35 293.739 139.488L294.064 141.361C294.099 141.561 294.198 141.743 294.347 141.879C294.496 142.016 294.686 142.099 294.887 142.117L296.779 142.28C296.919 142.291 297.059 142.271 297.19 142.22C297.32 142.17 297.437 142.09 297.532 141.987L301.049 138.148C301.206 137.975 301.409 137.852 301.634 137.794C301.86 137.736 302.097 137.745 302.317 137.82C302.535 137.889 302.727 138.021 302.871 138.198C303.015 138.375 303.103 138.591 303.126 138.818C303.228 139.829 303.115 140.849 302.793 141.812C302.471 142.776 301.948 143.659 301.26 144.405C299.131 146.732 295.91 147.225 293.176 145.674L290.217 149.197C290.192 149.229 290.159 149.255 290.121 149.273C290.084 149.291 290.043 149.3 290.002 149.3Z" fill="white"/>
<path d="M298.495 166.872C298.421 166.872 298.347 166.872 298.272 166.862C297.925 166.834 297.588 166.736 297.28 166.573C296.973 166.411 296.701 166.188 296.482 165.918L285.964 153.031C285.745 152.766 285.639 152.425 285.668 152.082C285.697 151.738 285.858 151.42 286.118 151.195L288.193 149.384C288.451 149.157 288.788 149.039 289.132 149.057C289.475 149.075 289.798 149.226 290.032 149.479L301.36 161.655C301.597 161.909 301.78 162.209 301.899 162.536C302.018 162.863 302.07 163.21 302.052 163.558C302.034 163.905 301.946 164.246 301.794 164.559C301.642 164.871 301.429 165.15 301.167 165.379L300.191 166.225C299.723 166.641 299.12 166.87 298.495 166.872ZM288.685 149.947L286.611 151.755C286.497 151.854 286.427 151.994 286.414 152.144C286.401 152.294 286.448 152.443 286.543 152.559L297.058 165.446C297.215 165.638 297.408 165.797 297.628 165.912C297.847 166.028 298.087 166.099 298.334 166.12C298.581 166.14 298.83 166.111 299.065 166.034C299.301 165.957 299.518 165.833 299.705 165.67L300.681 164.824C300.867 164.661 301.02 164.462 301.128 164.239C301.237 164.016 301.299 163.773 301.312 163.525C301.325 163.277 301.288 163.029 301.203 162.796C301.119 162.563 300.988 162.349 300.819 162.168L289.489 149.992C289.387 149.881 289.246 149.815 289.095 149.807C288.945 149.799 288.797 149.85 288.684 149.95L288.685 149.947Z" fill="white"/>
<path d="M286.629 151.424L277.503 140.74C277.363 140.738 277.227 140.691 277.115 140.606L274.378 138.504C274.304 138.448 274.243 138.376 274.2 138.293L272.988 135.888C272.918 135.733 272.902 135.559 272.942 135.394C272.982 135.229 273.075 135.082 273.208 134.975L273.891 134.379C274.014 134.262 274.173 134.189 274.342 134.171C274.511 134.154 274.681 134.194 274.825 134.284L277.045 135.814C277.118 135.865 277.179 135.931 277.225 136.007L278.997 138.946C279.043 139.025 279.073 139.113 279.085 139.204C279.097 139.295 279.091 139.387 279.066 139.475L288.471 150.047L286.629 151.424ZM277.729 140.145L286.712 150.663L287.645 149.959L278.4 139.565L278.497 139.393C278.513 139.37 278.523 139.343 278.526 139.315C278.53 139.287 278.526 139.259 278.516 139.233L276.745 136.293C276.739 136.285 276.732 136.278 276.724 136.272L274.505 134.742C274.463 134.724 274.416 134.721 274.372 134.731C274.327 134.741 274.287 134.764 274.256 134.798L273.572 135.394C273.535 135.421 273.506 135.458 273.49 135.5C273.474 135.543 273.471 135.59 273.482 135.634L274.695 138.037C274.7 138.046 274.706 138.055 274.714 138.061L277.452 140.163C277.469 140.173 277.488 140.179 277.508 140.182C277.527 140.184 277.548 140.182 277.567 140.177L277.729 140.145Z" fill="white"/>
<path d="M75.713 65.8955V95.9661C75.713 97.6861 76.3749 99.34 77.5611 100.584C78.7473 101.829 80.3668 102.568 82.0832 102.648L119.65 104.415C120.553 104.457 121.455 104.316 122.302 103.999C123.149 103.683 123.923 103.197 124.577 102.573C125.231 101.948 125.752 101.197 126.108 100.365C126.463 99.5332 126.647 98.6376 126.647 97.7327V65.8923C126.647 65.0137 126.474 64.1437 126.138 63.332C125.803 62.5202 125.31 61.7827 124.69 61.1614C124.069 60.5401 123.333 60.0472 122.522 59.711C121.711 59.3747 120.842 59.2016 119.964 59.2016H82.397C81.519 59.2016 80.6496 59.3748 79.8384 59.7112C79.0273 60.0477 78.2903 60.5408 77.6696 61.1624C77.0489 61.784 76.5566 62.522 76.2209 63.3341C75.8852 64.1462 75.7126 65.0166 75.713 65.8955Z" fill="url(#paint26_linear_1_383)"/>
<path d="M102.572 84.4581C102.572 87.1302 102.385 89.8075 101.917 92.4426C101.798 93.1005 101.66 93.7553 101.494 94.4038C101.334 95.0544 101.138 95.696 100.91 96.3258C100.686 96.9593 100.392 97.566 100.035 98.1347C99.8532 98.4211 99.6322 98.6803 99.3783 98.9048C99.2486 99.0171 99.1038 99.1108 98.9482 99.183C98.7906 99.2561 98.6198 99.2964 98.4462 99.3015C98.2725 99.3057 98.0999 99.2741 97.939 99.2084C97.7805 99.1423 97.6324 99.0536 97.4994 98.945C97.2396 98.727 97.0135 98.4718 96.8283 98.1876C96.4647 97.6222 96.1669 97.0171 95.9406 96.384C95.7084 95.756 95.5105 95.1157 95.3478 94.4662C95.1819 93.8177 95.0435 93.164 94.9251 92.506C94.6863 91.1901 94.5235 89.8615 94.4136 88.5286C94.3037 87.1958 94.2498 85.8597 94.2424 84.5227C94.2424 83.8541 94.2583 83.1866 94.2815 82.5181C94.3048 81.8496 94.3428 81.1831 94.3872 80.5167C94.4865 79.1838 94.6334 77.8542 94.8511 76.5351C94.9568 75.875 95.0889 75.2191 95.2421 74.5686C95.3935 73.9168 95.5791 73.2735 95.798 72.6412C95.91 72.3239 96.0315 72.0139 96.171 71.7093C96.3084 71.4032 96.4681 71.1076 96.6487 70.825C96.8269 70.5384 97.0483 70.2812 97.3049 70.0623C97.4353 69.9537 97.5814 69.8656 97.7382 69.801C97.8965 69.7369 98.0664 69.7066 98.237 69.7121C98.4075 69.7182 98.5752 69.7577 98.7305 69.8285C98.8828 69.8987 99.025 69.9891 99.1532 70.0972C99.4101 70.3148 99.6359 70.5669 99.8243 70.8461C100.196 71.404 100.504 72.0014 100.744 72.6275C100.99 73.2501 101.201 73.8857 101.378 74.5316C101.555 75.1768 101.705 75.8284 101.836 76.4843C102.355 79.1077 102.563 81.785 102.572 84.4581ZM102.374 84.4581C102.374 83.1267 102.322 81.7967 102.217 80.468C102.112 79.1406 101.939 77.8194 101.699 76.5097C101.576 75.8559 101.434 75.2054 101.265 74.5622C101.097 73.9187 100.895 73.2848 100.658 72.6634C100.427 72.0403 100.127 71.4453 99.763 70.8895C99.5819 70.6141 99.364 70.365 99.1152 70.149C98.9911 70.042 98.8536 69.9517 98.7062 69.8803C98.5589 69.8112 98.3995 69.7721 98.237 69.765C98.0746 69.7608 97.9132 69.7915 97.7636 69.8549C97.6131 69.9184 97.4734 70.0048 97.3493 70.1109C97.1006 70.3275 96.8868 70.5812 96.7153 70.863C96.5402 71.1441 96.3858 71.4375 96.2534 71.741C96.1192 72.0446 96.0009 72.3546 95.8942 72.6698C95.6837 73.3002 95.5073 73.9414 95.3658 74.5908C95.2199 75.2403 95.0995 75.8951 94.998 76.553C94.7941 77.869 94.662 79.1976 94.5753 80.5241C94.4887 81.8506 94.4622 83.1856 94.4643 84.5174C94.4665 85.8492 94.5056 87.181 94.6038 88.5085C94.7021 89.8361 94.8554 91.1605 95.0826 92.4711C95.1967 93.127 95.3298 93.7786 95.4894 94.4249C95.6462 95.0695 95.8378 95.7051 96.0632 96.329C96.2816 96.9584 96.5713 97.5607 96.9266 98.1241C97.1027 98.4013 97.3189 98.6508 97.5681 98.8646C97.6922 98.9674 97.8307 99.0515 97.9791 99.1142C98.126 99.1767 98.2846 99.207 98.4441 99.2031C98.6035 99.1971 98.7599 99.1586 98.9038 99.0899C99.0491 99.0205 99.1842 98.9316 99.3054 98.8254C99.5513 98.6065 99.7648 98.3536 99.9394 98.0744C100.286 97.5109 100.57 96.9106 100.785 96.2846C101.007 95.6602 101.196 95.0247 101.351 94.3805C101.509 93.7342 101.641 93.0825 101.754 92.4267C101.979 91.115 102.129 89.7906 102.229 88.463C102.33 87.1355 102.375 85.7899 102.374 84.4581Z" fill="white"/>
<path d="M98.408 99.6897C98.1974 99.6881 97.989 99.6465 97.794 99.567C97.6008 99.4881 97.4203 99.3812 97.2582 99.2496C96.9668 99.0072 96.7138 98.7219 96.5079 98.4034C96.1265 97.8133 95.8145 97.1811 95.578 96.5194C95.3407 95.8779 95.1386 95.2239 94.9724 94.5603C94.8129 93.9352 94.6723 93.2846 94.5423 92.5727C94.313 91.3107 94.145 89.998 94.0256 88.5583C93.9199 87.2498 93.8607 85.8915 93.8544 84.5216C93.8544 83.8055 93.8713 83.0989 93.8924 82.5012C93.9188 81.8221 93.9558 81.144 94.0044 80.485C94.1101 79.0368 94.2644 77.723 94.4726 76.4653C94.5909 75.7491 94.7209 75.0975 94.8689 74.4713C95.0229 73.8063 95.212 73.1499 95.4353 72.5048C95.5621 72.1483 95.6879 71.832 95.8221 71.5401C95.9669 71.2167 96.1354 70.9045 96.3261 70.606C96.5274 70.2873 96.777 70.0018 97.0659 69.7598C97.2275 69.627 97.4085 69.52 97.6027 69.4424C97.8106 69.3584 98.0338 69.3188 98.2579 69.3261C98.4769 69.3343 98.6922 69.385 98.892 69.4752C99.0772 69.5575 99.2507 69.6643 99.4077 69.7926C99.6916 70.0328 99.9406 70.3116 100.147 70.6208C100.536 71.2027 100.859 71.8265 101.109 72.4805C101.359 73.1171 101.574 73.7669 101.754 74.4269C101.926 75.0542 102.078 75.6963 102.218 76.4071C102.707 78.9004 102.948 81.5344 102.957 84.4582C102.957 87.401 102.738 90.035 102.297 92.5103C102.168 93.2222 102.029 93.8728 101.874 94.5C101.709 95.1632 101.509 95.8172 101.275 96.4591C101.042 97.1204 100.735 97.7534 100.361 98.3463C100.159 98.6641 99.9133 98.9515 99.6306 99.1999C99.473 99.3352 99.2978 99.4484 99.1097 99.5363C98.9043 99.6312 98.6817 99.6831 98.4555 99.6886L98.408 99.6897ZM98.2061 70.1575C98.1052 70.158 98.0053 70.1785 97.9123 70.2178C97.7973 70.267 97.6904 70.3333 97.5953 70.4146C97.3779 70.6049 97.1915 70.828 97.0426 71.0757C96.8778 71.3404 96.7326 71.6169 96.6083 71.9029C96.4889 72.1727 96.3747 72.4657 96.2606 72.7989C96.0559 73.4162 95.8844 74.044 95.747 74.6797C95.6097 75.2879 95.4913 75.9216 95.3835 76.6166C95.1933 77.8479 95.058 79.1352 94.9682 80.5516C94.8921 81.7628 94.8551 83.0608 94.8625 84.5195C94.8625 85.8661 94.9058 87.199 95.001 88.4821C95.1066 89.8911 95.2609 91.1753 95.4744 92.4077C95.5949 93.0963 95.7259 93.7268 95.876 94.334C96.0287 94.9658 96.216 95.5887 96.4371 96.2C96.6439 96.7978 96.919 97.3696 97.2571 97.9041C97.411 98.1475 97.6005 98.3665 97.8193 98.5536C97.915 98.6327 98.0219 98.6972 98.1364 98.7451C98.2338 98.7844 98.3378 98.8052 98.4428 98.8064C98.5506 98.8015 98.6563 98.7749 98.7535 98.7281C98.8683 98.6724 98.975 98.6012 99.0706 98.5166C99.2865 98.3216 99.4737 98.0969 99.6264 97.8491C99.9585 97.3108 100.23 96.737 100.435 96.1386C100.653 95.5258 100.838 94.9019 100.99 94.2694C101.137 93.6654 101.267 93.035 101.386 92.3421C101.597 91.1203 101.751 89.8361 101.857 88.4155C101.956 87.1355 102.004 85.8027 102.004 84.4539C102.004 83.1105 101.953 81.7798 101.847 80.4966C101.744 79.184 101.573 77.8775 101.334 76.5827C101.206 75.9004 101.067 75.2721 100.906 74.6628C100.743 74.033 100.545 73.4129 100.313 72.8052C100.096 72.2112 99.812 71.6435 99.4679 71.1127C99.3077 70.8668 99.1138 70.6446 98.892 70.4526C98.7942 70.3678 98.6854 70.2966 98.5686 70.2411C98.4692 70.1936 98.3615 70.1663 98.2516 70.1607L98.2061 70.1575Z" fill="white"/>
<path d="M109.28 84.4581C109.276 86.1802 109.044 87.8942 108.592 89.5557C108.133 91.2168 107.416 92.7956 106.468 94.2344C105.992 94.9498 105.448 95.6181 104.846 96.2306C104.243 96.8425 103.573 97.3843 102.848 97.8458C102.123 98.3054 101.339 98.6655 100.518 98.9164C98.8668 99.4213 97.1025 99.4213 95.4511 98.9164C94.6296 98.6658 93.8452 98.3065 93.1188 97.848C92.3936 97.3872 91.7228 96.8456 91.1194 96.2337C90.5151 95.6219 89.9708 94.9535 89.4941 94.2376C88.5435 92.7986 87.8246 91.2191 87.3636 89.5568C87.1338 88.7266 86.9615 87.8815 86.8479 87.0275C86.6155 85.3182 86.6155 83.5853 86.8479 81.8759C86.9618 81.022 87.1345 80.1769 87.3647 79.3467C87.8271 77.6859 88.5467 76.1079 89.4973 74.6701C89.9742 73.9547 90.5188 73.287 91.1236 72.6761C91.7271 72.0649 92.3979 71.524 93.123 71.064C93.8474 70.6077 94.6292 70.2498 95.4479 69.9998C97.0962 69.4934 98.8583 69.4934 100.507 69.9998C101.326 70.2499 102.107 70.6085 102.831 71.0661C103.559 71.5287 104.231 72.0728 104.835 72.6877C105.438 73.2992 105.981 73.9669 106.457 74.6817C107.407 76.1191 108.124 77.6969 108.585 79.3573C109.039 81.0195 109.273 82.7346 109.28 84.4581ZM109.054 84.4581C109.057 82.754 108.835 81.0569 108.393 79.4112C107.953 77.7649 107.26 76.1974 106.337 74.7653C105.873 74.0523 105.343 73.3857 104.752 72.7745C104.162 72.162 103.504 71.6197 102.79 71.1581C102.075 70.7011 101.301 70.3424 100.49 70.0918C98.8588 69.5827 97.1116 69.5827 95.4807 70.0918C94.6697 70.3432 93.8966 70.7033 93.1822 71.1623C92.4694 71.6246 91.812 72.1673 91.223 72.7798C90.6322 73.3911 90.1014 74.0578 89.6378 74.7706C88.7166 76.2025 88.0246 77.7697 87.5866 79.4155C87.3657 80.2365 87.2008 81.0716 87.0931 81.9151C86.8719 83.6032 86.8719 85.313 87.0931 87.0011C87.2013 87.8442 87.3665 88.679 87.5877 89.4996C88.0268 91.1445 88.7199 92.7107 89.642 94.1414C90.1059 94.8533 90.6367 95.5192 91.2272 96.1301C91.816 96.7418 92.4735 97.2835 93.1864 97.7443C93.9007 98.2012 94.673 98.5598 95.4828 98.8106C97.1104 99.3226 98.8557 99.3226 100.483 98.8106C101.294 98.5608 102.067 98.2029 102.782 97.7464C103.495 97.2857 104.153 96.7444 104.743 96.1332C105.334 95.5228 105.865 94.8568 106.328 94.1445C107.252 92.7137 107.947 91.1472 108.388 89.5018C108.831 87.8573 109.055 86.1613 109.054 84.4581Z" fill="white"/>
<path d="M97.9849 99.6896C97.0897 99.6885 96.1996 99.5559 95.343 99.2961C94.4885 99.0356 93.6729 98.6617 92.9177 98.1844C92.1673 97.7078 91.4732 97.1478 90.8485 96.5151C90.2274 95.8847 89.6673 95.1969 89.1757 94.4608C88.2022 92.9882 87.4662 91.3715 86.9945 89.67C86.7592 88.8218 86.5826 87.9583 86.4661 87.0857C86.2287 85.342 86.2287 83.5742 86.4661 81.8305C86.5823 80.9585 86.7589 80.0958 86.9945 79.2483C87.4673 77.547 88.2044 75.9306 89.1789 74.4585C89.6701 73.7231 90.2302 73.0363 90.8517 72.4074C91.4761 71.7754 92.1698 71.2162 92.9198 70.7403C93.6752 70.265 94.4904 69.8926 95.344 69.6328C97.0658 69.105 98.906 69.105 100.628 69.6328C101.481 69.8936 102.295 70.2667 103.05 70.7424C103.799 71.2188 104.492 71.7784 105.115 72.4106C105.736 73.0394 106.295 73.7266 106.785 74.4628C107.756 75.9343 108.488 77.5501 108.956 79.2504C109.42 80.9467 109.658 82.6972 109.662 84.456C109.66 86.2144 109.426 87.9648 108.965 89.6615C108.495 91.3634 107.761 92.9805 106.789 94.4534C106.299 95.19 105.74 95.8779 105.119 96.5077C104.495 97.1401 103.803 97.7004 103.054 98.178C102.299 98.6562 101.483 99.0309 100.629 99.2919C99.7717 99.5532 98.8809 99.6872 97.9849 99.6896ZM97.9849 70.0982C97.1744 70.1021 96.369 70.2254 95.5945 70.4642C94.8169 70.7059 94.0754 71.0514 93.3901 71.4913C92.7024 71.9378 92.0684 72.462 91.5006 73.0537C90.9281 73.6475 90.4135 74.2946 89.964 74.9864C89.0654 76.3841 88.3904 77.9138 87.9636 79.5202C87.7472 80.3238 87.5859 81.1413 87.4806 81.9669C87.2629 83.6216 87.2629 85.2977 87.4806 86.9524C87.5869 87.778 87.7489 88.5955 87.9657 89.3992C88.3951 91.0049 89.0726 92.5335 89.9735 93.9298C90.4233 94.6207 90.9378 95.2672 91.5101 95.8603C92.0779 96.4503 92.7116 96.9731 93.3985 97.4185C94.0828 97.8559 94.8224 98.1999 95.5976 98.4414C97.1516 98.9308 98.8182 98.9308 100.372 98.4414C101.149 98.2009 101.891 97.8576 102.578 97.4206C103.265 96.9755 103.899 96.4531 104.468 95.8635C105.041 95.271 105.557 94.6249 106.007 93.934C106.908 92.5371 107.585 91.0077 108.015 89.4013C108.878 86.1624 108.878 82.7537 108.015 79.5149C107.585 77.9078 106.908 76.3777 106.007 74.98C105.557 74.2879 105.041 73.6407 104.467 73.0474C103.898 72.4569 103.263 71.9337 102.575 71.4882C101.889 71.0493 101.148 70.7046 100.37 70.4631C99.5967 70.2252 98.7928 70.1023 97.9838 70.0982H97.9849Z" fill="white"/>
<path d="M84.8052 78.5851L88.1964 78.5576L91.5886 78.5417L98.3719 78.529L105.156 78.5428L108.549 78.5597L111.941 78.5893C111.943 78.5896 111.946 78.5908 111.948 78.5928C111.949 78.5947 111.95 78.5973 111.95 78.5999C111.95 78.5999 111.95 78.6094 111.941 78.6094L108.549 78.639L105.152 78.6602L98.3677 78.675L91.5886 78.6602L88.1964 78.6443L84.8052 78.6168C84.7995 78.6164 84.7942 78.6137 84.7904 78.6094C84.7904 78.5914 84.7967 78.5851 84.8052 78.5851Z" fill="white"/>
<path d="M98.3729 79.0601L88.1952 79.0315L84.6402 79.0019L84.4025 78.7649V78.5904L84.412 78.2106L84.8019 78.1958L91.5863 78.1525L98.3718 78.1398L108.551 78.1704L112.327 78.2043L112.338 78.9892L111.941 78.9987L105.158 79.0453L98.3729 79.0601Z" fill="white"/>
<path d="M88.7393 72.876C89.5424 72.8634 90.3445 72.8581 91.1476 72.8485L93.556 72.8327C94.3581 72.8263 95.1612 72.8263 95.9644 72.8253H98.3717L103.188 72.839L105.597 72.8559C106.4 72.8665 107.202 72.8729 108.005 72.8866C108.008 72.8856 108.012 72.8856 108.015 72.8866C108.015 72.8972 108.015 72.9014 108.005 72.9014C107.202 72.9152 106.4 72.9215 105.597 72.9321L103.188 72.949L98.3717 72.9628L95.9644 72.9575C95.1612 72.9575 94.3581 72.9575 93.556 72.9501L91.1476 72.9342C90.3445 72.9247 89.5424 72.9194 88.7393 72.9067C88.7373 72.9067 88.7354 72.9063 88.7336 72.9056C88.7318 72.9049 88.7302 72.9038 88.7288 72.9024C88.7274 72.901 88.7264 72.8994 88.7256 72.8976C88.7249 72.8958 88.7245 72.8939 88.7245 72.8919C88.7245 72.89 88.7249 72.888 88.7256 72.8862C88.7264 72.8844 88.7274 72.8828 88.7288 72.8814C88.7302 72.8801 88.7318 72.879 88.7336 72.8782C88.7354 72.8775 88.7373 72.8771 88.7393 72.8771V72.876Z" fill="white"/>
<path d="M98.3746 73.351L95.3396 73.3447C94.7446 73.3447 94.1486 73.3447 93.5536 73.3383L90.3421 73.314C89.8063 73.314 89.2706 73.3034 88.7337 73.2949L88.3533 73.2886L88.3385 72.5016L88.7337 72.4868C89.2526 72.4783 89.7715 72.473 90.2903 72.4677L93.5547 72.4434C94.119 72.4434 94.6854 72.4371 95.2455 72.4371L98.3672 72.4307L106.472 72.472C106.984 72.4773 107.496 72.4825 108.007 72.491L108.402 72.4984L108.384 73.2801L108.001 73.2897C107.472 73.2992 106.935 73.3045 106.399 73.3108L103.187 73.3373L98.3746 73.351Z" fill="white"/>
<path d="M83.6256 84.2941L87.3127 84.2666L90.9987 84.2508L98.3717 84.2381L105.746 84.2518L109.432 84.2688L113.119 84.2984C113.12 84.2984 113.121 84.2986 113.123 84.2992C113.124 84.2997 113.125 84.3005 113.126 84.3015C113.127 84.3025 113.128 84.3037 113.128 84.305C113.128 84.3063 113.128 84.3076 113.128 84.309C113.128 84.309 113.128 84.3185 113.119 84.3185L109.432 84.3481L105.746 84.365L98.3717 84.3788L90.9987 84.3724L87.3127 84.3566L83.6256 84.3291C83.6217 84.3291 83.618 84.3275 83.6152 84.3247C83.6124 84.3219 83.6108 84.3182 83.6108 84.3142C83.61 84.3119 83.6097 84.3094 83.61 84.307C83.6103 84.3045 83.6113 84.3021 83.6127 84.3001C83.6142 84.2981 83.6162 84.2965 83.6184 84.2955C83.6207 84.2944 83.6232 84.294 83.6256 84.2941Z" fill="white"/>
<path d="M98.3732 84.7691L87.311 84.7406L83.2382 84.7099L83.2245 83.9186L83.6229 83.9038L90.998 83.8615L98.3721 83.8488L109.434 83.8795L113.285 83.9102L113.519 84.1492L113.504 84.6982L113.119 84.7078L105.747 84.7554L98.3732 84.7691Z" fill="white"/>
<path d="M84.8052 90.0021L88.1964 89.9746L91.5886 89.9598L98.3719 89.9471L105.156 89.9609L108.549 89.9778L111.941 90.0074C111.944 90.0064 111.947 90.0064 111.95 90.0074C111.95 90.0191 111.95 90.0233 111.941 90.0233L108.549 90.0529L105.156 90.0698L98.3719 90.0836L91.5886 90.0709L88.1964 90.0561L84.8052 90.0286C84.8012 90.0283 84.7974 90.0265 84.7947 90.0236C84.7919 90.0206 84.7904 90.0168 84.7904 90.0127C84.7915 90.0097 84.7935 90.007 84.7961 90.0051C84.7988 90.0032 84.8019 90.0022 84.8052 90.0021Z" fill="white"/>
<path d="M98.3729 90.4771L88.1952 90.4496L84.6402 90.421L84.4025 90.183V90.0085L84.4109 89.6277L84.8009 89.6128L91.5863 89.5705L98.3718 89.5578L108.551 89.5885L112.327 89.6213L112.338 90.4073L111.941 90.4168L105.158 90.4633L98.3729 90.4771Z" fill="white"/>
<path d="M108.491 95.7789H89.2259C89.2119 95.7789 89.1985 95.7733 89.1886 95.7634C89.1787 95.7535 89.1731 95.74 89.1731 95.726C89.1731 95.712 89.1787 95.6985 89.1886 95.6886C89.1985 95.6787 89.2119 95.6731 89.2259 95.6731H108.491C108.505 95.6731 108.518 95.6787 108.528 95.6886C108.538 95.6985 108.544 95.712 108.544 95.726C108.544 95.74 108.538 95.7535 108.528 95.7634C108.518 95.7733 108.505 95.7789 108.491 95.7789Z" fill="white"/>
<path d="M108.49 96.1682H89.2257C89.1124 96.1626 89.0056 96.1137 88.9274 96.0314C88.8492 95.9492 88.8055 95.8401 88.8055 95.7265C88.8055 95.613 88.8492 95.5038 88.9274 95.4216C89.0056 95.3394 89.1124 95.2904 89.2257 95.2849H108.49C108.604 95.2904 108.711 95.3394 108.789 95.4216C108.867 95.5038 108.911 95.613 108.911 95.7265C108.911 95.8401 108.867 95.9492 108.789 96.0314C108.711 96.1137 108.604 96.1626 108.49 96.1682Z" fill="white"/>
<path d="M98.3709 99.9953C89.6357 99.9953 82.5289 92.9587 82.5289 84.31C82.5289 75.6613 89.6357 68.6247 98.3709 68.6247C107.106 68.6247 114.214 75.6613 114.214 84.31C114.214 92.9587 107.107 99.9953 98.3709 99.9953ZM98.3709 70.0168C90.4018 70.0168 83.9186 76.4292 83.9186 84.31C83.9186 92.1908 90.4018 98.6033 98.3709 98.6033C106.34 98.6033 112.823 92.1918 112.823 84.31C112.823 76.4282 106.34 70.0168 98.3709 70.0168Z" fill="white"/>
<path d="M113.606 71.6194H109.052V70.4399L110.561 68.302C110.867 67.8801 111.152 67.443 111.414 66.9925C111.558 66.7343 111.673 66.4612 111.757 66.1779C111.829 65.9139 111.864 65.6413 111.862 65.3677C111.862 65.0418 111.789 64.7985 111.645 64.6356C111.574 64.5557 111.487 64.4923 111.389 64.4501C111.291 64.4078 111.186 64.3878 111.079 64.3913C110.876 64.3911 110.677 64.4475 110.504 64.5542C110.262 64.72 110.044 64.9175 109.854 65.1413L108.973 64.2115C109.379 63.751 109.756 63.4354 110.104 63.2647C110.457 63.0912 110.846 63.0021 111.24 63.0045C111.925 63.0045 112.459 63.2058 112.844 63.6085C113.229 64.0112 113.421 64.5708 113.422 65.2873C113.423 65.5982 113.388 65.9081 113.316 66.2107C113.242 66.5124 113.136 66.8053 112.999 67.0845C112.845 67.4005 112.668 67.7051 112.471 67.9963C112.26 68.3116 111.71 69.0348 110.823 70.1659V70.2125H113.606V71.6194Z" fill="white"/>
<path d="M119.451 69.8358H118.592V71.6193H117.106V69.8358H114.338V68.5516L116.903 63.1272H118.594V68.5284H119.453L119.451 69.8358ZM117.106 68.5284V66.7396L117.136 65.9494L117.176 65.1952H117.129C117.006 65.5852 116.859 65.9671 116.689 66.3387L115.668 68.5284H117.106Z" fill="white"/>
<defs>
<filter id="filter0_d_1_383" x="0" y="0" width="373" height="376.267" filterUnits="userSpaceOnUse" color-interpolation-filters="sRGB">
<feFlood flood-opacity="0" result="BackgroundImageFix"/>
<feColorMatrix in="SourceAlpha" type="matrix" values="0 0 0 0 0 0 0 0 0 0 0 0 0 0 0 0 0 0 127 0" result="hardAlpha"/>
<feOffset dx="4"/>
<feGaussianBlur stdDeviation="15"/>
<feColorMatrix type="matrix" values="0 0 0 0 0.121569 0 0 0 0 0.121569 0 0 0 0 0.207843 0 0 0 1 0"/>
<feBlend mode="normal" in2="BackgroundImageFix" result="effect1_dropShadow_1_383"/>
<feBlend mode="normal" in="SourceGraphic" in2="effect1_dropShadow_1_383" result="shape"/>
</filter>
<linearGradient id="paint0_linear_1_383" x1="118.972" y1="227.574" x2="78.8401" y2="116.078" gradientUnits="userSpaceOnUse">
<stop stop-color="#A737D5"/>
<stop offset="1" stop-color="#EF497A"/>
</linearGradient>
<linearGradient id="paint1_linear_1_383" x1="30163" y1="-9191.79" x2="-3005.31" y2="47400.5" gradientUnits="userSpaceOnUse">
<stop stop-color="#B37CFF"/>
<stop offset="1" stop-color="#F895E7"/>
</linearGradient>
<linearGradient id="paint2_linear_1_383" x1="76978" y1="-23757.5" x2="-7824.49" y2="120947" gradientUnits="userSpaceOnUse">
<stop stop-color="#B37CFF"/>
<stop offset="1" stop-color="#F895E7"/>
</linearGradient>
<linearGradient id="paint3_linear_1_383" x1="-11964.1" y1="-30707" x2="44086.4" y2="43570.9" gradientUnits="userSpaceOnUse">
<stop stop-color="#A737D5"/>
<stop offset="1" stop-color="#EF497A"/>
</linearGradient>
<linearGradient id="paint4_linear_1_383" x1="28487.1" y1="-3654.34" x2="3440.6" y2="39090.5" gradientUnits="userSpaceOnUse">
<stop stop-color="#B37CFF"/>
<stop offset="1" stop-color="#F895E7"/>
</linearGradient>
<linearGradient id="paint5_linear_1_383" x1="68222.3" y1="-8970.2" x2="7976.66" y2="93792.9" gradientUnits="userSpaceOnUse">
<stop stop-color="#B37CFF"/>
<stop offset="1" stop-color="#F895E7"/>
</linearGradient>
<linearGradient id="paint6_linear_1_383" x1="151.442" y1="278.32" x2="205.772" y2="293.585" gradientUnits="userSpaceOnUse">
<stop stop-color="#F9B776"/>
<stop offset="1" stop-color="#F47960"/>
</linearGradient>
<linearGradient id="paint7_linear_1_383" x1="145.501" y1="198.409" x2="49.4768" y2="323.142" gradientUnits="userSpaceOnUse">
<stop stop-color="#53D8FF"/>
<stop offset="1" stop-color="#3840F7"/>
</linearGradient>
<linearGradient id="paint8_linear_1_383" x1="34378.2" y1="87755" x2="45289.2" y2="84544.9" gradientUnits="userSpaceOnUse">
<stop stop-color="#F9B776"/>
<stop offset="1" stop-color="#F47960"/>
</linearGradient>
<linearGradient id="paint9_linear_1_383" x1="1675.28" y1="38967.6" x2="55020.2" y2="109436" gradientUnits="userSpaceOnUse">
<stop stop-color="#53D8FF"/>
<stop offset="1" stop-color="#3840F7"/>
</linearGradient>
<linearGradient id="paint10_linear_1_383" x1="82993" y1="104835" x2="67082.5" y2="227608" gradientUnits="userSpaceOnUse">
<stop stop-color="#F9B776"/>
<stop offset="1" stop-color="#F47960"/>
</linearGradient>
<linearGradient id="paint11_linear_1_383" x1="126.812" y1="123.202" x2="162.551" y2="181.539" gradientUnits="userSpaceOnUse">
<stop stop-color="#2B3582"/>
<stop offset="1" stop-color="#150E42"/>
</linearGradient>
<linearGradient id="paint12_linear_1_383" x1="10305" y1="17610.5" x2="4700.61" y2="19629.7" gradientUnits="userSpaceOnUse">
<stop stop-color="#F9B776"/>
<stop offset="1" stop-color="#F47960"/>
</linearGradient>
<linearGradient id="paint13_linear_1_383" x1="-1.36668e+06" y1="-7333.51" x2="-1.35968e+06" y2="16849.7" gradientUnits="userSpaceOnUse">
<stop stop-color="#2B3582"/>
<stop offset="1" stop-color="#150E42"/>
</linearGradient>
<linearGradient id="paint14_linear_1_383" x1="36403.4" y1="17433" x2="32881.2" y2="27110.7" gradientUnits="userSpaceOnUse">
<stop stop-color="#53D8FF"/>
<stop offset="1" stop-color="#3840F7"/>
</linearGradient>
<linearGradient id="paint15_linear_1_383" x1="11259.6" y1="5339" x2="10693.3" y2="6875.94" gradientUnits="userSpaceOnUse">
<stop stop-color="#53D8FF"/>
<stop offset="1" stop-color="#3840F7"/>
</linearGradient>
<linearGradient id="paint16_linear_1_383" x1="46494.1" y1="15589.6" x2="8747.06" y2="29716" gradientUnits="userSpaceOnUse">
<stop stop-color="#53D8FF"/>
<stop offset="1" stop-color="#3840F7"/>
</linearGradient>
<linearGradient id="paint17_linear_1_383" x1="28714.2" y1="33626.4" x2="12483" y2="38020.3" gradientUnits="userSpaceOnUse">
<stop stop-color="#53D8FF"/>
<stop offset="1" stop-color="#3840F7"/>
</linearGradient>
<linearGradient id="paint18_linear_1_383" x1="8539.12" y1="24843.6" x2="21678.1" y2="38068.4" gradientUnits="userSpaceOnUse">
<stop stop-color="#53D8FF"/>
<stop offset="1" stop-color="#3840F7"/>
</linearGradient>
<linearGradient id="paint19_linear_1_383" x1="425630" y1="63137" x2="425682" y2="46124.5" gradientUnits="userSpaceOnUse">
<stop stop-color="#2B3582"/>
<stop offset="1" stop-color="#150E42"/>
</linearGradient>
<linearGradient id="paint20_linear_1_383" x1="300513" y1="165986" x2="320475" y2="244634" gradientUnits="userSpaceOnUse">
<stop stop-color="#2B3582"/>
<stop offset="1" stop-color="#150E42"/>
</linearGradient>
<linearGradient id="paint21_linear_1_383" x1="90806.6" y1="113989" x2="102360" y2="171514" gradientUnits="userSpaceOnUse">
<stop stop-color="#2B3582"/>
<stop offset="1" stop-color="#150E42"/>
</linearGradient>
<linearGradient id="paint22_linear_1_383" x1="134506" y1="19208.5" x2="135699" y2="26830.6" gradientUnits="userSpaceOnUse">
<stop stop-color="#2B3582"/>
<stop offset="1" stop-color="#150E42"/>
</linearGradient>
<linearGradient id="paint23_linear_1_383" x1="214.496" y1="131.593" x2="296.532" y2="34.2056" gradientUnits="userSpaceOnUse">
<stop stop-color="#FCB148"/>
<stop offset="0.05" stop-color="#FDBA46"/>
<stop offset="0.14" stop-color="#FFC244"/>
<stop offset="0.32" stop-color="#FFC444"/>
<stop offset="0.48" stop-color="#FDB946"/>
<stop offset="0.78" stop-color="#F99C4D"/>
<stop offset="0.87" stop-color="#F8924F"/>
<stop offset="1" stop-color="#F8924F"/>
</linearGradient>
<linearGradient id="paint24_linear_1_383" x1="87059.7" y1="-17511.7" x2="49184.5" y2="65715.9" gradientUnits="userSpaceOnUse">
<stop stop-color="#FCB148"/>
<stop offset="0.05" stop-color="#FDBA46"/>
<stop offset="0.14" stop-color="#FFC244"/>
<stop offset="0.32" stop-color="#FFC444"/>
<stop offset="0.48" stop-color="#FDB946"/>
<stop offset="0.78" stop-color="#F99C4D"/>
<stop offset="0.87" stop-color="#F8924F"/>
<stop offset="1" stop-color="#F8924F"/>
</linearGradient>
<linearGradient id="paint25_linear_1_383" x1="119351" y1="25170.3" x2="96718.3" y2="62252.9" gradientUnits="userSpaceOnUse">
<stop stop-color="#FCB148"/>
<stop offset="0.05" stop-color="#FDBA46"/>
<stop offset="0.14" stop-color="#FFC244"/>
<stop offset="0.32" stop-color="#FFC444"/>
<stop offset="0.48" stop-color="#FDB946"/>
<stop offset="0.78" stop-color="#F99C4D"/>
<stop offset="0.87" stop-color="#F8924F"/>
<stop offset="1" stop-color="#F8924F"/>
</linearGradient>
<linearGradient id="paint26_linear_1_383" x1="56068.9" y1="-12007.9" x2="14164.1" y2="80058.5" gradientUnits="userSpaceOnUse">
<stop stop-color="#FCB148"/>
<stop offset="0.05" stop-color="#FDBA46"/>
<stop offset="0.14" stop-color="#FFC244"/>
<stop offset="0.32" stop-color="#FFC444"/>
<stop offset="0.48" stop-color="#FDB946"/>
<stop offset="0.78" stop-color="#F99C4D"/>
<stop offset="0.87" stop-color="#F8924F"/>
<stop offset="1" stop-color="#F8924F"/>
</linearGradient>
</defs>
</svg>
