<svg width="28" height="27" viewBox="0 0 28 27" fill="none" xmlns="http://www.w3.org/2000/svg">
<path d="M26.0024 0H2.29937C1.19607 0 0.301758 0.870165 0.301758 1.94368V25.0068C0.301758 26.0803 1.19607 26.9504 2.29937 26.9504H26.0024C27.1057 26.9504 28 26.0803 28 25.0068V1.94368C28 0.870165 27.1057 0 26.0024 0ZM10.1265 20.3708H6.75359V10.4973H10.1265V20.3708ZM8.44014 9.14907H8.41816C7.28633 9.14907 6.55431 8.39097 6.55431 7.44349C6.55431 6.47463 7.30873 5.7375 8.46254 5.7375C9.61635 5.7375 10.3264 6.47463 10.3484 7.44349C10.3484 8.39097 9.61635 9.14907 8.44014 9.14907ZM22.2884 20.3708H18.9159V15.0887C18.9159 13.7612 18.4276 12.8559 17.2072 12.8559C16.2755 12.8559 15.7206 13.4666 15.4767 14.0561C15.3875 14.2671 15.3658 14.5619 15.3658 14.857V20.3708H11.9931C11.9931 20.3708 12.0372 11.4236 11.9931 10.4973H15.3658V11.8953C15.814 11.2225 16.6159 10.2656 18.4054 10.2656C20.6245 10.2656 22.2884 11.6767 22.2884 14.7093V20.3708Z" fill="#707BFA" fill-opacity="0.71"/>
</svg>
