<svg width="361" height="359" viewBox="0 0 361 359" fill="none" xmlns="http://www.w3.org/2000/svg">
<g filter="url(#filter0_d_1_868)">
<path d="M254.336 48.5629C264.398 62.9683 252.599 86.3221 267.526 97.1569C282.061 107.703 299.916 90.4164 313.614 99.4942C333.934 112.96 330.223 174.582 300.515 212.869C291.58 224.383 284.115 228.863 280.809 241.885C273.709 269.846 298.656 286.479 293.912 300.308C283.225 331.447 118.794 357.575 52.8188 263.994C22.0052 220.283 17.3948 157.177 44.9252 109.242C94.6767 22.6259 231.756 16.2402 254.336 48.5629Z" fill="#313252"/>
</g>
<path d="M95.3138 192.115C98.5787 193.772 102.679 192.25 104.474 188.716C106.268 185.182 105.077 180.972 101.813 179.311C101.644 179.225 101.471 179.153 101.298 179.084C101.898 177.154 102.357 175.182 102.669 173.185C102.856 173.185 103.043 173.185 103.234 173.164C106.958 172.833 109.914 169.41 109.836 165.52C109.758 161.63 106.675 158.747 102.951 159.078C102.756 159.096 102.565 159.126 102.376 159.16C101.99 157.244 101.457 155.361 100.781 153.527C100.952 153.428 101.122 153.324 101.289 153.206C104.476 150.975 105.494 146.569 103.564 143.367C101.634 140.165 97.4876 139.377 94.3017 141.61C94.1382 141.724 93.9811 141.847 93.8325 141.973C92.566 140.574 91.1839 139.283 89.7008 138.116C89.8077 137.944 89.9081 137.769 90.0011 137.582C91.7955 134.047 94.1414 130.186 90.8561 128.58C83.2457 124.865 79.9807 128.045 78.1853 131.58C78.0923 131.763 78.0132 131.949 77.9352 132.135C76.1157 131.627 74.2567 131.272 72.3778 131.075C72.3895 130.879 72.3981 130.682 72.3949 130.483C72.3169 126.593 73.4711 124.489 69.7327 124.416C61.5804 124.257 58.8317 127.795 58.9086 131.683C58.9086 131.887 58.9289 132.086 58.9492 132.283C57.0698 132.823 55.2347 133.507 53.4602 134.329C53.3758 134.156 53.2882 133.983 53.1866 133.816C51.2576 130.61 47.1098 129.827 43.924 132.059C40.7381 134.292 39.7185 138.697 41.6486 141.9C41.747 142.064 41.856 142.221 41.9693 142.37C40.5408 143.8 39.2191 145.333 38.015 146.956C37.8568 146.857 37.6943 146.761 37.5276 146.674C34.2637 145.017 30.163 146.539 28.3686 150.074C26.5742 153.609 27.7648 157.817 31.0298 159.479C31.1986 159.564 31.3707 159.637 31.5438 159.705C30.944 161.636 30.4861 163.608 30.1737 165.605C29.9867 165.605 29.7986 165.605 29.6083 165.625C25.8806 165.953 22.9245 169.375 23.0015 173.264C23.0784 177.153 26.1628 180.038 29.8862 179.707C30.0807 179.69 30.272 179.659 30.4623 179.624C30.848 181.54 31.3811 183.424 32.0568 185.258C31.8858 185.358 31.7148 185.462 31.5481 185.578C28.3622 187.811 27.3437 192.216 29.2728 195.419C31.2018 198.622 37.5918 200.11 40.7776 197.877C40.9411 197.763 38.8539 196.938 39.0046 196.808C40.272 198.207 41.6544 199.498 43.1374 200.665C43.0305 200.838 42.929 201.012 42.836 201.2C41.0416 204.734 42.2332 208.944 45.4971 210.605C48.761 212.265 52.8628 210.74 54.6572 207.206C54.7502 207.023 54.8303 206.837 54.9073 206.65C56.7249 207.159 58.5821 207.514 60.4593 207.711C60.4486 207.907 60.439 208.104 60.4433 208.304C60.5213 212.193 63.6035 215.077 67.3281 214.745C71.0526 214.413 74.0076 210.99 73.9296 207.101C73.9296 206.898 73.9082 206.699 73.889 206.502C75.7681 205.965 77.6029 205.284 79.3769 204.465C79.4624 204.639 79.55 204.811 79.6505 204.978C81.5806 208.184 85.7273 208.967 88.9142 206.735C92.1012 204.502 93.1186 200.097 91.1896 196.894C91.0902 196.73 90.9822 196.573 90.8689 196.426C92.2972 194.995 93.6188 193.462 94.8232 191.839C94.9846 191.932 95.1406 192.029 95.3138 192.115ZM54.6219 192.631C42.7697 186.614 38.4446 171.332 44.9596 158.499C51.4745 145.665 66.3651 140.141 78.2173 146.158C90.0695 152.175 94.3947 167.457 87.8786 180.29C81.3626 193.123 66.4741 198.646 54.6219 192.631Z" fill="#AABBCC"/>
<path d="M103.234 173.168C106.958 172.837 109.914 169.414 109.836 165.525C109.758 161.635 106.676 158.751 102.951 159.082C102.757 159.1 102.565 159.13 102.376 159.165C101.99 157.249 101.457 155.365 100.782 153.531C100.953 153.432 101.122 153.328 101.289 153.211C104.476 150.979 108.418 145.585 106.17 142.597C101.903 136.933 97.4877 139.381 94.3018 141.614C94.1383 141.728 93.9812 141.851 93.8327 141.977C92.5662 140.578 91.1841 139.288 89.701 138.12C89.8078 137.948 89.9083 137.773 90.0013 137.586C90.4642 136.691 90.7401 135.712 90.8119 134.708C90.8838 133.703 90.7501 132.694 90.4191 131.743C87.3419 137.158 84.3103 142.6 81.3243 148.068C90.7793 154.997 93.7888 168.65 87.8788 180.29C82.8707 190.155 72.9166 195.693 63.1911 194.999C62.7572 196.123 62.3362 197.254 61.867 198.368C60.607 201.39 59.1759 204.353 57.7417 207.307C58.6437 207.477 59.5489 207.61 60.4573 207.705C60.4456 207.902 60.436 208.098 60.4402 208.298C60.5183 212.187 62.8801 215.492 69.6313 215.138C73.3654 214.939 74.0067 210.988 73.9287 207.099C73.9287 206.896 73.9073 206.697 73.8881 206.5C75.7672 205.963 77.602 205.282 79.376 204.463C79.4615 204.637 79.5491 204.809 79.6496 204.976C81.5797 208.182 88.2742 209.539 91.4601 207.308C94.646 205.076 93.1177 200.095 91.1886 196.892C91.0892 196.728 90.9813 196.571 90.868 196.424C92.2963 194.993 93.6179 193.46 94.8223 191.837C94.9805 191.935 95.1429 192.032 95.3096 192.118C98.5746 193.775 102.675 192.254 104.47 188.719C106.264 185.185 105.072 180.975 101.809 179.314C101.64 179.228 101.467 179.156 101.293 179.087C101.894 177.157 102.352 175.185 102.665 173.188C102.855 173.188 103.043 173.185 103.234 173.168Z" fill="#AABBCC"/>
<path d="M98.8247 192.514C102.09 194.171 106.19 192.65 107.985 189.115C109.779 185.579 108.588 181.372 105.324 179.71C105.155 179.624 104.982 179.552 104.808 179.483C105.409 177.553 105.867 175.581 106.18 173.584C106.367 173.584 106.554 173.584 106.745 173.564C110.47 173.231 113.425 169.809 113.347 165.92C113.269 162.031 110.186 159.145 106.463 159.478C106.267 159.495 106.077 159.526 105.887 159.56C105.501 157.644 104.968 155.761 104.292 153.927C104.463 153.826 104.634 153.723 104.8 153.606C107.987 151.373 109.005 146.968 107.075 143.765C105.145 140.562 100.998 139.777 97.8126 142.008C97.6491 142.123 97.492 142.247 97.3434 142.372C96.0782 140.974 94.6979 139.685 93.217 138.519C93.3239 138.347 93.4244 138.173 93.5174 137.99C95.3118 134.454 94.1212 130.246 90.8562 128.585C87.5913 126.924 83.4916 128.45 81.6972 131.985C81.6042 132.167 81.5241 132.353 81.4461 132.54C79.6286 132.031 77.7713 131.677 75.894 131.48C75.9058 131.284 75.9154 131.087 75.9111 130.887C75.8331 126.998 72.7509 124.113 69.0264 124.446C65.3019 124.778 62.3468 128.199 62.4248 132.089C62.4248 132.292 62.4452 132.491 62.4655 132.689C60.5863 133.225 58.7515 133.906 56.9775 134.726C56.892 134.552 56.8044 134.38 56.7029 134.212C54.7738 131.006 50.6261 130.223 47.4402 132.456C44.2543 134.689 43.2348 139.094 45.1649 142.296C45.2632 142.46 45.3722 142.616 45.4855 142.765C44.0572 144.195 42.7356 145.728 41.5312 147.352C41.3741 147.254 41.2106 147.156 41.0439 147.071C37.78 145.413 33.6793 146.935 31.8849 150.469C30.0905 154.004 31.281 158.213 34.546 159.874C34.7149 159.961 34.888 160.032 35.0611 160.102C34.4604 162.032 34.0022 164.003 33.6899 166C33.5029 166 33.3159 166 33.1246 166.02C29.4001 166.353 26.445 169.775 26.522 173.665C26.5989 177.555 29.6833 180.439 33.4067 180.106C33.6012 180.089 33.7925 180.059 33.9828 180.025C34.3688 181.941 34.9019 183.824 35.5773 185.658C35.4063 185.758 35.2353 185.861 35.0697 185.979C31.8827 188.21 30.8642 192.617 32.7943 195.819C34.7245 199.021 38.8711 199.808 42.057 197.576C42.2205 197.461 42.3776 197.338 42.5262 197.212C43.7927 198.612 45.1748 199.902 46.6579 201.069C46.551 201.241 46.4506 201.417 46.3576 201.604C44.5621 205.138 45.7537 209.347 49.0187 211.009C52.2837 212.67 56.3833 211.144 58.1777 207.61C58.2707 207.426 58.3509 207.24 58.4278 207.054C60.2473 207.563 62.1063 207.917 63.9852 208.114C63.9734 208.311 63.9638 208.508 63.9681 208.707C64.0461 212.597 67.1283 215.48 70.8528 215.149C74.5774 214.818 77.5324 211.394 77.4544 207.505C77.4544 207.301 77.433 207.102 77.4138 206.906C79.2926 206.368 81.1273 205.687 82.9017 204.869C82.9872 205.042 83.0748 205.214 83.1763 205.382C85.1054 208.588 89.2531 209.371 92.439 207.139C95.6249 204.906 96.6434 200.501 94.7143 197.298C94.616 197.134 94.507 196.977 94.3937 196.829C95.8222 195.398 97.1439 193.865 98.348 192.242C98.4955 192.331 98.6558 192.428 98.8247 192.514ZM58.1328 193.03C46.2806 187.012 41.9555 171.732 48.4705 158.898C54.9854 146.065 69.876 140.54 81.7282 146.558C93.5804 152.576 97.9056 167.856 91.3906 180.691C84.8756 193.525 69.985 199.047 58.1328 193.03Z" fill="#D8DEE8"/>
<path d="M300.956 115.498C304.849 117.476 309.741 115.66 311.882 111.444C314.024 107.228 312.602 102.208 308.707 100.231C308.506 100.124 308.3 100.042 308.094 99.9602C308.81 97.6578 309.356 95.306 309.728 92.9237C309.951 92.9237 310.175 92.9237 310.403 92.8991C314.845 92.5026 318.371 88.4211 318.278 83.7818C318.185 79.1424 314.508 75.7011 310.065 76.0976C309.834 76.1179 309.606 76.1553 309.378 76.1949C308.918 73.9096 308.283 71.6633 307.477 69.4758C307.681 69.3561 307.884 69.2332 308.083 69.0942C311.883 66.431 313.098 61.176 310.797 57.3553C308.497 53.5346 303.548 52.5974 299.748 55.2606C299.553 55.3964 299.37 55.5438 299.189 55.6935C297.678 54.0242 296.029 52.4851 294.26 51.0926C294.385 50.8874 294.508 50.679 294.619 50.461C296.757 46.2448 299.557 41.6397 295.632 39.7235C286.554 35.2925 282.659 39.0822 280.518 43.3016C280.411 43.5153 280.312 43.7419 280.22 43.9642C278.051 43.358 275.834 42.9351 273.594 42.6999C273.608 42.4658 273.619 42.2307 273.614 41.9934C273.521 37.3541 274.897 34.8426 270.439 34.756C260.714 34.5668 257.434 38.7872 257.527 43.4266C257.532 43.6692 257.552 43.9065 257.576 44.1426C255.335 44.7825 253.146 45.5947 251.03 46.5719C250.923 46.3645 250.823 46.1593 250.703 45.9595C248.401 42.1388 243.455 41.2015 239.653 43.8637C235.852 46.5259 234.638 51.7819 236.94 55.6016C237.057 55.7971 237.187 55.981 237.318 56.1616C235.614 57.8678 234.038 59.6967 232.602 61.6335C232.414 61.5148 232.222 61.3994 232.022 61.2968C228.127 59.3197 223.235 61.1354 221.095 65.3516C218.954 69.5677 220.376 74.5875 224.269 76.5647C224.471 76.6715 224.677 76.7528 224.883 76.8351C224.168 79.1376 223.621 81.4893 223.248 83.8716C223.026 83.8716 222.802 83.8716 222.574 83.8961C218.132 84.2916 214.607 88.3741 214.7 93.0135C214.793 97.6528 218.469 101.093 222.912 100.698C223.144 100.677 223.371 100.64 223.598 100.6C224.058 102.886 224.694 105.132 225.5 107.319C225.296 107.439 225.092 107.562 224.894 107.701C221.093 110.364 219.878 115.619 222.18 119.44C224.482 123.261 232.102 125.035 235.902 122.371C236.097 122.235 233.606 121.251 233.788 121.102C235.299 122.771 236.948 124.31 238.717 125.703C238.592 125.908 238.469 126.116 238.358 126.334C236.221 130.55 237.639 135.57 241.532 137.547C245.426 139.525 250.318 137.709 252.458 133.493C252.565 133.279 252.665 133.053 252.757 132.831C254.926 133.437 257.143 133.86 259.383 134.095C259.369 134.329 259.357 134.565 259.363 134.802C259.456 139.441 263.132 142.881 267.575 142.486C272.018 142.091 275.542 138.008 275.449 133.368C275.449 133.126 275.425 132.889 275.4 132.653C277.642 132.013 279.831 131.201 281.947 130.223C282.054 130.431 282.153 130.636 282.274 130.836C284.575 134.655 289.522 135.594 293.323 132.932C297.123 130.269 298.339 125.013 296.037 121.193C295.919 120.997 295.79 120.814 295.659 120.634C297.363 118.928 298.939 117.099 300.374 115.162C300.563 115.285 300.754 115.392 300.956 115.498ZM252.417 116.114C238.281 108.935 233.12 90.7039 240.893 75.3997C248.666 60.0956 266.425 53.5026 280.565 60.6802C294.706 67.8577 299.859 86.0849 292.087 101.391C284.315 116.698 266.554 123.291 252.417 116.113V116.114Z" fill="#AABBCC"/>
<path d="M310.403 92.8981C314.845 92.5016 318.37 88.4201 318.277 83.7808C318.184 79.1414 314.508 75.7001 310.065 76.0966C309.833 76.1169 309.606 76.1543 309.378 76.1939C308.918 73.9086 308.282 71.6622 307.477 69.4748C307.681 69.3561 307.884 69.2322 308.083 69.0921C311.879 66.4299 316.581 59.9962 313.91 56.4331C308.82 49.6691 303.554 52.5963 299.753 55.2575C299.559 55.3932 299.375 55.5407 299.194 55.6903C297.683 54.021 296.034 52.4819 294.265 51.0894C294.39 50.8842 294.513 50.6758 294.624 50.4578C295.789 48.1632 295.892 45.6336 295.122 43.4833C291.452 49.9434 287.835 56.4341 284.274 62.9555C295.551 71.22 299.142 87.5063 292.093 101.391C286.118 113.157 274.245 119.764 262.649 118.936C262.132 120.277 261.624 121.625 261.069 122.954C259.567 126.559 257.863 130.09 256.153 133.616C257.228 133.819 258.308 133.978 259.392 134.092C259.378 134.326 259.366 134.561 259.371 134.799C259.464 139.438 262.281 143.381 270.332 142.953C274.786 142.717 275.551 138.005 275.462 133.364C275.462 133.123 275.437 132.886 275.413 132.649C277.655 132.01 279.843 131.197 281.96 130.22C282.067 130.428 282.166 130.633 282.287 130.833C284.588 134.652 292.573 136.276 296.374 133.611C300.174 130.947 298.351 125.008 296.053 121.187C295.935 120.992 295.806 120.809 295.675 120.628C297.379 118.922 298.955 117.093 300.39 115.156C300.579 115.275 300.77 115.391 300.972 115.493C304.865 117.47 309.756 115.655 311.898 111.438C314.04 107.222 312.617 102.202 308.723 100.225C308.522 100.118 308.316 100.037 308.11 99.9549C308.825 97.6525 309.372 95.3007 309.744 92.9184C309.955 92.9216 310.175 92.9184 310.403 92.8981Z" fill="#AABBCC"/>
<path d="M305.146 115.973C309.039 117.95 313.931 116.135 316.071 111.919C318.212 107.703 316.79 102.682 312.897 100.706C312.695 100.599 312.489 100.517 312.283 100.435C312.999 98.1327 313.545 95.7812 313.918 93.3993C314.141 93.3993 314.364 93.3993 314.592 93.3747C319.035 92.9782 322.561 88.8968 322.468 84.2563C322.375 79.6159 318.697 76.1767 314.255 76.5722C314.022 76.5936 313.795 76.6299 313.568 76.6705C313.108 74.3851 312.472 72.1387 311.666 69.9514C311.871 69.8317 312.074 69.7077 312.273 69.5688C316.073 66.9066 317.288 61.6506 314.986 57.831C312.684 54.0113 307.738 53.073 303.937 55.7352C303.742 55.872 303.56 56.0195 303.378 56.1691C301.867 54.4998 300.219 52.9607 298.45 51.5682C298.575 51.363 298.697 51.1546 298.808 50.9366C300.945 46.7204 299.527 41.6996 295.634 39.7224C291.741 37.7453 286.849 39.561 284.708 43.7772C284.601 43.9909 284.502 44.2175 284.41 44.4398C282.241 43.8332 280.024 43.4102 277.784 43.1755C277.798 42.9404 277.809 42.7063 277.803 42.468C277.71 37.8286 274.034 34.3884 269.591 34.7849C265.148 35.1814 261.624 39.2629 261.717 43.9022C261.717 44.1448 261.741 44.3821 261.766 44.6172C259.524 45.257 257.335 46.0692 255.219 47.0464C255.117 46.8401 255.013 46.6339 254.898 46.434C252.596 42.6144 247.649 41.6761 243.849 44.3393C240.048 47.0026 238.829 52.2575 241.129 56.0772C241.247 56.2727 241.376 56.4555 241.507 56.6361C239.804 58.3424 238.228 60.1713 236.792 62.108C236.603 61.9904 236.412 61.875 236.21 61.7724C232.317 59.7953 227.426 61.61 225.285 65.8261C223.144 70.0422 224.566 75.0631 228.459 77.0392C228.661 77.1461 228.866 77.2284 229.073 77.3107C228.357 79.6127 227.811 81.9642 227.438 84.3461C227.215 84.3461 226.992 84.3461 226.764 84.3707C222.321 84.7672 218.796 88.8497 218.889 93.4891C218.981 98.1284 222.658 101.569 227.101 101.172C227.333 101.152 227.561 101.116 227.788 101.075C228.249 103.36 228.886 105.607 229.693 107.794C229.489 107.914 229.286 108.038 229.087 108.177C225.287 110.839 224.072 116.095 226.374 119.914C228.676 123.734 233.622 124.672 237.422 122.01C237.617 121.873 237.801 121.726 237.981 121.576C239.493 123.243 241.142 124.781 242.91 126.172C242.785 126.378 242.662 126.585 242.552 126.805C240.415 131.02 241.832 136.041 245.726 138.018C249.621 139.995 254.511 138.179 256.652 133.963C256.759 133.749 256.858 133.523 256.95 133.3C259.119 133.907 261.336 134.33 263.576 134.565C263.562 134.8 263.552 135.034 263.556 135.272C263.65 139.911 267.326 143.352 271.768 142.955C276.21 142.559 279.737 138.477 279.644 133.838C279.638 133.595 279.618 133.358 279.594 133.123C281.836 132.483 284.025 131.671 286.141 130.694C286.242 130.9 286.348 131.106 286.467 131.305C288.769 135.126 293.717 136.064 297.517 133.401C301.317 130.737 302.533 125.484 300.231 121.663C300.113 121.467 299.984 121.285 299.852 121.104C301.556 119.398 303.132 117.569 304.568 115.632C304.75 115.756 304.941 115.871 305.146 115.973ZM256.607 116.59C242.47 109.412 237.31 91.1838 245.082 75.8711C252.854 60.5583 270.615 53.9728 284.752 61.1504C298.889 68.328 304.049 86.5562 296.276 101.869C288.503 117.182 270.742 123.767 256.605 116.59H256.607Z" fill="#D8DEE8"/>
<path d="M264.99 210.676L237.778 211.059C234.679 211.103 232.82 215.074 234.587 217.927C243.586 232.449 233.212 246.506 224.777 247.391C214.917 248.426 204.908 242.813 205.867 230.058C206.283 224.538 207.684 220.1 209.139 216.849C210.469 213.875 208.507 210.442 205.518 210.482L170.677 210.944V243.192C170.677 245.65 173.086 247.212 175.107 246.005C178.018 244.268 182.381 242.651 188.252 243.034C199.965 243.797 206.572 254.083 202.366 262.834C194.219 279.79 183.409 276.001 177.251 271.769C175.229 270.38 172.468 272.136 172.468 274.798V311.931L264.989 303.873L264.99 210.676Z" fill="url(#paint0_linear_1_868)"/>
<g style="mix-blend-mode:soft-light" opacity="0.3">
<path d="M178.333 305.103V279.687C181.624 281.183 184.892 281.833 188.094 281.622C193.545 281.264 201.254 278.173 207.3 265.531C209.909 260.075 209.892 253.889 207.254 248.525C207.221 248.457 207.187 248.388 207.148 248.321C211.357 251.998 217.138 253.893 223.384 253.605C223.947 253.579 224.518 253.534 225.08 253.473C231.599 252.76 238.093 247.198 241.288 239.66C244.354 232.429 244.023 224.358 240.443 217.054L259.846 216.692V298.381L178.333 305.103ZM202.505 242.306C198.906 239.12 194.138 237.142 188.791 236.769C187.727 236.695 186.659 236.674 185.592 236.708C182.503 236.794 179.449 237.391 176.554 238.476V217.195L203.081 216.72C201.529 220.89 200.579 225.26 200.259 229.697C199.905 234.382 200.678 238.663 202.505 242.306Z" fill="white"/>
</g>
<path d="M177.252 271.769C183.411 276.001 194.221 279.79 202.367 262.834C206.573 254.083 199.966 243.797 188.254 243.034C182.376 242.651 178.015 244.268 175.108 246.005C173.087 247.212 170.678 245.654 170.678 243.192V210.944L136.839 211.394C133.389 211.44 131.231 207.533 132.964 204.374C144.838 182.745 125.581 173.346 120.674 173.66C115.223 174.009 98.069 176.938 98.069 190.112C98.069 196.08 99.7907 201.12 101.671 204.837C103.299 208.058 101.085 211.942 97.5186 211.99L65.4204 212.417V321.258L172.47 311.931V274.798C172.47 272.136 175.23 270.38 177.252 271.769Z" fill="url(#paint1_linear_1_868)"/>
<g style="mix-blend-mode:soft-light" opacity="0.3">
<path d="M70.4219 315.638V217.534L97.5173 217.077C100.915 217.02 103.982 215.205 105.732 212.229C106.6 210.762 107.085 209.1 107.141 207.396C107.197 205.692 106.822 204.002 106.052 202.481C104.044 198.493 103.023 194.331 103.023 190.121C103.023 180.202 120.132 178.725 120.997 178.658C122.444 178.691 127.999 180.836 130.659 185.672C133.028 189.979 132.421 195.434 128.842 201.917C128.014 203.401 127.58 205.072 127.58 206.772C127.58 208.471 128.014 210.142 128.842 211.626C130.518 214.638 133.508 216.398 136.833 216.343L166.171 215.85V243.357C166.171 245.587 166.989 247.639 168.471 249.128C169.902 250.572 171.776 251.318 173.743 251.234C174.946 251.175 176.115 250.817 177.144 250.191C179.612 248.709 182.456 247.895 185.587 247.767C186.338 247.738 187.09 247.746 187.84 247.793C192.665 248.09 196.742 250.486 198.506 254.042C199.276 255.594 199.915 258.02 198.589 260.767C195.566 267.039 192.034 270.344 188.087 270.572C184.941 270.753 181.826 269.094 179.761 267.666C178.529 266.806 177.044 266.384 175.543 266.467C171.375 266.693 167.974 270.548 167.974 275.062V307.481L70.4219 315.638Z" fill="white"/>
</g>
<path d="M65.4194 212.417L97.5176 211.99C101.084 211.942 103.298 208.058 101.67 204.837C99.7897 201.12 98.068 196.08 98.068 190.112C98.068 176.938 115.224 174.009 120.673 173.66C125.578 173.346 144.835 182.744 132.963 204.374C131.23 207.533 133.391 211.44 136.838 211.394L170.677 210.945V178.113C170.677 175.375 173.55 173.889 175.594 175.52C185.186 183.183 198.571 176.722 200.816 171.147C203.468 164.552 204.19 151.036 190.591 146.591C183.38 144.24 178.071 145.999 174.636 148.238C172.592 149.571 169.92 147.893 169.92 145.272V113.662L65.4194 107.637V212.417Z" fill="url(#paint2_linear_1_868)"/>
<g style="mix-blend-mode:soft-light" opacity="0.3">
<path d="M72.2324 205.513V114.842L163.982 119.708V145.067C163.963 147.704 164.958 150.247 166.76 152.171C168.456 153.965 170.672 154.986 172.996 155.05C174.688 155.095 176.353 154.617 177.763 153.682C179.802 152.342 182.104 151.702 184.603 151.777C186.13 151.84 187.641 152.116 189.091 152.598C192.511 153.701 194.714 155.484 195.824 158.049C197.265 161.38 196.756 165.719 195.611 168.549C194.994 169.771 190.695 172.818 185.565 172.742C183.066 172.704 180.862 171.936 179.022 170.454C177.474 169.21 175.651 168.53 173.748 168.499C168.794 168.411 164.737 172.695 164.737 178.048V204.638L139.708 204.852C144.98 193.502 142.93 185.159 140.117 179.998C135.395 171.342 125.922 167.151 120.971 167.067C120.697 167.067 120.436 167.067 120.191 167.082C106.045 167.924 91.4834 175.379 91.4834 190.101C91.4902 195.334 92.5565 200.51 94.618 205.32L72.2324 205.513Z" fill="white"/>
</g>
<g style="mix-blend-mode:multiply" opacity="0.3">
<path style="mix-blend-mode:multiply" opacity="0.3" d="M141.872 164.968C137.941 143.237 144.173 127.99 150.079 112.519L65.4194 107.637V212.417L97.5176 211.99C101.084 211.942 103.298 208.058 101.67 204.837C99.7897 201.12 98.068 196.08 98.068 190.112C98.068 176.938 115.224 174.009 120.673 173.66C125.578 173.346 144.835 182.744 132.963 204.375C131.23 207.532 133.391 211.44 136.838 211.394L170.04 210.953C156.8 199.108 145.761 186.469 141.872 164.968Z" fill="url(#paint3_linear_1_868)"/>
</g>
<g style="mix-blend-mode:multiply" opacity="0.3">
<path style="mix-blend-mode:multiply" opacity="0.3" d="M170.675 211.523V243.192C170.675 245.65 173.084 247.212 175.105 246.005C178.016 244.268 182.379 242.651 188.251 243.034C199.964 243.797 206.571 254.083 202.365 262.836C194.218 279.79 183.408 276.001 177.25 271.769C175.227 270.38 172.466 272.136 172.466 274.798V311.931L232.399 306.711C229.716 289.859 224.883 276.642 219.601 266.185C205.907 239.073 186.805 225.849 170.675 211.523Z" fill="url(#paint4_linear_1_868)"/>
</g>
<path d="M297.344 67.5061C297.344 64.4324 294.796 61.735 291.644 61.4806L184.189 51.5083C180.684 51.2262 178.197 54.9731 178.197 58.2274V96.0476C178.197 99.3018 181.047 102.105 184.553 102.306L291.639 108.458C294.791 108.638 297.339 106.293 297.339 103.221L297.344 67.5061Z" fill="url(#paint5_linear_1_868)"/>
<path d="M239.475 113.854L229.745 102.756L249.115 103.889L239.475 113.854Z" fill="url(#paint6_linear_1_868)"/>
<path d="M298.602 66.1029C298.602 63.0292 296.054 60.3317 292.902 60.0785L185.816 51.4442C182.309 51.161 179.463 53.5699 179.463 56.8252V94.6465C179.463 97.9018 182.314 100.704 185.819 100.906L292.906 107.058C296.057 107.238 298.605 104.892 298.605 101.821L298.602 66.1029Z" fill="url(#paint7_linear_1_868)"/>
<path d="M240.737 112.45L231.007 101.354L250.377 102.487L240.737 112.45Z" fill="url(#paint8_linear_1_868)"/>
<g opacity="0.5">
<path opacity="0.5" d="M190.28 69.7569L290.157 77.2722C290.78 77.3198 291.397 77.1178 291.872 76.7105C292.347 76.3033 292.64 75.7241 292.688 75.1006C292.735 74.477 292.533 73.86 292.126 73.3854C291.719 72.9108 291.139 72.6174 290.516 72.5698L190.639 64.7873C190.315 64.7613 189.989 64.8028 189.681 64.9093C189.374 65.0157 189.092 65.1848 188.853 65.4058C188.615 65.6267 188.425 65.8948 188.295 66.1931C188.165 66.4913 188.099 66.8133 188.1 67.1385V67.4057C188.098 68.0008 188.322 68.5743 188.727 69.0106C189.131 69.4469 189.686 69.7136 190.28 69.7569Z" fill="white"/>
<path opacity="0.5" d="M290.504 80.643L190.627 73.3179C190.304 73.2942 189.979 73.3375 189.674 73.4449C189.368 73.5524 189.088 73.7217 188.85 73.9424C188.613 74.163 188.424 74.4303 188.295 74.7274C188.165 75.0245 188.099 75.3451 188.099 75.6691V75.9395C188.099 76.5359 188.325 77.1102 188.731 77.5465C189.138 77.9828 189.695 78.2488 190.29 78.2907L290.166 85.3443C290.489 85.367 290.813 85.3231 291.118 85.2152C291.423 85.1074 291.702 84.9379 291.939 84.7173C292.176 84.4968 292.364 84.2299 292.493 83.9332C292.622 83.6366 292.689 83.3166 292.689 82.9931C292.69 82.3976 292.465 81.8237 292.06 81.3875C291.654 80.9513 291.098 80.6852 290.504 80.643Z" fill="white"/>
<path opacity="0.5" d="M290.494 88.714L190.618 81.8484C190.295 81.8255 189.971 81.8694 189.666 81.9772C189.362 82.0851 189.082 82.2546 188.846 82.4753C188.61 82.6959 188.422 82.9629 188.293 83.2596C188.165 83.5563 188.099 83.8763 188.1 84.1997V84.4722C188.098 85.0707 188.325 85.6471 188.735 86.084C189.144 86.5209 189.704 86.7853 190.301 86.8234L290.183 93.4174C290.505 93.4394 290.829 93.3949 291.133 93.2867C291.437 93.1784 291.715 93.0087 291.951 92.7881C292.186 92.5676 292.374 92.3009 292.502 92.0046C292.63 91.7084 292.696 91.389 292.695 91.0662C292.697 90.4677 292.47 89.8912 292.061 89.4541C291.652 89.017 291.092 88.7523 290.494 88.714Z" fill="white"/>
</g>
<path d="M195.207 150.912C198.642 148.673 203.951 146.908 211.162 149.265C224.76 153.71 224.039 167.226 221.386 173.82C219.142 179.394 205.758 185.857 196.164 178.194C194.12 176.562 191.248 178.049 191.248 180.786V213.618L226.089 213.156C229.081 213.116 231.04 216.548 229.711 219.523C228.256 222.774 226.854 227.212 226.438 232.73C225.476 245.487 235.488 251.1 245.355 250.065C253.788 249.18 264.164 235.123 255.165 220.6C253.396 217.748 255.258 213.777 258.355 213.733L285.567 213.35V121.819L190.494 116.336V147.946C190.49 150.566 193.162 152.245 195.207 150.912Z" fill="url(#paint9_linear_1_868)"/>
<g style="mix-blend-mode:soft-light" opacity="0.3">
<path d="M243.962 244.055C239.82 244.208 236.086 242.833 233.988 240.371C232.423 238.534 231.772 236.149 232.002 233.087C232.294 229.192 233.197 225.522 234.682 222.186C236.16 218.865 236.003 215.032 234.261 211.927C232.506 208.794 229.452 206.938 226.091 206.967L197.128 207.217V186.008C199.959 187.308 203.035 187.984 206.149 187.991C215.004 188.039 223.918 182.937 226.535 176.398C228.63 171.167 229.742 162.984 226.59 155.629C224.832 151.524 220.99 146.04 212.644 143.272C210.236 142.456 207.725 141.983 205.186 141.867C202.185 141.732 199.189 142.205 196.376 143.257V123.008L280.424 127.468V207.483L258.352 207.69C254.911 207.723 251.766 209.902 250.153 213.387C248.541 216.871 248.764 220.992 250.734 224.149C254.248 229.79 253.501 234.437 252.254 237.35C250.544 241.358 247.262 243.762 245.044 243.983C244.685 244.016 244.321 244.042 243.962 244.055Z" fill="white"/>
</g>
<path d="M287.45 165.324C287.528 164.98 287.19 163.652 287.376 163.36C287.683 162.883 287.514 162.801 287.936 162.421C288.15 162.226 288.343 161.965 288.319 161.663C288.263 161.001 286.569 158.365 286.569 158.365C286.569 158.365 285.663 159.273 286.141 159.79C286.62 160.307 287.005 160.902 286.557 161.393C286.109 161.883 285.897 162.556 285.847 163.252C285.796 163.949 286.267 165.914 286.267 165.914C286.267 165.914 287.263 166.147 287.45 165.324Z" fill="url(#paint10_linear_1_868)"/>
<path d="M287.646 164.897C289.52 168.874 291.751 172.674 294.309 176.25C300.636 185.091 304.369 186.103 308.107 193.927C309.007 195.811 311.401 201.216 311.002 208.133C310.831 211.083 310.655 213.53 308.909 215.06C305.14 218.364 295.773 215.896 293.126 210.678C290.865 206.228 295.432 203.583 294.39 196.419C293.337 189.174 288.097 187.984 285.644 180.068C284.497 176.363 284.058 171.503 285.761 165.243L287.646 164.897Z" fill="url(#paint11_linear_1_868)"/>
<path d="M296.596 314.523L296.741 316.282C296.758 316.466 296.709 316.65 296.604 316.803C296.499 316.955 296.343 317.065 296.165 317.115C294.867 317.476 291.818 318.206 289.432 317.849C286.321 317.383 294.478 314.523 294.478 314.523H296.596Z" fill="#26264F"/>
<path d="M296.216 311.195L296.596 314.523C296.596 314.523 295.28 315.416 294.481 314.523L292.855 311.503L296.216 311.195Z" fill="url(#paint12_linear_1_868)"/>
<path d="M255.675 316.301L255.136 318.291C255.055 318.55 254.899 318.78 254.687 318.95C254.475 319.12 254.217 319.223 253.946 319.245C252.004 319.405 247.501 319.673 245.503 318.913C242.919 317.929 253.085 316.006 253.085 316.006L255.675 316.301Z" fill="#26264F"/>
<path d="M256.634 313.66L255.672 316.036C255.672 316.036 254.043 316.989 252.594 316.227L253.385 313.314L256.634 313.66Z" fill="url(#paint13_linear_1_868)"/>
<path d="M294.266 245.422C295.733 248.144 296.681 251.116 297.063 254.185C297.768 260.093 295.756 262.366 294.36 270.702C293.471 276.008 292.543 281.565 293.857 288.272C294.968 293.942 296.669 295.255 297.336 300.968C297.917 305.947 297.23 310.171 296.532 313.026L292.951 313.173C287.96 306.535 284.18 299.068 281.787 291.115C280.898 288.144 281.305 288.777 279.864 258.506C279.709 255.24 279.523 251.416 282.056 248.567C285.56 244.63 291.951 245.135 294.266 245.422Z" fill="url(#paint14_linear_1_868)"/>
<path d="M289.492 243.765C292.534 245.983 292.681 251.06 292.025 254.289C290.976 259.451 287.59 261.283 274.249 275.149C272.337 277.136 271.209 278.345 270.01 280.287C266.513 285.951 266.498 291.237 266.023 294.898C265.39 299.765 263.32 306.542 256.832 314.525C255.945 314.753 255.019 314.78 254.12 314.606C253.543 314.493 252.984 314.296 252.464 314.021C251.811 290.006 259.604 266.523 274.486 247.663C279.903 242.648 286.184 241.353 289.492 243.765Z" fill="url(#paint15_linear_1_868)"/>
<path d="M242.724 247.341C242.724 247.341 241.498 247.119 240.992 246.397C240.487 245.676 239.974 244.954 239.401 244.738C238.828 244.522 239.478 245.892 239.838 246.541C240.198 247.189 239.766 247.982 237.962 248.055C236.158 248.128 234.803 248.055 234.803 248.055C234.803 248.055 235.275 250.915 241.415 249.846C241.415 249.846 243.232 248.943 244.022 249.141C244.812 249.339 244.383 249.141 244.383 249.141L244.502 247.4L242.724 247.341Z" fill="url(#paint16_linear_1_868)"/>
<path d="M295.648 195.368C295.258 193.61 296.196 192.055 296.403 191.718C297.266 190.316 297.478 190.129 297.866 189.901L298.4 189.609L298.463 189.589C298.804 189.489 299.942 189.518 300.173 189.58C300.901 189.777 301.519 192.819 301.06 197.045C301.083 197.208 301.103 197.373 301.122 197.538C301.143 197.722 301.164 197.906 301.182 198.089C301.257 198.826 301.52 199.531 301.946 200.137C302.372 200.743 302.946 201.23 303.613 201.551C306.201 202.803 306.499 203.368 306.435 203.638C306.254 204.342 303.239 204.238 301.069 203.865C296.333 203.051 293.465 204.629 293.761 203.794C293.89 203.429 296.432 202.17 297.552 199.707C297.274 200.32 297.788 198.382 297.905 197.718C297.616 197.545 295.936 196.662 295.648 195.368Z" fill="url(#paint17_linear_1_868)"/>
<path d="M296.944 188.318C296.876 189.632 297.418 191.069 297.72 191.311C297.898 191.467 298.049 191.651 298.167 191.856C298.196 191.906 298.218 191.96 298.233 192.016C298.476 192.859 297.106 193.76 297.34 194.145C297.509 194.424 298.422 194.114 298.515 194.351C298.608 194.589 297.836 194.993 297.935 195.254C298.01 195.456 298.477 195.301 298.748 195.62C298.884 195.779 298.835 195.896 298.962 196.368C299.027 196.616 299.114 196.857 299.223 197.088C299.634 197.885 300.904 198.237 301.168 197.943C301.242 197.862 301.187 197.786 301.275 197.502C301.343 197.302 301.438 197.113 301.558 196.939C301.849 196.511 302.508 196.231 303.181 195.801C304.429 195.003 304.795 194.285 304.906 194.041C304.946 193.955 304.972 193.89 304.99 193.843C305.355 192.891 305.435 191.47 305.049 190.571C304.4 189.066 302.718 189.671 301.452 188.146C299.991 186.386 301.043 184.148 300.214 183.849C299.3 183.516 297.07 185.89 296.944 188.318Z" fill="#26264F"/>
<path d="M297.828 193.863C298.174 193.435 298.717 193.885 298.683 194.458C298.649 195.031 298.067 195.594 297.536 195.452C297.005 195.31 297.362 194.435 297.828 193.863Z" fill="url(#paint18_linear_1_868)"/>
<path d="M298.143 192.92L297.342 193.85C297.342 193.85 296.471 194.996 296.037 194.318C295.683 193.765 295.583 193.771 295.558 193.791C295.558 193.791 295.552 193.802 295.551 193.802C295.55 193.802 295.621 193.539 295.691 193.312C295.377 193.712 295.136 194.163 294.977 194.646C294.782 195.243 294.574 195.881 294.881 196.522C294.899 196.559 295.238 197.242 295.931 197.441C295.931 197.441 296.204 197.519 297.382 197.378C297.382 197.378 296.158 196.383 296.15 196.162C296.13 195.561 296.977 195.284 297.661 194.094C297.871 193.725 298.033 193.331 298.143 192.92Z" fill="#26264F"/>
<path d="M282.616 206.95C285.582 204.422 289.009 202.491 292.709 201.265C297.485 199.691 296.97 201.207 306.225 200.006C306.965 199.91 308.256 199.778 309.349 200.528C311.01 201.67 311.193 204.2 311.174 205.95C311.102 212.401 308.155 217.836 306.487 223.423C303.94 231.949 306.752 232.86 303.729 244.674C301.925 251.727 300.259 253.997 298.479 255.518C294.366 259.03 289.053 259.045 287.195 259.053C280.958 259.075 278.941 256.131 272.314 255.54C271.831 255.497 270.957 255.433 270.167 254.829C268.05 253.206 268.564 249.219 268.875 247.122C270.988 233.068 275.481 222.425 275.481 222.425C277.209 218.333 279.566 213.041 282.616 206.95Z" fill="url(#paint19_linear_1_868)"/>
<path style="mix-blend-mode:multiply" opacity="0.3" d="M268.875 247.122C270.988 233.067 275.481 222.425 275.481 222.425C276.93 218.993 278.827 214.71 281.2 209.827C289.152 217.147 290.436 220.941 289.507 223.035C288.171 226.055 282.173 225.746 281.459 229.174C280.693 232.851 287.104 235.61 286.234 239.406C285.507 242.578 280.6 242.526 280.231 245.408C279.881 248.135 283.899 251.121 287.188 252.228C292.441 253.998 297.184 251.431 298.374 250.732C300.485 249.475 302.244 247.705 303.488 245.587C301.778 251.923 300.175 254.07 298.479 255.521C294.367 259.034 289.053 259.048 287.196 259.058C280.958 259.079 278.942 256.136 272.315 255.545C271.832 255.502 270.957 255.438 270.167 254.833C268.05 253.205 268.56 249.219 268.875 247.122Z" fill="url(#paint20_linear_1_868)"/>
<path d="M298.739 202.298C295.676 202.031 291.065 202.025 286.006 203.754C273.77 207.937 266.648 219.63 263.633 224.58C258.313 233.316 257.114 239.94 249.337 244.512C247.641 245.508 245.832 246.297 243.949 246.863C243.932 248.075 243.915 249.288 243.897 250.505C251.539 249.408 256.847 246.968 260.268 244.958C266.591 241.241 269.017 237.494 279.003 231.588C283.349 229.023 283.51 229.36 285.46 228.041C290.431 224.674 296.212 217.825 298.739 202.298Z" fill="url(#paint21_linear_1_868)"/>
<path style="mix-blend-mode:multiply" opacity="0.3" d="M284.62 291.123C283.008 285.498 288.942 282.573 287.933 273.972C287.469 270.025 286.058 269.269 286.568 266.956C287.374 263.314 291.818 260.972 296.953 259.43C296.444 262.402 295.271 265.259 294.36 270.699C293.471 276.004 292.543 281.562 293.857 288.269C294.968 293.939 296.67 295.252 297.336 300.964C297.561 302.923 297.608 304.898 297.477 306.865C296.73 304.948 295.749 303.129 294.559 301.451C290.084 295.166 285.909 295.608 284.62 291.123Z" fill="url(#paint22_linear_1_868)"/>
<path d="M121.94 56.5046C123.424 55.5428 122.072 52.7459 121.993 46.7386C121.894 39.3772 123.85 38.0049 122.279 35.1162C120.355 31.5894 115.525 30.1231 112.322 30.0547C111.615 30.0386 111.451 29.6528 105.532 31.1854C94.8704 33.947 92.2017 30.9866 87.4277 33.9438C82.814 36.8005 84.8339 39.9287 80.3549 43.2791C73.094 48.7093 65.459 42.8388 60.2692 47.3809C55.3616 51.6783 55.2462 62.6242 60.4114 68.5984C66.2637 75.3709 76.8174 73.336 83.8913 71.9926C85.379 71.7105 92.8964 70.132 100.724 64.3555C104.213 61.7753 107.309 58.702 109.915 55.2318C110.359 54.7316 111.052 54.1267 111.966 54.0295C113.064 53.9119 113.946 54.5841 114.37 54.878C116.604 56.4234 120.484 57.4494 121.94 56.5046Z" fill="url(#paint23_linear_1_868)"/>
<path d="M115.981 52.4702C117.887 50.7324 124.692 54.0808 129.201 58.5245C134.499 63.7453 134.091 67.9775 138.713 74.4636C141.011 77.6879 144.952 82.028 151.934 85.8306L150.451 89.5369C147.075 89.74 140.447 89.6203 134.265 85.5826C129.969 82.7783 127.76 79.0634 123.515 71.7437C119.259 64.4004 113.599 54.6419 115.981 52.4702Z" fill="url(#paint24_linear_1_868)"/>
<path d="M157.626 154.535L155.457 149.929C155.15 149.274 154.669 148.715 154.068 148.313L152.999 147.595C152.999 147.595 150.434 147.526 150.034 149.14C149.947 151.188 153.928 155.766 156.446 157.583C156.864 157.884 157.46 158.287 157.823 158.08C158.431 157.729 158.001 155.845 157.626 154.535Z" fill="url(#paint25_linear_1_868)"/>
<path d="M153.552 145.089C153.21 147.065 153.642 148.096 154.108 148.673C154.435 149.079 157.1 153.463 156.003 154.171C155.509 154.492 152.131 150.296 151.803 149.653C151.506 149.071 151.314 149.208 151.297 147.622C151.286 146.804 151.155 145.992 150.906 145.212L153.552 145.089Z" fill="url(#paint26_linear_1_868)"/>
<path d="M157.392 129.43C157.392 129.43 159.791 132.294 159.401 135.433C159.011 138.573 154.805 133.983 154.221 132.431C153.636 130.88 152.951 128.671 152.951 128.671C152.951 128.671 155.898 126.838 157.392 129.43Z" fill="url(#paint27_linear_1_868)"/>
<path d="M156.476 124.95C156.476 124.95 155.825 128.286 157.067 130.047C157.685 130.923 158.519 131.667 158.274 132.381C158.109 132.86 157.485 133.203 156.957 133.149C155.944 133.042 155.383 131.493 154.987 130.399C154.403 128.782 154.077 125.322 154.077 125.322L156.476 124.95Z" fill="url(#paint28_linear_1_868)"/>
<path d="M154.562 127.762L156.776 126.955C157.927 124.326 159.333 120.008 158.863 114.757C157.656 101.254 145.169 94.1004 143.782 93.3341C140.38 95.044 136.933 97.4498 136.808 100.486C136.652 104.297 141.844 106.311 146.724 111.884C149.654 115.229 152.785 120.213 154.562 127.762Z" fill="url(#paint29_linear_1_868)"/>
<path d="M153.768 146.634C156.207 137.108 155.585 129.335 154.88 124.857C153.811 118.089 151.654 104.322 142.462 99.1887C140.455 98.0676 137.585 97.063 134.089 93.9519C131.75 91.8571 129.76 89.404 128.191 86.6845C115.901 83.0786 104.561 84.5396 99.5579 91.1326C98.9797 91.8946 97.5273 93.5468 97.2516 95.9835C96.6199 101.481 102.021 108.099 108.083 109.481C115.785 111.237 120.255 103.328 127.08 105.954C128.989 106.69 130.607 108.519 133.845 112.163C136.716 115.389 139.171 118.963 141.153 122.8C143.762 127.903 145.739 131.671 146.027 136.552C146.095 137.69 146.134 139.987 147.467 142.466C148.316 144.015 149.489 145.364 150.906 146.42L153.768 146.634Z" fill="url(#paint30_linear_1_868)"/>
<path style="mix-blend-mode:multiply" opacity="0.3" d="M97.2516 95.9771C97.5316 93.5404 98.9797 91.8881 99.5579 91.1261C104.561 84.5331 115.899 83.0722 128.191 86.6781C129.76 89.3976 131.75 91.8506 134.089 93.9454C137.585 97.0618 140.455 98.0664 142.462 99.1822C148.075 102.317 151.064 108.67 152.786 114.684C150.232 110.724 148.046 109.672 146.354 109.654C143.934 109.627 142.851 111.697 139.96 111.414C136.87 111.112 136.164 108.557 133.655 108.263C132.906 108.176 131.983 108.291 130.876 108.881C129.397 107.333 128.295 106.416 127.077 105.946C120.252 103.315 115.782 111.225 108.08 109.473C102.021 108.092 96.6199 101.475 97.2516 95.9771Z" fill="url(#paint31_linear_1_868)"/>
<path d="M147.401 103.449C145.361 103.34 143.316 103.387 141.283 103.587C129.018 104.799 125.637 110.867 115.499 112.351C113.102 112.702 102.424 114.261 97.7995 108.089C94.48 103.657 94.9823 96.0219 98.6128 93.0199C100.15 91.7481 101.672 91.7834 111.515 91.8731C115.221 91.9063 118.928 91.918 122.635 91.9661C138.325 92.166 141.326 91.0791 144.18 93.6761C145.509 94.8795 147.456 97.4797 147.401 103.449Z" fill="url(#paint32_linear_1_868)"/>
<path d="M114.271 53.1072C114.271 53.1072 101.885 49.4949 96.4316 55.6721C95.4302 56.806 94.6383 58.2969 94.0622 61.1739C91.1264 75.838 102.231 84.6454 97.8551 92.3808C96.1185 95.4534 93.0587 96.3789 90.8838 101.9C90.5151 102.834 89.1845 106.214 90.4061 107.28C91.4823 108.218 93.2521 106.238 96.391 106.621C99.7201 107.026 100.498 109.582 102.737 109.21C104.198 108.967 104.828 107.72 106.979 104.615C110.103 100.109 111.659 97.8645 112.775 97.0693C117.179 93.9572 120.584 98.0162 125.607 94.9319C127.424 93.8161 134.162 85.1412 132.181 87.5234C127.462 81.638 126.366 76.7817 126.253 73.4055C126.129 69.7035 127.196 68.0213 126.253 63.6459C126.253 63.6459 125.201 58.7629 121.404 54.5703C120.858 53.9707 120.209 53.3444 114.271 53.1072Z" fill="url(#paint33_linear_1_868)"/>
<path d="M110.298 45.0692C110.466 45.8526 111.32 50.058 109.599 51.1396C109.226 51.3747 108.51 51.5083 107.076 51.7808C106.139 51.9561 105.351 52.064 104.795 52.1303C104.876 52.8357 105.116 53.9835 105.927 55.0276C108.208 57.9538 112.782 57.1961 113.434 57.0774C115.735 56.6585 117.998 55.9478 118.546 55.5139C119.378 54.8524 120.032 54.3554 120.419 53.851C119.529 53.4235 117.731 52.2863 116.526 51.9155C115.699 51.661 114.858 51.4547 114.008 51.2978C113.882 50.4855 113.755 49.6733 113.628 48.8611L110.298 45.0692Z" fill="url(#paint34_linear_1_868)"/>
<path d="M110.218 47.1693C110.218 47.1693 110.53 50.2505 113.523 50.7934C116.205 51.2796 118.225 44.7989 116.852 43.122C116.393 42.5631 115.264 42.0309 114.287 42.0597C113.598 42.079 111.27 42.966 110.945 45.2948C110.481 44.8063 109.904 44.6663 109.619 44.8673C109.258 45.127 109.451 45.8815 109.495 46.0525C109.613 46.4914 109.866 46.8822 110.218 47.1693Z" fill="white"/>
<path style="mix-blend-mode:multiply" opacity="0.3" d="M132.182 87.5255C131.614 86.818 131.101 86.1255 130.634 85.4479C128.481 84.7142 126.236 84.2826 123.964 84.1655C119.869 83.9667 117.626 84.9307 114.837 83.2528C111.672 81.3483 112.233 78.7043 109.178 77.2283C105.964 75.6755 103.691 77.4303 100.599 76.8639C98.7306 76.5208 96.4563 75.2726 94.134 71.6271C95.9123 80.3982 101.081 86.6802 97.8595 92.3776C96.1229 95.4502 93.0631 96.3757 90.8882 101.897C90.5195 102.831 89.1889 106.211 90.4105 107.277C91.4867 108.215 93.2565 106.235 96.3954 106.617C99.7245 107.022 100.503 109.579 102.741 109.207C104.202 108.964 104.832 107.717 106.983 104.611C110.103 100.109 111.659 97.8644 112.775 97.0693C117.179 93.9572 120.584 98.0162 125.607 94.9318C127.426 93.8182 134.163 85.1466 132.182 87.5255Z" fill="url(#paint35_linear_1_868)"/>
<path d="M135.914 89.0314L107.891 90.3951C107.701 90.4042 107.516 90.4592 107.352 90.5554C107.188 90.6517 107.05 90.7863 106.949 90.9476L106.173 92.1927C106.086 92.3331 106.039 92.4944 106.037 92.6595C106.034 92.8246 106.077 92.9872 106.16 93.1299C106.243 93.2726 106.363 93.3901 106.508 93.4697C106.652 93.5494 106.816 93.5882 106.981 93.5821L136.664 92.4513L135.914 89.0314Z" fill="url(#paint36_linear_1_868)"/>
<path d="M165.059 73.4258L136.109 73.9869C135.688 73.9946 135.276 74.1119 134.913 74.3272C134.551 74.5425 134.251 74.8484 134.042 75.2149L124.017 92.8489L154.593 91.6305C155.005 91.6133 155.406 91.4939 155.761 91.2831C156.115 91.0723 156.412 90.7767 156.624 90.4229L165.912 74.9049C166 74.7554 166.047 74.5851 166.048 74.4113C166.049 74.2376 166.004 74.0668 165.917 73.9162C165.831 73.7657 165.705 73.641 165.555 73.5548C165.404 73.4687 165.233 73.4241 165.059 73.4258Z" fill="url(#paint37_linear_1_868)"/>
<path style="mix-blend-mode:multiply" opacity="0.3" d="M134.042 75.2149C134.251 74.8488 134.55 74.5431 134.912 74.3278C135.274 74.1125 135.686 73.995 136.107 73.9869L136.741 73.9752C136.836 74.9092 137.122 75.7642 137.694 76.4546C139.479 78.6092 142.446 77.2797 144.656 79.5603C147.084 82.0654 144.841 85.0472 147.012 87.3781C149.297 89.8362 152.997 87.8344 157.24 89.4087L156.629 90.4314C156.417 90.7853 156.121 91.0809 155.766 91.2917C155.412 91.5025 155.01 91.6219 154.598 91.6391L124.022 92.8575L134.042 75.2149Z" fill="url(#paint38_linear_1_868)"/>
<path d="M110.174 88.0941L111.268 85.2086C107.238 84.0992 101.66 82.4673 95.9433 80.4238C95.0477 80.1032 93.9843 79.7067 93.6348 78.7641C92.6569 76.1211 98.8716 73.3809 101.29 67.6087C103.525 62.2704 102.295 54.862 99.7009 53.9867C94.3038 52.1656 75.164 75.9897 81.9953 86.0336C85.8641 91.7107 97.7772 92.6148 110.174 88.0941Z" fill="url(#paint39_linear_1_868)"/>
<path d="M111.268 85.2054C113.799 83.8609 116.825 85.2385 117.024 85.3304C117.839 85.7184 118.578 86.2486 119.207 86.8961C119.299 87.0222 120.397 88.543 119.997 89.0336C119.677 89.4237 118.435 89.0998 116.943 88.1722C116.058 88.0471 115.161 88.0249 114.271 88.1059C112.223 88.2951 111.285 88.9427 110.541 88.3838C109.996 87.9755 109.811 87.1109 110.007 86.4676C110.217 85.775 110.841 85.433 111.268 85.2054Z" fill="white"/>
<path d="M90.4572 322.581C90.3439 323.562 89.8672 324.352 89.2388 324.6C87.6699 325.217 85.6393 325.455 83.2646 325.455C80.8547 325.455 78.7963 325.213 77.2146 324.587C76.6054 324.345 76.1384 323.593 76.008 322.648L71.7993 291.975H93.9947L90.4572 322.581Z" fill="url(#paint40_linear_1_868)"/>
<path d="M93.9947 291.97C93.9947 292.913 89.0261 293.68 82.897 293.68C76.7678 293.68 71.7993 292.916 71.7993 291.97C71.7993 291.024 76.7678 290.26 82.897 290.26C89.0261 290.26 93.9947 291.027 93.9947 291.97Z" fill="url(#paint41_linear_1_868)"/>
<path d="M83.8122 291.853H86.2339C102.871 280.009 105.908 271.539 105.211 265.794C104.597 260.714 101.203 258.904 96.1506 246.292C93.139 238.774 91.6331 235.015 91.7507 230.933C92.0072 222.01 97.6586 220.846 100.728 209.187C101.95 204.541 103.975 196.841 100.383 189.341C96.5354 181.296 88.0304 175.72 85.8983 177.265C84.4844 178.287 85.8812 182.452 87.2663 186.582C90.9363 197.52 95.6751 200.035 96.1528 206.427C96.451 210.381 94.8372 211.997 91.2366 219.542C83.9393 234.821 79.9968 243.078 81.5678 251.12C83.7203 262.128 94.3445 263.284 95.0338 272.864C95.5885 280.662 89.1002 287.469 83.8122 291.853Z" fill="url(#paint42_linear_1_868)"/>
<path d="M71.9066 173.981C69.5971 173.676 64.5655 183.474 64.6585 194.001C64.7483 204.228 69.5917 205.722 71.0431 216.264C72.8877 229.652 65.5862 230.958 66.7286 244.05C67.7738 256.026 74.1509 258.003 77.7739 274.424C79.0429 280.203 79.6222 286.112 79.4999 292.027H81.9163C86.8485 281.788 88.0936 273.281 88.3009 267.349C88.8353 252.191 82.7777 248.52 84.85 233.696C86.2265 223.843 89.4712 221.384 88.1288 213.159C87.3006 208.089 85.208 203.754 81.7432 196.594C78.4301 189.754 76.8559 188.273 74.8403 182.273C72.9647 176.678 73.048 174.133 71.9066 173.981Z" fill="url(#paint43_linear_1_868)"/>
<path d="M76.9111 291.679C77.2104 287.986 77.0426 282.738 74.3227 277.702C69.7421 269.221 62.7558 270.274 57.0649 262.687C51.08 254.707 50.1181 241.954 53.9581 232.831C57.6516 224.061 64.283 222.115 64.313 214.192C64.3365 207.78 59.9194 203.171 60.5158 202.802C61.1303 202.424 66.1309 207.11 68.1315 214.018C68.9138 216.719 69.2355 219.754 68.1315 227.999C66.4643 240.446 64.5876 242.067 64.6582 246.637C64.8046 256.255 74.2767 257.431 79.1544 268.209C81.3677 273.096 83.1493 280.667 80.5352 292.025L76.9111 291.679Z" fill="url(#paint44_linear_1_868)"/>
<defs>
<filter id="filter0_d_1_868" x="0.742676" y="0.629395" width="359.613" height="358.371" filterUnits="userSpaceOnUse" color-interpolation-filters="sRGB">
<feFlood flood-opacity="0" result="BackgroundImageFix"/>
<feColorMatrix in="SourceAlpha" type="matrix" values="0 0 0 0 0 0 0 0 0 0 0 0 0 0 0 0 0 0 127 0" result="hardAlpha"/>
<feOffset dx="4"/>
<feGaussianBlur stdDeviation="15"/>
<feColorMatrix type="matrix" values="0 0 0 0 0.121569 0 0 0 0 0.121569 0 0 0 0 0.207843 0 0 0 1 0"/>
<feBlend mode="normal" in2="BackgroundImageFix" result="effect1_dropShadow_1_868"/>
<feBlend mode="normal" in="SourceGraphic" in2="effect1_dropShadow_1_868" result="shape"/>
</filter>
<linearGradient id="paint0_linear_1_868" x1="369.289" y1="-5.75738" x2="50.7435" y2="547.744" gradientUnits="userSpaceOnUse">
<stop stop-color="#FFC444"/>
<stop offset="1" stop-color="#F36F56"/>
</linearGradient>
<linearGradient id="paint1_linear_1_868" x1="137.816" y1="236.905" x2="2.71061" y2="417.829" gradientUnits="userSpaceOnUse">
<stop stop-color="#E38DDD"/>
<stop offset="1" stop-color="#9571F6"/>
</linearGradient>
<linearGradient id="paint2_linear_1_868" x1="265.415" y1="-90.4305" x2="-72.8793" y2="497.384" gradientUnits="userSpaceOnUse">
<stop stop-color="#AA80F9"/>
<stop offset="1" stop-color="#6165D7"/>
</linearGradient>
<linearGradient id="paint3_linear_1_868" x1="236828" y1="-123777" x2="-99549" y2="459819" gradientUnits="userSpaceOnUse">
<stop stop-color="#AA80F9"/>
<stop offset="1" stop-color="#6165D7"/>
</linearGradient>
<linearGradient id="paint4_linear_1_868" x1="198837" y1="-54622.4" x2="-163598" y2="332507" gradientUnits="userSpaceOnUse">
<stop stop-color="#FFC444"/>
<stop offset="1" stop-color="#F36F56"/>
</linearGradient>
<linearGradient id="paint5_linear_1_868" x1="220.804" y1="102.627" x2="280.708" y2="24.0505" gradientUnits="userSpaceOnUse">
<stop stop-color="#444B8C"/>
<stop offset="1" stop-color="#26264F"/>
</linearGradient>
<linearGradient id="paint6_linear_1_868" x1="38343.2" y1="8552.19" x2="43144.4" y2="-2439.71" gradientUnits="userSpaceOnUse">
<stop stop-color="#444B8C"/>
<stop offset="1" stop-color="#26264F"/>
</linearGradient>
<linearGradient id="paint7_linear_1_868" x1="222.235" y1="101.354" x2="282.14" y2="22.7766" gradientUnits="userSpaceOnUse">
<stop stop-color="#FF9085"/>
<stop offset="1" stop-color="#FB6FBB"/>
</linearGradient>
<linearGradient id="paint8_linear_1_868" x1="38573.2" y1="8404.39" x2="43373.6" y2="-2586.79" gradientUnits="userSpaceOnUse">
<stop stop-color="#FF9085"/>
<stop offset="1" stop-color="#FB6FBB"/>
</linearGradient>
<linearGradient id="paint9_linear_1_868" x1="261784" y1="30830.8" x2="134597" y2="156931" gradientUnits="userSpaceOnUse">
<stop stop-color="#FF9085"/>
<stop offset="1" stop-color="#FB6FBB"/>
</linearGradient>
<linearGradient id="paint10_linear_1_868" x1="-6169.62" y1="10590.2" x2="-5589.42" y2="10936.7" gradientUnits="userSpaceOnUse">
<stop stop-color="#FFC444"/>
<stop offset="1" stop-color="#F36F56"/>
</linearGradient>
<linearGradient id="paint11_linear_1_868" x1="-70866.8" y1="93437.9" x2="-75521.3" y2="94637.5" gradientUnits="userSpaceOnUse">
<stop stop-color="#AA80F9"/>
<stop offset="1" stop-color="#6165D7"/>
</linearGradient>
<linearGradient id="paint12_linear_1_868" x1="-11848.4" y1="10592" x2="-11853.9" y2="9482.42" gradientUnits="userSpaceOnUse">
<stop stop-color="#FFC444"/>
<stop offset="1" stop-color="#F36F56"/>
</linearGradient>
<linearGradient id="paint13_linear_1_868" x1="-14302.7" y1="9152.58" x2="-14306.1" y2="8270.51" gradientUnits="userSpaceOnUse">
<stop stop-color="#FFC444"/>
<stop offset="1" stop-color="#F36F56"/>
</linearGradient>
<linearGradient id="paint14_linear_1_868" x1="292.403" y1="246.831" x2="284.511" y2="318.453" gradientUnits="userSpaceOnUse">
<stop stop-color="#311944"/>
<stop offset="1" stop-color="#893976"/>
</linearGradient>
<linearGradient id="paint15_linear_1_868" x1="135513" y1="174901" x2="147518" y2="168845" gradientUnits="userSpaceOnUse">
<stop stop-color="#311944"/>
<stop offset="1" stop-color="#893976"/>
</linearGradient>
<linearGradient id="paint16_linear_1_868" x1="-36410.5" y1="11028.5" x2="-36165" y2="11893.7" gradientUnits="userSpaceOnUse">
<stop stop-color="#FFC444"/>
<stop offset="1" stop-color="#F36F56"/>
</linearGradient>
<linearGradient id="paint17_linear_1_868" x1="-84320.6" y1="18049.7" x2="-82630.2" y2="21774.9" gradientUnits="userSpaceOnUse">
<stop stop-color="#FFC444"/>
<stop offset="1" stop-color="#F36F56"/>
</linearGradient>
<linearGradient id="paint18_linear_1_868" x1="-8430.69" y1="2720.47" x2="-8214.37" y2="3145.45" gradientUnits="userSpaceOnUse">
<stop stop-color="#FFC444"/>
<stop offset="1" stop-color="#F36F56"/>
</linearGradient>
<linearGradient id="paint19_linear_1_868" x1="-131563" y1="99881.4" x2="-151982" y2="124090" gradientUnits="userSpaceOnUse">
<stop stop-color="#AA80F9"/>
<stop offset="1" stop-color="#6165D7"/>
</linearGradient>
<linearGradient id="paint20_linear_1_868" x1="-107702" y1="83229.3" x2="-124745" y2="103117" gradientUnits="userSpaceOnUse">
<stop stop-color="#AA80F9"/>
<stop offset="1" stop-color="#6165D7"/>
</linearGradient>
<linearGradient id="paint21_linear_1_868" x1="-183039" y1="79022.6" x2="-197417" y2="105333" gradientUnits="userSpaceOnUse">
<stop stop-color="#AA80F9"/>
<stop offset="1" stop-color="#6165D7"/>
</linearGradient>
<linearGradient id="paint22_linear_1_868" x1="43249.6" y1="96692.3" x2="54259.1" y2="124509" gradientUnits="userSpaceOnUse">
<stop stop-color="#311944"/>
<stop offset="1" stop-color="#893976"/>
</linearGradient>
<linearGradient id="paint23_linear_1_868" x1="126.272" y1="28.0241" x2="47.4423" y2="81.5674" gradientUnits="userSpaceOnUse">
<stop stop-color="#311944"/>
<stop offset="1" stop-color="#6B3976"/>
</linearGradient>
<linearGradient id="paint24_linear_1_868" x1="38618.1" y1="11439.8" x2="32205.6" y2="34280.4" gradientUnits="userSpaceOnUse">
<stop stop-color="#FFC444"/>
<stop offset="1" stop-color="#F36F56"/>
</linearGradient>
<linearGradient id="paint25_linear_1_868" x1="8659.03" y1="10671.8" x2="7930.75" y2="10180.5" gradientUnits="userSpaceOnUse">
<stop stop-color="#311944"/>
<stop offset="1" stop-color="#6B3976"/>
</linearGradient>
<linearGradient id="paint26_linear_1_868" x1="9947.98" y1="11070.5" x2="7648.28" y2="7006.44" gradientUnits="userSpaceOnUse">
<stop stop-color="#FFC444"/>
<stop offset="1" stop-color="#F36F56"/>
</linearGradient>
<linearGradient id="paint27_linear_1_868" x1="-12299.3" y1="8229.69" x2="-11904.8" y2="8229.69" gradientUnits="userSpaceOnUse">
<stop stop-color="#311944"/>
<stop offset="1" stop-color="#6B3976"/>
</linearGradient>
<linearGradient id="paint28_linear_1_868" x1="8106.45" y1="9344.34" x2="6870.93" y2="7428.26" gradientUnits="userSpaceOnUse">
<stop stop-color="#FFC444"/>
<stop offset="1" stop-color="#F36F56"/>
</linearGradient>
<linearGradient id="paint29_linear_1_868" x1="23725.1" y1="26041" x2="28316.4" y2="26041" gradientUnits="userSpaceOnUse">
<stop stop-color="#311944"/>
<stop offset="1" stop-color="#893976"/>
</linearGradient>
<linearGradient id="paint30_linear_1_868" x1="40580" y1="49695.4" x2="72392.2" y2="49695.4" gradientUnits="userSpaceOnUse">
<stop stop-color="#311944"/>
<stop offset="1" stop-color="#893976"/>
</linearGradient>
<linearGradient id="paint31_linear_1_868" x1="95839.5" y1="33883.9" x2="94027.6" y2="23232.4" gradientUnits="userSpaceOnUse">
<stop stop-color="#AA80F9"/>
<stop offset="1" stop-color="#6165D7"/>
</linearGradient>
<linearGradient id="paint32_linear_1_868" x1="35287.9" y1="14264.8" x2="60419.8" y2="14264.8" gradientUnits="userSpaceOnUse">
<stop stop-color="#311944"/>
<stop offset="1" stop-color="#893976"/>
</linearGradient>
<linearGradient id="paint33_linear_1_868" x1="29526.4" y1="28324.3" x2="17812" y2="31416.1" gradientUnits="userSpaceOnUse">
<stop stop-color="#FFC444"/>
<stop offset="1" stop-color="#F36F56"/>
</linearGradient>
<linearGradient id="paint34_linear_1_868" x1="112.75" y1="56.3561" x2="112.379" y2="47.5882" gradientUnits="userSpaceOnUse">
<stop stop-color="white"/>
<stop offset="1" stop-color="#D8DEE8"/>
</linearGradient>
<linearGradient id="paint35_linear_1_868" x1="26781.4" y1="21343.4" x2="43792.1" y2="21343.4" gradientUnits="userSpaceOnUse">
<stop stop-color="#FFC444"/>
<stop offset="1" stop-color="#F36F56"/>
</linearGradient>
<linearGradient id="paint36_linear_1_868" x1="136.663" y1="91.3078" x2="106.034" y2="91.3078" gradientUnits="userSpaceOnUse">
<stop stop-color="#40447E"/>
<stop offset="1" stop-color="#3C3B6B"/>
</linearGradient>
<linearGradient id="paint37_linear_1_868" x1="-15764.9" y1="7703.99" x2="-12970.9" y2="13701.9" gradientUnits="userSpaceOnUse">
<stop stop-color="#40447E"/>
<stop offset="1" stop-color="#3C3B6B"/>
</linearGradient>
<linearGradient id="paint38_linear_1_868" x1="-12433.1" y1="7492.08" x2="-9372.04" y2="12834.2" gradientUnits="userSpaceOnUse">
<stop stop-color="#40447E"/>
<stop offset="1" stop-color="#3C3B6B"/>
</linearGradient>
<linearGradient id="paint39_linear_1_868" x1="20464.1" y1="15559.2" x2="12149.8" y2="17998.1" gradientUnits="userSpaceOnUse">
<stop stop-color="#FFC444"/>
<stop offset="1" stop-color="#F36F56"/>
</linearGradient>
<linearGradient id="paint40_linear_1_868" x1="74.6817" y1="304.612" x2="103.017" y2="314.136" gradientUnits="userSpaceOnUse">
<stop stop-color="#AB316D"/>
<stop offset="1" stop-color="#792D3D"/>
</linearGradient>
<linearGradient id="paint41_linear_1_868" x1="13457.8" y1="8368.27" x2="13389.2" y2="9299.64" gradientUnits="userSpaceOnUse">
<stop stop-color="#FFC444"/>
<stop offset="1" stop-color="#F36F56"/>
</linearGradient>
<linearGradient id="paint42_linear_1_868" x1="19086.9" y1="198477" x2="6088.04" y2="201140" gradientUnits="userSpaceOnUse">
<stop stop-color="#FFC444"/>
<stop offset="1" stop-color="#F36F56"/>
</linearGradient>
<linearGradient id="paint43_linear_1_868" x1="11633.9" y1="236397" x2="-12437.8" y2="280057" gradientUnits="userSpaceOnUse">
<stop stop-color="#FFC444"/>
<stop offset="1" stop-color="#F36F56"/>
</linearGradient>
<linearGradient id="paint44_linear_1_868" x1="13370.8" y1="177089" x2="-10085.9" y2="226888" gradientUnits="userSpaceOnUse">
<stop stop-color="#FFC444"/>
<stop offset="1" stop-color="#F36F56"/>
</linearGradient>
</defs>
</svg>
