<svg width="1170" height="378" viewBox="0 0 1170 378" fill="none" xmlns="http://www.w3.org/2000/svg">
<g filter="url(#filter0_d_4_6)">
<rect x="1136" y="347.483" width="1110" height="316.896" rx="5" transform="rotate(-180 1136 347.483)" fill="url(#paint0_linear_4_6)"/>
</g>
<g filter="url(#filter1_d_4_6)">
<rect x="1136" y="347.483" width="1110" height="316.896" rx="5" transform="rotate(-180 1136 347.483)" fill="url(#paint1_linear_4_6)"/>
</g>
<mask id="mask0_4_6" style="mask-type:alpha" maskUnits="userSpaceOnUse" x="26" y="30" width="1110" height="318">
<rect x="1136" y="347.483" width="1110" height="316.896" rx="5" transform="rotate(-180 1136 347.483)" fill="url(#paint2_linear_4_6)"/>
</mask>
<g mask="url(#mask0_4_6)">
<path d="M658.469 267.881C610.677 349.883 465.632 372.636 399.083 373.762L177.083 373.762C193.528 329.833 218.168 225.378 185.177 158.996C152.185 92.6139 232.583 45.7309 276.906 30.5871L960.25 30.5872C758.291 62.8772 718.208 165.379 658.469 267.881Z" fill="#313252"/>
</g>
<defs>
<filter id="filter0_d_4_6" x="0" y="0.58728" width="1170" height="376.896" filterUnits="userSpaceOnUse" color-interpolation-filters="sRGB">
<feFlood flood-opacity="0" result="BackgroundImageFix"/>
<feColorMatrix in="SourceAlpha" type="matrix" values="0 0 0 0 0 0 0 0 0 0 0 0 0 0 0 0 0 0 127 0" result="hardAlpha"/>
<feOffset dx="4"/>
<feGaussianBlur stdDeviation="15"/>
<feColorMatrix type="matrix" values="0 0 0 0 0.121569 0 0 0 0 0.121569 0 0 0 0 0.207843 0 0 0 1 0"/>
<feBlend mode="normal" in2="BackgroundImageFix" result="effect1_dropShadow_4_6"/>
<feBlend mode="normal" in="SourceGraphic" in2="effect1_dropShadow_4_6" result="shape"/>
</filter>
<filter id="filter1_d_4_6" x="0" y="0.58728" width="1170" height="376.896" filterUnits="userSpaceOnUse" color-interpolation-filters="sRGB">
<feFlood flood-opacity="0" result="BackgroundImageFix"/>
<feColorMatrix in="SourceAlpha" type="matrix" values="0 0 0 0 0 0 0 0 0 0 0 0 0 0 0 0 0 0 127 0" result="hardAlpha"/>
<feOffset dx="4"/>
<feGaussianBlur stdDeviation="15"/>
<feColorMatrix type="matrix" values="0 0 0 0 0.121569 0 0 0 0 0.121569 0 0 0 0 0.207843 0 0 0 1 0"/>
<feBlend mode="normal" in2="BackgroundImageFix" result="effect1_dropShadow_4_6"/>
<feBlend mode="normal" in="SourceGraphic" in2="effect1_dropShadow_4_6" result="shape"/>
</filter>
<linearGradient id="paint0_linear_4_6" x1="2227.5" y1="381.286" x2="2147.35" y2="840.789" gradientUnits="userSpaceOnUse">
<stop stop-color="#4D5EF8"/>
<stop offset="1" stop-color="#91CBF2"/>
</linearGradient>
<linearGradient id="paint1_linear_4_6" x1="2227.5" y1="381.286" x2="2147.35" y2="840.789" gradientUnits="userSpaceOnUse">
<stop stop-color="#4D5EF8"/>
<stop offset="1" stop-color="#91CBF2"/>
</linearGradient>
<linearGradient id="paint2_linear_4_6" x1="2227.5" y1="381.285" x2="2147.35" y2="840.789" gradientUnits="userSpaceOnUse">
<stop stop-color="#4D5EF8"/>
<stop offset="1" stop-color="#91CBF2"/>
</linearGradient>
</defs>
</svg>
