<svg width="152" height="132" viewBox="0 0 152 132" fill="none" xmlns="http://www.w3.org/2000/svg">
<g clip-path="url(#clip0_1_138)">
<path d="M82.9675 36.7606C90.6972 36.7606 96.9634 30.4551 96.9634 22.6769C96.9634 14.8988 90.6972 8.59329 82.9675 8.59329C75.2378 8.59329 68.9717 14.8988 68.9717 22.6769C68.9717 30.4551 75.2378 36.7606 82.9675 36.7606Z" fill="#FFB8B8"/>
<path d="M72.5213 29.7189C72.5213 29.7189 75.1582 49.7217 71.1014 51.9669C67.0446 54.2121 95.2392 54.4163 95.2392 54.4163C95.2392 54.4163 88.9512 37.0669 91.7909 31.76L72.5213 29.7189Z" fill="#FFB8B8"/>
<path d="M115.827 54.5173L113.482 65.2616L108.524 87.9931L108.376 89.238L106.665 103.65L105.527 113.224L104.763 119.655C100.123 122.055 96.7602 123.712 96.7602 123.712C96.7602 123.712 96.4709 122.252 96.0046 120.385C92.7482 121.367 86.7224 122.997 81.6159 123.323C83.4754 125.408 84.33 127.368 83.1709 128.814C79.6727 133.173 65.2307 124.041 60.1795 120.636C60.0619 121.451 60.0173 122.275 60.0462 123.099L56.1807 120.107L56.5633 113.224L57.2085 101.578L58.0193 86.9723C57.7636 86.3469 57.5493 85.7052 57.3779 85.0514C56.194 80.8149 54.7571 72.3555 53.6551 65.2616C52.7681 59.5524 52.102 54.728 51.9612 53.7014C51.9421 53.5674 51.9326 53.4984 51.9326 53.4984L73.331 43.9837C74.8517 47.5326 81.9528 48.5993 81.9528 48.5993C87.8358 48.1914 92.4474 45.0696 92.4474 45.0696L115.827 54.5173Z" fill="#D0CDE1"/>
<path d="M98.3837 119.63C98.3837 119.63 97.4778 119.943 96.0046 120.385C92.7481 121.367 86.7224 122.997 81.6159 123.323C77.2194 123.606 73.5042 122.925 72.8247 120.038C72.5335 118.797 72.9466 117.776 73.8468 116.938C76.5342 114.431 83.5535 113.532 89.1205 113.224C90.6926 113.138 92.1467 113.098 93.3572 113.082C95.4127 113.055 96.7602 113.098 96.7602 113.098L96.7926 113.224L98.3837 119.63Z" fill="#A0616A"/>
<path d="M71.3241 9.35517L68.7073 8.30095C68.7073 8.30095 74.1789 2.23918 81.7917 2.76631L79.6506 0.394297C79.6506 0.394297 84.8843 -1.71412 89.6423 3.82051C92.1435 6.72993 95.0373 10.1498 96.8414 14.0023H99.6439L98.4742 16.5939L102.568 19.1855L98.3661 18.72C98.6165 20.1392 98.655 21.5881 98.4802 23.0187C98.2999 24.4497 97.5742 25.7543 96.4562 26.6572C96.4562 26.6572 93.2107 19.8973 93.2107 18.8431V21.4787C93.2107 21.4787 90.5939 19.1067 90.5939 17.5254L89.1665 19.3702L88.4528 16.4711L79.6506 19.3702L81.0779 16.9983L75.6063 17.7889L77.7474 14.8898C77.7474 14.8898 71.5621 18.316 71.3242 21.2151C71.0863 24.1142 69.2758 26.8613 69.2758 26.8613C69.2758 26.8613 64.4251 13.3085 71.3241 9.35517Z" fill="#2F2E41"/>
<path d="M131.04 103.912C129.614 105.467 126.082 107.81 121.8 110.345C120.207 111.288 118.511 112.259 116.781 113.224C112.653 115.528 108.33 117.811 104.763 119.655C100.123 122.055 96.7602 123.712 96.7602 123.712C96.7602 123.712 96.4709 122.252 96.0046 120.385C95.3804 117.886 94.4402 114.655 93.46 113.224C93.4257 113.174 93.3915 113.128 93.3572 113.082C93.0717 112.705 92.7843 112.485 92.5007 112.485L106.665 103.65L112.786 99.831L108.376 89.238L102.845 75.9504L106.183 65.2616L109.539 54.5173H115.827C115.827 54.5173 117.909 59.0908 120.572 65.4685C120.97 66.4222 121.381 67.4162 121.8 68.4428C127.277 81.8492 134.106 100.57 131.04 103.912Z" fill="#D0CDE1"/>
<path d="M83.1708 128.814C79.6726 133.173 65.2306 124.041 60.1794 120.636C59.0793 119.895 58.4246 119.425 58.4246 119.425L63.0457 113.224L64.5093 111.261C64.5093 111.261 65.8187 111.96 67.7544 113.098C67.8248 113.14 67.8952 113.182 67.9675 113.224C69.6367 114.21 71.7322 115.499 73.8467 116.938C76.7644 118.924 79.7145 121.189 81.6158 123.323C83.4753 125.409 84.3299 127.368 83.1708 128.814Z" fill="#A0616A"/>
<path d="M67.7545 113.098C67.238 113.096 66.7223 113.138 66.2129 113.224C61.8373 113.981 60.5469 117.966 60.1795 120.636C60.0619 121.451 60.0173 122.276 60.0463 123.099L56.1808 120.107L54.7723 119.018C51.3826 117.828 48.3621 115.716 45.7432 113.224C43.4713 111.024 41.4333 108.592 39.6623 105.967C37.8983 103.38 36.3258 100.666 34.9574 97.8469C34.5756 97.0602 34.3704 96.1987 34.3563 95.3232C34.3421 94.4478 34.5194 93.58 34.8756 92.7812L39.6623 82.0465L46.6587 66.3572C46.7101 65.9837 46.7666 65.6186 46.8281 65.2617C48.2156 57.2562 51.9327 53.7015 51.9327 53.7015H54.7723L56.6718 65.2617L59.0318 79.6238L57.3779 85.0515L53.5561 97.5865L57.2085 101.578L67.7545 113.098Z" fill="#D0CDE1"/>
<path d="M71.9684 75.6351L74.396 78.4851C75.2979 78.3121 76.2398 78.1087 77.2098 77.8804L76.5126 75.6351L78.2174 77.6366C88.4946 75.0931 101.233 70.1479 101.233 70.1479C101.233 70.1479 87.4806 71.1626 77.2122 68.9052C72.669 67.9064 67.9946 70.1727 66.1302 74.4597C65.0466 76.9515 65.2168 79.1104 69.0601 79.1104C70.3587 79.0881 71.6538 78.9655 72.9338 78.7437L71.9684 75.6351Z" fill="#FBAA49"/>
<path d="M126.31 126.477V127.64C126.311 127.959 126.252 128.275 126.137 128.572C126.086 128.705 126.024 128.833 125.952 128.955C125.726 129.339 125.404 129.656 125.018 129.876C124.633 130.096 124.197 130.212 123.754 130.212H38.7639C38.3207 130.212 37.885 130.096 37.4997 129.876C37.1143 129.656 36.7924 129.339 36.5656 128.955C36.4938 128.833 36.4321 128.705 36.381 128.572C36.2659 128.275 36.2071 127.959 36.2078 127.64V126.477C36.2077 126.139 36.2737 125.805 36.4022 125.493C36.5306 125.181 36.7189 124.897 36.9562 124.658C37.1936 124.419 37.4754 124.23 37.7856 124.101C38.0957 123.971 38.4282 123.905 38.7639 123.905H43.6629V123.363C43.6628 123.349 43.6656 123.335 43.6709 123.322C43.6763 123.309 43.6841 123.297 43.694 123.287C43.7039 123.277 43.7157 123.269 43.7286 123.264C43.7416 123.259 43.7554 123.256 43.7694 123.256H46.3255C46.3395 123.256 46.3534 123.259 46.3663 123.264C46.3793 123.269 46.3911 123.277 46.401 123.287C46.4109 123.297 46.4187 123.309 46.4241 123.322C46.4294 123.335 46.4321 123.349 46.4321 123.363V123.905H48.0289V123.363C48.0289 123.349 48.0317 123.335 48.037 123.322C48.0424 123.309 48.0502 123.297 48.0601 123.287C48.07 123.277 48.0818 123.269 48.0947 123.264C48.1077 123.259 48.1215 123.256 48.1355 123.256H50.6916C50.7056 123.256 50.7195 123.259 50.7324 123.264C50.7454 123.269 50.7571 123.277 50.767 123.287C50.7769 123.297 50.7848 123.309 50.7901 123.322C50.7955 123.335 50.7982 123.349 50.7982 123.363V123.905H52.3969V123.363C52.3969 123.349 52.3997 123.335 52.405 123.322C52.4104 123.309 52.4182 123.297 52.4281 123.287C52.438 123.277 52.4498 123.269 52.4627 123.264C52.4757 123.259 52.4895 123.256 52.5035 123.256H55.0596C55.0736 123.256 55.0875 123.259 55.1004 123.264C55.1134 123.269 55.1251 123.277 55.135 123.287C55.1449 123.297 55.1528 123.309 55.1581 123.322C55.1635 123.335 55.1662 123.349 55.1662 123.363V123.905H56.763V123.363C56.763 123.349 56.7658 123.335 56.7711 123.322C56.7765 123.309 56.7843 123.297 56.7942 123.287C56.8041 123.277 56.8159 123.269 56.8288 123.264C56.8418 123.259 56.8556 123.256 56.8696 123.256H59.4257C59.4397 123.256 59.4536 123.259 59.4665 123.264C59.4795 123.269 59.4912 123.277 59.5011 123.287C59.511 123.297 59.5189 123.309 59.5242 123.322C59.5296 123.335 59.5323 123.349 59.5323 123.363V123.905H61.1291V123.363C61.1291 123.349 61.1318 123.335 61.1372 123.322C61.1425 123.309 61.1504 123.297 61.1603 123.287C61.1702 123.277 61.182 123.269 61.1949 123.264C61.2078 123.259 61.2217 123.256 61.2357 123.256H63.7918C63.8058 123.256 63.8197 123.259 63.8326 123.264C63.8456 123.269 63.8573 123.277 63.8672 123.287C63.8771 123.297 63.885 123.309 63.8903 123.322C63.8957 123.335 63.8984 123.349 63.8984 123.363V123.905H65.4971V123.363C65.4971 123.349 65.4998 123.335 65.5052 123.322C65.5105 123.309 65.5184 123.297 65.5283 123.287C65.5382 123.277 65.55 123.269 65.5629 123.264C65.5758 123.259 65.5897 123.256 65.6037 123.256H68.1598C68.1738 123.256 68.1877 123.259 68.2006 123.264C68.2136 123.269 68.2253 123.277 68.2352 123.287C68.2451 123.297 68.253 123.309 68.2583 123.322C68.2637 123.335 68.2664 123.349 68.2664 123.363V123.905H69.8632V123.363C69.8632 123.349 69.8659 123.335 69.8713 123.322C69.8766 123.309 69.8845 123.297 69.8944 123.287C69.9043 123.277 69.916 123.269 69.929 123.264C69.9419 123.259 69.9558 123.256 69.9698 123.256H89.9922C90.0062 123.256 90.02 123.259 90.033 123.264C90.0459 123.269 90.0577 123.277 90.0676 123.287C90.0775 123.297 90.0853 123.309 90.0907 123.322C90.096 123.335 90.0988 123.349 90.0988 123.363V123.905H91.6975V123.363C91.6975 123.349 91.7002 123.335 91.7056 123.322C91.7109 123.309 91.7188 123.297 91.7287 123.287C91.7386 123.277 91.7503 123.269 91.7633 123.264C91.7762 123.259 91.7901 123.256 91.8041 123.256H94.3602C94.3884 123.256 94.4153 123.268 94.4352 123.288C94.4552 123.308 94.4665 123.335 94.4668 123.363V123.905H96.0636V123.363C96.0636 123.349 96.0663 123.335 96.0717 123.322C96.077 123.309 96.0849 123.297 96.0948 123.287C96.1047 123.277 96.1164 123.269 96.1294 123.264C96.1423 123.259 96.1562 123.256 96.1702 123.256H98.7263C98.7403 123.256 98.7541 123.259 98.7671 123.264C98.78 123.269 98.7918 123.277 98.8017 123.287C98.8116 123.297 98.8194 123.309 98.8248 123.322C98.8301 123.335 98.8329 123.349 98.8329 123.363V123.905H100.43V123.363C100.43 123.349 100.432 123.335 100.438 123.322C100.443 123.309 100.451 123.297 100.461 123.287C100.471 123.277 100.483 123.269 100.495 123.264C100.508 123.259 100.522 123.256 100.536 123.256H103.092C103.106 123.256 103.12 123.259 103.133 123.264C103.146 123.269 103.158 123.277 103.168 123.287C103.178 123.297 103.186 123.309 103.191 123.322C103.196 123.335 103.199 123.349 103.199 123.363V123.905H104.798V123.363C104.798 123.349 104.8 123.335 104.806 123.322C104.811 123.309 104.819 123.297 104.829 123.287C104.839 123.277 104.851 123.269 104.863 123.264C104.876 123.259 104.89 123.256 104.904 123.256H107.46C107.488 123.256 107.515 123.268 107.535 123.288C107.554 123.308 107.565 123.335 107.565 123.363V123.905H109.164V123.363C109.164 123.349 109.167 123.335 109.172 123.322C109.177 123.309 109.185 123.297 109.195 123.287C109.205 123.277 109.217 123.269 109.23 123.264C109.243 123.259 109.256 123.256 109.27 123.256H111.826C111.84 123.256 111.854 123.259 111.867 123.264C111.88 123.269 111.892 123.277 111.902 123.287C111.912 123.297 111.92 123.309 111.925 123.322C111.93 123.335 111.933 123.349 111.933 123.363V123.905H113.53V123.363C113.53 123.349 113.533 123.335 113.538 123.322C113.543 123.309 113.551 123.297 113.561 123.287C113.571 123.277 113.583 123.269 113.596 123.264C113.609 123.259 113.622 123.256 113.636 123.256H116.193C116.207 123.256 116.22 123.259 116.233 123.264C116.246 123.269 116.258 123.277 116.268 123.287C116.278 123.297 116.286 123.309 116.291 123.322C116.296 123.335 116.299 123.349 116.299 123.363V123.905H123.754C124.09 123.905 124.422 123.971 124.733 124.101C125.043 124.23 125.324 124.419 125.562 124.658C125.799 124.897 125.988 125.181 126.116 125.493C126.244 125.805 126.31 126.139 126.31 126.477Z" fill="#292944"/>
<path d="M151.024 128.572H11.5149V128.955H151.024V128.572Z" fill="white"/>
<path d="M119.467 77.519H87.7883V76.862H73.4241V77.519H41.615C41.0467 77.519 40.5016 77.7462 40.0998 78.1506C39.6979 78.5549 39.4722 79.1034 39.4722 79.6753V123.325C39.4722 123.897 39.6979 124.445 40.0998 124.85C40.5016 125.254 41.0467 125.481 41.615 125.481H119.467C120.035 125.481 120.58 125.254 120.982 124.85C121.384 124.445 121.61 123.897 121.61 123.325V79.6753C121.61 79.3921 121.554 79.1117 121.447 78.8501C121.339 78.5885 121.181 78.3508 120.982 78.1506C120.783 77.9503 120.547 77.7915 120.287 77.6831C120.027 77.5748 119.748 77.519 119.467 77.519Z" fill="#292944"/>
<path d="M80.6034 97.5462C83.2312 97.5462 85.3615 95.4025 85.3615 92.7582C85.3615 90.1138 83.2312 87.9702 80.6034 87.9702C77.9755 87.9702 75.8452 90.1138 75.8452 92.7582C75.8452 95.4025 77.9755 97.5462 80.6034 97.5462Z" stroke="#D0CDE1" stroke-width="2" stroke-miterlimit="10"/>
<path d="M79.0807 99.2698C81.7085 99.2698 83.8388 97.1262 83.8388 94.4818C83.8388 91.8375 81.7085 89.6938 79.0807 89.6938C76.4528 89.6938 74.3225 91.8375 74.3225 94.4818C74.3225 97.1262 76.4528 99.2698 79.0807 99.2698Z" fill="#D0CDE1"/>
<path d="M20.6402 126.637H15.311V132H20.6402V126.637Z" fill="#D0CDE1"/>
<path d="M17.4053 122.424V128.936H23.8764V122.424H17.4053ZM23.5947 128.652H17.6851V122.708H23.5947V128.652Z" fill="white"/>
<path d="M143.972 126.637H138.643V132H143.972V126.637Z" fill="#D0CDE1"/>
<path d="M140.737 122.424V128.936H147.208V122.424H140.737ZM146.926 128.652H141.017V122.708H146.926V128.652Z" fill="white"/>
<path d="M18.001 44.0713C26.3408 44.0713 33.1016 37.2681 33.1016 28.876C33.1016 20.4839 26.3408 13.6807 18.001 13.6807C9.66116 13.6807 2.90039 20.4839 2.90039 28.876C2.90039 37.2681 9.66116 44.0713 18.001 44.0713Z" fill="#FBAA49"/>
<path d="M23.2634 10.819C21.8961 10.6441 20.5124 10.6441 19.1451 10.819C16.099 11.2215 13.2316 12.4948 10.8831 14.4879C8.5346 16.481 6.80359 19.1102 5.89547 22.0635C5.48245 23.4095 5.24856 24.8045 5.19991 26.2123C5.19306 26.408 5.18848 26.606 5.18848 26.804C5.19272 31.077 6.88146 35.1737 9.88408 38.1952C12.8867 41.2166 16.9579 42.916 21.2043 42.9202C21.5452 42.9202 21.8861 42.9087 22.2224 42.888C23.0119 42.8382 23.7966 42.7289 24.5699 42.5611C28.2626 41.762 31.5558 39.6755 33.868 36.6701C36.1802 33.6647 37.3626 29.9337 37.2063 26.1362C37.05 22.3387 35.5651 18.7189 33.0139 15.9162C30.4626 13.1134 27.0091 11.3081 23.2634 10.819H23.2634ZM26.2172 41.6263H26.2149C24.9251 42.0692 23.5825 42.3379 22.2224 42.4252C21.8861 42.4483 21.5452 42.4598 21.2042 42.4598C17.0795 42.4547 13.1252 40.8036 10.2085 37.8687C7.29189 34.9338 5.6511 30.9546 5.64606 26.804C5.64606 26.606 5.65063 26.408 5.65749 26.2123C5.81478 22.1673 7.52091 18.3404 10.4187 15.5325C13.3165 12.7247 17.1814 11.1536 21.2042 11.1483C24.8902 11.1485 28.4563 12.4655 31.2674 14.8646C34.0784 17.2637 35.9517 20.5891 36.5536 24.2484C37.1555 27.9076 36.4468 31.6631 34.5538 34.8456C32.6608 38.0282 29.7065 40.4311 26.2172 41.6263H26.2172Z" fill="white"/>
<path d="M21.4329 12.0691H20.9753V15.2923H21.4329V12.0691Z" fill="white"/>
<path d="M11.0118 16.2221L10.6882 16.5477L12.9532 18.8269L13.2768 18.5013L11.0118 16.2221Z" fill="white"/>
<path d="M6.56128 26.5738V27.0342H9.76443V26.5738H6.56128Z" fill="white"/>
<path d="M10.6884 37.0603L11.012 37.3859L13.2769 35.1067L12.9534 34.7811L10.6884 37.0603Z" fill="white"/>
<path d="M29.1318 18.5013L29.4553 18.8269L31.7203 16.5477L31.3967 16.2221L29.1318 18.5013Z" fill="white"/>
<path d="M32.644 26.5738V27.0342H35.8472V26.5738H32.644Z" fill="white"/>
<path d="M29.4552 34.7811L29.1316 35.1067L31.3966 37.3859L31.7201 37.0603L29.4552 34.7811Z" fill="white"/>
<path d="M21.4329 38.3156H20.9753V41.5388H21.4329V38.3156Z" fill="white"/>
<path d="M21.8906 25.8831C21.6926 25.7336 21.4518 25.6528 21.2042 25.6528C20.9567 25.6528 20.7159 25.7336 20.5178 25.8831C20.3823 25.9867 20.2707 26.1186 20.1907 26.2699C20.0893 26.4646 20.0455 26.6844 20.0643 26.9034C20.0832 27.1224 20.1639 27.3314 20.2971 27.5056C20.4302 27.6799 20.6101 27.8122 20.8156 27.8869C21.021 27.9615 21.2434 27.9754 21.4565 27.927C21.6695 27.8785 21.8643 27.7696 22.0179 27.6133C22.1714 27.457 22.2773 27.2596 22.323 27.0447C22.3686 26.8297 22.3522 26.6061 22.2756 26.4003C22.199 26.1944 22.0654 26.015 21.8906 25.8831H21.8906ZM21.2042 27.4947C21.0224 27.4941 20.8481 27.4212 20.7195 27.2918C20.5909 27.1624 20.5184 26.987 20.5178 26.804C20.5187 26.6643 20.561 26.528 20.6391 26.4126C20.7062 26.3149 20.7971 26.2363 20.9032 26.1843C21.0093 26.1323 21.1269 26.1087 21.2447 26.1159C21.3624 26.123 21.4764 26.1606 21.5755 26.2251C21.6746 26.2895 21.7555 26.3786 21.8104 26.4837C21.8653 26.5888 21.8923 26.7063 21.8888 26.825C21.8853 26.9437 21.8515 27.0595 21.7905 27.1611C21.7296 27.2628 21.6436 27.3469 21.5409 27.4053C21.4382 27.4638 21.3222 27.4945 21.2042 27.4947V27.4947Z" fill="white"/>
<path d="M23.2634 6.77374H19.145V10.9179H23.2634V6.77374Z" fill="white"/>
<path d="M21.2043 7.46451C24.2369 7.46451 26.6954 6.58834 26.6954 5.50754C26.6954 4.42673 24.2369 3.55057 21.2043 3.55057C18.1716 3.55057 15.7131 4.42673 15.7131 5.50754C15.7131 6.58834 18.1716 7.46451 21.2043 7.46451Z" fill="white"/>
<path d="M21.8906 18.0552H20.5178V25.8831H21.8906V18.0552Z" fill="white"/>
<path d="M43.0138 42.2188H0V42.6792H43.0138V42.2188Z" fill="white"/>
<path d="M28.662 114.865C28.8396 120.984 25.2866 123.227 20.8276 123.358C20.724 123.361 20.6209 123.362 20.5183 123.363C20.3115 123.365 20.1067 123.361 19.9039 123.353C15.8712 123.184 12.6791 121.03 12.514 115.34C12.343 109.45 19.6072 101.798 20.1522 101.232L20.1532 101.232C20.1739 101.21 20.1845 101.2 20.1845 101.2C20.1845 101.2 28.4845 108.746 28.662 114.865Z" fill="#D0CDE1"/>
<path d="M20.5066 122.43L23.3391 118.192L20.5123 122.886L20.5182 123.363C20.3115 123.365 20.1067 123.361 19.9039 123.353L20.0444 117.222L20.0406 117.175L20.0457 117.165L20.0592 116.586L16.9573 112.054L20.0555 116.152L20.0665 116.275L20.1726 111.643L17.4934 106.944L20.1803 110.829L20.1522 101.232L20.1523 101.201L20.1532 101.232L20.3311 108.795L22.7728 105.723L20.339 109.447L20.3923 113.59L22.6393 109.546L20.4006 114.199L20.4303 116.503L23.6979 110.87L20.4402 117.307L20.5066 122.43Z" fill="#3F3D56"/>
<path d="M151.994 114.865C152.171 120.984 148.618 123.227 144.159 123.358C144.056 123.361 143.952 123.362 143.85 123.363C143.643 123.365 143.438 123.361 143.235 123.353C139.203 123.184 136.011 121.03 135.845 115.34C135.675 109.45 142.939 101.798 143.484 101.232L143.485 101.232C143.505 101.21 143.516 101.2 143.516 101.2C143.516 101.2 151.816 108.746 151.994 114.865Z" fill="#D0CDE1"/>
<path d="M143.838 122.43L146.671 118.192L143.844 122.886L143.85 123.363C143.643 123.365 143.438 123.361 143.235 123.353L143.376 117.222L143.372 117.175L143.377 117.165L143.391 116.586L140.289 112.054L143.387 116.152L143.398 116.275L143.504 111.643L140.825 106.944L143.512 110.829L143.484 101.232L143.484 101.201L143.485 101.232L143.663 108.795L146.104 105.723L143.671 109.447L143.724 113.59L145.971 109.546L143.732 114.199L143.762 116.503L147.029 110.87L143.772 117.307L143.838 122.43Z" fill="#3F3D56"/>
</g>
<defs>
<clipPath id="clip0_1_138">
<rect width="152" height="132" fill="white"/>
</clipPath>
</defs>
</svg>
