<svg width="177" height="132" viewBox="0 0 177 132" fill="none" xmlns="http://www.w3.org/2000/svg">
<path d="M159.396 44.3243L153.908 55.1999L137.496 62.6674C135.744 65.6318 130.175 65.8587 129.77 63.9417C129.315 61.791 136.532 58.3295 136.532 58.3295L150.259 49.0367L151.46 41.0369L159.396 44.3243Z" fill="#FFB8B8"/>
<path d="M158.749 117.308L159.761 125.413L153.89 125.819L153.283 117.308H158.749Z" fill="#A0616A"/>
<path d="M157.939 124.198C158.464 123.642 158.948 123.05 159.388 122.424C160.229 121.259 160.976 127.237 160.976 127.237C160.976 127.237 161.786 129.668 161.583 130.884C161.381 132.1 156.725 132.1 155.915 131.897C155.105 131.695 151.056 131.897 151.056 131.897H144.983C139.719 129.466 144.983 127.845 144.983 127.845C146.602 127.642 152.068 122.577 152.068 122.577L153.283 120.348C154.093 120.145 154.903 123.185 154.903 123.185L157.939 124.198Z" fill="#2F2E41"/>
<path d="M173.932 117.41L174.945 125.515L169.074 125.92L168.466 117.41H173.932Z" fill="#A0616A"/>
<path d="M173.123 124.299C173.647 123.743 174.132 123.151 174.571 122.526C175.413 121.36 176.159 127.338 176.159 127.338C176.159 127.338 176.969 129.567 176.767 130.783C176.564 131.999 171.908 131.999 171.098 131.796C170.288 131.593 166.24 131.999 166.24 131.999H160.166C154.903 129.567 160.166 127.946 160.166 127.946C161.786 127.744 167.252 122.678 167.252 122.678L168.466 120.449C169.276 120.247 170.086 123.286 170.086 123.286L173.123 124.299Z" fill="#2F2E41"/>
<path d="M167.252 65.1334C168.061 66.1465 167.656 69.591 167.656 69.591C167.656 69.591 169.074 80.7353 168.466 81.7484C167.859 82.7615 168.871 83.572 169.478 84.9904C170.086 86.4087 170.693 89.8533 170.693 89.8533C174.135 92.69 173.932 105.658 173.932 105.658L175.147 117.207C174.742 118.423 169.074 118.626 168.264 118.423C167.454 118.22 165.025 99.9844 165.025 99.9844L159.559 89.6507C159.559 89.6507 159.964 117.207 159.964 118.423C159.964 119.639 154.498 119.031 153.283 119.031C152.068 119.031 152.068 98.7687 152.068 98.7687L150.854 93.5005L144.375 69.3884V66.5517L145.388 65.1334C145.388 65.1334 166.442 64.1203 167.252 65.1334Z" fill="#2F2E41"/>
<path d="M158.344 19.138C161.81 19.138 164.62 16.3258 164.62 12.8567C164.62 9.38767 161.81 6.57544 158.344 6.57544C154.878 6.57544 152.068 9.38767 152.068 12.8567C152.068 16.3258 154.878 19.138 158.344 19.138Z" fill="#FFB8B8"/>
<path d="M155.206 15.7947C156.478 18.6299 155.725 22.5899 153.182 26.9389L163.507 22.076L161.887 20.6576L162.292 16.6052L155.206 15.7947Z" fill="#FFB8B8"/>
<path d="M155.206 22.2787C153.854 23.0832 153.046 24.5614 152.581 26.0655C151.722 28.8503 151.204 31.7294 151.04 34.6394L150.55 43.3514L144.477 66.4504C149.74 70.908 152.777 69.895 159.863 66.2477C166.948 62.6005 167.758 67.4635 167.758 67.4635C167.758 67.4635 168.365 67.2608 167.758 66.653C167.15 66.0451 167.758 66.653 168.365 66.0451C168.972 65.4372 168.365 66.0451 168.163 65.4372C167.96 64.8294 168.163 65.2346 168.365 65.032C168.568 64.8294 167.555 63.0058 167.555 63.0058L169.175 47.8091L171.199 26.3311C168.77 23.2918 161.887 20.6577 161.887 20.6577L155.611 25.1154C153.587 25.9259 155.206 22.6839 155.206 22.6839V22.2787Z" fill="#FD7F9F"/>
<path d="M162.024 131.573H22.5146V131.956H162.024V131.573Z" fill="white"/>
<path d="M174.54 39.1975L175.35 51.3549L165.025 66.1463C165.025 69.5909 163.203 70.4014 163.203 70.4014C162.513 69.299 161.904 68.1477 161.381 66.9568C160.369 64.7279 161.988 62.9043 161.988 62.9043L169.074 47.9103L166.037 40.4133L174.54 39.1975Z" fill="#FFB8B8"/>
<path d="M171.098 26.4323C174.54 27.648 175.147 40.8185 175.147 40.8185C171.098 38.5897 166.239 42.2369 166.239 42.2369C166.239 42.2369 165.227 38.7923 164.013 34.3346C163.646 33.0807 163.602 31.7543 163.885 30.4789C164.168 29.2035 164.769 28.0206 165.632 27.0402C165.632 27.0402 167.657 25.2166 171.098 26.4323Z" fill="#FD7F9F"/>
<path d="M164.114 14.7816C163.315 14.1419 162.225 15.3047 162.225 15.3047L161.586 9.54734C161.586 9.54734 157.591 10.0271 155.035 9.38742C152.478 8.74771 152.079 11.7064 152.079 11.7064C151.947 10.5116 151.92 9.30749 151.999 8.108C152.158 6.66866 154.236 5.2293 157.911 4.26974C161.586 3.31018 163.503 7.46829 163.503 7.46829C166.06 8.74771 164.913 15.4214 164.114 14.7816Z" fill="#2F2E41"/>
<path d="M138.52 48.0063H61.7732V63.1722H138.52V48.0063Z" fill="#E6E6E6"/>
<path d="M138.52 24.0427H61.7732V39.2086H138.52V24.0427Z" fill="#E6E6E6"/>
<path d="M138.52 0H61.7732V15.1659H138.52V0Z" fill="#E6E6E6"/>
<path d="M63.4092 13.5284H136.883V1.6377H63.4092V13.5284Z" fill="white"/>
<path d="M63.4092 37.6239H136.883V25.7332H63.4092V37.6239Z" fill="white"/>
<path d="M63.4092 61.5348H136.883V49.644H63.4092V61.5348Z" fill="white"/>
<path d="M69.8415 12.0145C72.3412 12.0145 74.3676 9.98629 74.3676 7.48441C74.3676 4.98252 72.3412 2.95435 69.8415 2.95435C67.3418 2.95435 65.3154 4.98252 65.3154 7.48441C65.3154 9.98629 67.3418 12.0145 69.8415 12.0145Z" fill="#FD7F9F"/>
<path d="M125.335 5.71167H80.6646V6.69647H125.335V5.71167Z" fill="#FD7F9F"/>
<path d="M125.335 8.27222H80.6646V9.25701H125.335V8.27222Z" fill="#FD7F9F"/>
<path d="M69.8415 36.254C72.3412 36.254 74.3676 34.2258 74.3676 31.7239C74.3676 29.222 72.3412 27.1938 69.8415 27.1938C67.3418 27.1938 65.3154 29.222 65.3154 31.7239C65.3154 34.2258 67.3418 36.254 69.8415 36.254Z" fill="#CCCCCC"/>
<path d="M125.335 29.9514H80.6646V30.9362H125.335V29.9514Z" fill="#CCCCCC"/>
<path d="M125.335 32.512H80.6646V33.4968H125.335V32.512Z" fill="#CCCCCC"/>
<path d="M69.8413 60.2178C72.3409 60.2178 74.3673 58.1897 74.3673 55.6878C74.3673 53.1859 72.3409 51.1577 69.8413 51.1577C67.3416 51.1577 65.3152 53.1859 65.3152 55.6878C65.3152 58.1897 67.3416 60.2178 69.8413 60.2178Z" fill="#CCCCCC"/>
<path d="M125.335 53.9153H80.6646V54.9001H125.335V53.9153Z" fill="#CCCCCC"/>
<path d="M125.335 56.4758H80.6646V57.4606H125.335V56.4758Z" fill="#CCCCCC"/>
<path d="M34.996 40.1798C35.0199 40.2025 35.0515 40.2152 35.0845 40.2152C35.1174 40.2152 35.1491 40.2025 35.1729 40.1798L35.9247 39.4273C35.9481 39.4038 35.9612 39.372 35.9612 39.3388C35.9612 39.3056 35.9481 39.2738 35.9247 39.2503C35.9009 39.2275 35.8692 39.2148 35.8362 39.2148C35.8033 39.2148 35.7716 39.2275 35.7478 39.2503L34.996 40.0027C34.9726 40.0262 34.9595 40.0581 34.9595 40.0912C34.9595 40.1244 34.9726 40.1563 34.996 40.1798Z" fill="#3F3D56"/>
<path d="M33.7297 41.4473C33.7532 41.4707 33.785 41.4839 33.8181 41.4839C33.8513 41.4839 33.8831 41.4707 33.9066 41.4473L34.6584 40.6949C34.6817 40.6714 34.6948 40.6396 34.6947 40.6064C34.6946 40.5733 34.6815 40.5415 34.6581 40.5181C34.6347 40.4947 34.6029 40.4815 34.5698 40.4814C34.5367 40.4814 34.5049 40.4945 34.4815 40.5178L33.7297 41.2703C33.7063 41.2938 33.6931 41.3256 33.6931 41.3588C33.6931 41.392 33.7063 41.4238 33.7297 41.4473Z" fill="#3F3D56"/>
<path d="M0 99.3278C0.689986 102.069 6.57344 108.234 12.6443 114.024C3.28252 90.8794 8.61722 65.55 8.61722 65.55C6.87894 75.498 30.7025 125.559 30.7025 125.559L25.2763 128.762L23.4433 131.343C5.06807 122.897 0 99.3278 0 99.3278Z" fill="#E6E6E6"/>
<path d="M24.9894 43.7474C24.9894 43.7474 23.9312 50.4047 28.3151 49.7995C28.3151 49.7995 45.6996 45.8656 46.6066 46.7734C47.5137 47.6812 53.1525 47.9903 52.8584 44.163C52.5632 40.3228 46.909 42.5369 46.909 42.5369C46.909 42.5369 38.1411 43.7474 36.3271 42.8395C34.5131 41.9317 29.3733 42.2343 29.3733 42.2343L24.9894 43.7474Z" fill="#A0616A"/>
<path d="M38.256 65.4575L35.8455 88.349C35.8455 88.349 35.0896 97.4272 32.8221 99.3942C32.8221 99.3942 32.8221 102.269 32.0662 103.177L31.008 115.13C31.008 115.13 32.5197 119.518 32.3686 120.274C32.2174 121.031 32.9733 123.451 32.8221 123.754C32.6709 124.057 25.5659 123.754 25.5659 123.754L27.0776 99.3942L31.7639 65.5023L38.256 65.4575Z" fill="#292944"/>
<path d="M25.012 122.517C25.012 122.517 21.8417 130.518 23.4958 131.484C25.1498 132.45 42.5176 131.76 42.5176 131.76C42.5176 131.76 45.4123 129.967 42.1041 128.725C42.1041 128.725 39.3473 128.587 37.5554 127.483C35.7635 126.38 33.6959 124.31 33.6959 124.31C33.6959 124.31 33.5581 121.275 32.4554 121.965C32.1254 122.182 31.8446 122.467 31.631 122.799C31.4173 123.132 31.2756 123.506 31.2148 123.896L25.012 122.517Z" fill="#2F2E41"/>
<path d="M20.1235 121.431C20.1235 121.431 16.6466 130.207 18.4607 131.266C20.2747 132.325 39.3221 131.569 39.3221 131.569C39.3221 131.569 42.4967 129.602 38.8686 128.24C38.8686 128.24 35.8452 128.089 33.88 126.878C31.9148 125.668 29.6473 123.398 29.6473 123.398C29.6473 123.398 29.4961 120.07 28.2867 120.826C27.9249 121.065 27.6169 121.377 27.3826 121.741C27.1483 122.106 26.9928 122.516 26.9262 122.944L20.1235 121.431Z" fill="#2F2E41"/>
<path d="M34.1824 65.1468C34.1824 65.1468 32.5195 80.731 31.7637 84.0597C31.2884 86.2517 30.9852 88.4776 30.8566 90.717C30.8566 90.717 30.7055 95.5587 29.345 96.9204C28.9469 97.3149 28.6341 97.7871 28.4261 98.3077C28.218 98.8283 28.1192 99.3861 28.1356 99.9465C28.1356 99.9465 26.7751 115.228 27.5309 117.044C28.2867 118.859 29.3128 121.218 28.557 122.429C27.8012 123.639 19.2166 122.793 19.2166 121.885C19.2166 120.978 19.2166 120.221 18.7631 119.767C18.3095 119.313 18.7631 116.439 18.7631 116.439C18.7631 116.439 16.949 102.973 18.6119 99.0387C20.2748 95.1048 21.0306 84.3623 21.0306 84.3623C21.0306 84.3623 19.8213 72.1067 18.3096 70.1398C16.7978 68.1728 18.6119 61.2129 18.6119 61.2129L34.1824 65.1468Z" fill="#292944"/>
<path d="M29.9263 16.7508C30.102 17.1515 30.5227 17.3746 30.9056 17.5858C33.1251 18.8096 34.9829 20.5839 36.8133 22.3378C36.3566 20.7887 36.4539 19.1286 37.0885 17.6436C37.307 17.1371 37.5934 16.5926 37.4372 16.0635C37.2831 15.6852 37.0152 15.3644 36.6707 15.1455C35.9238 14.5674 35.1431 14.0343 34.3329 13.5491C33.7669 13.2102 32.6032 12.3079 31.9536 12.4061C31.9195 13.2845 31.9017 14.0698 31.5174 14.8908C31.4262 15.0855 29.9934 16.904 29.9263 16.7508Z" fill="#A0616A"/>
<path d="M37.6594 18.6967C41.0824 18.6967 43.8573 15.9193 43.8573 12.4932C43.8573 9.06717 41.0824 6.28979 37.6594 6.28979C34.2363 6.28979 31.4614 9.06717 31.4614 12.4932C31.4614 15.9193 34.2363 18.6967 37.6594 18.6967Z" fill="#A0616A"/>
<path d="M37.9618 27.1696C37.9618 27.1696 39.02 21.8739 35.9966 20.0583C32.9732 18.2427 29.4963 16.1244 29.4963 16.1244C29.4963 16.1244 28.4381 15.9731 27.9846 18.2427C27.9846 18.2427 19.3679 19.907 18.4609 28.0774C17.5539 36.2478 19.0656 48.2007 19.0656 48.2007C19.0656 48.2007 17.705 58.6407 16.0422 64.2389C16.0422 64.2389 14.6816 65.4493 20.7284 63.6336C26.7753 61.818 37.3571 68.778 37.3571 68.778C37.3571 68.778 38.4153 67.7188 38.4153 66.9623C38.4153 66.2058 40.6828 43.2077 41.1363 41.0895C41.5899 38.9712 39.3223 27.4722 37.9618 27.1696Z" fill="#E6E6E6"/>
<path d="M36.1985 13.1322C36.5708 12.9256 36.9884 12.8143 37.414 12.8082C37.8402 12.8018 38.2563 12.6777 38.6165 12.4496C39.202 11.9997 39.2449 11.1303 39.6732 10.5286C40.2933 9.65757 41.5303 9.55273 42.5981 9.59631C43.2511 9.62297 43.9544 9.66201 44.5043 9.30848C45.0689 8.94555 45.3248 8.26173 45.5152 7.61775C45.7403 6.85621 45.8859 5.92492 45.3281 5.36011C44.9407 4.96792 44.3292 4.89034 43.8989 4.5459C43.666 4.35948 40.5875 3.61093 37.6975 2.93786C36.2588 2.6033 34.7474 2.80797 33.4492 3.51315C32.151 4.21834 31.1559 5.37516 30.6522 6.7649C29.9848 8.60147 29.4129 10.3272 29.472 10.6999C29.7545 12.4838 31.3308 13.9018 31.4394 15.7047C31.5429 15.2069 31.7683 14.7425 32.0953 14.3534C32.4223 13.9642 32.8407 13.6623 33.313 13.4748C33.4314 13.4169 33.5659 13.4006 33.6947 13.4285C33.8513 13.4786 33.9429 13.6352 34.0417 13.7667C34.3006 14.1113 35.1141 14.634 35.5752 14.3896C35.9878 14.1709 35.6798 13.4843 36.1985 13.1322Z" fill="#3F3D56"/>
<path d="M39.0328 45.747C38.9031 45.8743 38.8289 46.0478 38.8262 46.2296C38.8236 46.4114 38.8928 46.5869 39.0187 46.718L43.3771 51.2328C43.4404 51.2984 43.5162 51.3508 43.6 51.3869C43.6838 51.4229 43.7739 51.442 43.8651 51.4428C43.9563 51.4437 44.0468 51.4264 44.1313 51.392C44.2157 51.3576 44.2925 51.3067 44.3571 51.2423L57.6563 37.989C57.7289 37.9166 57.7845 37.8289 57.8189 37.7322C57.8533 37.6356 57.8657 37.5324 57.8551 37.4304C57.8446 37.3283 57.8114 37.2299 57.758 37.1423C57.7045 37.0547 57.6322 36.9802 57.5463 36.9242L52.3168 33.5151C52.186 33.4289 52.0297 33.3903 51.8739 33.4056C51.7181 33.421 51.5722 33.4894 51.4607 33.5994L39.0328 45.747Z" fill="#3F3D56"/>
<path d="M57.7474 37.1255C57.721 37.166 57.6904 37.2037 57.6562 37.2379L44.3883 50.7415C44.3237 50.8059 44.2469 50.8568 44.1624 50.8912C44.078 50.9257 43.9875 50.943 43.8963 50.9421C43.8051 50.9412 43.715 50.9222 43.6312 50.8861C43.5474 50.85 43.4716 50.7977 43.4082 50.732L38.9561 46.0294C38.9258 45.9979 38.8986 45.9635 38.8748 45.9268C38.8005 46.0541 38.7741 46.2039 38.8005 46.349C38.8269 46.4941 38.9043 46.625 39.0187 46.718L43.377 51.2328C43.4403 51.2984 43.5161 51.3508 43.5999 51.3869C43.6837 51.4229 43.7738 51.442 43.865 51.4428C43.9562 51.4437 44.0467 51.4264 44.1312 51.392C44.2156 51.3576 44.2924 51.3067 44.3571 51.2422L57.6562 37.989C57.7681 37.8774 57.8383 37.7307 57.8549 37.5734C57.8715 37.4162 57.8335 37.258 57.7474 37.1255H57.7474Z" fill="#018DEF"/>
<path d="M56.5161 37.2887L55.9749 36.9433C56.0319 37.045 56.0528 37.163 56.0343 37.2781C56.0157 37.3932 55.9588 37.4986 55.8727 37.5772C55.7867 37.6557 55.6766 37.7028 55.5604 37.7108C55.4441 37.7187 55.3287 37.6871 55.2327 37.6209L51.7306 35.2111C51.651 35.1564 51.5883 35.0804 51.5498 34.9918C51.5112 34.9032 51.4983 34.8056 51.5125 34.71C51.5267 34.6144 51.5674 34.5247 51.6301 34.4512C51.6927 34.3776 51.7748 34.3232 51.8668 34.294L51.588 34.1161C51.5518 34.093 51.5088 34.083 51.4662 34.0878C51.4236 34.0926 51.3839 34.1119 51.3537 34.1425L39.5722 45.7307C39.5547 45.7485 39.5408 45.7696 39.5315 45.7929C39.5222 45.8161 39.5177 45.841 39.5181 45.866C39.5185 45.891 39.524 45.9157 39.5341 45.9386C39.5442 45.9615 39.5588 45.9821 39.577 45.9993L43.8557 50.1721C43.8912 50.2056 43.9383 50.2239 43.987 50.2233C44.0358 50.2226 44.0823 50.2029 44.1169 50.1685L56.5477 37.58C56.5676 37.5601 56.5828 37.5361 56.5921 37.5095C56.6015 37.483 56.6048 37.4547 56.6017 37.4267C56.5987 37.3988 56.5894 37.3719 56.5746 37.3479C56.5598 37.324 56.5398 37.3038 56.5161 37.2887Z" fill="white"/>
<path d="M42.9185 43.1721L46.5327 46.5828L55.1291 38.0819L50.7663 35.2397L42.9185 43.1721Z" fill="#E6E6E6"/>
<path d="M43.002 46.9444C43.4683 46.9444 43.8462 46.5661 43.8462 46.0994C43.8462 45.6327 43.4683 45.2544 43.002 45.2544C42.5357 45.2544 42.1577 45.6327 42.1577 46.0994C42.1577 46.5661 42.5357 46.9444 43.002 46.9444Z" fill="#018DEF"/>
<path d="M20.577 41.3919C20.577 41.3919 19.5188 48.0492 23.9028 47.444C23.9028 47.444 41.2873 43.5101 42.1943 44.418C43.1013 45.3258 48.7402 45.6348 48.446 41.8075C48.1509 37.9673 42.4966 40.1815 42.4966 40.1815C42.4966 40.1815 33.7288 41.3919 31.9148 40.4841C30.1007 39.5762 24.9609 39.8789 24.9609 39.8789L20.577 41.3919Z" fill="#A0616A"/>
<path d="M26.775 20.3608C26.775 20.3608 19.9724 21.1174 19.9724 30.9521V43.5102L28.2868 40.0303C28.2868 40.0303 31.7637 31.8599 31.4613 29.5903C31.159 27.3208 31.3101 20.6634 26.775 20.3608Z" fill="#E6E6E6"/>
</svg>
