<svg width="178" height="132" viewBox="0 0 178 132" fill="none" xmlns="http://www.w3.org/2000/svg">
<g clip-path="url(#clip0_1_100)">
<path d="M147.055 45.566H57.5073V115.805H147.055V45.566Z" fill="#F2F2F2"/>
<path d="M134.556 107.651H44.6348V37.041H134.556V107.651ZM45.0079 107.28H134.183V37.4116H45.0079V107.28Z" fill="#4B5AF0"/>
<path d="M107.765 129.389H4.01855V129.827H107.765V129.389Z" fill="white"/>
<path d="M77.0959 93.2636L77.0435 56.5688L118.859 74.8575L77.0959 93.2636Z" fill="#D0CDE1"/>
<path d="M68.6028 58.1651C68.6028 58.1651 72.5422 53.7674 73.3602 55.4433C74.1782 57.1192 69.3565 59.6671 69.3565 59.6671L68.6028 58.1651Z" fill="#A0616A"/>
<path d="M70.665 59.9789C70.665 59.9789 68.9133 60.6183 68.4058 61.3948C67.8984 62.1732 66.21 62.9849 66.21 62.9849L66.0627 63.072L64.4694 64.0153L62.3819 65.2496L55.774 69.16L47.0524 72.6293C46.9852 71.4192 46.9199 70.209 46.8584 69.0637C46.8397 68.7208 46.836 68.3798 46.8434 68.0388C46.9535 68.0054 47.0654 67.9758 47.1792 67.9517C49.7593 67.405 50.8563 66.6099 50.8563 66.6099L55.9008 63.5872C55.9008 63.5872 59.8615 61.0798 62.3744 59.9029C62.727 59.7361 63.0516 59.5971 63.3314 59.4952C65.6074 58.6649 69.2864 57.3232 69.2864 57.3232L69.3293 57.4066L70.2397 59.1579L70.665 59.9789Z" fill="#D0CDE1"/>
<path opacity="0.1" d="M70.665 59.9789C70.665 59.9789 68.9133 60.6183 68.4058 61.3948C67.8984 62.1732 66.21 62.9849 66.21 62.9849L66.0627 63.072L64.4694 64.0153L62.3819 65.2496L55.774 69.16L47.0524 72.6293C46.9852 71.4192 46.9199 70.209 46.8584 69.0637C46.8397 68.7208 46.836 68.3798 46.8434 68.0388C46.9535 68.0054 47.0654 67.9758 47.1792 67.9517C49.7593 67.405 50.8563 66.6099 50.8563 66.6099L55.9008 63.5872C55.9008 63.5872 59.8615 61.0798 62.3744 59.9029C62.727 59.7361 63.0516 59.5971 63.3314 59.4952C65.6074 58.6649 69.2864 57.3232 69.2864 57.3232L69.3293 57.4066L70.2397 59.1579L70.665 59.9789Z" fill="black"/>
<path d="M69.2866 93.2245L69.2344 56.5297L111.049 74.8182L69.2866 93.2245Z" fill="#9577F7"/>
<path opacity="0.2" d="M108.378 73.6497L69.2832 90.8797L69.2866 93.2245L111.049 74.8182L108.378 73.6497Z" fill="black"/>
<path d="M57.6006 123.496V127.388H60.5855L60.2124 123.311L57.6006 123.496Z" fill="#A0616A"/>
<path d="M46.0339 123.311L45.1011 127.759L48.8322 127.944V123.311H46.0339Z" fill="#A0616A"/>
<path d="M47.5263 88.0987C47.5263 88.0987 46.5935 87.7281 46.4069 91.064C46.2204 94.3999 46.0338 105.89 46.0338 105.89C46.0338 105.89 44.1682 116.083 44.9145 119.048C45.6607 122.014 45.6607 124.052 45.6607 124.052H49.0187L49.2053 122.199L49.3919 117.195C49.3919 117.195 51.2574 112.562 50.6978 108.299L55.1752 94.7705L57.4139 109.226C57.4139 109.226 56.4811 112.747 56.6676 116.454C56.8542 120.16 56.8542 124.979 56.8542 124.979L60.5853 124.608L63.5703 107.187C63.5703 107.187 65.2493 89.7667 63.5703 88.8401C61.8912 87.9134 47.5263 88.0987 47.5263 88.0987Z" fill="#2F2E41"/>
<path d="M58.72 126.091C58.72 126.091 57.041 123.867 56.2947 125.535C55.5485 127.203 53.8695 129.427 55.1754 130.538C56.4813 131.65 58.1603 132.021 58.72 131.65C59.2797 131.28 65.063 128.315 65.063 128.315C65.063 128.315 66.1823 125.164 63.9436 124.979C61.7049 124.793 60.9587 124.237 60.9587 124.237L58.72 126.091Z" fill="#2F2E41"/>
<path d="M45.8473 126.647C45.8473 126.647 45.8473 124.793 45.1011 125.349C44.3549 125.905 43.7952 128.315 43.7952 128.315C43.7952 128.315 39.3178 131.836 43.6086 131.836C47.8994 131.836 50.6978 132.577 50.3247 130.909C49.9516 129.241 49.3919 126.461 49.3919 126.461C49.3919 126.461 47.5263 124.052 45.8473 126.647Z" fill="#2F2E41"/>
<path d="M57.6005 56.037C60.1763 56.037 62.2644 53.9626 62.2644 51.4038C62.2644 48.845 60.1763 46.7706 57.6005 46.7706C55.0246 46.7706 52.9365 48.845 52.9365 51.4038C52.9365 53.9626 55.0246 56.037 57.6005 56.037Z" fill="#FFB8B8"/>
<path d="M53.9626 52.9791C53.9626 52.9791 53.2164 58.3536 52.097 59.0949C50.9777 59.8362 59.5593 60.0216 59.5593 60.0216C59.5593 60.0216 58.9997 55.759 59.5593 54.6471L53.9626 52.9791Z" fill="#FFB8B8"/>
<path d="M68.6075 89.7665C68.6075 89.7665 71.4059 94.9557 69.5403 95.141C67.6747 95.3264 66.9285 89.9519 66.9285 89.9519L68.6075 89.7665Z" fill="#A0616A"/>
<path d="M53.2914 54.7682C53.9991 55.1109 54.803 55.2051 55.5715 55.0354C56.3401 54.8657 57.0281 54.442 57.523 53.8336C58.1504 53.0189 58.5143 51.8326 59.5149 51.5793C60.1682 51.4139 60.9216 51.726 61.505 51.3902C62.5935 50.7636 61.829 48.7774 62.8397 48.0332C62.4049 48.0272 61.9882 47.8592 61.6723 47.5625C61.3563 47.2657 61.164 46.8618 61.1336 46.4309C61.1078 46.7778 60.6487 46.9333 60.3137 46.8319C59.9788 46.7304 59.7158 46.4745 59.4031 46.318C58.8567 46.0445 58.21 46.0943 57.6008 46.1506C56.0442 46.2945 54.3647 46.4908 53.2212 47.5499C52.1467 48.545 51.7895 50.1363 51.9987 51.5807C52.208 53.0252 52.5775 53.4993 53.3596 54.7346L53.2914 54.7682Z" fill="#2F2E41"/>
<path d="M64.8764 61.0408L64.8503 61.2262L64.4697 64.0153L62.9082 75.4426L62.8242 76.0523C62.8242 76.0523 63.0089 76.499 63.2403 77.2106C63.632 78.4097 64.1619 80.3612 64.1824 82.1996C64.1887 82.5605 64.1712 82.9215 64.1302 83.2801C63.8503 85.643 63.7794 88.0059 63.7626 89.0401C63.757 89.3848 63.757 89.5812 63.757 89.5812L46.7803 89.0252C46.8863 88.7879 46.9803 88.5454 47.062 88.2988C47.6753 86.5076 47.8973 84.6072 47.7131 82.7241C47.547 81.1563 47.2877 76.8845 47.0526 72.6294C46.9855 71.4192 46.9202 70.209 46.8586 69.0637C46.84 68.7208 46.8362 68.3798 46.8437 68.0388C46.8893 66.046 47.3751 64.0874 48.2668 62.3017C49.1585 60.516 50.4343 58.9467 52.0039 57.705C52.0039 57.705 52.3472 57.7198 52.8882 57.7513C54.5896 57.8495 58.2536 58.1053 59.4046 58.526C59.4575 58.5444 59.5092 58.5661 59.5595 58.5908C60.1154 58.8633 61.2777 59.4026 62.3746 59.9029C63.6712 60.496 64.8764 61.0408 64.8764 61.0408Z" fill="#D0CDE1"/>
<path d="M62.2644 61.2261H64.8762C64.8762 61.2261 67.1149 63.8207 66.7418 66.4153C66.3687 69.0099 66.7418 70.3072 66.7418 70.3072L67.8611 76.0523C67.8611 76.0523 69.167 81.9828 69.167 84.392V90.6931L66.1821 91.0638C66.1821 91.0638 66.1821 89.2105 65.6224 88.4692C65.0628 87.7279 64.8762 85.8746 64.8762 85.8746L62.6375 74.0137L62.2644 61.2261Z" fill="#D0CDE1"/>
<path d="M24.1195 57.8978L18.7407 59.9644L20.7489 65.1226L26.1277 63.0561L24.1195 57.8978Z" fill="#9577F7"/>
<path d="M25.1556 62.6494L19.4938 64.8247L17.3799 59.395L23.0417 57.2197L25.1556 62.6494ZM19.6712 64.4444L24.7668 62.4867L22.8643 57.5999L17.7687 59.5577L19.6712 64.4444Z" fill="white"/>
<path d="M163.251 22.5572L161.376 17.1395L156.111 18.9376L157.986 24.3553L163.251 22.5572Z" fill="#9577F7"/>
<path d="M158.432 23.4059L156.458 17.703L162 15.8103L163.974 21.5131L158.432 23.4059ZM156.834 17.8936L158.611 23.0261L163.598 21.3226L161.822 16.1901L156.834 17.8936Z" fill="white"/>
<path d="M15.7629 129.668L15.5265 129.58C15.4745 129.561 10.3043 127.593 7.88228 123.131C5.4602 118.669 6.64617 113.296 6.65844 113.243L6.71426 112.998L6.95055 113.086C7.0025 113.106 12.1727 115.073 14.5948 119.535C17.0168 123.998 15.8309 129.37 15.8186 129.424L15.7629 129.668ZM8.27012 122.923C10.3178 126.696 14.4035 128.63 15.4387 129.071C15.6355 127.969 16.2528 123.512 14.2069 119.743C12.1613 115.974 8.07394 114.038 7.03832 113.595C6.84139 114.698 6.22436 119.155 8.27012 122.923Z" fill="white"/>
<path d="M9.73329 121.566C14.0859 124.167 15.7622 129.334 15.7622 129.334C15.7622 129.334 10.3816 130.284 6.02895 127.682C1.67633 125.081 0 119.914 0 119.914C0 119.914 5.38067 118.964 9.73329 121.566Z" fill="#9577F7"/>
<path d="M178 4.64447H3.94141V5.01512H178V4.64447Z" fill="white"/>
<path d="M7.49733 3.35858C8.43094 3.35858 9.18777 2.60674 9.18777 1.67929C9.18777 0.751844 8.43094 0 7.49733 0C6.56372 0 5.80688 0.751844 5.80688 1.67929C5.80688 2.60674 6.56372 3.35858 7.49733 3.35858Z" fill="white"/>
<path d="M12.7095 3.35858C13.6431 3.35858 14.3999 2.60674 14.3999 1.67929C14.3999 0.751844 13.6431 0 12.7095 0C11.7759 0 11.019 0.751844 11.019 1.67929C11.019 2.60674 11.7759 3.35858 12.7095 3.35858Z" fill="white"/>
<path d="M17.9219 3.35858C18.8555 3.35858 19.6123 2.60674 19.6123 1.67929C19.6123 0.751844 18.8555 0 17.9219 0C16.9883 0 16.2314 0.751844 16.2314 1.67929C16.2314 2.60674 16.9883 3.35858 17.9219 3.35858Z" fill="white"/>
<path d="M108.369 17.3197H68.5564V17.7641H108.369V17.3197Z" fill="white"/>
<path d="M108.369 20.4302H68.5564V20.8746H108.369V20.4302Z" fill="white"/>
<path d="M108.369 23.541H68.5564V23.9853H108.369V23.541Z" fill="white"/>
</g>
<defs>
<clipPath id="clip0_1_100">
<rect width="178" height="132" fill="white"/>
</clipPath>
</defs>
</svg>
