<svg width="121" height="63" viewBox="0 0 121 63" fill="none" xmlns="http://www.w3.org/2000/svg">
<path opacity="0.9" d="M4.43565 56.3217C3.80006 56.2932 3.1706 56.181 2.56259 55.9877C2.10234 55.8465 1.68106 55.5947 1.3333 55.253C1.00015 54.8902 0.727914 54.4725 0.527784 54.0173C0.319015 53.5027 0.217606 52.9486 0.230165 52.3909V31.2072C0.865754 31.2356 1.49521 31.3478 2.10322 31.5411C2.56786 31.6826 2.99351 31.9355 3.34546 32.2792C3.71872 32.6757 4.00921 33.147 4.19895 33.664C4.3887 34.181 4.47366 34.7327 4.44859 35.2849L4.43565 56.3217Z" fill="white"/>
<path opacity="0.9" d="M13.8687 42.1246C13.3237 42.1286 12.7831 42.0231 12.2771 41.814C11.741 41.5816 11.2467 41.2576 10.8149 40.8555C10.5721 40.5455 10.3838 40.194 10.2585 39.8169C10.0768 39.1835 9.98097 38.5271 9.97385 37.8665H18.8407C20.0528 37.8531 21.2554 38.0869 22.3797 38.5545C23.4453 38.9945 24.4144 39.6509 25.2297 40.4848C26.0678 41.3401 26.7282 42.3629 27.1706 43.4906C27.6121 44.6611 27.8317 45.9082 27.8176 47.1642C27.8229 48.4293 27.6036 49.6846 27.1706 50.868C26.7461 52.0261 26.0712 53.0689 25.1973 53.9171H25.2297C24.4492 54.7608 23.4825 55.3967 22.4121 55.7706C21.2626 56.1518 20.0609 56.3379 18.8537 56.3217H7.25977C7.44739 54.9346 7.86685 53.9605 8.51814 53.3995C9.24952 52.7107 10.2035 52.3284 11.1934 52.3274H18.8407C19.4655 52.327 20.0827 52.1856 20.649 51.9133C21.2675 51.6187 21.8365 51.2241 22.3344 50.7444H22.3021C22.795 50.2496 23.2069 49.6755 23.5216 49.0445C23.8011 48.4591 23.9419 47.8135 23.9325 47.1609C23.9462 46.5133 23.8225 45.8704 23.5702 45.2773C23.2858 44.6784 22.8837 44.1472 22.3894 43.7177C21.874 43.2456 21.2927 42.856 20.6652 42.5621C20.0929 42.2898 19.4709 42.1464 18.8407 42.1413L13.8687 42.1246Z" fill="white"/>
<path opacity="0.9" d="M34.8081 56.3217C34.1725 56.2932 33.5431 56.181 32.9351 55.9877C32.4702 55.8485 32.0443 55.5966 31.6929 55.253C31.36 54.8912 31.0878 54.4747 30.8874 54.0206C30.6786 53.5061 30.5772 52.9519 30.5898 52.3942V31.2072C31.2254 31.2356 31.8548 31.3478 32.4628 31.5411C32.9283 31.6855 33.3541 31.9419 33.705 32.2892C34.0782 32.6857 34.3687 33.157 34.5585 33.674C34.7482 34.191 34.8332 34.7427 34.8081 35.2949V56.3217Z" fill="white"/>
<path opacity="0.9" d="M37.1466 41.8312C37.1061 41.3475 37.204 40.8621 37.4281 40.4352C37.6693 39.9683 37.9829 39.5452 38.3565 39.1828C38.7586 38.7967 39.2213 38.4839 39.7248 38.2577C40.237 38.0239 40.7839 37.8816 41.3423 37.8369V58.5664C41.3354 59.0614 41.2251 59.549 41.0188 59.9958C40.8046 60.4765 40.5125 60.9159 40.1551 61.295C39.7706 61.6955 39.3219 62.0243 38.8288 62.2668C38.3022 62.5303 37.7307 62.6846 37.1466 62.721V41.8312Z" fill="white"/>
<path d="M55.54 41.4388L76.2196 62.2888L97.0932 41.6326C97.4991 41.229 97.8139 40.7433 98.0162 40.2081C98.2186 39.6729 98.3038 39.1007 98.2663 38.5298C98.2287 37.9589 98.0691 37.4027 97.7983 36.8986C97.5275 36.3945 97.1518 35.9542 96.6964 35.6072C90.8629 31.1375 83.7245 28.6987 76.3724 28.6637C69.0203 28.6287 61.859 30.9994 55.9831 35.4134C55.5245 35.7569 55.1449 36.1945 54.8699 36.6968C54.5949 37.1991 54.4309 37.7544 54.3889 38.3254C54.347 38.8964 54.428 39.4697 54.6265 40.0067C54.8251 40.5438 55.1366 41.0321 55.54 41.4388Z" fill="url(#paint0_linear_1_22)"/>
<path opacity="0.7" d="M67.5294 12.2381C66.9857 12.3358 66.468 12.5448 66.0091 12.8519C65.5501 13.159 65.1597 13.5576 64.8625 14.0228C64.5652 14.4879 64.3675 15.0094 64.2817 15.5545C64.1959 16.0996 64.224 16.6565 64.3642 17.1903L67.6249 29.5736L69.8461 38.0172L76.052 61.5863L76.2199 62.2776L76.4719 62.0144L109.485 29.3567C109.879 28.9677 110.188 28.5011 110.392 27.9867C110.597 27.4722 110.692 26.921 110.671 26.3679C110.651 25.8148 110.516 25.2719 110.275 24.7736C110.034 24.2753 109.692 23.8325 109.271 23.4731C103.571 18.6446 96.8742 15.1337 89.6583 13.1915C82.4423 11.2493 74.8859 10.9237 67.5294 12.2381Z" fill="url(#paint1_linear_1_22)"/>
<path opacity="0.7" d="M67.5294 12.2381C66.9857 12.3358 66.468 12.5448 66.0091 12.8519C65.5501 13.159 65.1597 13.5576 64.8625 14.0228C64.5652 14.4879 64.3675 15.0094 64.2817 15.5545C64.1959 16.0996 64.224 16.6565 64.3642 17.1903L67.6249 29.5736L69.8461 38.0172L76.052 61.5863L76.2199 62.2776L76.4719 62.0144L109.485 29.3567C109.879 28.9677 110.188 28.5011 110.392 27.9867C110.597 27.4722 110.692 26.921 110.671 26.3679C110.651 25.8148 110.516 25.2719 110.275 24.7736C110.034 24.2753 109.692 23.8325 109.271 23.4731C103.571 18.6446 96.8742 15.1337 89.6583 13.1915C82.4423 11.2493 74.8859 10.9237 67.5294 12.2381Z" fill="url(#paint2_linear_1_22)"/>
<path opacity="0.8" d="M76.2194 62.2887L112.186 26.7095L119.806 19.1655C120.194 18.7825 120.499 18.3241 120.704 17.8186C120.908 17.3132 121.006 16.7713 120.993 16.2264C120.98 15.6815 120.855 15.145 120.626 14.6501C120.398 14.1552 120.07 13.7122 119.664 13.3485C113.185 7.58174 105.623 3.15989 97.4173 0.34035C96.8994 0.163375 96.3507 0.0943288 95.805 0.137475C95.2593 0.180622 94.7282 0.335045 94.2446 0.59121C93.761 0.847374 93.3351 1.19984 92.9933 1.62685C92.6514 2.05385 92.4007 2.54633 92.2568 3.07388L89.4189 13.4555L84.9447 29.8133L82.6135 38.3581L76.2194 62.2887Z" fill="white"/>
<defs>
<linearGradient id="paint0_linear_1_22" x1="54.1471" y1="38.9742" x2="95.4015" y2="50.0416" gradientUnits="userSpaceOnUse">
<stop stop-color="white"/>
<stop offset="0.38" stop-color="#CAE2F2" stop-opacity="0.99"/>
<stop offset="0.51" stop-color="#8EC6ED" stop-opacity="0.96"/>
<stop offset="0.61" stop-color="#89BEE5" stop-opacity="0.92"/>
<stop offset="0.69" stop-color="#82B3DA" stop-opacity="0.85"/>
<stop offset="0.75" stop-color="#7AA6CC" stop-opacity="0.76"/>
<stop offset="0.81" stop-color="#6F94BA" stop-opacity="0.64"/>
<stop offset="0.87" stop-color="#6280A4" stop-opacity="0.51"/>
<stop offset="0.92" stop-color="#53688B" stop-opacity="0.35"/>
<stop offset="0.96" stop-color="#434E70" stop-opacity="0.19"/>
<stop offset="1" stop-color="#313252" stop-opacity="0"/>
</linearGradient>
<linearGradient id="paint1_linear_1_22" x1="59.9566" y1="31.5869" x2="106.122" y2="43.9702" gradientUnits="userSpaceOnUse">
<stop stop-color="#018DEF"/>
<stop offset="0.38" stop-color="#038EEF" stop-opacity="0.99"/>
<stop offset="0.51" stop-color="#0A91F0" stop-opacity="0.96"/>
<stop offset="0.61" stop-color="#1797F0" stop-opacity="0.91"/>
<stop offset="0.69" stop-color="#299FF2" stop-opacity="0.84"/>
<stop offset="0.76" stop-color="#40A9F3" stop-opacity="0.75"/>
<stop offset="0.82" stop-color="#5DB6F5" stop-opacity="0.64"/>
<stop offset="0.87" stop-color="#80C6F7" stop-opacity="0.5"/>
<stop offset="0.92" stop-color="#A8D8F9" stop-opacity="0.34"/>
<stop offset="0.96" stop-color="#D3EBFC" stop-opacity="0.17"/>
<stop offset="1" stop-color="white" stop-opacity="0"/>
</linearGradient>
<linearGradient id="paint2_linear_1_22" x1="59.9566" y1="31.5869" x2="106.122" y2="43.9702" gradientUnits="userSpaceOnUse">
<stop stop-color="white"/>
<stop offset="0.24" stop-color="white" stop-opacity="0.99"/>
<stop offset="0.38" stop-color="white" stop-opacity="0.96"/>
<stop offset="0.5" stop-color="#E9F2F8" stop-opacity="0.9"/>
<stop offset="0.6" stop-color="white" stop-opacity="0.81"/>
<stop offset="0.69" stop-color="white" stop-opacity="0.71"/>
<stop offset="0.77" stop-color="#FCFCFC" stop-opacity="0.57"/>
<stop offset="0.85" stop-color="#FAFAFA" stop-opacity="0.42"/>
<stop offset="0.92" stop-color="white" stop-opacity="0.23"/>
<stop offset="0.99" stop-color="#2F3557" stop-opacity="0.03"/>
<stop offset="1" stop-color="#D2D3DF" stop-opacity="0"/>
</linearGradient>
</defs>
</svg>
