<svg width="142" height="79" viewBox="0 0 142 79" fill="none" xmlns="http://www.w3.org/2000/svg">
<path opacity="0.9" d="M4.83658 70.2091C4.10589 70.1782 3.38226 70.056 2.68327 69.8455C2.14805 69.6883 1.65862 69.4092 1.25517 69.0311C0.872451 68.6358 0.559516 68.1812 0.32914 67.6857C0.0954252 67.1292 -0.0160746 66.5309 0.00186769 65.9296V42.8628C0.732369 42.8954 1.45579 43.0176 2.15517 43.2264C2.69103 43.3822 3.18078 43.6615 3.58327 44.0409C4.01238 44.4725 4.34633 44.9856 4.56447 45.5485C4.7826 46.1113 4.88028 46.712 4.85145 47.3133L4.83658 70.2091Z" fill="#3948EE"/>
<path opacity="0.9" d="M15.6812 54.7489C15.0549 54.7543 14.4335 54.6407 13.8515 54.4144C13.236 54.1597 12.668 53.8071 12.1705 53.3708C11.8913 53.0333 11.6748 52.6506 11.5308 52.2401C11.3222 51.5504 11.212 50.8358 11.2035 50.1166H21.3974C22.7914 50.1072 24.1737 50.3654 25.466 50.8766C26.7034 51.3675 27.8286 52.0942 28.7761 53.0143C29.7236 53.9344 30.4745 55.0295 30.985 56.236C31.493 57.5102 31.7455 58.8681 31.7288 60.2356C31.7349 61.6128 31.4828 62.9795 30.985 64.2679C30.5006 65.5309 29.7271 66.6689 28.7238 67.5948H28.761C27.8626 68.5111 26.7515 69.2021 25.5218 69.6091C24.2009 70.0271 22.819 70.231 21.4308 70.2127H8.08325C8.29896 68.705 8.78119 67.6433 9.52995 67.0276C10.3708 66.2777 11.4675 65.8616 12.6056 65.8604H21.3974C22.116 65.8561 22.8252 65.6998 23.4763 65.4023C24.1875 65.0803 24.8415 64.6495 25.4139 64.1261H25.3767C25.9426 63.5909 26.4161 62.9695 26.7788 62.2863C27.1001 61.6476 27.262 60.9436 27.2511 60.2319C27.2703 59.525 27.1307 58.8225 26.842 58.174C26.5151 57.5219 26.0528 56.9436 25.4846 56.476C24.8917 55.955 24.2207 55.5258 23.4949 55.2034C22.8371 54.9058 22.1221 54.7484 21.3974 54.7416L15.6812 54.7489Z" fill="#3948EE"/>
<path opacity="0.9" d="M39.7544 70.2091C39.0237 70.1782 38.3001 70.056 37.6011 69.8455C37.0659 69.6883 36.5764 69.4092 36.173 69.0311C35.7903 68.6358 35.4773 68.1812 35.247 67.6857C35.0066 67.1269 34.89 66.5247 34.9048 65.9187V42.8628C35.6353 42.8954 36.3587 43.0176 37.0581 43.2264C37.594 43.3822 38.0837 43.6615 38.4862 44.0409C38.9153 44.4725 39.2493 44.9856 39.4674 45.5485C39.6855 46.1113 39.7832 46.712 39.7544 47.3133V70.2091Z" fill="#3948EE"/>
<path opacity="0.9" d="M42.4436 54.4321C42.3971 53.9043 42.5096 53.3747 42.7671 52.9086C43.0436 52.4008 43.4043 51.9413 43.8345 51.5488C44.2947 51.1259 44.8271 50.785 45.4076 50.5416C45.9957 50.2843 46.6247 50.128 47.2671 50.0798V72.6484C47.2596 73.1873 47.1327 73.7183 46.8952 74.2046C46.6508 74.729 46.3148 75.2076 45.9022 75.619C45.4616 76.056 44.947 76.4152 44.3812 76.6807C43.7758 76.9676 43.1188 77.1356 42.4473 77.1752L42.4436 54.4321Z" fill="#3948EE"/>
<path d="M57.8663 51.9309L84.4238 78.1394L111.231 52.1745C111.752 51.6676 112.157 51.0571 112.417 50.3843C112.678 49.7115 112.787 48.992 112.739 48.2742C112.691 47.5565 112.486 46.8572 112.137 46.2235C111.789 45.5898 111.306 45.0364 110.721 44.6007C103.23 38.9805 94.0624 35.9139 84.6201 35.8699C75.1778 35.8259 65.9807 38.8069 58.4353 44.3571C57.8453 44.788 57.3569 45.3378 57.003 45.9692C56.6492 46.6007 56.4381 47.299 56.3842 48.0171C56.3302 48.7352 56.4346 49.4562 56.6903 50.1314C56.946 50.8066 57.347 51.4203 57.8663 51.9309Z" fill="url(#paint0_linear_1_623)"/>
<path opacity="0.7" d="M73.267 15.2255C72.5684 15.3478 71.9032 15.6102 71.3134 15.996C70.7235 16.3819 70.2218 16.8829 69.8396 17.4676C69.4575 18.0523 69.2032 18.708 69.0928 19.3934C68.9825 20.0788 69.0184 20.7792 69.1983 21.4503L73.386 37.016L76.2422 47.6295L84.2083 77.2556L84.424 78.1246L84.7513 77.7937L127.148 36.7433C127.654 36.2541 128.051 35.6675 128.313 35.0207C128.574 34.3738 128.696 33.6809 128.67 32.9856C128.644 32.2904 128.47 31.6081 128.16 30.9819C127.85 30.3557 127.411 29.7992 126.869 29.3477C119.55 23.2789 110.95 18.866 101.684 16.4247C92.4175 13.9834 82.714 13.5739 73.267 15.2255Z" fill="url(#paint1_linear_1_623)"/>
<path opacity="0.7" d="M73.267 15.2255C72.5684 15.3478 71.9032 15.6102 71.3134 15.996C70.7235 16.3819 70.2218 16.8829 69.8396 17.4676C69.4575 18.0523 69.2032 18.708 69.0928 19.3934C68.9825 20.0788 69.0184 20.7792 69.1983 21.4503L73.386 37.016L76.2422 47.6295L84.2083 77.2556L84.424 78.1246L84.7513 77.7937L127.148 36.7433C127.654 36.2541 128.051 35.6675 128.313 35.0207C128.574 34.3738 128.696 33.6809 128.67 32.9856C128.644 32.2904 128.47 31.6081 128.16 30.9819C127.85 30.3557 127.411 29.7992 126.869 29.3477C119.55 23.2789 110.95 18.866 101.684 16.4247C92.4175 13.9834 82.714 13.5739 73.267 15.2255Z" fill="url(#paint2_linear_1_623)"/>
<path opacity="0.8" d="M84.4233 78.1394L130.614 33.4165L140.398 23.9338C140.899 23.4516 141.293 22.8741 141.556 22.2371C141.819 21.6 141.945 20.917 141.928 20.2303C141.91 19.5435 141.748 18.8677 141.452 18.2445C141.157 17.6213 140.733 17.064 140.209 16.6072C131.889 9.36407 122.178 3.81085 111.643 0.270615C110.978 0.048189 110.274 -0.0385691 109.573 0.0157019C108.872 0.0699729 108.191 0.26412 107.57 0.586146C106.949 0.908172 106.403 1.35124 105.964 1.88796C105.525 2.42468 105.204 3.04366 105.019 3.70664L101.371 16.7563L95.6288 37.3179L92.6312 48.0587L84.4233 78.1394Z" fill="#5952FF"/>
<defs>
<linearGradient id="paint0_linear_1_623" x1="56.0737" y1="48.833" x2="108.903" y2="63.3116" gradientUnits="userSpaceOnUse">
<stop stop-color="#91CBF3"/>
<stop offset="0.38" stop-color="#92CBF3" stop-opacity="0.99"/>
<stop offset="0.51" stop-color="#95CDF3" stop-opacity="0.96"/>
<stop offset="0.61" stop-color="#9ACFF4" stop-opacity="0.92"/>
<stop offset="0.69" stop-color="#A2D3F5" stop-opacity="0.85"/>
<stop offset="0.75" stop-color="#ACD8F6" stop-opacity="0.76"/>
<stop offset="0.81" stop-color="#B8DEF7" stop-opacity="0.64"/>
<stop offset="0.87" stop-color="#C7E4F9" stop-opacity="0.51"/>
<stop offset="0.92" stop-color="#D8EDFB" stop-opacity="0.35"/>
<stop offset="0.96" stop-color="#EBF5FD" stop-opacity="0.19"/>
<stop offset="1" stop-color="white" stop-opacity="0"/>
</linearGradient>
<linearGradient id="paint1_linear_1_623" x1="63.5343" y1="39.5467" x2="122.647" y2="55.747" gradientUnits="userSpaceOnUse">
<stop stop-color="#018DEF"/>
<stop offset="0.38" stop-color="#038EEF" stop-opacity="0.99"/>
<stop offset="0.51" stop-color="#0A91F0" stop-opacity="0.96"/>
<stop offset="0.61" stop-color="#1797F0" stop-opacity="0.91"/>
<stop offset="0.69" stop-color="#299FF2" stop-opacity="0.84"/>
<stop offset="0.76" stop-color="#40A9F3" stop-opacity="0.75"/>
<stop offset="0.82" stop-color="#5DB6F5" stop-opacity="0.64"/>
<stop offset="0.87" stop-color="#80C6F7" stop-opacity="0.5"/>
<stop offset="0.92" stop-color="#A8D8F9" stop-opacity="0.34"/>
<stop offset="0.96" stop-color="#D3EBFC" stop-opacity="0.17"/>
<stop offset="1" stop-color="white" stop-opacity="0"/>
</linearGradient>
<linearGradient id="paint2_linear_1_623" x1="63.5343" y1="39.5467" x2="122.647" y2="55.747" gradientUnits="userSpaceOnUse">
<stop stop-color="#018DEF"/>
<stop offset="0.38" stop-color="#038EEF" stop-opacity="0.99"/>
<stop offset="0.51" stop-color="#0A91F0" stop-opacity="0.96"/>
<stop offset="0.61" stop-color="#1797F0" stop-opacity="0.91"/>
<stop offset="0.69" stop-color="#299FF2" stop-opacity="0.84"/>
<stop offset="0.76" stop-color="#40A9F3" stop-opacity="0.75"/>
<stop offset="0.82" stop-color="#5DB6F5" stop-opacity="0.64"/>
<stop offset="0.87" stop-color="#80C6F7" stop-opacity="0.5"/>
<stop offset="0.92" stop-color="#A8D8F9" stop-opacity="0.34"/>
<stop offset="0.96" stop-color="#D3EBFC" stop-opacity="0.17"/>
<stop offset="1" stop-color="white" stop-opacity="0"/>
</linearGradient>
</defs>
</svg>
