<svg width="239" height="161" viewBox="0 0 239 161" fill="none" xmlns="http://www.w3.org/2000/svg">
<path opacity="0.5" d="M43.0922 9.48475C24.6087 24.7602 49.3161 44.3583 36.5166 52.927C23.7171 61.4956 -29.2947 78.1807 24.0908 111.297C77.4762 144.414 78.9426 166.368 117.048 145.388C155.154 124.409 152.42 120.653 183.782 134.831C215.143 149.009 247.921 126.951 236.776 100.775C225.631 74.5989 218.535 74.9245 231.273 58.2089C244.012 41.4933 224.086 -4.7658 180.281 30.9819C136.476 66.7295 109.054 40.0422 104.244 26.6724C99.4345 13.3025 72.3014 -14.6457 43.0922 9.48475Z" fill="#292A46"/>
<path d="M114.161 76.2641H143.816C146.159 76.2641 148.406 77.1947 150.062 78.8513C151.719 80.5078 152.65 82.7545 152.65 85.0972V160.67H105.326V85.0972C105.326 83.937 105.555 82.7882 105.999 81.7164C106.443 80.6446 107.094 79.6707 107.914 78.8505C108.735 78.0302 109.709 77.3796 110.781 76.9359C111.852 76.4921 113.001 76.2638 114.161 76.2641Z" fill="url(#paint0_linear_1_468)"/>
<path d="M102.14 76.2641H131.795C134.138 76.2641 136.384 77.1947 138.041 78.8513C139.697 80.5078 140.628 82.7545 140.628 85.0972V160.67H93.3047V85.0972C93.3047 83.937 93.5332 82.7882 93.9773 81.7164C94.4213 80.6446 95.0722 79.6707 95.8926 78.8505C96.7131 78.0302 97.6871 77.3796 98.759 76.9359C99.831 76.4921 100.98 76.2638 102.14 76.2641Z" fill="#FFBE35"/>
<path d="M96.4777 92.0619C96.3908 92.0619 96.3074 92.0274 96.2459 91.9659C96.1844 91.9044 96.1499 91.8211 96.1499 91.7341V85.7463C96.1516 84.2023 96.7658 82.7219 97.8576 81.6301C98.9494 80.5383 100.43 79.9241 101.974 79.9224H111.06C111.147 79.9224 111.231 79.9569 111.292 80.0184C111.354 80.0799 111.388 80.1633 111.388 80.2502C111.388 80.3371 111.354 80.4205 111.292 80.482C111.231 80.5435 111.147 80.578 111.06 80.578H101.974C100.604 80.5797 99.2901 81.1248 98.3212 82.0937C97.3523 83.0626 96.8072 84.3761 96.8055 85.7463V91.7341C96.8055 91.8211 96.771 91.9044 96.7095 91.9659C96.648 92.0274 96.5646 92.0619 96.4777 92.0619Z" fill="white"/>
<path d="M96.4777 98.4124C96.3908 98.4124 96.3074 98.3779 96.2459 98.3164C96.1844 98.2549 96.1499 98.1716 96.1499 98.0846V95.6458C96.1499 95.5589 96.1844 95.4755 96.2459 95.414C96.3074 95.3525 96.3908 95.318 96.4777 95.318C96.5646 95.318 96.648 95.3525 96.7095 95.414C96.771 95.4755 96.8055 95.5589 96.8055 95.6458V98.0846C96.8055 98.1716 96.771 98.2549 96.7095 98.3164C96.648 98.3779 96.5646 98.4124 96.4777 98.4124Z" fill="white"/>
<path d="M67.4195 100.932H90.5382C92.8808 100.932 95.1276 101.863 96.7841 103.519C98.4406 105.176 99.3713 107.423 99.3713 109.765V160.55H58.5864V109.768C58.5861 108.607 58.8144 107.459 59.2582 106.387C59.702 105.315 60.3526 104.341 61.1728 103.52C61.9931 102.7 62.9669 102.049 64.0387 101.605C65.1106 101.161 66.2594 100.932 67.4195 100.932Z" fill="#8773E8"/>
<path d="M55.3978 100.932H78.5186C80.8613 100.932 83.108 101.863 84.7646 103.519C86.4211 105.176 87.3517 107.423 87.3517 109.765V160.55H46.5647V109.768C46.5644 108.607 46.7927 107.459 47.2364 106.387C47.6802 105.315 48.3308 104.341 49.1511 103.52C49.9713 102.7 50.9452 102.049 52.017 101.605C53.0888 101.161 54.2376 100.932 55.3978 100.932Z" fill="#773DEC"/>
<path d="M49.9303 117.947C49.8434 117.947 49.76 117.913 49.6986 117.851C49.6371 117.79 49.6025 117.706 49.6025 117.619V110.554C49.6049 108.748 50.3233 107.017 51.6002 105.74C52.8771 104.463 54.6084 103.745 56.4142 103.743H67.1355C67.2224 103.743 67.3058 103.777 67.3672 103.839C67.4287 103.9 67.4633 103.983 67.4633 104.07C67.4633 104.157 67.4287 104.241 67.3672 104.302C67.3058 104.364 67.2224 104.398 67.1355 104.398H56.4142C54.7822 104.4 53.2178 105.05 52.0638 106.204C50.9098 107.358 50.2605 108.922 50.2581 110.554V117.619C50.2581 117.706 50.2236 117.79 50.1621 117.851C50.1007 117.913 50.0173 117.947 49.9303 117.947Z" fill="white"/>
<path d="M49.9303 125.434C49.8434 125.434 49.76 125.4 49.6986 125.338C49.6371 125.277 49.6025 125.193 49.6025 125.106V122.233C49.6025 122.146 49.6371 122.062 49.6986 122.001C49.76 121.939 49.8434 121.905 49.9303 121.905C50.0173 121.905 50.1007 121.939 50.1621 122.001C50.2236 122.062 50.2581 122.146 50.2581 122.233V125.111C50.257 125.197 50.2219 125.279 50.1606 125.34C50.0992 125.4 50.0165 125.434 49.9303 125.434Z" fill="white"/>
<path d="M42.756 130.924H65.8658C67.0258 130.924 68.1744 131.152 69.2461 131.596C70.3178 132.04 71.2916 132.691 72.1118 133.511C72.932 134.331 73.5827 135.305 74.0266 136.377C74.4705 137.448 74.699 138.597 74.699 139.757V160.55H33.9229V139.757C33.9229 137.414 34.8535 135.167 36.51 133.511C38.1665 131.854 40.4133 130.924 42.756 130.924Z" fill="#E99053"/>
<path d="M30.7345 130.924H53.8443C56.187 130.924 58.4338 131.854 60.0903 133.511C61.7468 135.167 62.6775 137.414 62.6775 139.757V160.55H21.8992V139.757C21.8992 138.597 22.1277 137.448 22.5718 136.376C23.0158 135.304 23.6666 134.33 24.4871 133.51C25.3076 132.69 26.2816 132.039 27.3535 131.595C28.4254 131.152 29.5743 130.923 30.7345 130.924Z" fill="#FFBE35"/>
<path d="M24.799 147.449C24.7121 147.449 24.6287 147.415 24.5672 147.353C24.5057 147.292 24.4712 147.208 24.4712 147.121V140.056C24.4735 138.25 25.1919 136.519 26.4688 135.242C27.7458 133.965 29.477 133.247 31.2829 133.244H42.0041C42.091 133.244 42.1744 133.279 42.2359 133.34C42.2974 133.402 42.3319 133.485 42.3319 133.572C42.3319 133.659 42.2974 133.743 42.2359 133.804C42.1744 133.866 42.091 133.9 42.0041 133.9H31.2829C29.6509 133.902 28.0864 134.552 26.9324 135.706C25.7784 136.86 25.1291 138.424 25.1268 140.056V147.121C25.1268 147.208 25.0923 147.292 25.0308 147.353C24.9693 147.415 24.8859 147.449 24.799 147.449Z" fill="white"/>
<path d="M24.799 154.936C24.7121 154.936 24.6287 154.902 24.5672 154.84C24.5057 154.779 24.4712 154.695 24.4712 154.608V151.735C24.4712 151.648 24.5057 151.564 24.5672 151.503C24.6287 151.441 24.7121 151.407 24.799 151.407C24.8859 151.407 24.9693 151.441 25.0308 151.503C25.0923 151.564 25.1268 151.648 25.1268 151.735V154.613C25.1256 154.699 25.0906 154.781 25.0292 154.842C24.9679 154.902 24.8852 154.936 24.799 154.936Z" fill="white"/>
<path d="M167.945 100.932H191.063C193.406 100.932 195.653 101.863 197.309 103.519C198.966 105.176 199.896 107.423 199.896 109.765V160.55H159.112V109.768C159.111 108.607 159.34 107.459 159.783 106.387C160.227 105.315 160.878 104.341 161.698 103.52C162.518 102.7 163.492 102.049 164.564 101.605C165.636 101.161 166.785 100.932 167.945 100.932Z" fill="#773DEC"/>
<path d="M155.923 100.932H179.044C181.386 100.932 183.633 101.863 185.29 103.519C186.946 105.176 187.877 107.423 187.877 109.765V160.55H147.09V109.768C147.09 108.607 147.318 107.459 147.762 106.387C148.205 105.315 148.856 104.341 149.676 103.52C150.496 102.7 151.47 102.049 152.542 101.605C153.614 101.161 154.763 100.932 155.923 100.932Z" fill="#8773E8"/>
<path d="M150.455 117.947C150.369 117.947 150.285 117.913 150.224 117.851C150.162 117.79 150.128 117.706 150.128 117.619V110.554C150.13 108.748 150.848 107.017 152.125 105.74C153.402 104.463 155.134 103.745 156.939 103.743H167.661C167.748 103.743 167.831 103.777 167.892 103.839C167.954 103.9 167.988 103.983 167.988 104.07C167.988 104.157 167.954 104.241 167.892 104.302C167.831 104.364 167.748 104.398 167.661 104.398H156.939C155.307 104.4 153.743 105.05 152.589 106.204C151.435 107.358 150.786 108.922 150.783 110.554V117.619C150.783 117.706 150.749 117.79 150.687 117.851C150.626 117.913 150.542 117.947 150.455 117.947Z" fill="white"/>
<path d="M150.455 125.434C150.369 125.434 150.285 125.4 150.224 125.338C150.162 125.277 150.128 125.193 150.128 125.106V122.233C150.128 122.146 150.162 122.062 150.224 122.001C150.285 121.939 150.369 121.905 150.455 121.905C150.542 121.905 150.626 121.939 150.687 122.001C150.749 122.062 150.783 122.146 150.783 122.233V125.111C150.782 125.197 150.747 125.279 150.686 125.34C150.624 125.4 150.542 125.434 150.455 125.434Z" fill="white"/>
<path d="M197.477 130.924H220.587C222.93 130.924 225.176 131.854 226.833 133.511C228.49 135.167 229.42 137.414 229.42 139.757V160.55H188.644V139.757C188.644 137.414 189.575 135.167 191.231 133.511C192.888 131.854 195.134 130.924 197.477 130.924Z" fill="#FFBE35"/>
<path d="M185.456 130.924H208.566C210.908 130.924 213.155 131.854 214.812 133.511C216.468 135.167 217.399 137.414 217.399 139.757V160.55H176.621V139.757C176.621 138.597 176.849 137.448 177.293 136.376C177.737 135.304 178.388 134.33 179.209 133.51C180.029 132.69 181.003 132.039 182.075 131.595C183.147 131.152 184.296 130.923 185.456 130.924Z" fill="#E99053"/>
<path d="M179.52 147.449C179.433 147.449 179.35 147.415 179.289 147.353C179.227 147.292 179.193 147.208 179.193 147.121V140.056C179.195 138.25 179.913 136.519 181.19 135.242C182.467 133.965 184.198 133.247 186.004 133.244H196.726C196.812 133.244 196.896 133.279 196.957 133.34C197.019 133.402 197.053 133.485 197.053 133.572C197.053 133.659 197.019 133.743 196.957 133.804C196.896 133.866 196.812 133.9 196.726 133.9H186.004C184.372 133.902 182.808 134.552 181.654 135.706C180.5 136.86 179.851 138.424 179.848 140.056V147.121C179.848 147.164 179.84 147.207 179.823 147.247C179.807 147.287 179.783 147.323 179.752 147.353C179.722 147.384 179.686 147.408 179.646 147.424C179.606 147.441 179.563 147.449 179.52 147.449Z" fill="white"/>
<path d="M179.52 154.936C179.433 154.936 179.35 154.902 179.289 154.84C179.227 154.779 179.193 154.695 179.193 154.608V151.735C179.193 151.648 179.227 151.564 179.289 151.503C179.35 151.441 179.433 151.407 179.52 151.407C179.607 151.407 179.691 151.441 179.752 151.503C179.814 151.564 179.848 151.648 179.848 151.735V154.613C179.847 154.699 179.812 154.781 179.751 154.842C179.689 154.902 179.607 154.936 179.52 154.936Z" fill="white"/>
<path d="M26.2195 141.509C26.237 141.509 34.8428 126.431 36.0054 125.015C36.1013 124.897 36.2253 124.806 36.3659 124.749C36.5065 124.693 36.6591 124.673 36.8096 124.691L39.2135 124.977L42.0238 131.081L37.3231 128.343C37.7886 131.56 31.7506 136.341 29.6745 138.085C29.6249 138.127 29.5843 138.179 29.5554 138.237C29.5265 138.295 29.5098 138.358 29.5063 138.423C29.5028 138.488 29.5126 138.553 29.5352 138.614C29.5577 138.675 29.5925 138.731 29.6373 138.778L30.4634 139.652C29.19 140.975 27.5603 141.901 25.7715 142.318L26.2195 141.509Z" fill="url(#paint1_linear_1_468)"/>
<path d="M30.0045 139.178C30.1593 139.231 30.3016 139.315 30.4229 139.426C30.5442 139.536 30.642 139.669 30.7103 139.818C30.749 139.929 30.7502 140.049 30.7139 140.161C30.6776 140.273 30.6057 140.369 30.5093 140.436C29.6352 141.059 26.7746 143.07 25.4502 143.463C25.4253 143.47 25.3989 143.471 25.3737 143.465C25.3485 143.458 25.3254 143.446 25.3066 143.428C25.2878 143.41 25.274 143.387 25.2666 143.363C25.2593 143.338 25.2585 143.311 25.2645 143.286C25.3322 142.98 25.5508 142.366 26.2588 141.468L26.1954 141.597C26.1779 141.632 26.172 141.672 26.1787 141.71C26.1854 141.749 26.2043 141.785 26.2326 141.812C26.261 141.839 26.2973 141.856 26.3362 141.861C26.3752 141.866 26.4147 141.858 26.4489 141.839C27.3274 141.339 29.1303 140.246 30.0045 139.178Z" fill="url(#paint2_linear_1_468)"/>
<path d="M29.5673 145.207C29.5826 145.207 30.8785 142.086 30.8785 142.078C32.063 134.866 34.952 128.699 35.8021 127.073C35.8727 126.939 35.9761 126.825 36.1025 126.741C36.2289 126.658 36.3744 126.607 36.5254 126.595L38.9293 126.389L42.9284 131.796L37.7711 130.065C38.8768 133.124 33.9292 139.025 32.2553 141.153C32.2151 141.204 32.1857 141.263 32.1691 141.326C32.1524 141.389 32.1488 141.454 32.1584 141.518C32.168 141.583 32.1907 141.644 32.225 141.7C32.2593 141.755 32.3046 141.802 32.358 141.839L33.3436 142.521C32.3645 144.076 30.9556 145.313 29.2876 146.083L29.5673 145.207Z" fill="url(#paint3_linear_1_468)"/>
<path d="M32.7993 142.161C32.9617 142.182 33.1183 142.235 33.2595 142.318C33.4008 142.401 33.5237 142.512 33.621 142.644C33.6831 142.746 33.7097 142.865 33.6967 142.984C33.6836 143.102 33.6316 143.213 33.5488 143.299C32.8233 144.084 30.4238 146.632 29.2088 147.285C29.1857 147.297 29.1601 147.302 29.1343 147.301C29.1085 147.3 29.0835 147.292 29.0616 147.279C29.0396 147.265 29.0216 147.246 29.0091 147.224C28.9966 147.201 28.9901 147.176 28.9902 147.15C28.9902 146.835 29.0864 146.19 29.5978 145.168L29.5606 145.305C29.551 145.343 29.5537 145.384 29.5683 145.42C29.5829 145.457 29.6087 145.487 29.6419 145.508C29.6752 145.529 29.7142 145.539 29.7534 145.536C29.7926 145.534 29.8299 145.519 29.86 145.493C30.6227 144.818 32.1655 143.382 32.7993 142.161Z" fill="url(#paint4_linear_1_468)"/>
<path d="M50.2295 125.25C50.2295 125.25 52.4148 128.493 52.5896 129.971C52.7645 131.448 51.9865 131.962 49.705 132.156C42.913 132.718 39.565 130.681 39.565 130.681C39.1018 127.72 38.7696 126.966 34.8906 125.355C34.8906 125.355 39.7989 125.747 40.791 125.355C41.7832 124.964 50.2295 125.25 50.2295 125.25Z" fill="url(#paint5_linear_1_468)"/>
<path d="M41.9426 105.917C41.9426 105.917 43.3805 105.917 43.9094 106.45C44.3464 106.887 45.6576 106.321 46.2826 107.281C46.4373 107.522 46.6671 107.707 46.9367 107.806C47.2064 107.904 47.5009 107.912 47.7752 107.827C49.1826 107.379 51.5362 107.062 52.9829 109.177C54.0865 110.79 53.527 111.885 52.7119 112.571C52.4194 112.81 52.2305 113.153 52.1844 113.528C52.1384 113.903 52.2389 114.281 52.4649 114.584C52.9239 115.178 53.1031 116.039 52.2464 117.206C50.3517 119.829 45.5396 116.533 45.5396 116.533L41.0837 108.836L41.9426 105.917Z" fill="url(#paint6_linear_1_468)"/>
<path d="M44.3337 124.82C44.3337 124.82 41.8053 122.403 40.5443 120.801C40.2116 120.374 39.9858 119.873 39.8858 119.341C39.7858 118.809 39.8145 118.261 39.9696 117.742C40.54 115.819 41.554 113.828 41.6479 113.517C41.7878 113.043 44.6353 113.063 44.6353 113.063C44.6353 113.063 50.2385 116.699 52.4391 122.858L49.9675 123.627C49.9675 123.627 48.5033 121.173 47.0588 119.612C47.0588 119.612 49.5588 122.917 49.6484 124.269L44.3337 124.82Z" fill="url(#paint7_linear_1_468)"/>
<path d="M41.3025 110.867C41.3331 110.965 42.0761 113.428 42.1329 113.489C42.1897 113.55 43.7632 113.625 44.5018 113.118L42.9939 109.778L41.3025 110.867Z" fill="url(#paint8_linear_1_468)"/>
<path d="M39.2591 108.1C39.2591 108.1 38.7303 109.322 39.3509 111.179C39.9715 113.037 40.9877 113.199 41.6324 112.74C42.2771 112.281 43.1097 111.459 43.2124 109.776C43.3151 108.094 39.9868 106.553 39.2591 108.1Z" fill="url(#paint9_linear_1_468)"/>
<path d="M41.9584 109.667C41.9584 109.667 40.8351 107.152 39.1524 108.719L39.0213 109.374C39.0213 109.374 37.4195 108.917 37.9461 107.464C38.1001 107.076 38.3347 106.726 38.6345 106.435C38.9343 106.145 39.2925 105.922 39.6851 105.78C40.0777 105.639 40.496 105.583 40.912 105.615C41.328 105.648 41.7324 105.769 42.0983 105.969C43.8137 106.909 44.3972 108.019 44.3054 109.341C44.2137 110.663 43.2128 110.215 43.2128 110.215C43.2128 110.215 43.0227 109.243 42.5572 109.07C42.0917 108.898 42.1026 109.634 42.1026 109.634L41.9584 109.667Z" fill="url(#paint10_linear_1_468)"/>
<path d="M42.3448 109.7C42.3448 109.7 41.7592 108.41 42.5787 108.364C43.3982 108.319 43.0638 109.606 42.8999 110.078L42.3448 109.7Z" fill="url(#paint11_linear_1_468)"/>
<path d="M39.4954 125.775L41.4032 123.699L43.6082 124.291C43.6082 124.291 46.1759 124.691 47.6466 124.291L49.1174 123.894L52.4391 122.86L52.9504 124.342C53.0147 124.524 53.0178 124.722 52.9595 124.906C52.9011 125.09 52.7844 125.25 52.627 125.362C52.3623 125.559 52.0816 125.734 51.7879 125.884C51.3508 126.075 41.7091 125.943 41.7091 125.943L39.4954 125.775Z" fill="url(#paint12_linear_1_468)"/>
<path d="M45.8109 126.597H45.7912L37.0171 126.586C36.9632 126.59 36.9089 126.583 36.8579 126.565C36.8068 126.547 36.7599 126.519 36.7203 126.482C36.6806 126.445 36.6489 126.4 36.6273 126.351C36.6057 126.301 36.5945 126.248 36.5945 126.194C36.5945 126.139 36.6057 126.086 36.6273 126.036C36.6489 125.987 36.6806 125.942 36.7203 125.905C36.7599 125.868 36.8068 125.84 36.8579 125.822C36.9089 125.804 36.9632 125.797 37.0171 125.801H45.7912C45.8956 125.799 45.9967 125.838 46.0723 125.91C46.1479 125.981 46.1918 126.08 46.1944 126.185C46.1971 126.289 46.1581 126.39 46.0862 126.466C46.0143 126.541 45.9152 126.585 45.8109 126.588V126.597Z" fill="url(#paint13_linear_1_468)"/>
<path d="M29.1303 118.629H36.438C36.7019 118.629 36.9604 118.704 37.1833 118.845C37.4062 118.986 37.5843 119.188 37.6968 119.427L41.0753 126.592H31.9931C31.8232 126.592 31.6573 126.541 31.5167 126.445C31.3762 126.35 31.2673 126.215 31.2042 126.057L28.5818 119.427C28.5467 119.338 28.5339 119.241 28.5448 119.146C28.5556 119.051 28.5895 118.961 28.6437 118.882C28.6979 118.803 28.7706 118.739 28.8554 118.695C28.9403 118.651 29.0347 118.628 29.1303 118.629Z" fill="url(#paint14_linear_1_468)"/>
<path d="M34.2768 122.303C34.4341 122.794 34.3183 123.273 34.0146 123.369C33.7108 123.465 33.3393 123.151 33.1798 122.654C33.0202 122.158 33.1382 121.684 33.442 121.588C33.7458 121.492 34.1173 121.811 34.2768 122.303Z" fill="url(#paint15_linear_1_468)"/>
<path d="M60.0175 88.0255C59.7553 88.4123 58.7173 97.1712 58.5534 100.405C58.551 100.457 58.5592 100.509 58.5773 100.557C58.5955 100.606 58.6233 100.65 58.659 100.687C58.6948 100.725 58.7377 100.754 58.7853 100.775C58.8329 100.795 58.8841 100.805 58.9358 100.805C59.0273 100.805 59.1158 100.773 59.1855 100.714C59.2552 100.654 59.3015 100.572 59.3161 100.482L61.2151 88.3053L60.0175 88.0255Z" fill="url(#paint16_linear_1_468)"/>
<path d="M68.3699 88.0255C68.63 88.4123 69.6702 97.1712 69.8319 100.405C69.8343 100.457 69.8261 100.509 69.808 100.557C69.7898 100.606 69.762 100.65 69.7263 100.687C69.6905 100.725 69.6475 100.754 69.6 100.775C69.5524 100.795 69.5012 100.805 69.4495 100.805C69.3582 100.805 69.27 100.773 69.2006 100.714C69.1313 100.654 69.0855 100.572 69.0714 100.482L67.1702 88.3053L68.3699 88.0255Z" fill="url(#paint17_linear_1_468)"/>
<path d="M58.4463 87.3439V87.4379C58.4588 87.7799 58.6046 88.1034 58.8524 88.3394C59.1003 88.5754 59.4306 88.7052 59.7728 88.701L68.5556 88.8518C68.8946 88.8695 69.2273 88.7551 69.4837 88.5325C69.7401 88.31 69.9001 87.9967 69.9302 87.6586V87.5712C69.9302 87.3979 69.8959 87.2263 69.8292 87.0663C69.7624 86.9064 69.6647 86.7613 69.5415 86.6393C69.4184 86.5174 69.2723 86.4211 69.1117 86.356C68.9511 86.2909 68.7792 86.2582 68.6059 86.26L59.8231 86.0982C59.6508 86.0894 59.4785 86.1147 59.3161 86.1725C59.1536 86.2304 59.0041 86.3197 58.8762 86.4354C58.7483 86.5511 58.6445 86.6909 58.5708 86.8468C58.497 87.0027 58.4547 87.1716 58.4463 87.3439Z" fill="url(#paint18_linear_1_468)"/>
<path d="M75.5314 100.084C73.9711 100.084 73.2805 99.9511 72.9702 99.8287C73.0008 99.9593 73.0747 100.076 73.1798 100.159C73.2849 100.242 73.4152 100.288 73.5493 100.288H79.0717C79.113 100.288 79.1537 100.278 79.1908 100.26C79.2279 100.242 79.2602 100.215 79.2854 100.183C79.3105 100.15 79.3278 100.112 79.3358 100.071C79.3439 100.031 79.3425 99.9888 79.3317 99.9489C78.7002 100.001 77.3627 100.084 75.5314 100.084Z" fill="url(#paint19_linear_1_468)"/>
<path d="M79.3316 99.951C79.3217 99.9173 79.3062 99.8855 79.2857 99.857C78.8639 99.3194 78.0204 98.4759 76.8687 98.4912C75.186 98.5152 74.5982 98.7097 73.2891 98.5021L72.981 99.5248C72.9503 99.624 72.9465 99.7296 72.9701 99.8308C73.2804 99.9532 73.971 100.086 75.5313 100.086C77.3626 100.084 78.7 100.001 79.3316 99.951Z" fill="url(#paint20_linear_1_468)"/>
<path d="M73.6671 97.3986L73.2891 98.6879C73.2891 98.6879 74.1282 99.0703 74.8669 98.7644L75.0133 97.6477L73.6671 97.3986Z" fill="url(#paint21_linear_1_468)"/>
<path d="M85.1164 99.2757C83.8992 100.253 83.2785 100.587 82.9617 100.681C83.0659 100.764 83.1954 100.81 83.3288 100.81C83.4623 100.81 83.5917 100.764 83.6959 100.681L88.0032 97.2215C88.0358 97.1966 88.0623 97.1646 88.0805 97.1278C88.0987 97.091 88.1081 97.0506 88.1081 97.0095C88.1081 96.9685 88.0987 96.928 88.0805 96.8913C88.0623 96.8545 88.0358 96.8224 88.0032 96.7976C87.5334 97.2237 86.5434 98.1284 85.1164 99.2757Z" fill="url(#paint22_linear_1_468)"/>
<path d="M87.9921 96.791C87.9643 96.7693 87.9323 96.7537 87.8981 96.7452C87.2425 96.5922 86.0515 96.4676 85.1642 97.1997C83.8662 98.2727 83.5231 98.7819 82.3801 99.4506L82.7779 100.438C82.816 100.534 82.8794 100.618 82.9614 100.681C83.2783 100.583 83.8989 100.244 85.1162 99.2758C86.5432 98.1285 87.5331 97.2237 87.9921 96.791Z" fill="url(#paint23_linear_1_468)"/>
<path d="M65.5598 82.7132C65.5598 82.7132 74.9086 83.4758 76.8251 84.3784C78.7417 85.2809 75.2604 97.9274 75.2604 97.9274C75.2604 97.9274 74.7382 98.1788 73.5777 97.816C73.5777 97.816 74.7687 88.4803 73.8815 86.4523L63.7612 84.7958L65.5598 82.7132Z" fill="url(#paint24_linear_1_468)"/>
<path d="M81.4514 97.6804C81.5388 97.7591 82.3802 99.4571 82.3802 99.4571C82.3802 99.4571 83.3177 99.2538 83.5078 98.6616L82.6643 97.1319L81.4514 97.6804Z" fill="url(#paint25_linear_1_468)"/>
<path d="M59.9306 82.6344C59.7283 83.1834 59.629 83.7649 59.6377 84.3499C59.6514 85.0001 59.9116 85.6209 60.3655 86.0866C60.8195 86.5524 61.4334 86.8283 62.0831 86.8586L73.1343 87.3613C73.2477 87.3665 73.3564 87.408 73.4445 87.4796C73.5326 87.5512 73.5955 87.6491 73.6239 87.759C73.8839 88.7643 75.1536 91.8478 81.3577 98.0038C81.4378 98.0836 81.5427 98.1338 81.6551 98.1461C81.7675 98.1584 81.8807 98.1321 81.9762 98.0716L82.8503 97.5121C82.8951 97.4845 82.9273 97.4405 82.94 97.3894C82.9526 97.3383 82.9448 97.2843 82.9181 97.239L76.4845 86.2511C76.1456 85.6934 75.6021 85.2903 74.97 85.1279L65.5512 82.724L59.9306 82.6344Z" fill="url(#paint26_linear_1_468)"/>
<path d="M72.7496 65.7178C72.7496 65.7178 69.6377 67.5644 68.4292 68.5784L70.9249 69.9705C70.9249 69.9705 72.2732 68.4123 73.5472 67.7633L72.7496 65.7178Z" fill="url(#paint27_linear_1_468)"/>
<path d="M59.7249 82.7132C59.7249 82.7132 62.7078 83.4387 65.5553 82.7132C65.5553 82.7132 69.5414 77.3569 71.082 75.8993C71.082 75.8993 73.5405 79.7782 79.0148 80.329L79.3185 79.6471C79.3185 79.6471 74.961 77.6388 73.6214 74.5509C72.2818 71.4631 71.7442 70.1453 70.5248 69.3433C69.7643 68.8428 69.3097 68.4998 69.0737 68.314C69.0124 68.2654 68.9377 68.2366 68.8596 68.2315C68.7815 68.2264 68.7037 68.2453 68.6366 68.2856C67.332 69.0745 61.2393 73.2485 59.7249 82.7132Z" fill="url(#paint28_linear_1_468)"/>
<path d="M70.9247 76.1221C70.8494 76.1223 70.7751 76.105 70.7076 76.0717C70.6401 76.0383 70.5813 75.9897 70.5357 75.9298C69.9059 75.0919 69.3873 74.1759 68.9928 73.2047C68.9697 73.1446 68.9587 73.0805 68.9604 73.0161C68.962 72.9517 68.9764 72.8883 69.0025 72.8295C69.0287 72.7706 69.0662 72.7175 69.1129 72.6731C69.1596 72.6288 69.2146 72.5941 69.2748 72.571C69.3349 72.5479 69.399 72.5368 69.4633 72.5385C69.5277 72.5402 69.5912 72.5545 69.65 72.5807C69.7089 72.6068 69.762 72.6444 69.8063 72.6911C69.8507 72.7378 69.8854 72.7928 69.9085 72.8529C70.2699 73.7392 70.7421 74.5763 71.3137 75.3442C71.3527 75.3952 71.3813 75.4535 71.3978 75.5156C71.4143 75.5778 71.4184 75.6425 71.4099 75.7063C71.4014 75.77 71.3804 75.8314 71.3481 75.887C71.3159 75.9426 71.273 75.9913 71.2219 76.0303C71.136 76.0936 71.0313 76.126 70.9247 76.1221Z" fill="#F2BD4A"/>
<path d="M78.6892 79.2909L79.3055 79.1249L81.1761 78.6878C81.4008 78.6371 81.6364 78.6772 81.8317 78.7992L83.4401 79.811H78.9973L78.6892 79.2909Z" fill="url(#paint29_linear_1_468)"/>
<path d="M75.7893 64.363C75.7893 64.4241 74.9916 68.373 74.9916 68.373L72.7451 67.866L72.9637 64.0089C72.9637 64.0089 75.6429 63.3533 75.7893 64.363Z" fill="url(#paint30_linear_1_468)"/>
<path d="M73.4597 64.8676L73.1909 66.889C73.1865 66.9151 73.1865 66.9417 73.1909 66.9677C73.2127 67.1251 73.3307 67.6648 73.8771 67.5119C74.3709 67.3698 74.8233 67.2496 75.1358 67.3458C75.2037 67.3666 75.2614 67.4119 75.2977 67.4729C75.3341 67.5339 75.3465 67.6062 75.3325 67.6758C75.2078 68.3016 75.0346 68.9168 74.8146 69.5158C74.7885 69.582 74.7386 69.636 74.6747 69.6671C74.6107 69.6983 74.5374 69.7043 74.4693 69.6841C73.7807 69.4918 73.117 69.2197 72.4916 68.8733C72.4473 68.8473 72.411 68.8098 72.3863 68.7648C72.3617 68.7198 72.3497 68.6689 72.3517 68.6176C72.3735 68.1063 72.4326 66.5547 72.3823 66.1198C72.332 65.6849 71.836 65.4642 71.6174 65.3812C71.5823 65.3667 71.5504 65.3454 71.5238 65.3183C71.4971 65.2913 71.4762 65.2591 71.4623 65.2238C71.3617 64.9703 71.2219 64.3868 71.9583 64.1464C71.9948 64.1349 72.0285 64.1161 72.0575 64.0912C72.0865 64.0663 72.1102 64.0358 72.1272 64.0015C72.1441 63.9672 72.1539 63.9299 72.1561 63.8917C72.1583 63.8535 72.1527 63.8153 72.1397 63.7793C72.0304 63.4756 71.9846 63.0123 72.5549 62.7566C72.7659 62.6609 73.0028 62.6384 73.2281 62.6926C73.4534 62.7468 73.6541 62.8747 73.7984 63.056C73.8449 63.1042 73.9066 63.1349 73.9731 63.1428C74.0396 63.1508 74.1068 63.1356 74.1633 63.0997C74.2006 63.0728 74.2453 63.0584 74.2912 63.0584C74.3371 63.0584 74.3818 63.0728 74.419 63.0997C74.4528 63.1195 74.4903 63.1321 74.5291 63.1367C74.568 63.1412 74.6074 63.1376 74.6449 63.1261C74.6823 63.1146 74.7169 63.0954 74.7465 63.0698C74.7761 63.0442 74.8 63.0127 74.8167 62.9773C74.896 62.7912 75.039 62.6395 75.22 62.5494C75.4011 62.4593 75.6083 62.4367 75.8045 62.4856C76.8098 62.6582 76.9256 63.7728 76.659 64.4262C76.3924 65.0796 75.3128 64.8305 74.7709 64.5027C74.36 64.2513 73.8246 64.5027 73.593 64.6534C73.5556 64.6763 73.5242 64.7076 73.501 64.7448C73.4779 64.782 73.4637 64.824 73.4597 64.8676Z" fill="url(#paint31_linear_1_468)"/>
<path d="M72.2926 66.8672C72.2926 66.8672 72.7056 65.709 72.2817 65.4249C71.8577 65.1408 71.2261 65.2872 71.366 66.1264C71.5387 67.1622 72.2926 66.8672 72.2926 66.8672Z" fill="url(#paint32_linear_1_468)"/>
<path d="M76.9738 80.6873H76.9957H86.4822C86.5946 80.6873 86.7025 80.6426 86.782 80.5631C86.8615 80.4836 86.9061 80.3758 86.9061 80.2633C86.9061 80.1509 86.8615 80.0431 86.782 79.9636C86.7025 79.884 86.5946 79.8394 86.4822 79.8394H76.9935C76.881 79.8368 76.7722 79.8789 76.6908 79.9566C76.6095 80.0343 76.5623 80.1411 76.5597 80.2535C76.5571 80.3659 76.5992 80.4748 76.6769 80.5562C76.7546 80.6375 76.8614 80.6847 76.9738 80.6873Z" fill="url(#paint33_linear_1_468)"/>
<path d="M90.1578 71.3953L90.1469 71.415L86.1674 80.0208C86.1199 80.1228 86.1148 80.2395 86.1533 80.3453C86.1918 80.451 86.2708 80.5371 86.3728 80.5846C86.4748 80.6322 86.5915 80.6372 86.6973 80.5987C86.803 80.5602 86.8891 80.4812 86.9366 80.3792L90.927 71.7712C90.9691 71.6717 90.9715 71.5599 90.9339 71.4587C90.8963 71.3574 90.8215 71.2743 90.7248 71.2264C90.628 71.1784 90.5166 71.1692 90.4132 71.2006C90.3099 71.232 90.2225 71.3016 90.1687 71.3953H90.1578Z" fill="url(#paint34_linear_1_468)"/>
<path d="M81.1981 81.1636C81.1566 81.334 77.1968 96.1812 76.1937 99.9465C76.1662 100.047 76.1622 100.153 76.1822 100.256C76.2023 100.358 76.2457 100.455 76.3091 100.538C76.3725 100.621 76.4543 100.689 76.548 100.735C76.6417 100.781 76.7448 100.805 76.8493 100.805C77.0005 100.805 77.1471 100.754 77.2659 100.66C77.3847 100.567 77.4688 100.436 77.5049 100.29L81.8996 82.4704L81.1981 81.1636Z" fill="url(#paint35_linear_1_468)"/>
<path d="M83.3658 81.1636C83.4074 81.334 87.3672 96.1812 88.3702 99.9465C88.3978 100.047 88.4017 100.153 88.3817 100.256C88.3617 100.358 88.3183 100.455 88.2549 100.538C88.1915 100.621 88.1097 100.689 88.016 100.735C87.9223 100.781 87.8192 100.805 87.7146 100.805C87.5635 100.805 87.4169 100.754 87.2981 100.66C87.1793 100.567 87.0951 100.436 87.059 100.29L82.6709 82.4704L83.3658 81.1636Z" fill="url(#paint36_linear_1_468)"/>
<path d="M83.5295 80.6764H81.0645V82.6585C81.0642 82.7257 81.0771 82.7922 81.1025 82.8544C81.128 82.9165 81.1654 82.9731 81.2127 83.0208C81.26 83.0684 81.3162 83.1063 81.3781 83.1323C81.44 83.1583 81.5065 83.1718 81.5736 83.1721H81.9124V87.628C81.9121 87.6788 81.9218 87.7291 81.941 87.7761C81.9601 87.8232 81.9884 87.866 82.0241 87.9021C82.0598 87.9382 82.1023 87.967 82.1491 87.9867C82.1959 88.0064 82.2462 88.0167 82.297 88.017C82.3998 88.0164 82.4982 87.9751 82.5706 87.9022C82.6431 87.8294 82.6838 87.7308 82.6838 87.628V83.1721H82.8542C82.9435 83.1715 83.0318 83.1534 83.114 83.1187C83.1962 83.084 83.2708 83.0334 83.3335 82.9699C83.3963 82.9064 83.4458 82.8312 83.4795 82.7485C83.5131 82.6658 83.5301 82.5773 83.5295 82.4881V80.6764Z" fill="url(#paint37_linear_1_468)"/>
<path d="M75.0025 80.1977H88.7701C88.864 80.1978 88.9552 80.2293 89.0293 80.2871C89.1033 80.3449 89.1559 80.4257 89.1788 80.5168L89.3711 81.2707C89.3856 81.3336 89.3861 81.3989 89.3724 81.4619C89.3588 81.525 89.3313 81.5842 89.292 81.6354C89.2528 81.6866 89.2026 81.7284 89.1453 81.758C89.0879 81.7875 89.0247 81.8039 88.9603 81.8061L74.8321 81.7275C74.7684 81.7245 74.7062 81.7077 74.6498 81.6782C74.5933 81.6486 74.544 81.6071 74.5053 81.5565C74.4666 81.5059 74.4394 81.4475 74.4256 81.3853C74.4118 81.3231 74.4118 81.2586 74.4256 81.1964L74.5939 80.5234C74.6155 80.431 74.6676 80.3487 74.7417 80.2896C74.8159 80.2306 74.9077 80.1982 75.0025 80.1977Z" fill="url(#paint38_linear_1_468)"/>
<path d="M178.478 91.9942H177.661V100.825H178.478V91.9942Z" fill="url(#paint39_linear_1_468)"/>
<path d="M181.645 100.996H174.494C174.494 100.855 174.55 100.72 174.65 100.62C174.749 100.521 174.884 100.465 175.025 100.465H181.114C181.254 100.465 181.389 100.521 181.489 100.62C181.589 100.72 181.645 100.855 181.645 100.996Z" fill="url(#paint40_linear_1_468)"/>
<path d="M181.828 90.0165H174.592C174.107 90.0165 173.714 90.4098 173.714 90.895V91.6883C173.714 92.1734 174.107 92.5668 174.592 92.5668H181.828C182.313 92.5668 182.707 92.1734 182.707 91.6883V90.895C182.707 90.4098 182.313 90.0165 181.828 90.0165Z" fill="url(#paint41_linear_1_468)"/>
<path d="M172.051 86.0983C171.127 86.2878 170.251 86.6593 169.472 87.1909C169.366 87.2613 169.282 87.3601 169.229 87.4759C169.176 87.5918 169.157 87.7202 169.173 87.8465C169.624 91.1917 170.66 94.4316 172.232 97.4183C172.349 97.634 172.384 97.8847 172.331 98.1241L171.946 99.9161L171.234 100.585H173.071L174.295 97.274L173.771 97.108C173.573 97.045 173.401 96.9218 173.277 96.7556C173.153 96.5894 173.084 96.3886 173.08 96.1814L173.019 92.628C173.03 91.6483 172.686 90.6978 172.049 89.9532L174.984 89.8111L172.051 86.0983Z" fill="url(#paint42_linear_1_468)"/>
<path d="M170.495 100.919C170.329 101.138 172.298 101.426 173.292 100.948C173.292 100.948 174.671 98.5437 174.671 97.3133C174.671 97.3133 174.562 97.062 173.751 97.1188C173.751 97.1188 173.29 99.9598 172.8 100.277C172.311 100.594 171.432 100.309 171.432 100.309C171.432 100.309 170.74 100.596 170.495 100.919Z" fill="url(#paint43_linear_1_468)"/>
<path d="M174.593 90.0165C174.577 89.9903 171.433 89.6384 171.433 89.6384C171.48 90.4028 171.406 91.1698 171.214 91.9112C170.893 93.2224 166.275 98.9283 166.275 98.9283L166.76 100.458C165.346 100.977 163.811 101.075 162.342 100.74L165.342 98.9392C165.342 98.9392 168.15 89.3718 169.87 87.6651L173.021 86.5724L174.593 90.0165Z" fill="url(#paint44_linear_1_468)"/>
<path d="M181.645 84.4483C181.645 84.4483 183.456 87.1428 183.611 88.3819C183.767 89.621 183.115 90.1105 181.208 90.1935C179.3 90.2765 174.232 90.2744 174.232 90.2744L169.901 86.5724C169.901 86.5724 173.058 85.4448 173.878 85.1279C174.697 84.811 181.645 84.4483 181.645 84.4483Z" fill="url(#paint45_linear_1_468)"/>
<path d="M166.588 99.9467C166.588 99.9467 167.108 100.451 166.756 101.013C166.756 101.013 162.628 101.745 161.511 101.413C161.511 101.413 161.743 100.882 163.006 100.277L162.912 100.349C162.886 100.368 162.867 100.396 162.858 100.427C162.849 100.458 162.85 100.491 162.861 100.522C162.873 100.552 162.893 100.578 162.921 100.596C162.948 100.613 162.98 100.622 163.013 100.62C163.83 100.572 165.55 100.419 166.588 99.9467Z" fill="url(#paint46_linear_1_468)"/>
<path d="M176.745 84.092C176.745 84.092 174.636 82.0837 173.596 80.7528C173.32 80.3976 173.133 79.9817 173.05 79.5397C172.967 79.0977 172.991 78.6423 173.119 78.2113C173.594 76.6138 174.431 74.9595 174.511 74.7017C174.629 74.3083 176.996 74.3236 176.996 74.3236C176.996 74.3236 181.651 77.3459 183.48 82.4618L181.426 83.1021C181.426 83.1021 180.211 81.0719 179.009 79.7607C179.009 79.7607 181.087 82.5055 181.161 83.6287L176.745 84.092Z" fill="url(#paint47_linear_1_468)"/>
<path d="M174.236 72.4967C174.263 72.5776 174.879 74.6252 174.927 74.6668C174.975 74.7083 176.282 74.7804 176.894 74.3608L175.851 72.1755L174.236 72.4967Z" fill="url(#paint48_linear_1_468)"/>
<path d="M175.242 68.1981C175.242 68.1981 174.127 68.668 173.369 70.2786C172.611 71.8891 173.177 72.6322 173.887 72.7349C174.597 72.8376 175.661 72.8223 176.787 71.7821C177.912 70.7419 176.691 67.6387 175.242 68.1981Z" fill="url(#paint49_linear_1_468)"/>
<path d="M176.031 70.9211C176.031 70.9211 176.872 68.5653 174.781 68.5369L174.291 68.88C174.291 68.88 173.524 67.5688 174.781 66.9503C175.126 66.7917 175.501 66.7082 175.88 66.7055C176.26 66.7028 176.636 66.7809 176.983 66.9347C177.331 67.0885 177.641 67.3144 177.894 67.5974C178.148 67.8804 178.338 68.2141 178.452 68.5762C178.987 70.2721 178.671 71.3669 177.783 72.1777C176.896 72.9884 176.527 72.0684 176.527 72.0684C176.527 72.0684 177.012 71.3101 176.813 70.9036C176.614 70.4971 176.157 70.9888 176.157 70.9888L176.031 70.9211Z" fill="url(#paint50_linear_1_468)"/>
<path d="M176.264 71.1838C176.264 71.1838 176.702 69.9701 177.257 70.4534C177.812 70.9367 176.796 71.5752 176.382 71.783L176.264 71.1838Z" fill="url(#paint51_linear_1_468)"/>
<path d="M172.447 84.2406L173.998 82.748L176.142 83.6527C176.142 83.6527 178.277 83.9827 179.499 83.6527L180.72 83.3228L183.48 82.4617L183.917 83.6877C183.971 83.839 183.974 84.0038 183.926 84.157C183.877 84.3101 183.78 84.4432 183.649 84.5356C183.429 84.701 183.196 84.8472 182.951 84.9727C182.589 85.1322 173.992 84.8612 173.992 84.8612L172.447 84.2406Z" fill="url(#paint52_linear_1_468)"/>
<path d="M178.288 68.8342C178.229 68.7699 178.189 68.6907 178.171 68.6051C178.154 68.5196 178.161 68.431 178.19 68.3488C178.219 68.2667 178.271 68.1942 178.339 68.1391C178.406 68.0841 178.488 68.0486 178.574 68.0365C179.798 67.8464 181.666 68.0365 182.451 70.6589C183.325 73.6113 183.909 75.0886 184.501 75.3465C184.586 75.3822 184.659 75.4416 184.711 75.5176C184.763 75.5936 184.792 75.683 184.795 75.7751C184.797 75.8672 184.774 75.9582 184.726 76.0371C184.679 76.1161 184.61 76.1798 184.527 76.2206C184.116 76.3725 183.667 76.3879 183.246 76.2643C178.734 75.294 179.864 70.4513 178.288 68.8342Z" fill="url(#paint53_linear_1_468)"/>
<path d="M178.314 84.9465H178.292L169.3 84.9356C169.193 84.9356 169.091 84.8932 169.015 84.8178C168.94 84.7424 168.897 84.6401 168.897 84.5335C168.897 84.4268 168.94 84.3246 169.015 84.2491C169.091 84.1737 169.193 84.1314 169.3 84.1314H178.292C178.394 84.136 178.491 84.1792 178.563 84.2523C178.634 84.3255 178.676 84.4231 178.678 84.5254C178.681 84.6277 178.644 84.7272 178.576 84.8038C178.508 84.8803 178.414 84.9282 178.312 84.9378L178.314 84.9465Z" fill="url(#paint54_linear_1_468)"/>
<path d="M161.218 76.7821H168.705C168.976 76.7821 169.241 76.8589 169.469 77.0036C169.698 77.1483 169.881 77.3549 169.997 77.5994L173.458 84.94H164.153C163.979 84.939 163.81 84.8863 163.666 84.7886C163.523 84.6909 163.411 84.5526 163.347 84.3914L160.661 77.5994C160.625 77.5087 160.612 77.4105 160.622 77.3134C160.633 77.2163 160.667 77.1233 160.722 77.0426C160.777 76.9619 160.851 76.896 160.938 76.8505C161.024 76.8051 161.121 76.7816 161.218 76.7821Z" fill="url(#paint55_linear_1_468)"/>
<path d="M166.494 80.5453C166.655 81.0501 166.535 81.5396 166.225 81.6379C165.915 81.7363 165.532 81.4194 165.37 80.9058C165.209 80.3923 165.327 79.9137 165.637 79.8132C165.947 79.7126 166.33 80.0404 166.494 80.5453Z" fill="url(#paint56_linear_1_468)"/>
<path d="M190.882 85.2743C190.892 85.2234 190.89 85.171 190.876 85.121C190.862 85.071 190.837 85.0248 190.803 84.9858C190.767 84.9458 190.723 84.9138 190.674 84.892C190.624 84.8702 190.571 84.859 190.517 84.8591H152.995C152.924 84.8586 152.855 84.8752 152.792 84.9076C152.729 84.9399 152.675 84.987 152.634 85.0448C152.596 85.1002 152.573 85.1649 152.568 85.2322C152.563 85.2994 152.576 85.3668 152.606 85.4273L153.012 86.2533C153.062 86.3478 153.136 86.4269 153.228 86.4816C153.319 86.5364 153.424 86.5648 153.53 86.5636H190.259C190.356 86.5638 190.451 86.5317 190.527 86.4723C190.604 86.413 190.659 86.3298 190.683 86.2358L190.882 85.2743Z" fill="url(#paint57_linear_1_468)"/>
<path d="M155.097 102.661C155.052 102.661 155.007 102.651 154.966 102.632C154.887 102.596 154.825 102.53 154.793 102.448C154.761 102.367 154.762 102.276 154.796 102.195L161.701 85.7682C161.718 85.7274 161.742 85.6903 161.773 85.6592C161.804 85.6281 161.842 85.6037 161.882 85.5873C161.923 85.571 161.967 85.5631 162.011 85.5641C162.055 85.5652 162.098 85.5751 162.138 85.5933C162.218 85.6301 162.28 85.696 162.312 85.7774C162.344 85.8587 162.344 85.9493 162.311 86.0304L155.399 102.458C155.374 102.517 155.332 102.569 155.279 102.605C155.225 102.641 155.162 102.66 155.097 102.661Z" fill="url(#paint58_linear_1_468)"/>
<path d="M162.873 102.661C162.808 102.66 162.744 102.64 162.69 102.604C162.637 102.568 162.594 102.517 162.569 102.458L155.661 86.0304C155.628 85.9494 155.627 85.8586 155.659 85.7771C155.691 85.6956 155.754 85.6297 155.834 85.5933C155.874 85.5751 155.917 85.5652 155.961 85.5641C156.005 85.5631 156.049 85.571 156.09 85.5873C156.13 85.6037 156.167 85.6281 156.199 85.6592C156.23 85.6903 156.254 85.7274 156.271 85.7682L163.176 102.195C163.21 102.276 163.211 102.367 163.179 102.449C163.147 102.531 163.084 102.596 163.004 102.632C162.963 102.652 162.918 102.661 162.873 102.661Z" fill="url(#paint59_linear_1_468)"/>
<path d="M182.291 102.661C182.247 102.661 182.203 102.651 182.162 102.632C182.082 102.596 182.019 102.531 181.987 102.449C181.955 102.367 181.956 102.276 181.99 102.195L188.895 85.7682C188.912 85.7274 188.936 85.6903 188.967 85.6592C188.999 85.6281 189.036 85.6037 189.077 85.5873C189.117 85.571 189.161 85.5631 189.205 85.5641C189.249 85.5652 189.292 85.5751 189.332 85.5933C189.413 85.6293 189.475 85.6951 189.508 85.7768C189.54 85.8584 189.539 85.9494 189.505 86.0304L182.599 102.458C182.574 102.518 182.531 102.57 182.476 102.606C182.422 102.642 182.357 102.661 182.291 102.661Z" fill="url(#paint60_linear_1_468)"/>
<path d="M190.071 102.661C190.007 102.66 189.943 102.641 189.89 102.605C189.836 102.569 189.794 102.517 189.77 102.458L182.864 86.0304C182.83 85.9494 182.829 85.8584 182.861 85.7768C182.894 85.6951 182.957 85.6293 183.037 85.5933C183.077 85.5751 183.12 85.5652 183.164 85.5641C183.208 85.5631 183.252 85.571 183.293 85.5873C183.333 85.6037 183.371 85.6281 183.402 85.6592C183.433 85.6903 183.457 85.7274 183.474 85.7682L190.379 102.195C190.413 102.276 190.413 102.367 190.381 102.449C190.349 102.53 190.286 102.596 190.207 102.632C190.164 102.652 190.118 102.661 190.071 102.661Z" fill="url(#paint61_linear_1_468)"/>
<path d="M203.271 105.03C203.246 105.073 201.756 106.171 201.756 106.171C201.756 106.171 202.086 108.524 203.421 109.449C204.89 110.469 206.966 108.605 206.966 108.605C206.966 108.605 208.616 108.998 209.494 105.561C209.695 104.774 208.533 104.706 207.13 104.853C205.32 105.045 203.271 105.03 203.271 105.03Z" fill="url(#paint62_linear_1_468)"/>
<path d="M200.486 113.061C201.068 112.658 201.714 112.357 202.396 112.171C202.652 112.102 204.038 112.504 204.894 112.484C206.07 112.458 207.268 111.922 208.236 112.165C209.016 112.328 209.762 112.624 210.443 113.039C211.804 114.007 212.604 115.812 213.091 117.602C212.495 118.193 211.786 118.658 211.007 118.97L210.788 127.665L205.646 130.288L199.783 127.351L200.001 118.854C200.001 118.854 198.137 117.98 198.002 117.672C197.866 117.364 198.841 114.191 200.486 113.061Z" fill="url(#paint63_linear_1_468)"/>
<path d="M198.078 117.633C198.078 117.633 195.583 124.56 201.276 127.401C202.458 127.244 202.003 125.281 202.003 125.281C202.003 125.281 199.529 124.733 200.272 118.959C199.586 118.395 198.078 117.633 198.078 117.633Z" fill="url(#paint64_linear_1_468)"/>
<path d="M212.971 117.633C212.971 117.633 214.689 124.859 209.772 127.401C208.59 127.244 209.044 125.281 209.044 125.281C209.044 125.281 211.039 124.298 210.777 118.959C211.461 118.395 212.971 117.633 212.971 117.633Z" fill="url(#paint65_linear_1_468)"/>
<path d="M209.169 120.275H201.535C200.53 120.275 199.715 121.09 199.715 122.095V126.068C199.715 127.073 200.53 127.888 201.535 127.888H209.169C210.174 127.888 210.989 127.073 210.989 126.068V122.095C210.989 121.09 210.174 120.275 209.169 120.275Z" fill="url(#paint66_linear_1_468)"/>
<path d="M215.934 130.146C214.645 129.849 211.662 130.008 211.662 130.008L211.54 130.338L211.341 131.971C211.341 131.971 214.182 132.482 215.58 132.48C215.674 132.507 215.774 132.504 215.867 132.472C215.959 132.44 216.039 132.38 216.096 132.301C216.691 131.651 216.518 130.699 215.934 130.146Z" fill="url(#paint67_linear_1_468)"/>
<path d="M216.064 130.178C216.022 130.165 215.978 130.157 215.935 130.146C216.518 130.699 216.691 131.651 216.096 132.3C216.058 132.343 216.016 132.383 215.972 132.421C217.023 132.095 217.147 130.482 216.064 130.178Z" fill="url(#paint68_linear_1_468)"/>
<path d="M210.806 129.916L211.31 129.938C211.448 129.946 211.582 129.982 211.705 130.045C211.827 130.109 211.935 130.197 212.021 130.305C212.205 130.536 212.297 130.827 212.281 131.122C212.27 131.357 212.173 131.579 212.007 131.745C211.93 131.822 211.837 131.88 211.735 131.918C211.633 131.956 211.524 131.971 211.415 131.964L210.644 131.909L210.806 129.916Z" fill="url(#paint69_linear_1_468)"/>
<path d="M213.51 131.652C213.493 131.651 213.477 131.645 213.464 131.633C213.452 131.622 213.443 131.607 213.44 131.591C213.305 131.202 213.088 130.847 212.803 130.55C212.789 130.534 212.781 130.513 212.781 130.491C212.781 130.469 212.789 130.448 212.803 130.432C212.81 130.424 212.818 130.418 212.827 130.414C212.837 130.41 212.847 130.408 212.857 130.408C212.867 130.408 212.877 130.41 212.886 130.414C212.895 130.418 212.904 130.424 212.91 130.432C213.217 130.75 213.449 131.132 213.588 131.552C213.594 131.572 213.592 131.594 213.582 131.612C213.572 131.631 213.556 131.645 213.536 131.652H213.51Z" fill="url(#paint70_linear_1_468)"/>
<path d="M212.827 131.608H212.805C212.785 131.6 212.77 131.585 212.761 131.565C212.752 131.546 212.75 131.524 212.757 131.503C212.925 130.902 213.562 130.423 213.59 130.41C213.598 130.404 213.608 130.4 213.617 130.398C213.627 130.396 213.637 130.396 213.647 130.399C213.657 130.401 213.666 130.405 213.674 130.411C213.682 130.418 213.688 130.425 213.693 130.434C213.704 130.453 213.708 130.474 213.705 130.496C213.701 130.517 213.69 130.536 213.673 130.55C213.673 130.55 213.052 131.018 212.899 131.563C212.893 131.577 212.883 131.589 212.87 131.597C212.857 131.605 212.842 131.609 212.827 131.608Z" fill="url(#paint71_linear_1_468)"/>
<path d="M214.884 131.733C214.866 131.732 214.849 131.725 214.836 131.713C214.823 131.701 214.815 131.685 214.812 131.668C214.696 131.271 214.495 130.905 214.223 130.594C214.21 130.577 214.202 130.556 214.202 130.535C214.202 130.513 214.21 130.492 214.223 130.476C214.23 130.468 214.238 130.462 214.247 130.457C214.257 130.453 214.267 130.451 214.277 130.451C214.287 130.451 214.297 130.453 214.307 130.457C214.316 130.462 214.324 130.468 214.331 130.476C214.622 130.81 214.836 131.204 214.958 131.63C214.963 131.651 214.96 131.673 214.949 131.692C214.939 131.71 214.922 131.724 214.901 131.731L214.884 131.733Z" fill="url(#paint72_linear_1_468)"/>
<path d="M214.2 131.654H214.176C214.156 131.645 214.141 131.629 214.133 131.609C214.125 131.589 214.124 131.567 214.132 131.547C214.327 130.957 214.983 130.511 215.007 130.493C215.015 130.487 215.025 130.484 215.035 130.482C215.045 130.48 215.055 130.481 215.065 130.484C215.074 130.486 215.083 130.491 215.091 130.498C215.099 130.504 215.105 130.512 215.109 130.522C215.12 130.54 215.124 130.562 215.119 130.584C215.114 130.605 215.101 130.623 215.083 130.635C215.083 130.635 214.445 131.073 214.267 131.606C214.262 131.62 214.252 131.631 214.24 131.64C214.228 131.648 214.214 131.653 214.2 131.654Z" fill="url(#paint73_linear_1_468)"/>
<path d="M193.826 129.988C195.122 129.733 198.1 129.988 198.1 129.988L198.212 130.321L198.373 131.96C198.373 131.96 195.521 132.383 194.121 132.34C193.988 132.336 193.856 132.312 193.73 132.27C193.688 132.231 193.649 132.189 193.609 132.145C193.03 131.47 193.227 130.524 193.826 129.988Z" fill="url(#paint74_linear_1_468)"/>
<path d="M193.697 130.023C193.736 130.012 193.78 130.004 193.826 129.995C193.227 130.53 193.032 131.476 193.607 132.145C193.646 132.189 193.686 132.23 193.727 132.27C192.689 131.903 192.604 130.288 193.697 130.023Z" fill="url(#paint75_linear_1_468)"/>
<path d="M198.959 129.916H198.452C198.315 129.919 198.18 129.952 198.056 130.011C197.933 130.071 197.823 130.156 197.735 130.261C197.543 130.487 197.443 130.776 197.453 131.072C197.458 131.307 197.55 131.531 197.711 131.702C197.786 131.782 197.876 131.845 197.978 131.886C198.079 131.928 198.187 131.948 198.297 131.944L199.07 131.914L198.959 129.916Z" fill="url(#paint76_linear_1_468)"/>
<path d="M196.212 131.569C196.229 131.568 196.244 131.562 196.257 131.551C196.27 131.541 196.28 131.526 196.284 131.51C196.425 131.126 196.649 130.777 196.94 130.489C196.954 130.472 196.962 130.451 196.962 130.43C196.962 130.408 196.954 130.387 196.94 130.371C196.934 130.363 196.925 130.357 196.916 130.352C196.907 130.348 196.897 130.346 196.887 130.346C196.876 130.346 196.866 130.348 196.857 130.352C196.848 130.357 196.84 130.363 196.833 130.371C196.519 130.677 196.278 131.051 196.129 131.464C196.122 131.484 196.124 131.506 196.133 131.525C196.142 131.544 196.157 131.559 196.177 131.567L196.212 131.569Z" fill="url(#paint77_linear_1_468)"/>
<path d="M196.894 131.554H196.916C196.936 131.546 196.952 131.531 196.962 131.512C196.971 131.494 196.974 131.472 196.969 131.451C196.816 130.845 196.19 130.345 196.164 130.325C196.156 130.318 196.147 130.314 196.137 130.311C196.128 130.308 196.117 130.308 196.107 130.309C196.097 130.311 196.088 130.315 196.08 130.321C196.071 130.326 196.064 130.334 196.059 130.342C196.048 130.361 196.043 130.382 196.046 130.404C196.049 130.425 196.06 130.444 196.076 130.458C196.076 130.458 196.684 130.946 196.824 131.495C196.828 131.511 196.837 131.525 196.85 131.536C196.862 131.547 196.878 131.553 196.894 131.554Z" fill="url(#paint78_linear_1_468)"/>
<path d="M194.839 131.606C194.857 131.606 194.874 131.6 194.887 131.589C194.901 131.578 194.91 131.562 194.914 131.545C195.039 131.153 195.249 130.792 195.528 130.489C195.543 130.473 195.55 130.452 195.55 130.43C195.55 130.408 195.543 130.387 195.528 130.371C195.522 130.363 195.514 130.357 195.505 130.353C195.496 130.349 195.486 130.347 195.476 130.347C195.466 130.347 195.456 130.349 195.447 130.353C195.438 130.357 195.43 130.363 195.423 130.371C195.123 130.696 194.899 131.084 194.767 131.506C194.762 131.526 194.765 131.548 194.775 131.567C194.785 131.585 194.802 131.599 194.822 131.606H194.839Z" fill="url(#paint79_linear_1_468)"/>
<path d="M195.522 131.554H195.546C195.566 131.546 195.582 131.53 195.591 131.511C195.6 131.491 195.601 131.469 195.594 131.449C195.413 130.852 194.768 130.386 194.741 130.356C194.733 130.35 194.724 130.346 194.714 130.344C194.704 130.343 194.694 130.343 194.684 130.345C194.674 130.347 194.665 130.352 194.657 130.357C194.648 130.363 194.642 130.371 194.636 130.38C194.626 130.399 194.622 130.421 194.627 130.442C194.631 130.463 194.643 130.482 194.661 130.495C194.661 130.495 195.288 130.948 195.452 131.491C195.456 131.507 195.464 131.522 195.477 131.533C195.489 131.545 195.505 131.552 195.522 131.554Z" fill="url(#paint80_linear_1_468)"/>
<path d="M216.295 125.028C215.71 123.679 214.28 123.461 213.061 124.09C213.039 124.119 205.325 128.072 198.522 129.805C198.713 130.435 198.82 131.089 198.839 131.748C198.839 131.894 198.839 132.036 198.839 132.185C204.055 131.916 209.717 130.176 214.584 128.647C216.085 128.155 216.944 126.527 216.295 125.028Z" fill="url(#paint81_linear_1_468)"/>
<path d="M210.843 131.85C210.815 131.124 210.965 130.402 211.28 129.748C211.28 129.717 211.299 129.689 211.308 129.661C210.919 129.54 210.419 129.376 209.759 129.154C205.601 127.763 201.574 126.008 197.724 123.909C196.358 123.161 194.805 123.662 194.368 125.279C193.976 126.723 194.833 127.954 196.135 128.389C200.03 129.685 198.002 129.324 199.274 129.733C202.689 130.788 206.938 131.752 210.856 132.014C210.847 131.96 210.845 131.905 210.843 131.85Z" fill="url(#paint82_linear_1_468)"/>
<path d="M202.396 112.171C202.574 112.832 202.972 113.412 203.526 113.813C204.08 114.215 204.755 114.414 205.438 114.376C208.008 114.331 208.236 112.165 208.236 112.165L206.557 111.804L206.418 109.936L203.893 110.122L203.848 111.898L202.396 112.171Z" fill="url(#paint83_linear_1_468)"/>
<path d="M204.247 104.636C204.247 104.636 201.354 110.24 204.787 111.601C207.206 112.558 208.721 107.886 208.284 106.612C207.582 104.645 207.123 104.883 207.123 104.883L204.247 104.636Z" fill="url(#paint84_linear_1_468)"/>
<path d="M208.968 104.127C210.397 104.518 209.186 107.624 207.025 106.885C204.864 106.146 204.027 106.164 203.692 106.754C203.358 107.344 203.284 109.444 202.556 108.406C201.758 107.27 201.315 104.988 202.292 104.254C203.166 103.598 203.371 102.578 204.418 102.613C205.81 102.659 206.887 102.042 207.515 102.488C208.236 102.995 207.917 103.837 208.968 104.127Z" fill="url(#paint85_linear_1_468)"/>
<path d="M203.559 107.237C203.559 107.237 202.943 106.581 202.845 107.372C202.746 108.164 203.063 109.204 203.432 108.638C203.802 108.072 203.559 107.237 203.559 107.237Z" fill="url(#paint86_linear_1_468)"/>
<path d="M206.019 122.336C206.039 122.427 206.041 122.522 206.023 122.615C206.006 122.707 205.97 122.795 205.917 122.873C205.864 122.951 205.796 123.017 205.717 123.067C205.638 123.118 205.549 123.152 205.457 123.167C205.36 123.181 205.262 123.177 205.168 123.153C205.074 123.13 204.985 123.088 204.907 123.03C204.829 122.972 204.763 122.899 204.713 122.816C204.663 122.732 204.631 122.64 204.617 122.544C204.558 122.139 204.741 121.739 205.146 121.669C205.349 121.647 205.553 121.704 205.715 121.828C205.878 121.952 205.986 122.134 206.019 122.336Z" fill="url(#paint87_linear_1_468)"/>
<path d="M111.67 75.9014C111.67 75.8661 111.673 75.8309 111.681 75.7965C112.197 73.7467 114.304 72.6977 114.304 72.6977L115.322 72.7764C115.905 74.5837 116.281 75.4644 116.196 75.9582C116.196 75.9714 116.196 75.9845 116.196 75.9976C114.688 76.1079 113.172 76.0757 111.67 75.9014Z" fill="url(#paint88_linear_1_468)"/>
<path d="M116.185 75.9974C116.167 76.0763 116.127 76.1486 116.07 76.2061C116.012 76.2636 115.94 76.3041 115.862 76.323C114.668 76.5743 112.774 76.3733 111.978 76.2684C111.891 76.2542 111.813 76.2094 111.756 76.142C111.7 76.0747 111.669 75.9892 111.67 75.9012C113.169 76.0748 114.68 76.107 116.185 75.9974Z" fill="url(#paint89_linear_1_468)"/>
<path d="M113.484 71.1155L113.921 73.2571C113.934 73.3309 113.969 73.3987 114.023 73.4507C114.077 73.5026 114.146 73.5359 114.221 73.5456C114.45 73.57 114.682 73.5664 114.911 73.5346C114.968 73.5239 115.022 73.502 115.07 73.4702C115.119 73.4384 115.16 73.3973 115.193 73.3494C115.225 73.3014 115.247 73.2475 115.259 73.1907C115.27 73.134 115.27 73.0756 115.259 73.0189L114.95 71.1155H113.484Z" fill="url(#paint90_linear_1_468)"/>
<path d="M124.822 75.98C123.729 75.9494 123.174 75.8227 122.883 75.7047C122.883 75.8118 122.883 75.9232 122.883 76.0347C122.883 76.0901 122.904 76.1435 122.942 76.184C122.98 76.2246 123.031 76.2493 123.087 76.2532L129.048 76.2139C129.093 76.2103 129.136 76.1957 129.173 76.1714C129.211 76.1472 129.242 76.114 129.264 76.0748C129.285 76.0356 129.297 75.9917 129.297 75.9469C129.298 75.9022 129.287 75.858 129.267 75.8183C127.789 75.9468 126.305 76.0008 124.822 75.98Z" fill="url(#paint91_linear_1_468)"/>
<path d="M129.271 75.8272C129.265 75.8115 129.257 75.7968 129.247 75.7834C128.723 75.047 127.381 73.5828 124.732 72.9425L123.46 72.9032C123.46 72.9032 122.894 73.8866 122.883 75.7091C123.174 75.8272 123.736 75.9539 124.822 75.9845C126.307 76.0068 127.791 75.9543 129.271 75.8272Z" fill="url(#paint92_linear_1_468)"/>
<path d="M123.224 70.9714C123.239 71.0675 123.412 72.5011 123.48 73.0649C123.485 73.1266 123.511 73.1846 123.554 73.2297C123.596 73.2749 123.652 73.3046 123.713 73.314C124.004 73.3541 124.298 73.3497 124.588 73.3009C124.671 73.28 124.745 73.231 124.796 73.1622C124.848 73.0934 124.875 73.0089 124.872 72.9229V70.6632L123.224 70.9714Z" fill="url(#paint93_linear_1_468)"/>
<path d="M114.323 42.9816C114.323 42.9816 112.289 61.0608 113.419 72.359C113.419 72.359 114.776 72.359 115.453 72.1405C115.453 72.1405 117.566 54.4655 118.25 49.413C118.258 49.3744 118.279 49.3395 118.309 49.3145C118.34 49.2895 118.378 49.2758 118.417 49.2758C118.457 49.2758 118.495 49.2895 118.526 49.3145C118.556 49.3395 118.577 49.3744 118.585 49.413C119.428 53.6679 122.737 70.3551 123.137 71.9219C123.137 71.9219 124.266 72.3743 125.169 71.9219C125.169 71.9219 123.362 47.7434 122.007 43.4493L114.323 42.9816Z" fill="url(#paint94_linear_1_468)"/>
<path d="M110.256 21.9675C110.256 21.9675 118.842 20.6104 125.621 22.4199L125.169 29.4239C125.169 29.4239 123.362 39.142 122.007 43.434C122.007 43.434 116.81 44.3388 114.323 42.9817C114.323 42.9817 112.289 30.781 111.159 28.9715C111.159 28.9715 110.029 24.2272 110.256 21.9675Z" fill="#FFBE35"/>
<path d="M116.22 15.7916L115.365 21.5784C115.365 21.5784 117.756 22.6711 119.428 21.5303L119.07 17.4481L116.22 15.7916Z" fill="url(#paint95_linear_1_468)"/>
<path d="M119.905 12.0263C119.931 12.0744 120.447 14.9918 120.763 16.7969C120.795 16.9729 120.788 17.1535 120.744 17.3268C120.701 17.5001 120.621 17.6622 120.51 17.8024C120.399 17.9426 120.26 18.0577 120.101 18.1401C119.943 18.2226 119.768 18.2705 119.59 18.2807L118.897 18.3222C118.283 18.3582 117.678 18.1637 117.2 17.7769C116.722 17.3901 116.405 16.8388 116.312 16.2309L115.812 12.9529C115.812 12.9529 119.251 10.8397 119.905 12.0263Z" fill="url(#paint96_linear_1_468)"/>
<path d="M115.066 12.9682C114.8 12.6382 114.568 12.0941 115.134 11.5434C115.343 11.3328 115.615 11.1959 115.909 11.1533C116.202 11.1107 116.502 11.1648 116.762 11.3074C116.851 11.3508 116.952 11.3639 117.049 11.3445C117.146 11.3252 117.234 11.2745 117.3 11.2003C117.332 11.1616 117.374 11.1321 117.422 11.1148C117.47 11.0976 117.521 11.0931 117.571 11.1019C117.683 11.1145 117.796 11.0827 117.886 11.0134C117.976 10.9441 118.035 10.8426 118.051 10.7304C118.071 10.4696 118.18 10.2236 118.361 10.0349C118.542 9.84618 118.784 9.7266 119.044 9.69677C120.374 9.4389 121.039 10.772 121.01 11.7073C120.982 12.6426 119.529 12.8393 118.701 12.6841C118.093 12.5705 117.568 13.1037 117.332 13.3965C117.29 13.4483 117.26 13.5091 117.245 13.5743C117.23 13.6395 117.23 13.7073 117.245 13.7724L117.464 14.6771C117.334 14.9634 117.172 15.2339 116.981 15.4835C116.858 15.6359 116.689 15.7441 116.5 15.7917C116.251 15.3306 115.558 15.2519 115.235 15.2431C115.174 15.2413 115.114 15.2267 115.059 15.2004C115.004 15.174 114.955 15.1365 114.916 15.0902C114.673 14.8126 114.293 14.1898 115.02 13.5779C115.106 13.5025 115.159 13.3964 115.168 13.2824C115.176 13.1685 115.14 13.0557 115.066 12.9682Z" fill="url(#paint97_linear_1_468)"/>
<path d="M116.732 16.7597C116.732 16.7597 116.701 15.1272 116.041 14.9743C115.381 14.8213 114.669 15.2999 115.232 16.2855C115.936 17.4918 116.732 16.7597 116.732 16.7597Z" fill="url(#paint98_linear_1_468)"/>
<path d="M110.256 21.9675C110.256 21.9675 96.9258 36.43 112.63 41.9654V40.8356C112.63 40.8356 106.753 35.864 111.272 29.0851C111.272 29.0851 110.709 22.6449 110.256 21.9675Z" fill="#FFBE35"/>
<path d="M112.741 40.9493C112.741 40.9493 114.776 39.5923 115.678 40.0446C116.581 40.497 116.583 41.1744 116.583 41.1744C116.583 41.1744 116.131 42.0792 115.453 41.8519C114.776 41.6246 113.194 42.0704 112.516 41.8519C112.516 41.8519 112.289 40.9493 112.741 40.9493Z" fill="url(#paint99_linear_1_468)"/>
<path d="M125.621 22.4199C125.621 22.4199 139.52 36.43 123.814 41.9655V40.8356C123.814 40.8356 129.688 35.864 125.169 29.0851C125.169 29.0851 124.719 23.5497 125.621 22.4199Z" fill="#FFBE35"/>
<path d="M123.7 40.9493C123.7 40.9493 121.668 39.5923 120.763 40.0446C119.859 40.497 119.859 41.1744 119.859 41.1744C119.859 41.1744 120.311 42.0792 120.988 41.8519C121.666 41.6246 123.248 42.0704 123.928 41.8519C123.928 41.8519 124.153 40.9493 123.7 40.9493Z" fill="url(#paint100_linear_1_468)"/>
<defs>
<linearGradient id="paint0_linear_1_468" x1="96.7356" y1="118.727" x2="189.496" y2="118.072" gradientUnits="userSpaceOnUse">
<stop stop-color="#FDF53F"/>
<stop offset="1" stop-color="#D93C65"/>
</linearGradient>
<linearGradient id="paint1_linear_1_468" x1="24.1587" y1="128.885" x2="37.7253" y2="136.627" gradientUnits="userSpaceOnUse">
<stop stop-color="#F9B776"/>
<stop offset="1" stop-color="#F47960"/>
</linearGradient>
<linearGradient id="paint2_linear_1_468" x1="23903.4" y1="-5433.83" x2="24027.6" y2="-5144.89" gradientUnits="userSpaceOnUse">
<stop stop-color="#CB236D"/>
<stop offset="1" stop-color="#4C246D"/>
</linearGradient>
<linearGradient id="paint3_linear_1_468" x1="20888.3" y1="11915.7" x2="24283.1" y2="10443.8" gradientUnits="userSpaceOnUse">
<stop stop-color="#F9B776"/>
<stop offset="1" stop-color="#F47960"/>
</linearGradient>
<linearGradient id="paint4_linear_1_468" x1="20900.2" y1="-5591.62" x2="21108.1" y2="-5278.83" gradientUnits="userSpaceOnUse">
<stop stop-color="#CB236D"/>
<stop offset="1" stop-color="#4C246D"/>
</linearGradient>
<linearGradient id="paint5_linear_1_468" x1="3671.05" y1="4443.5" x2="3591.43" y2="3868.92" gradientUnits="userSpaceOnUse">
<stop stop-color="#CB236D"/>
<stop offset="1" stop-color="#4C246D"/>
</linearGradient>
<linearGradient id="paint6_linear_1_468" x1="-30430.1" y1="28054.3" x2="-29998.7" y2="28450.3" gradientUnits="userSpaceOnUse">
<stop stop-color="#CB236D"/>
<stop offset="1" stop-color="#4C246D"/>
</linearGradient>
<linearGradient id="paint7_linear_1_468" x1="-18145.9" y1="6251.73" x2="-16425.1" y2="8032.25" gradientUnits="userSpaceOnUse">
<stop stop-color="#FDF53F"/>
<stop offset="1" stop-color="#D93C65"/>
</linearGradient>
<linearGradient id="paint8_linear_1_468" x1="13081.7" y1="2117.77" x2="13063.2" y2="2017.08" gradientUnits="userSpaceOnUse">
<stop stop-color="#F9B776"/>
<stop offset="1" stop-color="#F47960"/>
</linearGradient>
<linearGradient id="paint9_linear_1_468" x1="18107.6" y1="-5238.02" x2="18248.6" y2="-5279.89" gradientUnits="userSpaceOnUse">
<stop stop-color="#F9B776"/>
<stop offset="1" stop-color="#F47960"/>
</linearGradient>
<linearGradient id="paint10_linear_1_468" x1="24363.4" y1="-13281.4" x2="24418.1" y2="-12934.8" gradientUnits="userSpaceOnUse">
<stop stop-color="#CB236D"/>
<stop offset="1" stop-color="#4C246D"/>
</linearGradient>
<linearGradient id="paint11_linear_1_468" x1="4097.65" y1="-286.519" x2="4130.68" y2="-300.432" gradientUnits="userSpaceOnUse">
<stop stop-color="#F9B776"/>
<stop offset="1" stop-color="#F47960"/>
</linearGradient>
<linearGradient id="paint12_linear_1_468" x1="58282.5" y1="1903.58" x2="59117.7" y2="1903.58" gradientUnits="userSpaceOnUse">
<stop stop-color="#F9B776"/>
<stop offset="1" stop-color="#F47960"/>
</linearGradient>
<linearGradient id="paint13_linear_1_468" x1="47.2741" y1="124.286" x2="40.3088" y2="126.569" gradientUnits="userSpaceOnUse">
<stop stop-color="#2B3582"/>
<stop offset="1" stop-color="#150E42"/>
</linearGradient>
<linearGradient id="paint14_linear_1_468" x1="53432.5" y1="4480.57" x2="53270.9" y2="4749.5" gradientUnits="userSpaceOnUse">
<stop stop-color="#2B3582"/>
<stop offset="1" stop-color="#150E42"/>
</linearGradient>
<linearGradient id="paint15_linear_1_468" x1="4471.92" y1="1126.92" x2="4451.41" y2="1147.98" gradientUnits="userSpaceOnUse">
<stop stop-color="#53D8FF"/>
<stop offset="1" stop-color="#3840F7"/>
</linearGradient>
<linearGradient id="paint16_linear_1_468" x1="63.1579" y1="86.3647" x2="54.1412" y2="106.771" gradientUnits="userSpaceOnUse">
<stop stop-color="#FDF53F"/>
<stop offset="0.66" stop-color="#E57A58"/>
<stop offset="1" stop-color="#D93C65"/>
</linearGradient>
<linearGradient id="paint17_linear_1_468" x1="918.44" y1="5331.2" x2="368.27" y2="5590.57" gradientUnits="userSpaceOnUse">
<stop stop-color="#FDF53F"/>
<stop offset="0.66" stop-color="#E57A58"/>
<stop offset="1" stop-color="#D93C65"/>
</linearGradient>
<linearGradient id="paint18_linear_1_468" x1="3274.75" y1="1326.79" x2="3279.74" y2="1227.07" gradientUnits="userSpaceOnUse">
<stop stop-color="#FDF53F"/>
<stop offset="0.66" stop-color="#E57A58"/>
<stop offset="1" stop-color="#D93C65"/>
</linearGradient>
<linearGradient id="paint19_linear_1_468" x1="2179.21" y1="309.964" x2="2364.91" y2="309.964" gradientUnits="userSpaceOnUse">
<stop stop-color="#CB236D"/>
<stop offset="1" stop-color="#4C246D"/>
</linearGradient>
<linearGradient id="paint20_linear_1_468" x1="2324.4" y1="739.643" x2="2321.16" y2="829.148" gradientUnits="userSpaceOnUse">
<stop stop-color="#CB236D"/>
<stop offset="1" stop-color="#4C246D"/>
</linearGradient>
<linearGradient id="paint21_linear_1_468" x1="645.852" y1="764.086" x2="659.456" y2="764.086" gradientUnits="userSpaceOnUse">
<stop stop-color="#F9B776"/>
<stop offset="1" stop-color="#F47960"/>
</linearGradient>
<linearGradient id="paint22_linear_1_468" x1="2019.73" y1="1910.74" x2="2140.83" y2="1910.74" gradientUnits="userSpaceOnUse">
<stop stop-color="#CB236D"/>
<stop offset="1" stop-color="#4C246D"/>
</linearGradient>
<linearGradient id="paint23_linear_1_468" x1="2285.12" y1="1748.35" x2="2261.59" y2="1973.54" gradientUnits="userSpaceOnUse">
<stop stop-color="#CB236D"/>
<stop offset="1" stop-color="#4C246D"/>
</linearGradient>
<linearGradient id="paint24_linear_1_468" x1="3998.43" y1="6409.33" x2="4849.83" y2="6409.33" gradientUnits="userSpaceOnUse">
<stop stop-color="#2B3582"/>
<stop offset="1" stop-color="#150E42"/>
</linearGradient>
<linearGradient id="paint25_linear_1_468" x1="841.123" y1="1142.94" x2="860.474" y2="1142.94" gradientUnits="userSpaceOnUse">
<stop stop-color="#F9B776"/>
<stop offset="1" stop-color="#F47960"/>
</linearGradient>
<linearGradient id="paint26_linear_1_468" x1="8105.09" y1="6094.88" x2="7169.37" y2="7688.78" gradientUnits="userSpaceOnUse">
<stop stop-color="#2B3582"/>
<stop offset="1" stop-color="#150E42"/>
</linearGradient>
<linearGradient id="paint27_linear_1_468" x1="1654.15" y1="1386.04" x2="1774.22" y2="1386.04" gradientUnits="userSpaceOnUse">
<stop stop-color="#F9B776"/>
<stop offset="1" stop-color="#F47960"/>
</linearGradient>
<linearGradient id="paint28_linear_1_468" x1="5350.41" y1="5192.36" x2="7107.18" y2="5192.36" gradientUnits="userSpaceOnUse">
<stop stop-color="#FDF53F"/>
<stop offset="0.66" stop-color="#E57A58"/>
<stop offset="1" stop-color="#D93C65"/>
</linearGradient>
<linearGradient id="paint29_linear_1_468" x1="1773.72" y1="493.763" x2="1877.05" y2="493.763" gradientUnits="userSpaceOnUse">
<stop stop-color="#F9B776"/>
<stop offset="1" stop-color="#F47960"/>
</linearGradient>
<linearGradient id="paint30_linear_1_468" x1="1380.58" y1="8723.77" x2="1294.37" y2="8824.96" gradientUnits="userSpaceOnUse">
<stop stop-color="#F9B776"/>
<stop offset="1" stop-color="#F47960"/>
</linearGradient>
<linearGradient id="paint31_linear_1_468" x1="2045.05" y1="14045.1" x2="2180.2" y2="14025.6" gradientUnits="userSpaceOnUse">
<stop stop-color="#2B3582"/>
<stop offset="1" stop-color="#150E42"/>
</linearGradient>
<linearGradient id="paint32_linear_1_468" x1="517.155" y1="2916.41" x2="540.174" y2="2894.3" gradientUnits="userSpaceOnUse">
<stop stop-color="#F9B776"/>
<stop offset="1" stop-color="#F47960"/>
</linearGradient>
<linearGradient id="paint33_linear_1_468" x1="-937.498" y1="-1010.45" x2="-920.692" y2="-992.484" gradientUnits="userSpaceOnUse">
<stop stop-color="#9CFFFB"/>
<stop offset="1" stop-color="#9BFFFA"/>
</linearGradient>
<linearGradient id="paint34_linear_1_468" x1="19387.5" y1="43673.2" x2="18837.7" y2="44069.9" gradientUnits="userSpaceOnUse">
<stop stop-color="#9CFFFB"/>
<stop offset="1" stop-color="#9BFFFA"/>
</linearGradient>
<linearGradient id="paint35_linear_1_468" x1="2141.42" y1="9250.72" x2="2428.11" y2="11224.8" gradientUnits="userSpaceOnUse">
<stop stop-color="#53D8FF"/>
<stop offset="1" stop-color="#3840F7"/>
</linearGradient>
<linearGradient id="paint36_linear_1_468" x1="2315.48" y1="9225.97" x2="2602.49" y2="11200" gradientUnits="userSpaceOnUse">
<stop stop-color="#53D8FF"/>
<stop offset="1" stop-color="#3840F7"/>
</linearGradient>
<linearGradient id="paint37_linear_1_468" x1="1010.91" y1="3502.32" x2="1104.46" y2="4243.75" gradientUnits="userSpaceOnUse">
<stop stop-color="#53D8FF"/>
<stop offset="1" stop-color="#3840F7"/>
</linearGradient>
<linearGradient id="paint38_linear_1_468" x1="5645.61" y1="669.854" x2="5644.2" y2="766.794" gradientUnits="userSpaceOnUse">
<stop stop-color="#2B3582"/>
<stop offset="1" stop-color="#150E42"/>
</linearGradient>
<linearGradient id="paint39_linear_1_468" x1="3194.13" y1="4150.07" x2="3394.13" y2="4033.57" gradientUnits="userSpaceOnUse">
<stop stop-color="#53D8FF"/>
<stop offset="1" stop-color="#3840F7"/>
</linearGradient>
<linearGradient id="paint40_linear_1_468" x1="33249.4" y1="344.77" x2="33249.7" y2="317.116" gradientUnits="userSpaceOnUse">
<stop stop-color="#53D8FF"/>
<stop offset="1" stop-color="#3840F7"/>
</linearGradient>
<linearGradient id="paint41_linear_1_468" x1="41935.4" y1="1260.75" x2="41941.3" y2="1128.2" gradientUnits="userSpaceOnUse">
<stop stop-color="#53D8FF"/>
<stop offset="1" stop-color="#3840F7"/>
</linearGradient>
<linearGradient id="paint42_linear_1_468" x1="26674" y1="6274.61" x2="26828.6" y2="6274.61" gradientUnits="userSpaceOnUse">
<stop stop-color="#F9B776"/>
<stop offset="1" stop-color="#F47960"/>
</linearGradient>
<linearGradient id="paint43_linear_1_468" x1="18875.9" y1="289.003" x2="18891.2" y2="426.278" gradientUnits="userSpaceOnUse">
<stop stop-color="#CB236D"/>
<stop offset="1" stop-color="#4C246D"/>
</linearGradient>
<linearGradient id="paint44_linear_1_468" x1="56557.9" y1="6248.06" x2="57244.7" y2="6248.06" gradientUnits="userSpaceOnUse">
<stop stop-color="#F9B776"/>
<stop offset="1" stop-color="#F47960"/>
</linearGradient>
<linearGradient id="paint45_linear_1_468" x1="272.639" y1="2379.93" x2="369.507" y2="2826.48" gradientUnits="userSpaceOnUse">
<stop stop-color="#2B3582"/>
<stop offset="1" stop-color="#150E42"/>
</linearGradient>
<linearGradient id="paint46_linear_1_468" x1="24177.6" y1="179.59" x2="24179.3" y2="232.201" gradientUnits="userSpaceOnUse">
<stop stop-color="#CB236D"/>
<stop offset="1" stop-color="#4C246D"/>
</linearGradient>
<linearGradient id="paint47_linear_1_468" x1="48936.6" y1="3471.42" x2="49214.2" y2="4119.51" gradientUnits="userSpaceOnUse">
<stop stop-color="#FDF53F"/>
<stop offset="1" stop-color="#D93C65"/>
</linearGradient>
<linearGradient id="paint48_linear_1_468" x1="11901.1" y1="960.68" x2="11894.4" y2="915.172" gradientUnits="userSpaceOnUse">
<stop stop-color="#F9B776"/>
<stop offset="1" stop-color="#F47960"/>
</linearGradient>
<linearGradient id="paint49_linear_1_468" x1="19243.4" y1="1545.86" x2="19354" y2="1614.12" gradientUnits="userSpaceOnUse">
<stop stop-color="#F9B776"/>
<stop offset="1" stop-color="#F47960"/>
</linearGradient>
<linearGradient id="paint50_linear_1_468" x1="21504.8" y1="1730.49" x2="21267.3" y2="1928.54" gradientUnits="userSpaceOnUse">
<stop stop-color="#CB236D"/>
<stop offset="1" stop-color="#4C246D"/>
</linearGradient>
<linearGradient id="paint51_linear_1_468" x1="4774.04" y1="526.377" x2="4806.31" y2="543.912" gradientUnits="userSpaceOnUse">
<stop stop-color="#F9B776"/>
<stop offset="1" stop-color="#F47960"/>
</linearGradient>
<linearGradient id="paint52_linear_1_468" x1="54032.8" y1="1063.98" x2="54639.2" y2="1063.98" gradientUnits="userSpaceOnUse">
<stop stop-color="#F9B776"/>
<stop offset="1" stop-color="#F47960"/>
</linearGradient>
<linearGradient id="paint53_linear_1_468" x1="31064.7" y1="2613.17" x2="30723.3" y2="2894.92" gradientUnits="userSpaceOnUse">
<stop stop-color="#CB236D"/>
<stop offset="1" stop-color="#4C246D"/>
</linearGradient>
<linearGradient id="paint54_linear_1_468" x1="45191.1" y1="-1621.42" x2="45166.5" y2="-1523.09" gradientUnits="userSpaceOnUse">
<stop stop-color="#2B3582"/>
<stop offset="1" stop-color="#150E42"/>
</linearGradient>
<linearGradient id="paint55_linear_1_468" x1="59759.2" y1="2984.08" x2="59589.5" y2="3266.4" gradientUnits="userSpaceOnUse">
<stop stop-color="#2B3582"/>
<stop offset="1" stop-color="#150E42"/>
</linearGradient>
<linearGradient id="paint56_linear_1_468" x1="5256.15" y1="754.438" x2="5234.61" y2="776.532" gradientUnits="userSpaceOnUse">
<stop stop-color="#53D8FF"/>
<stop offset="1" stop-color="#3840F7"/>
</linearGradient>
<linearGradient id="paint57_linear_1_468" x1="176675" y1="753.457" x2="183394" y2="753.457" gradientUnits="userSpaceOnUse">
<stop stop-color="#9CFFFB"/>
<stop offset="1" stop-color="#9BFFFA"/>
</linearGradient>
<linearGradient id="paint58_linear_1_468" x1="34393" y1="7448.62" x2="34654.9" y2="7448.62" gradientUnits="userSpaceOnUse">
<stop stop-color="#9CFFFB"/>
<stop offset="1" stop-color="#9BFFFA"/>
</linearGradient>
<linearGradient id="paint59_linear_1_468" x1="34428.4" y1="7448.63" x2="34690.3" y2="7448.63" gradientUnits="userSpaceOnUse">
<stop stop-color="#9CFFFB"/>
<stop offset="1" stop-color="#9BFFFA"/>
</linearGradient>
<linearGradient id="paint60_linear_1_468" x1="35369.2" y1="7448.62" x2="35631.2" y2="7448.62" gradientUnits="userSpaceOnUse">
<stop stop-color="#9CFFFB"/>
<stop offset="1" stop-color="#9BFFFA"/>
</linearGradient>
<linearGradient id="paint61_linear_1_468" x1="35397.2" y1="7448.63" x2="35659.2" y2="7448.63" gradientUnits="userSpaceOnUse">
<stop stop-color="#9CFFFB"/>
<stop offset="1" stop-color="#9BFFFA"/>
</linearGradient>
<linearGradient id="paint62_linear_1_468" x1="8540.39" y1="226.496" x2="8426.27" y2="455.493" gradientUnits="userSpaceOnUse">
<stop stop-color="#2B3582"/>
<stop offset="1" stop-color="#150E42"/>
</linearGradient>
<linearGradient id="paint63_linear_1_468" x1="14352.1" y1="9530.01" x2="14352.1" y2="11241.8" gradientUnits="userSpaceOnUse">
<stop stop-color="#FDF53F"/>
<stop offset="1" stop-color="#D93C65"/>
</linearGradient>
<linearGradient id="paint64_linear_1_468" x1="4284.93" y1="5292.75" x2="4898.47" y2="5983.9" gradientUnits="userSpaceOnUse">
<stop stop-color="#F9B776"/>
<stop offset="1" stop-color="#F47960"/>
</linearGradient>
<linearGradient id="paint65_linear_1_468" x1="31598.1" y1="5290.51" x2="30981.4" y2="5946.79" gradientUnits="userSpaceOnUse">
<stop stop-color="#F9B776"/>
<stop offset="1" stop-color="#F47960"/>
</linearGradient>
<linearGradient id="paint66_linear_1_468" x1="10763.2" y1="4261.82" x2="10751.4" y2="4972.1" gradientUnits="userSpaceOnUse">
<stop stop-color="#2B3582"/>
<stop offset="1" stop-color="#150E42"/>
</linearGradient>
<linearGradient id="paint67_linear_1_468" x1="211.342" y1="131.19" x2="216.68" y2="131.231" gradientUnits="userSpaceOnUse">
<stop stop-color="#2C759E"/>
<stop offset="1" stop-color="#051042"/>
</linearGradient>
<linearGradient id="paint68_linear_1_468" x1="217.338" y1="131.303" x2="212.649" y2="131.212" gradientUnits="userSpaceOnUse">
<stop stop-color="#53EAC9"/>
<stop offset="1" stop-color="#45AED8"/>
</linearGradient>
<linearGradient id="paint69_linear_1_468" x1="1816.49" y1="1270.11" x2="1754.57" y2="1404.2" gradientUnits="userSpaceOnUse">
<stop stop-color="#F9B776"/>
<stop offset="1" stop-color="#F47960"/>
</linearGradient>
<linearGradient id="paint70_linear_1_468" x1="1021.11" y1="833.946" x2="1003.72" y2="833.809" gradientUnits="userSpaceOnUse">
<stop stop-color="#53EAC9"/>
<stop offset="1" stop-color="#45AED8"/>
</linearGradient>
<linearGradient id="paint71_linear_1_468" x1="1163.57" y1="815.425" x2="1143.21" y2="815.23" gradientUnits="userSpaceOnUse">
<stop stop-color="#53EAC9"/>
<stop offset="1" stop-color="#45AED8"/>
</linearGradient>
<linearGradient id="paint72_linear_1_468" x1="956.623" y1="688.757" x2="940.253" y2="687.658" gradientUnits="userSpaceOnUse">
<stop stop-color="#53EAC9"/>
<stop offset="1" stop-color="#45AED8"/>
</linearGradient>
<linearGradient id="paint73_linear_1_468" x1="1201.82" y1="664.231" x2="1180.7" y2="662.752" gradientUnits="userSpaceOnUse">
<stop stop-color="#53EAC9"/>
<stop offset="1" stop-color="#45AED8"/>
</linearGradient>
<linearGradient id="paint74_linear_1_468" x1="32642.3" y1="2096.36" x2="32517.4" y2="2093.86" gradientUnits="userSpaceOnUse">
<stop stop-color="#2C759E"/>
<stop offset="1" stop-color="#051042"/>
</linearGradient>
<linearGradient id="paint75_linear_1_468" x1="5758.76" y1="1423.09" x2="5778.29" y2="1423.39" gradientUnits="userSpaceOnUse">
<stop stop-color="#53EAC9"/>
<stop offset="1" stop-color="#45AED8"/>
</linearGradient>
<linearGradient id="paint76_linear_1_468" x1="1699.27" y1="1215.68" x2="1637.85" y2="1348.36" gradientUnits="userSpaceOnUse">
<stop stop-color="#F9B776"/>
<stop offset="1" stop-color="#F47960"/>
</linearGradient>
<linearGradient id="paint77_linear_1_468" x1="5129.27" y1="872.55" x2="5147.17" y2="872.759" gradientUnits="userSpaceOnUse">
<stop stop-color="#53EAC9"/>
<stop offset="1" stop-color="#45AED8"/>
</linearGradient>
<linearGradient id="paint78_linear_1_468" x1="5872.81" y1="898.449" x2="5892.65" y2="898.666" gradientUnits="userSpaceOnUse">
<stop stop-color="#53EAC9"/>
<stop offset="1" stop-color="#45AED8"/>
</linearGradient>
<linearGradient id="paint79_linear_1_468" x1="4721.42" y1="910.025" x2="4738.32" y2="909.395" gradientUnits="userSpaceOnUse">
<stop stop-color="#53EAC9"/>
<stop offset="1" stop-color="#45AED8"/>
</linearGradient>
<linearGradient id="paint80_linear_1_468" x1="6278.09" y1="826.492" x2="6298.84" y2="825.666" gradientUnits="userSpaceOnUse">
<stop stop-color="#53EAC9"/>
<stop offset="1" stop-color="#45AED8"/>
</linearGradient>
<linearGradient id="paint81_linear_1_468" x1="18026.6" y1="4803.14" x2="17498" y2="5650.47" gradientUnits="userSpaceOnUse">
<stop stop-color="#CB236D"/>
<stop offset="1" stop-color="#4C246D"/>
</linearGradient>
<linearGradient id="paint82_linear_1_468" x1="16041.9" y1="5191.67" x2="15960.1" y2="4770.98" gradientUnits="userSpaceOnUse">
<stop stop-color="#CB236D"/>
<stop offset="1" stop-color="#4C246D"/>
</linearGradient>
<linearGradient id="paint83_linear_1_468" x1="5670.88" y1="2504.48" x2="5668.88" y2="2274.4" gradientUnits="userSpaceOnUse">
<stop stop-color="#F9B776"/>
<stop offset="1" stop-color="#F47960"/>
</linearGradient>
<linearGradient id="paint84_linear_1_468" x1="5803.04" y1="-311.068" x2="5871.79" y2="-623.097" gradientUnits="userSpaceOnUse">
<stop stop-color="#F9B776"/>
<stop offset="1" stop-color="#F47960"/>
</linearGradient>
<linearGradient id="paint85_linear_1_468" x1="8708.68" y1="-181.958" x2="8524.9" y2="127.374" gradientUnits="userSpaceOnUse">
<stop stop-color="#2B3582"/>
<stop offset="1" stop-color="#150E42"/>
</linearGradient>
<linearGradient id="paint86_linear_1_468" x1="1008.96" y1="1744.52" x2="1003.68" y2="1616.66" gradientUnits="userSpaceOnUse">
<stop stop-color="#F9B776"/>
<stop offset="1" stop-color="#F47960"/>
</linearGradient>
<linearGradient id="paint87_linear_1_468" x1="1543.47" y1="932.25" x2="1541.06" y2="1040.87" gradientUnits="userSpaceOnUse">
<stop stop-color="#53D8FF"/>
<stop offset="1" stop-color="#3840F7"/>
</linearGradient>
<linearGradient id="paint88_linear_1_468" x1="1115.25" y1="1217.7" x2="1021" y2="1217.7" gradientUnits="userSpaceOnUse">
<stop stop-color="#2B3582"/>
<stop offset="1" stop-color="#150E42"/>
</linearGradient>
<linearGradient id="paint89_linear_1_468" x1="873.035" y1="246.973" x2="885.812" y2="330.403" gradientUnits="userSpaceOnUse">
<stop stop-color="#53D8FF"/>
<stop offset="1" stop-color="#3840F7"/>
</linearGradient>
<linearGradient id="paint90_linear_1_468" x1="3878.35" y1="844.066" x2="3864.58" y2="931.586" gradientUnits="userSpaceOnUse">
<stop stop-color="#F9B776"/>
<stop offset="1" stop-color="#F47960"/>
</linearGradient>
<linearGradient id="paint91_linear_1_468" x1="15145.7" y1="258.302" x2="15136.8" y2="340.744" gradientUnits="userSpaceOnUse">
<stop stop-color="#53D8FF"/>
<stop offset="1" stop-color="#3840F7"/>
</linearGradient>
<linearGradient id="paint92_linear_1_468" x1="14871.3" y1="1124.32" x2="15058" y2="1124.32" gradientUnits="userSpaceOnUse">
<stop stop-color="#2B3582"/>
<stop offset="1" stop-color="#150E42"/>
</linearGradient>
<linearGradient id="paint93_linear_1_468" x1="3644.8" y1="929.265" x2="3628.27" y2="1018.02" gradientUnits="userSpaceOnUse">
<stop stop-color="#F9B776"/>
<stop offset="1" stop-color="#F47960"/>
</linearGradient>
<linearGradient id="paint94_linear_1_468" x1="119.033" y1="69.8284" x2="120.049" y2="37.9684" gradientUnits="userSpaceOnUse">
<stop stop-color="#7C27DD"/>
<stop offset="1" stop-color="#2B41D9"/>
</linearGradient>
<linearGradient id="paint95_linear_1_468" x1="2246.61" y1="557.773" x2="2322.14" y2="557.773" gradientUnits="userSpaceOnUse">
<stop stop-color="#F9B776"/>
<stop offset="1" stop-color="#F47960"/>
</linearGradient>
<linearGradient id="paint96_linear_1_468" x1="6621.16" y1="-9222.21" x2="6752.79" y2="-9328.45" gradientUnits="userSpaceOnUse">
<stop stop-color="#F9B776"/>
<stop offset="1" stop-color="#F47960"/>
</linearGradient>
<linearGradient id="paint97_linear_1_468" x1="-795.132" y1="-1328.35" x2="-605.762" y2="-1431.64" gradientUnits="userSpaceOnUse">
<stop stop-color="#2B3582"/>
<stop offset="1" stop-color="#150E42"/>
</linearGradient>
<linearGradient id="paint98_linear_1_468" x1="2524.15" y1="-2986.65" x2="2568.3" y2="-3023.87" gradientUnits="userSpaceOnUse">
<stop stop-color="#F9B776"/>
<stop offset="1" stop-color="#F47960"/>
</linearGradient>
<linearGradient id="paint99_linear_1_468" x1="2294.63" y1="395.993" x2="2238.75" y2="496.317" gradientUnits="userSpaceOnUse">
<stop stop-color="#F9B776"/>
<stop offset="1" stop-color="#F47960"/>
</linearGradient>
<linearGradient id="paint100_linear_1_468" x1="2384.74" y1="398.975" x2="2413.06" y2="458.524" gradientUnits="userSpaceOnUse">
<stop stop-color="#F9B776"/>
<stop offset="1" stop-color="#F47960"/>
</linearGradient>
</defs>
</svg>
