<svg width="194" height="194" viewBox="0 0 194 194" fill="none" xmlns="http://www.w3.org/2000/svg">
<path d="M146.285 13.4324C152.849 22.6204 145.425 37.7068 155.092 44.5675C164.502 51.2459 175.859 40.0174 184.721 45.7578C197.869 54.2737 195.901 93.8935 177.071 118.695C171.408 126.154 166.641 129.083 164.605 137.472C160.232 155.486 176.377 166.005 173.42 174.923C166.76 195.003 61.2844 212.904 18.2592 153.22C-1.83581 125.346 -5.22459 84.824 12.1412 53.8358C43.5209 -2.15346 131.558 -7.18431 146.285 13.4324Z" fill="#292A46"/>
<path d="M46.3136 134.221C49.6338 134.681 55.2231 135.455 60.8685 132.588C71.1312 127.376 74.917 113.511 74.1714 103.233C73.5326 94.4054 68.4477 86.5103 58.2786 70.72C48.7026 55.8492 44.5323 52.7188 45.8051 46.9314C47.619 38.6815 57.9301 36.6951 58.6029 26.7525C58.684 25.5594 58.9611 21.4619 56.3857 18.6807C51.9791 13.9187 42.3096 16.3555 37.0737 19.0306C32.0227 21.6108 25.1717 27.4413 24.9673 34.62C24.8191 39.8233 28.2854 41.3158 27.1616 45.6454C26.0316 50.0014 22.1813 49.8026 17.6175 55.7203C15.7939 58.0844 12.1335 62.8291 12.358 68.4731C12.6476 75.7717 19.1695 77.9653 18.029 83.3966C17.2045 87.3196 13.5303 87.4561 11.6963 91.591C9.28168 97.0341 12.7072 103.431 15.629 108.716C19.0711 114.946 28.354 131.732 46.3136 134.221Z" fill="#D8DEE8"/>
<g style="mix-blend-mode:screen" opacity="0.16">
<path d="M53.2382 20.0103C55.1415 23.4947 42.2023 28.3177 38.6293 41.4266C34.786 55.5312 44.1306 70.623 48.4492 77.5973C55.8177 89.4965 61.0488 90.3667 64.2034 101.204C65.4505 105.494 68.0529 114.43 63.1856 122.598C62.7332 123.36 57.5651 131.744 48.7228 132.515C38.6958 133.393 31.5649 123.815 25.4199 115.556C21.7069 110.567 14.2898 100.602 17.7576 95.4516C19.877 92.3033 25.5765 91.6797 29.5237 92.6476C35.158 94.0285 37.9953 98.8411 38.8919 98.1905C39.699 97.6037 38.1741 93.1326 35.1504 88.8771C29.0976 80.3605 23.2284 81.3942 19.1454 74.246C18.65 73.3799 14.8288 66.4555 17.7721 60.2765C19.4689 56.7125 23.4612 53.3036 26.6733 54.0075C30.3066 54.8043 31.375 60.5204 32.4697 60.1996C33.5173 59.8955 33.1765 54.4863 32.0589 49.1894C30.4168 41.4058 28.4657 40.3506 28.589 36.0036C28.7768 29.3709 33.5201 24.71 34.2109 24.0532C40.6884 17.8694 51.6141 17.031 53.2382 20.0103Z" fill="white"/>
</g>
<path d="M73.9303 68.4302C76.7017 69.836 80.1778 68.5452 81.7 65.5465C83.2222 62.5478 82.212 58.9782 79.4427 57.5724C79.2993 57.5031 79.1531 57.438 79.0062 57.3798C79.5153 55.7424 79.9039 54.07 80.1688 52.3759C80.3275 52.3759 80.4868 52.3759 80.6483 52.3579C83.8077 52.0766 86.3151 49.1708 86.2486 45.8741C86.1821 42.5775 83.568 40.1276 80.4092 40.4095C80.2436 40.4241 80.0815 40.4504 79.9201 40.4788C79.593 38.8528 79.1409 37.2545 78.5676 35.6981C78.7131 35.6136 78.8579 35.5256 78.9986 35.4265C81.7007 33.5329 82.5661 29.7956 80.9289 27.0789C79.2916 24.3622 75.774 23.695 73.0711 25.5886C72.9326 25.6856 72.8023 25.7902 72.6735 25.8969C71.5989 24.7098 70.4263 23.6151 69.1683 22.6245C69.257 22.4783 69.3443 22.3308 69.4232 22.1756C70.9475 19.1769 72.9347 15.9017 70.1445 14.5396C63.6884 11.3877 60.9184 14.0857 59.3955 17.0837C59.3172 17.2396 59.2486 17.3969 59.1835 17.5549C57.641 17.123 56.065 16.8217 54.472 16.6542C54.4817 16.4872 54.4894 16.3202 54.4866 16.1512C54.4173 12.8518 55.3991 11.0663 52.2279 11.0046C45.3131 10.8702 42.9796 13.8716 43.0461 17.171C43.0495 17.3436 43.0634 17.5119 43.0807 17.6796C41.4866 18.1348 39.93 18.7123 38.4247 19.4069C38.3554 19.26 38.2778 19.1138 38.1926 18.9718C36.5554 16.2551 33.0377 15.5879 30.3349 17.4814C27.632 19.375 26.7708 23.1165 28.406 25.8332C28.4898 25.9717 28.5813 26.1027 28.6748 26.2316C27.4634 27.4449 26.3425 28.7454 25.3213 30.1227C25.1869 30.0388 25.0511 29.9564 24.9056 29.8836C22.1342 28.4778 18.6581 29.7686 17.1352 32.7666C15.6123 35.7646 16.6239 39.3356 19.3932 40.7414C19.5367 40.8107 19.6829 40.8758 19.8297 40.934C19.3214 42.5712 18.9335 44.2434 18.6692 45.9372C18.5105 45.9372 18.3512 45.9372 18.1897 45.9545C15.0303 46.2365 12.5228 49.1417 12.5887 52.439C12.6545 55.7363 15.27 58.1849 18.4295 57.9036C18.5944 57.889 18.7565 57.8627 18.9179 57.8343C19.2447 59.4604 19.6969 61.0587 20.2704 62.615C20.1249 62.6995 19.9801 62.7875 19.8394 62.8866C17.1373 64.7802 16.2719 68.5175 17.9091 71.2342C19.5464 73.9509 24.9652 75.2133 27.6681 73.3197C27.8066 73.2227 26.0357 72.5229 26.1646 72.419C27.2391 73.6061 28.4117 74.7008 29.6697 75.6913C29.581 75.8375 29.4937 75.9851 29.4148 76.1403C27.8905 79.139 28.9027 82.7093 31.6721 84.1151C34.4415 85.5209 37.9203 84.2301 39.4425 81.2315C39.5208 81.0762 39.5894 80.919 39.6545 80.761C41.197 81.1929 42.773 81.4942 44.366 81.6617C44.3563 81.8287 44.348 81.9957 44.3514 82.1647C44.4207 85.4641 47.0328 87.9106 50.1915 87.6293C53.3503 87.348 55.8584 84.4422 55.7919 81.1448C55.7885 80.9723 55.7746 80.804 55.7573 80.6363C57.3515 80.1813 58.9082 79.6035 60.4133 78.9083C60.4826 79.0559 60.5602 79.2021 60.6454 79.3441C62.2826 82.0608 65.8003 82.728 68.5031 80.8344C71.206 78.9409 72.0707 75.2029 70.4334 72.4862C70.3496 72.3476 70.2581 72.2173 70.1646 72.0885C71.376 70.8752 72.4968 69.5746 73.518 68.1974C73.6511 68.275 73.7869 68.3574 73.9303 68.4302ZM39.4113 68.8708C29.3573 63.7665 25.6879 50.8031 31.2148 39.9169C36.7418 29.0307 49.3733 24.3408 59.4267 29.4471C69.4801 34.5535 73.1501 47.5148 67.6232 58.401C62.0963 69.2872 49.4647 73.9724 39.4113 68.8708Z" fill="url(#paint0_linear_1_254)"/>
<path d="M80.6483 52.3579C83.8077 52.0766 86.3152 49.1708 86.2486 45.8741C86.1821 42.5775 83.568 40.1276 80.4092 40.4096C80.2436 40.4241 80.0815 40.4504 79.9201 40.4788C79.5929 38.8528 79.1408 37.2545 78.5676 35.6981C78.7131 35.6136 78.8579 35.5256 78.9986 35.4265C81.7007 33.5329 85.0458 28.9573 83.1384 26.4228C79.5196 21.613 75.774 23.695 73.0711 25.5914C72.9326 25.6884 72.8023 25.793 72.6734 25.899C71.5987 24.7123 70.4262 23.6179 69.1683 22.6273C69.257 22.4811 69.3443 22.3335 69.4232 22.1783C70.2547 20.546 70.324 18.7473 69.778 17.2175C67.1673 21.8139 64.5954 26.43 62.0623 31.0656C70.0828 36.9425 72.6367 48.5257 67.6232 58.3997C63.3746 66.7673 54.9293 71.4656 46.6836 70.8801C46.3157 71.8342 45.9547 72.7938 45.5605 73.7382C44.4921 76.3018 43.274 78.8127 42.0615 81.3208C42.8264 81.4649 43.5941 81.5776 44.3646 81.6589C44.3549 81.8259 44.3466 81.9929 44.35 82.162C44.4193 85.4614 46.4196 88.2647 52.1454 87.9612C55.3125 87.7935 55.8571 84.4415 55.7905 81.1421C55.7871 80.9696 55.7732 80.8012 55.7559 80.6335C57.3502 80.1785 58.9068 79.6008 60.4119 78.9055C60.4812 79.0531 60.5588 79.1993 60.644 79.3413C62.2812 82.058 67.9599 83.2123 70.6628 81.3188C73.3656 79.4252 72.0693 75.2001 70.432 72.4834C70.3482 72.3448 70.2568 72.2146 70.1632 72.0857C71.3745 70.8722 72.4953 69.5717 73.5167 68.1946C73.6511 68.2784 73.7869 68.3609 73.9324 68.4336C76.7038 69.8395 80.1799 68.5487 81.7028 65.55C83.2257 62.5513 82.2141 58.9817 79.4448 57.5758C79.3013 57.5066 79.1551 57.4414 79.0083 57.3832C79.5174 55.7459 79.9059 54.0735 80.1709 52.3794C80.3288 52.3752 80.4868 52.3725 80.6483 52.3579Z" fill="url(#paint1_linear_1_254)"/>
<path d="M76.9082 68.769C79.6796 70.1748 83.1564 68.884 84.6786 65.8853C86.2008 62.8866 85.19 59.317 82.4213 57.9112C82.2779 57.8378 82.131 57.7768 81.9841 57.7186C82.4935 56.0813 82.8821 54.4089 83.1467 52.7148C83.3054 52.7148 83.4647 52.7113 83.6269 52.6968C86.7863 52.4155 89.2931 49.5096 89.2273 46.213C89.1614 42.9164 86.5466 40.4664 83.3871 40.7477C83.2222 40.7629 83.0601 40.7886 82.8987 40.817C82.5716 39.191 82.1195 37.5926 81.5462 36.0363C81.691 35.951 81.8358 35.8637 81.9772 35.7647C84.6793 33.8711 85.544 30.1331 83.9075 27.4164C82.2709 24.6997 78.7519 24.0325 76.0491 25.9261C75.9105 26.0237 75.7802 26.1284 75.6521 26.2344C74.5774 25.0473 73.4046 23.9529 72.1462 22.9627C72.2356 22.8165 72.3229 22.6689 72.4018 22.513C73.9261 19.515 72.9132 15.9447 70.1445 14.5389C67.3758 13.1331 63.8963 14.4239 62.3741 17.4219C62.2951 17.5771 62.2272 17.7351 62.1621 17.893C60.6196 17.4612 59.0436 17.1599 57.4506 16.9923C57.4603 16.826 57.468 16.6591 57.4645 16.49C57.3987 13.1906 54.7838 10.7434 51.6244 11.0254C48.4649 11.3074 45.9582 14.2126 46.024 17.5099C46.0275 17.6817 46.042 17.8508 46.0586 18.0178C44.4652 18.4739 42.9093 19.0521 41.4047 19.7471C41.3354 19.6002 41.2578 19.4541 41.1719 19.312C39.5354 16.5953 36.017 15.9281 33.3142 17.8217C30.6113 19.7153 29.7501 23.4553 31.3839 26.172C31.4677 26.3106 31.5599 26.4415 31.6534 26.5697C30.4417 27.7832 29.3207 29.084 28.2993 30.4615C28.1655 30.377 28.0297 30.2952 27.8835 30.2225C25.1121 28.8167 21.6353 30.1075 20.1131 33.1055C18.5909 36.1035 19.6018 39.6745 22.3705 41.0803C22.5139 41.153 22.6608 41.214 22.807 41.2729C22.298 42.9102 21.9097 44.5826 21.645 46.2767C21.4864 46.2767 21.327 46.2767 21.1649 46.294C18.0061 46.576 15.4987 49.4812 15.5645 52.7785C15.6303 56.0758 18.2452 58.5244 21.4046 58.2431C21.5695 58.2285 21.7316 58.2022 21.8931 58.1738C22.2201 59.7998 22.6722 61.3982 23.2455 62.9545C23.1007 63.0398 22.9559 63.1278 22.8146 63.2268C20.1124 65.1204 19.2477 68.8577 20.8843 71.5744C22.5208 74.2911 26.0398 74.9583 28.7427 73.0648C28.8813 72.9678 29.0115 72.8631 29.1397 72.7564C30.2145 73.9434 31.387 75.038 32.6449 76.0288C32.5562 76.1743 32.4689 76.3226 32.3899 76.4778C30.8656 79.4765 31.8786 83.0468 34.6472 84.4526C37.4159 85.8584 40.8954 84.5676 42.4177 81.5689C42.4966 81.4137 42.5645 81.2557 42.6297 81.0978C44.1721 81.5296 45.7482 81.8309 47.3411 81.9985C47.3314 82.1655 47.3238 82.3324 47.3273 82.5015C47.3931 85.8009 50.0079 88.2474 53.1674 87.9661C56.3268 87.6848 58.8343 84.7789 58.7678 81.4816C58.7643 81.3091 58.7497 81.1407 58.7324 80.973C60.3266 80.5178 61.8833 79.9401 63.3884 79.2451C63.4577 79.3926 63.5353 79.5388 63.6212 79.6809C65.2578 82.3976 68.7761 83.0648 71.479 81.1712C74.1818 79.2776 75.0458 75.5396 73.4093 72.8229C73.3254 72.6844 73.2333 72.5534 73.1397 72.4252C74.3513 71.2118 75.4723 69.9113 76.4939 68.5341C76.629 68.6138 76.7648 68.6963 76.9082 68.769ZM42.3893 69.2069C32.3359 64.1019 28.6658 51.1392 34.1934 40.2558C39.7211 29.3723 52.3512 24.6796 62.4053 29.7846C72.4594 34.8896 76.1287 47.8516 70.6011 58.7385C65.0735 69.6254 52.4433 74.3112 42.3893 69.2069Z" fill="url(#paint2_linear_1_254)"/>
<path d="M128.786 96.4217C128.786 96.4217 134.695 99.1072 134.792 99.5361C134.889 99.965 130.991 99.392 129.401 99.4544C127.81 99.5167 126.501 99.0456 126.645 98.3721C126.789 97.6987 127.346 96.0032 127.346 96.0032L128.786 96.4217Z" fill="url(#paint3_linear_1_254)"/>
<path d="M129.002 94.2419L128.643 96.9025C128.643 96.9025 127.707 97.2351 127.079 96.8415L126.811 93.9239L129.002 94.2419Z" fill="url(#paint4_linear_1_254)"/>
<path d="M101.173 94.3057L100.486 95.4095C100.391 95.5616 100.327 95.7316 100.3 95.909C100.273 96.0864 100.283 96.2675 100.328 96.4411C100.569 97.3585 101.049 99.1433 101.258 99.613C101.543 100.248 105.368 100.625 105.368 100.625C105.368 100.625 105.708 100.146 104.914 99.5659C104.12 98.986 103.61 98.8952 103.33 98.0416C103.05 97.188 102.863 94.7672 102.863 94.7672L101.173 94.3057Z" fill="url(#paint5_linear_1_254)"/>
<path d="M104.034 91.5017C103.783 91.7019 102.555 95.4295 102.555 95.4295C102.555 95.4295 102.157 95.938 101.402 95.1877C100.646 94.4373 101.06 94.8509 101.06 94.8509L101.199 91.1843L104.034 91.5017Z" fill="url(#paint6_linear_1_254)"/>
<path d="M132.253 40.7892C132.565 48.7253 132.577 57.3486 132.121 66.5595C131.607 76.9323 130.574 86.5201 129.272 95.2106C128.787 95.2258 128.279 95.2286 127.747 95.2106C127.389 95.2 127.042 95.1829 126.708 95.1593C125.848 92.8679 125.117 90.5302 124.518 88.1573C123.84 85.4584 123.329 82.72 122.99 79.958C121.851 70.9688 123.185 70.1845 122.261 63.5227C121.444 57.6223 120.28 57.3922 118.915 49.0156C117.434 39.9259 118.537 38.5624 119.073 38.0684C121.353 35.9766 126.716 37.4039 132.253 40.7892Z" fill="url(#paint7_linear_1_254)"/>
<path style="mix-blend-mode:multiply" opacity="0.3" d="M119.07 38.0739C121.248 36.0736 126.228 37.284 131.487 40.3368C125.434 46.8746 124.777 51.1156 125.503 53.8676C126.323 56.9779 128.816 57.8738 128.806 61.2743C128.794 65.4536 125.022 66.5608 125.103 70.9827C125.155 73.9072 126.813 73.8767 127.204 77.4886C127.668 81.7622 125.503 83.2352 126.204 86.3967C126.505 87.7575 127.366 89.5347 129.819 91.3659C129.642 92.6643 129.461 93.9496 129.272 95.2106C128.787 95.2258 128.28 95.2286 127.748 95.2106C127.389 95.2009 127.043 95.184 126.709 95.16C125.849 92.8685 125.118 90.5309 124.519 88.158C123.84 85.4591 123.33 82.7207 122.99 79.9587C121.852 70.9695 123.186 70.1852 122.262 63.5233C121.444 57.6229 120.281 57.3929 118.916 49.0155C117.431 39.9294 118.534 38.5658 119.07 38.0739Z" fill="url(#paint8_linear_1_254)"/>
<path d="M128.505 40.6555C117.575 56.6429 109.323 74.3046 104.074 92.9463C103.53 93.1987 102.925 93.2924 102.33 93.2165C101.565 93.1081 100.864 92.7302 100.353 92.1509C99.6795 87.9675 99.5273 83.7167 99.8994 79.4958C100.078 77.4817 100.395 74.1262 101.679 69.9843C103.117 65.3421 104.104 65.0837 105.983 60.1755C107.93 55.0802 107.459 53.8088 109.324 47.4331C110.446 43.6128 111.838 39.8769 113.49 36.2538L128.505 40.6555Z" fill="url(#paint9_linear_1_254)"/>
<path d="M154.234 44.5036C154.502 46.4104 150.324 49.5649 146.486 49.2275C141.249 48.7675 136.878 41.8292 136.413 36.3182C136.313 35.1403 136.386 33.9514 136.146 33.916C135.535 33.8266 133.969 41.0622 132.739 47.1967C131.75 47.5584 130.252 47.943 128.539 47.6617C125.736 47.203 125.402 45.4611 122.266 44.3255C120.437 43.6632 118.645 43.6611 115.061 43.6583C111.014 43.6548 110.903 44.1537 110.123 43.792C109.999 43.7231 109.879 43.648 109.764 43.5669C106.882 41.498 115.126 25.7721 112.753 11.263C112.489 9.65 112.085 7.99406 112.986 6.3797C115.313 2.20869 124.512 1.62045 130.211 4.36556C131.773 5.118 134.389 6.76424 136.724 8.49916C137.658 9.19202 138.63 9.96871 139.643 10.8549C142.781 13.5965 144.858 16.1109 145.219 16.5689C150.595 23.3658 142.539 36.0604 148.186 41.2922C150.646 43.5696 154.001 42.8546 154.234 44.5036Z" fill="url(#paint10_linear_1_254)"/>
<path d="M137.282 2.85858C137.282 2.85858 135.803 4.53877 134.213 5.409C132.775 6.19609 129.607 4.87065 128.874 4.71614C128.141 4.56163 129.021 6.5342 130.404 7.89498C131.787 9.25575 136.358 12.366 137.59 12.4187C138.823 12.4713 137.392 11.3911 136.635 10.1322C135.878 8.87329 136.945 6.27576 137.9 5.47482C138.855 4.67387 137.282 2.85858 137.282 2.85858Z" fill="url(#paint11_linear_1_254)"/>
<path d="M140.677 4.17297C142.356 4.04549 144.052 1.97799 143.71 1.0752C143.611 0.817452 143.394 0.776574 140.107 0.234757C138.475 -0.034072 137.659 -0.14493 137.095 0.304043C136.748 0.581187 136.482 1.07035 136.397 1.53387C136.354 1.77291 136.351 2.10132 136.392 2.75607C136.428 3.33669 136.418 3.31036 136.433 3.48288C136.469 3.8986 136.582 4.61987 136.983 5.6252C137.188 5.39982 137.411 5.19279 137.652 5.00648C137.964 4.76386 138.306 4.56222 138.67 4.40646C139.506 4.07251 140.135 4.21454 140.677 4.17297Z" fill="url(#paint12_linear_1_254)"/>
<path d="M136.373 4.5041C136.373 4.5041 136.451 6.11361 137.961 6.81825C139.316 7.45014 141.115 4.6205 140.62 3.53964C140.455 3.17935 139.944 2.7872 139.42 2.66594C139.11 2.59666 138.959 2.65555 138.456 2.52737C137.991 2.41028 137.901 2.30219 137.722 2.33822C137.498 2.38326 137.212 2.63892 136.999 3.63664C136.887 3.24725 136.64 2.98605 136.375 2.97011C136.279 2.97047 136.185 2.99784 136.104 3.0491C135.74 3.2812 135.811 3.87637 136.373 4.5041Z" fill="url(#paint13_linear_1_254)"/>
<path d="M118.804 45.0046C116.344 45.581 110.745 46.479 106.259 43.3736C98.786 38.2007 95.682 27.7441 96.8883 22.3155C99.0846 12.4187 114.374 3.92356 116.744 3.92426C122.873 3.92426 128.783 15.6481 125.986 19.6418C125.07 20.9492 122.616 18.8374 119.633 20.2764C118.663 20.7448 109.674 22.0876 109.146 27.8688C108.777 31.9151 114.813 39.9294 119.444 42.4126L118.804 45.0046Z" fill="url(#paint14_linear_1_254)"/>
<path d="M174.308 110.47C174.308 125.674 169.533 139.778 161.437 151.386C161.405 151.434 161.291 151.48 161.291 151.525C148.588 170.138 126.82 182.196 102.403 182.196C100.406 182.196 98.4928 182.103 96.5376 181.833C96.5299 181.833 96.5258 181.952 96.5182 181.952C95.5551 181.872 94.6003 181.835 93.6497 181.718C93.3116 181.678 92.9735 181.664 92.6368 181.617C92.3388 181.577 92.0423 181.548 91.7457 181.505C91.4873 181.467 91.2309 181.436 90.976 181.393C90.9185 181.383 90.8603 181.377 90.8028 181.369C90.1792 181.265 89.5515 181.158 88.932 181.038H88.9216C55.724 174.697 30.6404 145.512 30.6404 110.466C30.6404 103.056 31.7164 95.9076 33.8012 89.182C34.1275 88.1274 34.5343 87.0854 34.8045 86.053C35.6151 84.3326 36.1583 82.6441 36.9045 80.9868C37.2045 80.3245 37.5371 79.6662 37.853 79.0136C39.5993 75.4434 41.6387 72.0242 43.9502 68.7911C44.1581 68.4987 44.3756 68.2084 44.589 67.9181C45.4399 66.7601 46.3265 65.6284 47.2489 64.5231C48.6277 62.8686 50.0779 61.278 51.5994 59.7514C55.5656 55.7693 59.9837 52.2643 64.7637 49.3079C66.246 48.391 67.7638 47.5277 69.3172 46.718C79.5592 41.3747 90.9435 38.5932 102.495 38.6115C119.601 38.6115 135.309 44.5868 147.646 54.5646C156.723 61.9048 164.102 71.4074 168.745 82.2901C169.784 84.7206 170.484 87.2198 171.566 89.7778C171.566 89.7896 171.442 89.7972 171.446 89.809C173.403 96.3586 174.308 103.291 174.308 110.47Z" fill="url(#paint15_linear_1_254)"/>
<g style="mix-blend-mode:soft-light">
<g style="mix-blend-mode:soft-light">
<path d="M118.144 134.692C116.603 136.865 111.832 139.654 115.069 145.132C118.277 150.596 114.846 151.621 112.638 151.11C110.43 150.598 103.526 150.322 104.675 153.455C105.825 156.588 107.793 157.767 105.27 158.979C102.748 160.19 101.678 163.333 99.0935 167.668C96.5299 172.01 90.4286 168.255 92.2342 172.607C94.0398 176.96 95.4428 176.54 95.2738 179.573C95.2343 180.405 95.7872 181.262 96.5348 182.076C95.5724 181.996 94.6052 181.898 93.6469 181.781C93.3088 181.741 92.9712 181.697 92.634 181.65C92.336 181.61 92.0395 181.569 91.743 181.522C91.4843 181.485 91.2277 181.445 90.9732 181.403C90.9157 181.393 90.9302 181.384 90.8727 181.375C90.2561 181.272 89.936 181.16 89.1253 181.043C88.5842 180.53 88.923 179.973 89.0048 179.372C89.8106 173.77 82.0817 169.922 80.7868 165.997C79.514 162.082 80.7708 159.747 80.4764 156.504C80.1819 153.262 81.233 148.972 79.3678 146.242C77.5026 143.513 69.9899 142.612 68.5592 137.124C67.1194 131.65 70.4687 123.446 71.7699 122.049C73.0545 120.653 65.548 114.299 61.9756 114.096C58.3873 113.878 59.8229 106.653 53.7555 107.753C47.6764 108.819 36.7555 105.427 39.0115 101.78C40.8732 98.7739 44.0001 92.1439 33.7957 89.1875C34.122 88.1336 34.5266 87.0909 34.7968 86.0585C35.6075 84.3382 36.1507 82.6497 36.8969 80.9923C37.1969 80.33 37.5295 79.6717 37.8454 79.0191C39.5933 75.4498 41.6326 72.0307 43.9426 68.7966C44.1504 68.5042 44.368 68.2139 44.5814 67.9236C45.4341 66.7656 46.3207 65.634 47.2413 64.5286C48.6201 62.8741 50.0702 61.2835 51.5917 59.7569C55.558 55.7748 59.9761 52.2698 64.7561 49.3134C66.7772 50.7296 69.0851 51.5999 71.0777 50.5266C75.9659 47.7919 72.7406 47.372 70.7424 47.2702C70.2206 47.2371 69.7211 47.0462 69.3102 46.7228C73.0969 44.7465 77.0538 43.1154 81.1332 41.8492C80.829 44.6082 77.0793 49.0404 79.8382 48.5007C83.049 47.8903 84.3598 39.2164 86.717 42.0973C89.108 44.9921 84.1014 48.7855 88.8038 46.587C93.5153 44.4108 94.1389 39.5531 99.388 41.9165C104.661 44.3096 104.18 47.142 105.652 46.8614C107.124 46.5808 111.861 49.7714 108.992 52.3939C106.098 55.0267 103.444 51.6733 99.106 50.6617C94.7652 49.6633 94.8705 53.2135 92.8702 54.0256C90.8388 54.8092 81.0424 50.0763 78.6375 54.3533C76.2063 58.5984 75.1732 61.559 78.7809 61.4509C82.3887 61.3428 82.618 60.4165 82.3353 63.0819C82.0526 65.7474 82.7032 67.747 85.9694 65.2388C89.2355 62.7306 88.4962 60.2911 91.0418 61.4849C93.5873 62.6787 93.8908 61.5985 96.5999 59.6308C99.309 57.6631 102.87 57.4587 103.806 61.8729C104.742 66.2871 103.143 67.2772 98.3812 67.5024C93.6192 67.7276 93.0781 66.231 91.56 70.2135C90.042 74.1961 83.7487 79.3142 78.2163 81.4226C72.6838 83.531 70.5304 86.6565 70.6579 90.8677C70.7853 95.0789 68.7123 99.536 67.3259 96.0593C65.9395 92.5825 62.0304 86.7001 58.0478 90.6245C54.0653 94.5488 47.1131 101.509 54.7914 102.781C62.4496 104.076 58.4531 96.9004 62.3241 98.3346C66.1952 99.7688 59.8756 102.942 62.4593 104.085C65.0429 105.229 66.1314 104.698 66.1113 108.224C66.0912 111.751 66.9691 115.172 70.1098 113.677C73.2505 112.181 77.2809 105.276 81.8191 109.364C86.3574 113.452 86.0456 112.929 88.429 111.735C90.8125 110.541 92.3298 114.117 93.3067 115.743C94.2837 117.37 98.1145 115.71 101.22 120.552C104.325 125.394 105.54 126.257 109.079 124.514C112.618 122.772 114.06 124.067 114.983 126.511C115.906 128.956 118.082 126.567 119.132 129.797C120.183 133.027 119.676 132.52 118.144 134.692Z" fill="white"/>
</g>
<g style="mix-blend-mode:soft-light">
<path d="M130.263 76.0349C127.754 70.6521 140.183 71.2542 142.379 71.6699C144.589 72.0378 149.773 67.9859 150.431 66.1021C151.107 64.2043 152.218 65.1057 156.151 65.0517C160.081 65.0101 156.608 64.1212 152.281 62.696C147.954 61.2708 151.657 61.1308 147.674 57.9845C145.961 56.6078 146.5 55.4383 147.642 54.5687C156.789 61.9616 163.988 71.4802 168.611 82.2942C168.491 82.2563 168.367 82.2348 168.241 82.2304C165.488 82.2145 164.881 76.1277 163.46 74.9423C162.062 73.7589 163.5 78.286 163.843 80.1456C164.185 82.0053 163.088 80.4422 161.716 82.1508C160.344 83.8594 157.849 83.8933 157.624 81.3277C157.4 78.762 155.591 76.2532 151.929 75.0836C148.267 73.9141 145.098 74.8757 142.122 76.0224C139.164 77.1532 132.789 81.3762 130.263 76.0349Z" fill="white"/>
</g>
<g style="mix-blend-mode:soft-light">
<path d="M161.463 151.529C161.711 149.681 162.117 147.771 161.345 147.073C159.469 145.333 159.058 140.59 159.71 138.187C160.362 135.784 165.413 135.915 161.984 131.915C158.544 127.903 155.445 123.141 156.889 120.414C158.333 117.687 157.896 117.496 155.189 117.512C152.482 117.528 151.289 117.65 148.591 115.236C145.889 112.793 142.173 121.001 132.006 114.419C121.842 107.767 127.63 96.5658 131.44 96.538C135.273 96.4743 139.754 94.5384 136.61 89.8637C133.478 85.1717 138.372 84.5093 140.763 85.5749C143.158 86.6295 147.405 83.797 151.734 82.5201C156.063 81.2432 155.881 88.3166 158.29 89.7307C160.715 91.1469 165.252 90.0231 167.611 87.7595C169.296 86.1445 169.664 88.0277 171.329 89.8159C173.334 96.5164 174.35 103.474 174.343 110.468C174.346 125.735 169.585 139.889 161.463 151.529Z" fill="white"/>
</g>
<g style="mix-blend-mode:soft-light">
<path d="M143.281 67.0755C143.281 67.0714 146.451 65.6413 145.303 63.3341C144.165 61.0296 142.36 53.9673 141.043 56.1928C139.725 58.4182 141.672 62.7694 141.244 64.6422C140.817 66.515 140.802 67.5072 143.281 67.0755Z" fill="white"/>
</g>
<g style="mix-blend-mode:soft-light">
<path d="M140.118 64.9214C140.073 64.1787 140.541 61.1634 138.168 61.2583C138.173 61.2534 134.736 62.6877 136.747 65.1238C138.758 67.5599 140.17 65.6607 140.118 64.9214Z" fill="white"/>
</g>
</g>
<path style="mix-blend-mode:multiply" opacity="0.3" d="M174.116 110.345C174.116 125.548 169.437 139.653 161.341 151.26C161.311 151.3 161.293 151.348 161.291 151.399C148.317 170.012 126.725 182.014 102.308 182.014C100.314 182.009 98.3232 181.868 96.3489 181.591C96.3406 181.591 96.3372 181.769 96.3288 181.769C95.3665 181.69 94.411 181.68 93.4604 181.562C93.1223 181.521 92.7842 181.523 92.4481 181.475C92.1495 181.435 91.853 181.416 91.5571 181.37C91.298 181.332 91.0416 181.305 90.7867 181.263C90.7291 181.253 90.6716 181.248 90.6141 181.24C89.9871 181.137 89.3628 181.032 88.7399 180.91H88.7302C58.031 175.047 34.2715 149.63 30.8682 118.127C38.067 138.774 55.8686 154.294 77.754 158.617H77.7616C78.2985 158.887 78.8376 158.832 79.3787 158.922C79.4286 158.928 79.4806 158.946 79.5298 158.954C79.7487 158.99 79.9718 159.023 80.1942 159.058C80.4492 159.098 80.7056 159.127 80.964 159.164C81.255 159.205 81.5453 159.233 81.8377 159.264C82.6594 159.366 83.4825 159.553 84.314 159.62C84.3223 159.62 84.3257 159.698 84.332 159.698C86.0205 159.698 87.7034 159.837 89.428 159.837C99.9712 159.837 109.907 157.157 118.597 152.532C127.269 147.907 134.713 141.28 140.309 133.201C140.309 133.16 140.379 133.104 140.403 133.063C147.395 123.039 151.489 110.851 151.489 97.7221C151.494 91.6813 150.617 85.6721 148.884 79.8851C148.884 79.8748 148.859 79.863 148.859 79.8533C148.318 77.6451 147.448 75.4883 146.553 73.3882C143.098 65.291 137.961 58.0202 131.485 52.0575C125.008 46.0947 117.338 41.576 108.983 38.8007C123.071 40.0948 136.459 45.5397 147.451 54.4461C156.527 61.7863 163.867 71.2881 168.51 82.1716C169.549 84.6021 170.21 87.1006 171.291 89.6586C171.291 89.6704 171.207 89.6787 171.211 89.6905C173.172 96.2332 174.116 103.167 174.116 110.345Z" fill="url(#paint16_linear_1_254)"/>
<path d="M93.2397 95.3096C93.2397 106.473 77.5998 126.844 70.5222 135.491C70.1091 135.996 69.5892 136.402 68.9999 136.681C68.4107 136.961 67.7668 137.105 67.1147 137.105C66.4627 137.105 65.8188 136.961 65.2295 136.681C64.6402 136.402 64.1203 135.996 63.7072 135.491C56.6331 126.844 40.9897 106.473 40.9897 95.3096C40.9897 80.8815 52.6866 69.1847 67.1147 69.1847C81.5428 69.1847 93.2397 80.8815 93.2397 95.3096Z" fill="url(#paint17_linear_1_254)"/>
<path d="M77.4177 105.613C83.1077 99.9226 83.1077 90.6973 77.4177 85.0073C71.7277 79.3173 62.5024 79.3173 56.8124 85.0073C51.1224 90.6973 51.1224 99.9226 56.8124 105.613C62.5024 111.303 71.7277 111.303 77.4177 105.613Z" fill="white"/>
<g style="mix-blend-mode:multiply" opacity="0.3">
<path style="mix-blend-mode:multiply" opacity="0.3" d="M66.999 124.765C68.657 113.85 75.8676 110.354 74.6274 100.049C73.2008 88.1628 62.6763 84.9971 62.4227 74.4185C62.3872 72.7567 62.5988 71.0989 63.0504 69.4992C50.5526 71.4517 40.9897 82.2631 40.9897 95.3089C40.9897 106.472 56.6297 126.844 63.7072 135.491C64.1914 136.084 64.8224 136.54 65.5376 136.815C66.2528 137.089 67.0272 137.171 67.784 137.053C66.5175 132.273 66.4794 128.191 66.999 124.765Z" fill="url(#paint18_linear_1_254)"/>
</g>
<path d="M26.8554 190.295C25.9499 191.209 25.5833 192.19 25.9118 192.764C26.139 193.162 26.642 193.265 27.1929 193.371C28.0624 193.538 28.9687 193.493 30.8331 192.967C32.5729 192.475 33.5956 192.187 33.597 191.769C33.597 191.377 32.7032 191.076 31.9175 190.806C31.029 190.505 30.102 190.333 29.1647 190.295H26.8554Z" fill="url(#paint19_linear_1_254)"/>
<path d="M53.9149 175.474C53.5075 175.65 52.9844 175.959 52.8452 176.475C52.6248 177.285 53.4909 178.122 54.8766 179.426C55.9159 180.405 57.3197 181.728 57.8081 181.395C58.1074 181.187 57.9307 180.456 57.7658 179.772C57.5677 178.949 57.1298 177.675 56.0455 176.279L53.9149 175.474Z" fill="url(#paint20_linear_1_254)"/>
<path d="M28.8426 188.282L26.8936 190.443C26.8475 190.493 26.8151 190.555 26.7994 190.622C26.7838 190.689 26.7855 190.758 26.8043 190.824C26.8231 190.89 26.8584 190.95 26.9069 190.999C26.9553 191.047 27.0154 191.083 27.0814 191.102C27.5082 191.221 28.1033 191.317 28.65 191.163C28.7695 191.125 28.8778 191.059 28.9653 190.969L30.9101 189.069L28.8426 188.282Z" fill="url(#paint21_linear_1_254)"/>
<path d="M54.9953 174.17L53.9442 175.683C53.9091 175.734 53.8851 175.792 53.8737 175.852C53.8624 175.913 53.8639 175.975 53.8782 176.035C53.8925 176.095 53.9193 176.151 53.9568 176.2C53.9944 176.249 54.0418 176.289 54.096 176.319C54.2629 176.412 54.4366 176.492 54.6156 176.559C54.7644 176.613 54.9261 176.622 55.0799 176.584C55.2337 176.545 55.3724 176.462 55.4782 176.344L56.6187 175.061L54.9953 174.17Z" fill="url(#paint22_linear_1_254)"/>
<path d="M36.1245 142.453C37.475 145.272 38.4608 148.252 39.0581 151.321C39.365 152.906 40.8027 160.886 37.7132 170.502C34.8358 179.451 29.5424 185.148 26.7224 187.789C27.9922 188.866 29.5868 189.484 31.2502 189.546C39.8563 183.403 44.0294 176.442 45.9236 172.655C52.3153 159.875 50.712 147.33 47.9177 142.024C47.0024 140.282 45.9631 139.338 44.7901 138.919C41.023 137.571 36.6552 141.911 36.1245 142.453Z" fill="url(#paint23_linear_1_254)"/>
<path style="mix-blend-mode:multiply" opacity="0.3" d="M47.9177 142.024C47.0024 140.282 45.9631 139.338 44.7901 138.919C41.023 137.572 36.6552 141.911 36.1231 142.453C37.4497 145.224 38.424 148.151 39.0234 151.165C41.6563 151.784 45.3285 153.251 47.1237 156.721C50.0226 162.333 45.855 169.06 44.9903 170.455C43.0871 173.527 41.9341 173.239 39.1232 177.656C36.9996 180.991 36.8368 182.444 34.9896 184.056C32.8168 185.952 30.1029 186.507 27.9121 186.629C27.4818 187.065 27.0806 187.453 26.7224 187.79C27.9922 188.866 29.5868 189.485 31.2502 189.546C39.8563 183.403 44.0294 176.443 45.9236 172.656C52.3153 159.875 50.712 147.33 47.9177 142.024Z" fill="url(#paint24_linear_1_254)"/>
<path d="M40.9897 141.986C41.6604 143.356 42.5374 144.615 43.5901 145.719C46.9677 149.241 50.1265 148.907 53.7058 151.81C54.1465 152.167 57.3163 154.796 58.4865 158.63C60.7397 166.012 54.1908 173.29 53.4668 174.075C54.5786 175.106 55.9647 175.794 57.4583 176.056C66.8459 167.479 71.4333 157.084 68.3092 150.329C66.6055 146.644 62.5709 143.965 59.5916 141.987C55.7618 139.452 51.5131 137.616 47.0426 136.563L40.9897 141.986Z" fill="url(#paint25_linear_1_254)"/>
<path d="M46.5901 122.406C46.7286 126.557 45.769 128.711 47.1173 132.098C48.0873 134.532 49.6906 136.205 50.908 137.245C49.632 139.695 47.7533 141.78 45.4489 143.303C41.6382 145.809 37.8538 145.976 36.3669 145.963C33.2172 144.343 28.4392 141.288 24.6042 135.848C22.0046 132.161 19.1494 128.11 19.9053 122.951C20.8649 116.395 26.9406 112.892 28.663 111.9C29.7965 111.245 37.6265 106.731 42.4121 110.05C46.2603 112.717 46.4847 119.301 46.5901 122.406Z" fill="url(#paint26_linear_1_254)"/>
<path d="M72.7595 127.117C72.8849 126.447 73.3643 125.96 73.6387 125.684C73.9567 125.362 74.0218 125.413 74.229 125.15C74.7514 124.489 74.6253 123.807 74.8263 123.784C75.0009 123.764 75.3071 124.256 75.2863 124.764C75.2635 125.333 74.8477 125.502 74.926 125.818C75.0362 126.26 76.0208 126.58 76.8931 126.418C77.9039 126.226 78.3973 125.411 78.7929 125.617C79.0804 125.767 79.0617 126.304 79.0596 126.35C79.016 127.357 77.6739 128.413 76.3575 128.551C75.6023 128.63 75.3182 128.357 74.4237 128.584C73.8299 128.735 73.6221 128.94 73.3241 128.818C72.8378 128.617 72.6382 127.758 72.7595 127.117Z" fill="white"/>
<path d="M72.9036 126.762C64.8193 127.322 59.9908 125.219 57.08 123.206C50.4771 118.64 49.1814 111.38 41.5233 109.427C40.1265 109.071 37.6945 108.451 36.367 109.693C33.6094 112.276 36.8617 121.743 42.5903 127.562C43.8547 128.847 48.4103 133.341 55.9347 134.356C65.5759 135.657 72.4941 130.216 73.6851 129.245C73.8704 129.039 73.9959 128.786 74.0481 128.514C74.1004 128.242 74.0774 127.96 73.9817 127.7C73.7059 126.965 72.9645 126.776 72.9036 126.762Z" fill="url(#paint27_linear_1_254)"/>
<path style="mix-blend-mode:multiply" opacity="0.3" d="M32.9006 139.473C30.6239 137.317 31.7013 135.98 28.9 131.651C26.0461 127.239 23.9925 127.157 22.6775 124.183C21.9971 122.645 21.5772 120.435 22.3269 117.261C21.174 118.815 20.2351 120.698 19.9053 122.951C19.1501 128.112 22.0047 132.16 24.6043 135.847C28.4393 141.287 33.2172 144.342 36.367 145.963C37.8539 145.976 41.641 145.809 45.449 143.303C46.7039 142.477 47.8364 141.478 48.8135 140.336C47.5331 141.045 46.1559 141.563 44.7256 141.874C43.9642 142.037 37.0723 143.426 32.9006 139.473Z" fill="url(#paint28_linear_1_254)"/>
<path d="M30.8125 107.409L30.1543 109.634C29.9438 110.347 29.5164 110.976 28.9314 111.435L27.1868 112.798C27.1868 112.798 32.5169 111.903 35.066 109.42L33.5091 108.928C33.429 108.904 33.3588 108.854 33.3089 108.787C33.2591 108.719 33.2321 108.637 33.232 108.554V106.918L30.8125 107.409Z" fill="white"/>
<path d="M32.7293 108.533C32.9829 108.477 34.8225 108.778 35.3456 107.893C36.0558 106.693 35.349 104.775 35.2763 104.478C34.9777 103.238 34.8668 103.05 34.6368 102.787L34.3111 102.441C34.3111 102.441 34.291 102.425 34.2696 102.411C34.043 102.255 33.197 102.002 33.0148 101.995C32.4321 101.965 31.2452 104.056 30.5662 107.278C30.5108 107.393 30.4561 107.509 30.402 107.624C30.2621 107.932 32.712 108.651 32.7293 108.533Z" fill="white"/>
<path d="M35.6956 101.845C35.4302 102.829 34.6861 103.756 34.4048 103.862C34.2363 103.934 34.0807 104.034 33.944 104.156C33.911 104.186 33.8819 104.22 33.8574 104.258C33.4763 104.821 34.2676 105.813 34.0036 106.041C33.8117 106.205 33.213 105.757 33.0869 105.91C32.9608 106.062 33.4334 106.541 33.2948 106.714C33.1909 106.845 32.8839 106.619 32.6075 106.788C32.4689 106.872 32.4772 106.97 32.2708 107.285C32.1635 107.452 32.0413 107.608 31.9056 107.753C31.4109 108.238 30.391 108.194 30.2677 107.913C30.2331 107.835 30.2919 107.793 30.2968 107.563C30.295 107.399 30.2705 107.235 30.224 107.078C30.1125 106.694 29.6947 106.329 29.3025 105.849C28.5764 104.963 28.4787 104.346 28.4552 104.139C28.4469 104.07 28.4441 104.012 28.442 103.972C28.4018 103.185 28.6845 102.119 29.1854 101.547C30.0245 100.595 31.1185 101.445 32.4176 100.627C33.9156 99.6816 33.68 97.7811 34.3618 97.7603C35.117 97.7416 36.1868 100.027 35.6956 101.845Z" fill="#26264F"/>
<path d="M33.7113 105.715C33.5582 105.319 33.0517 105.518 32.9346 105.946C32.8175 106.374 33.1148 106.931 33.5402 106.953C33.9656 106.975 33.9171 106.248 33.7113 105.715Z" fill="white"/>
<path d="M154.239 43.289C154.239 51.9553 142.098 67.7698 136.603 74.4829C136.282 74.8746 135.879 75.1903 135.421 75.407C134.964 75.6237 134.464 75.7361 133.958 75.7361C133.451 75.7361 132.952 75.6237 132.494 75.407C132.037 75.1903 131.633 74.8746 131.312 74.4829C125.818 67.7698 113.676 51.9553 113.676 43.289C113.676 32.0876 122.757 23.0076 133.958 23.0076C145.158 23.0076 154.239 32.0876 154.239 43.289Z" fill="url(#paint29_linear_1_254)"/>
<path d="M141.956 51.2869C146.373 46.8697 146.373 39.708 141.956 35.2908C137.539 30.8736 130.377 30.8736 125.96 35.2908C121.543 39.708 121.543 46.8697 125.96 51.2869C130.377 55.704 137.539 55.7041 141.956 51.2869Z" fill="white"/>
<g style="mix-blend-mode:multiply" opacity="0.3">
<path style="mix-blend-mode:multiply" opacity="0.3" d="M133.868 66.1561C135.155 57.6825 140.751 54.9699 139.79 46.9688C138.682 37.7406 130.512 35.283 130.315 27.0705C130.287 25.7808 130.45 24.494 130.8 23.2522C121.1 24.7682 113.674 33.1601 113.674 43.289C113.674 51.9553 125.815 67.7698 131.31 74.4829C131.686 74.9435 132.176 75.2978 132.731 75.5106C133.286 75.7234 133.887 75.7874 134.475 75.6961C133.494 71.9845 133.464 68.8153 133.868 66.1561Z" fill="url(#paint30_linear_1_254)"/>
</g>
<path d="M113.337 39.7963C113.337 39.7963 114.315 35.1542 115.405 35.0849C116.495 35.0156 118.169 38.784 118.169 38.784C118.169 38.784 115.198 40.0229 113.337 39.7963Z" fill="url(#paint31_linear_1_254)"/>
<path d="M154.246 39.824C154.246 39.824 156.195 44.1412 154.925 45.5838C153.655 47.0263 152.347 44.3408 152.616 43.289C152.886 42.2373 154.246 39.824 154.246 39.824Z" fill="url(#paint32_linear_1_254)"/>
<path d="M181.162 167.871V173.503C181.162 173.756 181.069 174 180.899 174.187C180.73 174.375 180.496 174.493 180.245 174.519L122.586 179.983L114.826 185.119L104.108 170.863L181.162 167.871Z" fill="url(#paint33_linear_1_254)"/>
<path d="M136.967 175.611V180.652C136.967 180.856 136.894 181.054 136.761 181.21C136.629 181.366 136.445 181.469 136.243 181.501L122.4 183.725L122.803 175.6L136.052 174.753C136.169 174.745 136.287 174.762 136.397 174.802C136.508 174.842 136.609 174.904 136.695 174.984C136.781 175.064 136.849 175.162 136.896 175.269C136.943 175.377 136.967 175.494 136.967 175.611Z" fill="url(#paint34_linear_1_254)"/>
<path d="M175.32 170.47C175.366 170.47 175.412 170.473 175.458 170.479L176.19 170.47L176.186 170.792C176.895 171.346 177.387 172.559 177.387 173.967C177.387 175.429 176.856 176.682 176.101 177.204V177.463H175.32C174.177 177.463 173.251 175.898 173.251 173.967C173.251 172.036 174.179 170.47 175.32 170.47Z" fill="url(#paint35_linear_1_254)"/>
<path d="M176.192 177.463C177.335 177.463 178.261 175.898 178.261 173.967C178.261 172.035 177.335 170.47 176.192 170.47C175.05 170.47 174.123 172.035 174.123 173.967C174.123 175.898 175.05 177.463 176.192 177.463Z" fill="url(#paint36_linear_1_254)"/>
<path d="M176.483 175.931C177.125 175.931 177.645 175.051 177.645 173.967C177.645 172.882 177.125 172.002 176.483 172.002C175.842 172.002 175.321 172.882 175.321 173.967C175.321 175.051 175.842 175.931 176.483 175.931Z" fill="#D8DEE8"/>
<path d="M175.32 173.966C175.32 174.973 175.761 175.79 176.306 175.79C176.85 175.79 177.292 174.973 177.292 173.966C177.292 172.96 176.85 172.142 176.306 172.142C175.761 172.142 175.32 172.959 175.32 173.966Z" fill="url(#paint37_linear_1_254)"/>
<path d="M170.432 170.863C170.484 170.863 170.535 170.867 170.585 170.873L171.387 170.863L171.383 171.216C172.16 171.824 172.699 173.152 172.699 174.694C172.699 176.297 172.117 177.67 171.29 178.241V178.526H170.437C169.185 178.526 168.17 176.81 168.17 174.694C168.17 172.578 169.181 170.863 170.432 170.863Z" fill="url(#paint38_linear_1_254)"/>
<path d="M171.387 178.525C172.639 178.525 173.654 176.81 173.654 174.694C173.654 172.578 172.639 170.863 171.387 170.863C170.136 170.863 169.121 172.578 169.121 174.694C169.121 176.81 170.136 178.525 171.387 178.525Z" fill="url(#paint39_linear_1_254)"/>
<path d="M171.706 176.847C172.409 176.847 172.98 175.883 172.98 174.694C172.98 173.505 172.409 172.541 171.706 172.541C171.003 172.541 170.433 173.505 170.433 174.694C170.433 175.883 171.003 176.847 171.706 176.847Z" fill="#D8DEE8"/>
<path d="M171.513 176.692C172.11 176.692 172.594 175.798 172.594 174.694C172.594 173.59 172.11 172.696 171.513 172.696C170.917 172.696 170.433 173.59 170.433 174.694C170.433 175.798 170.917 176.692 171.513 176.692Z" fill="url(#paint40_linear_1_254)"/>
<path d="M165.215 170.863C165.27 170.864 165.326 170.867 165.382 170.874L166.257 170.863L166.252 171.249C167.101 171.912 167.69 173.362 167.69 175.046C167.69 176.796 167.053 178.295 166.151 178.919L166.147 179.23H165.215C163.848 179.23 162.74 177.359 162.74 175.046C162.74 172.733 163.848 170.863 165.215 170.863Z" fill="url(#paint41_linear_1_254)"/>
<path d="M166.257 179.229C167.624 179.229 168.732 177.356 168.732 175.046C168.732 172.736 167.624 170.863 166.257 170.863C164.891 170.863 163.782 172.736 163.782 175.046C163.782 177.356 164.891 179.229 166.257 179.229Z" fill="url(#paint42_linear_1_254)"/>
<path d="M165.215 175.046C165.215 176.344 165.838 177.396 166.605 177.396C167.372 177.396 167.995 176.344 167.995 175.046C167.995 173.748 167.371 172.696 166.605 172.696C165.839 172.696 165.215 173.748 165.215 175.046Z" fill="#D8DEE8"/>
<path d="M165.215 175.046C165.215 176.251 165.743 177.228 166.392 177.228C167.042 177.228 167.57 176.251 167.57 175.046C167.57 173.841 167.042 172.864 166.392 172.864C165.743 172.864 165.215 173.839 165.215 175.046Z" fill="url(#paint43_linear_1_254)"/>
<path d="M141.155 173.045C141.226 173.046 141.298 173.05 141.368 173.058L142.486 173.045L142.48 173.537C143.563 174.384 144.315 176.239 144.315 178.387C144.315 180.621 143.502 182.534 142.35 183.331L142.345 183.728H141.155C139.41 183.728 137.996 181.336 137.996 178.387C137.996 175.437 139.41 173.045 141.155 173.045Z" fill="url(#paint44_linear_1_254)"/>
<path d="M142.486 183.725C144.231 183.725 145.646 181.334 145.646 178.385C145.646 175.436 144.231 173.045 142.486 173.045C140.741 173.045 139.327 175.436 139.327 178.385C139.327 181.334 140.741 183.725 142.486 183.725Z" fill="url(#paint45_linear_1_254)"/>
<path d="M141.155 178.385C141.155 180.042 141.95 181.385 142.93 181.385C143.911 181.385 144.705 180.042 144.705 178.385C144.705 176.728 143.911 175.385 142.93 175.385C141.95 175.385 141.155 176.728 141.155 178.385Z" fill="#D8DEE8"/>
<path d="M142.661 181.17C143.493 181.17 144.168 179.923 144.168 178.385C144.168 176.847 143.493 175.6 142.661 175.6C141.829 175.6 141.155 176.847 141.155 178.385C141.155 179.923 141.829 181.17 142.661 181.17Z" fill="url(#paint46_linear_1_254)"/>
<path d="M120.132 173.889C120.223 173.89 120.314 173.895 120.405 173.906L121.833 173.889L121.824 174.517C123.21 175.6 124.168 177.965 124.168 180.712C124.168 183.566 123.129 186.01 121.659 187.028L121.652 187.533H120.132C117.903 187.533 116.096 184.479 116.096 180.712C116.096 176.944 117.903 173.889 120.132 173.889Z" fill="url(#paint47_linear_1_254)"/>
<path d="M121.833 187.534C124.062 187.534 125.868 184.48 125.868 180.712C125.868 176.944 124.062 173.889 121.833 173.889C119.604 173.889 117.797 176.944 117.797 180.712C117.797 184.48 119.604 187.534 121.833 187.534Z" fill="url(#paint48_linear_1_254)"/>
<path d="M122.4 184.544C123.652 184.544 124.668 182.828 124.668 180.712C124.668 178.595 123.652 176.879 122.4 176.879C121.148 176.879 120.132 178.595 120.132 180.712C120.132 182.828 121.148 184.544 122.4 184.544Z" fill="#D8DEE8"/>
<path d="M122.057 184.27C123.12 184.27 123.981 182.677 123.981 180.711C123.981 178.746 123.12 177.153 122.057 177.153C120.994 177.153 120.133 178.746 120.133 180.711C120.133 182.677 120.994 184.27 122.057 184.27Z" fill="url(#paint49_linear_1_254)"/>
<path d="M184.592 137.895C184.958 137.956 185.29 138.144 185.529 138.427C185.769 138.71 185.901 139.068 185.901 139.439V167.984C185.901 168.384 185.748 168.769 185.473 169.06C185.198 169.351 184.822 169.525 184.423 169.547L130.769 172.542V128.945L184.592 137.895Z" fill="url(#paint50_linear_1_254)"/>
<path d="M100.509 129.964L130.767 128.945V172.542H98.8823V131.644C98.8828 131.208 99.0527 130.788 99.3562 130.475C99.6597 130.162 100.073 129.978 100.509 129.964Z" fill="url(#paint51_linear_1_254)"/>
<path style="mix-blend-mode:multiply" opacity="0.3" d="M142.103 161.583C148.994 158.41 155.461 163.254 161.765 158.572C167.287 154.472 165.507 148.395 169.914 141.212C171.071 139.336 172.488 137.634 174.122 136.154L184.592 137.896C184.958 137.956 185.29 138.145 185.529 138.428C185.769 138.71 185.9 139.069 185.901 139.439V167.985C185.901 168.385 185.747 168.77 185.473 169.061C185.198 169.351 184.822 169.526 184.423 169.548L133.534 172.389C135.87 165.999 139.043 162.993 142.103 161.583Z" fill="url(#paint52_linear_1_254)"/>
<path d="M82.7624 158.749L84.9989 153.123L85.0682 148.473L82.8095 148.021C82.7576 148.011 82.7082 147.99 82.6645 147.96C82.6208 147.931 82.5837 147.892 82.5553 147.847C82.5269 147.803 82.5079 147.753 82.4994 147.701C82.4909 147.648 82.4932 147.595 82.506 147.544C82.8476 146.172 84.0996 141.644 86.0396 140.147C87.4108 139.093 113.408 138.778 113.408 138.778L125.919 139.593C126.393 139.624 126.836 139.834 127.161 140.18C127.485 140.527 127.666 140.983 127.667 141.458V169.184C127.667 169.535 127.535 169.873 127.298 170.131C127.061 170.39 126.735 170.55 126.385 170.581L117.794 171.325L116.094 173.045C116.094 173.045 91.7501 174.994 82.0356 173.222C81.7917 173.179 81.5709 173.051 81.4119 172.861C81.2529 172.671 81.1659 172.431 81.166 172.183V159.989C81.1688 158.217 82.7624 158.749 82.7624 158.749Z" fill="#F4F7FA"/>
<path style="mix-blend-mode:multiply" opacity="0.8" d="M109.156 160.432C109.156 160.432 109.421 148.386 109.156 143.427C109.027 141.02 110.232 139.616 111.507 138.807C112.696 138.788 113.407 138.78 113.407 138.78L125.919 139.593C126.392 139.624 126.836 139.834 127.161 140.181C127.485 140.527 127.666 140.983 127.666 141.458V169.184C127.666 169.535 127.535 169.873 127.298 170.132C127.061 170.39 126.735 170.55 126.385 170.581L117.794 171.325L116.094 173.045C116.094 173.045 112.086 173.366 106.671 173.628V163.355L109.156 160.432Z" fill="url(#paint53_linear_1_254)"/>
<path d="M81.4459 175.383L82.4083 175.046V173.095C82.4085 172.842 82.5089 172.6 82.6876 172.421C82.8662 172.243 83.1084 172.142 83.361 172.142H113.508C113.857 172.142 114.192 172.281 114.439 172.528C114.686 172.775 114.824 173.109 114.824 173.459V185.119C114.824 185.271 114.794 185.421 114.734 185.561C114.675 185.701 114.588 185.828 114.478 185.933C114.368 186.039 114.239 186.121 114.097 186.175C113.954 186.23 113.803 186.255 113.651 186.249L81.3683 185.007C81.0762 184.996 80.7998 184.872 80.5971 184.661C80.3944 184.451 80.2812 184.169 80.2813 183.877V177.022C80.2808 176.662 80.3928 176.31 80.6016 176.016C80.8103 175.723 81.1055 175.501 81.4459 175.383Z" fill="#97A6B7"/>
<path d="M85.1187 165.365H102.994C103.137 165.366 103.277 165.395 103.408 165.452C103.538 165.509 103.655 165.591 103.752 165.695C103.849 165.799 103.924 165.922 103.972 166.056C104.019 166.19 104.039 166.332 104.03 166.474L103.045 180.508C103.021 180.847 102.866 181.163 102.613 181.391C102.361 181.618 102.03 181.739 101.691 181.729L86.3333 181.208C86.0097 181.197 85.7017 181.066 85.4683 180.842C85.2349 180.617 85.0924 180.315 85.0681 179.992L84.0836 166.477C84.0737 166.335 84.0931 166.192 84.1406 166.058C84.1882 165.924 84.2628 165.801 84.3598 165.696C84.4569 165.592 84.5744 165.509 84.7049 165.452C84.8354 165.395 84.9763 165.366 85.1187 165.365Z" fill="url(#paint54_linear_1_254)"/>
<g style="mix-blend-mode:multiply" opacity="0.3">
<g style="mix-blend-mode:multiply" opacity="0.3">
<path d="M81.4459 175.383L82.4083 175.046V173.095C82.4078 172.897 82.469 172.704 82.5834 172.542C82.6978 172.381 82.8596 172.259 83.0464 172.194L84.8811 180.819C84.9873 181.319 85.2568 181.769 85.6472 182.097C86.0376 182.426 86.5265 182.616 87.0366 182.635L101.126 183.184C101.618 183.203 102.103 183.063 102.509 182.785C102.916 182.508 103.222 182.106 103.383 181.641L106.676 172.139H113.508C113.857 172.139 114.192 172.278 114.439 172.525C114.686 172.772 114.824 173.107 114.824 173.456V185.119C114.824 185.271 114.794 185.421 114.734 185.561C114.675 185.701 114.588 185.828 114.478 185.933C114.368 186.039 114.239 186.121 114.097 186.175C113.954 186.23 113.803 186.255 113.651 186.249L81.3683 185.007C81.0762 184.996 80.7998 184.872 80.5971 184.661C80.3944 184.45 80.2812 184.169 80.2813 183.877V177.022C80.2813 176.662 80.3935 176.31 80.6022 176.017C80.8109 175.723 81.1058 175.502 81.4459 175.383Z" fill="#97A6B7"/>
</g>
</g>
<path d="M105.171 182.397L108.523 182.564C109.524 182.614 110.505 182.273 111.26 181.613C112.014 180.952 112.482 180.025 112.564 179.026L112.699 177.396H105.988C105.88 177.396 105.774 177.417 105.675 177.458C105.576 177.5 105.486 177.56 105.41 177.636C105.334 177.712 105.274 177.802 105.233 177.901C105.192 178 105.171 178.106 105.171 178.214V182.397Z" fill="url(#paint55_linear_1_254)"/>
<path d="M83.5459 178.086L84.0808 181.731C84.0808 181.731 80.5472 181.607 80.6352 177.153L82.8281 177.394C83.0074 177.414 83.1752 177.492 83.3051 177.618C83.435 177.743 83.5197 177.908 83.5459 178.086Z" fill="url(#paint56_linear_1_254)"/>
<path d="M108.39 160.536H108.346L82.9098 160.084L82.6431 158.749L82.6486 158.724L84.9711 148.357H109.27L110.602 148.126C110.784 148.095 110.97 148.103 111.148 148.152C111.326 148.2 111.492 148.287 111.633 148.405C111.774 148.524 111.888 148.672 111.966 148.839C112.044 149.006 112.085 149.188 112.085 149.373V157.402C112.085 157.72 112.01 158.033 111.866 158.317C111.722 158.601 111.514 158.847 111.257 159.035L109.878 160.051C109.445 160.366 108.925 160.536 108.39 160.536ZM83.1004 159.852L108.347 160.301C108.845 160.308 109.333 160.153 109.737 159.86L111.115 158.85C111.342 158.683 111.526 158.466 111.654 158.215C111.781 157.964 111.847 157.687 111.848 157.406V149.376C111.848 149.226 111.815 149.077 111.751 148.94C111.688 148.804 111.595 148.683 111.48 148.586C111.365 148.489 111.23 148.418 111.085 148.379C110.939 148.339 110.787 148.332 110.639 148.358L109.29 148.591H85.1602L82.8835 158.749L83.1004 159.852Z" fill="#808080"/>
<path d="M85.0653 148.475H109.27L110.621 148.242C110.787 148.213 110.956 148.221 111.118 148.265C111.28 148.309 111.43 148.388 111.559 148.496C111.687 148.604 111.79 148.739 111.861 148.891C111.932 149.043 111.968 149.208 111.968 149.376V157.406C111.968 157.705 111.897 158.001 111.762 158.268C111.626 158.535 111.43 158.767 111.188 158.944L109.809 159.953C109.385 160.264 108.872 160.427 108.347 160.417L83.0061 159.967L82.7622 158.749L85.0653 148.475Z" fill="url(#paint57_linear_1_254)"/>
<path d="M102.17 145.685H100.111C99.799 145.685 99.5461 145.938 99.5461 146.249V147.113C99.5461 147.425 99.799 147.677 100.111 147.677H102.17C102.482 147.677 102.735 147.425 102.735 147.113V146.249C102.735 145.938 102.482 145.685 102.17 145.685Z" fill="#97A6B7"/>
<path d="M90.0804 145.685H88.0212C87.7094 145.685 87.4565 145.938 87.4565 146.249V147.113C87.4565 147.425 87.7094 147.677 88.0212 147.677H90.0804C90.3923 147.677 90.6451 147.425 90.6451 147.113V146.249C90.6451 145.938 90.3923 145.685 90.0804 145.685Z" fill="#97A6B7"/>
<g style="mix-blend-mode:overlay" opacity="0.3">
<path d="M92.6383 154.187C98.8837 151.798 104.759 154.776 107.451 151.53C108.179 150.653 108.473 149.561 108.541 148.475H109.27L110.621 148.242C110.787 148.213 110.956 148.221 111.118 148.265C111.28 148.309 111.43 148.388 111.559 148.496C111.687 148.604 111.79 148.739 111.861 148.891C111.932 149.043 111.968 149.208 111.968 149.376V157.406C111.968 157.705 111.897 158.001 111.762 158.268C111.626 158.535 111.429 158.767 111.187 158.944L109.809 159.953C109.386 160.264 108.872 160.427 108.347 160.417L85.3923 160.009C87.9871 156.511 90.622 154.959 92.6383 154.187Z" fill="white"/>
</g>
<path d="M85.3917 127.992C85.2387 127.992 85.0917 127.932 84.982 127.825C84.8723 127.719 84.8085 127.573 84.8042 127.42C84.8042 127.42 84.8042 127.347 84.8042 127.206C84.8164 125.989 84.8962 124.774 85.0432 123.565C85.0656 123.414 85.1458 123.278 85.2669 123.185C85.3881 123.092 85.5407 123.049 85.6924 123.067C85.8441 123.084 85.9831 123.16 86.08 123.278C86.1769 123.396 86.224 123.547 86.2114 123.7C86.0699 124.863 85.9928 126.034 85.9807 127.206C85.9807 127.322 85.9807 127.384 85.9807 127.388C85.9828 127.466 85.9697 127.542 85.9421 127.614C85.9145 127.686 85.873 127.752 85.8199 127.808C85.7668 127.864 85.7032 127.909 85.6327 127.941C85.5622 127.972 85.4862 127.989 85.4091 127.991L85.3917 127.992ZM86.2135 120.495C86.1746 120.495 86.1359 120.491 86.0978 120.483C85.9446 120.453 85.8099 120.363 85.7232 120.233C85.6365 120.103 85.605 119.944 85.6356 119.791C85.8816 118.556 86.1809 117.308 86.5246 116.082C86.5677 115.933 86.668 115.807 86.8035 115.731C86.939 115.656 87.0989 115.637 87.2483 115.679C87.3977 115.721 87.5245 115.82 87.6011 115.955C87.6777 116.09 87.698 116.249 87.6574 116.399C87.3214 117.597 87.0297 118.815 86.7899 120.02C86.7637 120.154 86.6918 120.274 86.5867 120.361C86.4816 120.447 86.3497 120.495 86.2135 120.495ZM88.2442 113.244C88.1496 113.244 88.0564 113.221 87.9724 113.177C87.8885 113.133 87.8163 113.07 87.7619 112.993C87.7075 112.915 87.6726 112.826 87.6601 112.732C87.6476 112.638 87.6578 112.543 87.69 112.454C88.1237 111.261 88.6073 110.075 89.1276 108.925C89.1595 108.855 89.2049 108.791 89.2612 108.738C89.3176 108.686 89.3838 108.644 89.4561 108.617C89.5284 108.59 89.6053 108.577 89.6825 108.58C89.7597 108.582 89.8357 108.6 89.9061 108.632C89.9765 108.664 90.0399 108.709 90.0927 108.765C90.1455 108.822 90.1868 108.888 90.214 108.96C90.2412 109.032 90.254 109.109 90.2515 109.187C90.249 109.264 90.2313 109.34 90.1995 109.41C89.6916 110.533 89.2191 111.692 88.7951 112.856C88.754 112.97 88.6792 113.067 88.5806 113.137C88.4821 113.206 88.3647 113.243 88.2442 113.244ZM91.3483 106.389C91.2461 106.388 91.1457 106.362 91.0571 106.311C90.9684 106.26 90.8944 106.187 90.8425 106.099C90.7905 106.011 90.7624 105.912 90.7608 105.809C90.7592 105.707 90.7843 105.606 90.8335 105.517C91.4425 104.408 92.1028 103.31 92.7963 102.252C92.8822 102.122 93.0159 102.032 93.1683 102C93.3208 101.969 93.4794 101.999 93.6095 102.085C93.7397 102.17 93.8307 102.303 93.8627 102.456C93.8947 102.608 93.865 102.767 93.7802 102.897C93.1033 103.93 92.4589 105.001 91.8644 106.084C91.8134 106.177 91.7382 106.254 91.6468 106.308C91.5555 106.361 91.4514 106.389 91.3455 106.389H91.3483ZM95.4708 100.099C95.3608 100.099 95.2531 100.069 95.1598 100.01C95.0665 99.9523 94.9914 99.8691 94.943 99.7703C94.8947 99.6716 94.875 99.5613 94.8862 99.4519C94.8974 99.3425 94.9391 99.2385 95.0066 99.1516C95.7784 98.1532 96.6001 97.1714 97.4503 96.2326C97.555 96.1169 97.7014 96.0476 97.8573 96.0399C98.0131 96.0321 98.1657 96.0866 98.2814 96.1914C98.397 96.2961 98.4664 96.4425 98.4741 96.5984C98.4818 96.7542 98.4273 96.9068 98.3226 97.0225C97.4911 97.9384 96.6902 98.8932 95.9371 99.8708C95.8821 99.9421 95.8115 99.9999 95.7306 100.04C95.6497 100.079 95.5608 100.1 95.4708 100.099ZM100.515 94.5275C100.397 94.5272 100.282 94.4918 100.185 94.4257C100.088 94.3595 100.012 94.2658 99.9689 94.1565C99.9253 94.0472 99.9155 93.9274 99.9407 93.8125C99.9659 93.6975 100.025 93.5928 100.11 93.5117C101.022 92.6477 101.981 91.8025 102.965 90.9994C103.025 90.9494 103.094 90.9116 103.169 90.8885C103.243 90.8653 103.321 90.8571 103.399 90.8644C103.476 90.8717 103.552 90.8944 103.62 90.931C103.689 90.9677 103.75 91.0176 103.799 91.078C103.848 91.1383 103.885 91.2078 103.907 91.2825C103.93 91.3572 103.937 91.4355 103.928 91.513C103.92 91.5904 103.896 91.6655 103.859 91.7337C103.821 91.802 103.771 91.8621 103.71 91.9105C102.749 92.6949 101.81 93.5214 100.919 94.366C100.81 94.4697 100.665 94.5275 100.515 94.5275ZM106.335 89.7696C106.21 89.7697 106.088 89.7301 105.987 89.6563C105.886 89.5825 105.811 89.4786 105.774 89.3594C105.736 89.2403 105.737 89.1122 105.777 88.9937C105.817 88.8752 105.893 88.7725 105.995 88.7005C107.015 87.9813 108.083 87.2802 109.171 86.6171C109.305 86.5359 109.465 86.5109 109.616 86.5477C109.768 86.5844 109.899 86.6799 109.98 86.8132C110.061 86.9464 110.086 87.1064 110.049 87.2581C110.013 87.4097 109.917 87.5405 109.784 87.6217C108.718 88.2716 107.671 88.9576 106.674 89.6615C106.574 89.7323 106.454 89.7701 106.332 89.7696H106.335ZM112.749 85.8556C112.618 85.8563 112.49 85.8127 112.386 85.7319C112.282 85.6511 112.208 85.5378 112.176 85.4101C112.144 85.2823 112.156 85.1476 112.209 85.0274C112.263 84.9072 112.356 84.8085 112.472 84.7471C113.575 84.1671 114.723 83.6073 115.882 83.0842C116.024 83.0199 116.186 83.0147 116.332 83.0697C116.478 83.1247 116.596 83.2355 116.66 83.3776C116.724 83.5198 116.73 83.6816 116.675 83.8276C116.62 83.9736 116.509 84.0917 116.367 84.1561C115.228 84.6715 114.102 85.221 113.02 85.7898C112.935 85.8338 112.842 85.8564 112.747 85.8556H112.749ZM119.594 82.753C119.457 82.7534 119.323 82.7056 119.218 82.6179C119.112 82.5303 119.04 82.4084 119.014 82.2733C118.989 82.1382 119.012 81.9985 119.079 81.8785C119.146 81.7584 119.252 81.6655 119.381 81.616C120.538 81.1671 121.736 80.7368 122.948 80.337C123.022 80.3115 123.1 80.3009 123.178 80.3058C123.255 80.3107 123.331 80.331 123.401 80.3655C123.471 80.4001 123.534 80.4481 123.585 80.507C123.636 80.5658 123.675 80.6342 123.699 80.7082C123.724 80.7822 123.733 80.8603 123.727 80.938C123.721 81.0158 123.7 81.0915 123.664 81.1609C123.629 81.2303 123.58 81.2919 123.52 81.3422C123.461 81.3925 123.392 81.4305 123.317 81.4539C122.126 81.8474 120.945 82.2708 119.807 82.7128C119.738 82.7395 119.665 82.7531 119.591 82.753H119.594ZM126.731 80.3897C126.588 80.3898 126.451 80.3383 126.343 80.2448C126.236 80.1513 126.167 80.0221 126.147 79.8812C126.128 79.7402 126.16 79.597 126.239 79.4781C126.317 79.3593 126.435 79.2728 126.573 79.2347C127.769 78.9007 129.004 78.5855 130.245 78.2972C130.397 78.2619 130.556 78.2883 130.689 78.3708C130.821 78.4532 130.916 78.5849 130.951 78.7369C130.986 78.8888 130.96 79.0486 130.878 79.1811C130.795 79.3136 130.663 79.4079 130.511 79.4432C129.289 79.7273 128.071 80.0384 126.891 80.3682C126.838 80.383 126.783 80.3902 126.727 80.3897H126.731Z" fill="white"/>
<defs>
<linearGradient id="paint0_linear_1_254" x1="140.763" y1="74.6604" x2="54.2981" y2="50.1927" gradientUnits="userSpaceOnUse">
<stop stop-color="#311944"/>
<stop offset="1" stop-color="#A03976"/>
</linearGradient>
<linearGradient id="paint1_linear_1_254" x1="89080.4" y1="77090.2" x2="31323.4" y2="66884.6" gradientUnits="userSpaceOnUse">
<stop stop-color="#311944"/>
<stop offset="1" stop-color="#A03976"/>
</linearGradient>
<linearGradient id="paint2_linear_1_254" x1="52.0325" y1="20.0194" x2="53.3842" y2="129.205" gradientUnits="userSpaceOnUse">
<stop stop-color="#FF9085"/>
<stop offset="1" stop-color="#FB6FBB"/>
</linearGradient>
<linearGradient id="paint3_linear_1_254" x1="11018.7" y1="4739.25" x2="10983.1" y2="5740.11" gradientUnits="userSpaceOnUse">
<stop stop-color="#311944"/>
<stop offset="1" stop-color="#A03976"/>
</linearGradient>
<linearGradient id="paint4_linear_1_254" x1="127.859" y1="97.5053" x2="128.126" y2="78.1551" gradientUnits="userSpaceOnUse">
<stop stop-color="#FFC444"/>
<stop offset="1" stop-color="#F36F56"/>
</linearGradient>
<linearGradient id="paint5_linear_1_254" x1="4891.23" y1="7840.21" x2="4727.56" y2="9539.04" gradientUnits="userSpaceOnUse">
<stop stop-color="#311944"/>
<stop offset="1" stop-color="#A03976"/>
</linearGradient>
<linearGradient id="paint6_linear_1_254" x1="-2799.5" y1="6279.96" x2="-2823.79" y2="5047.54" gradientUnits="userSpaceOnUse">
<stop stop-color="#FFC444"/>
<stop offset="1" stop-color="#F36F56"/>
</linearGradient>
<linearGradient id="paint7_linear_1_254" x1="132.477" y1="66.1576" x2="118.169" y2="66.1576" gradientUnits="userSpaceOnUse">
<stop stop-color="#444B8C"/>
<stop offset="1" stop-color="#3E4177"/>
</linearGradient>
<linearGradient id="paint8_linear_1_254" x1="-18169.2" y1="55542.5" x2="-15419.2" y2="55542.5" gradientUnits="userSpaceOnUse">
<stop stop-color="#444B8C"/>
<stop offset="1" stop-color="#3E4177"/>
</linearGradient>
<linearGradient id="paint9_linear_1_254" x1="-37803" y1="53291.3" x2="-25829.4" y2="53291.3" gradientUnits="userSpaceOnUse">
<stop stop-color="#444B8C"/>
<stop offset="1" stop-color="#3E4177"/>
</linearGradient>
<linearGradient id="paint10_linear_1_254" x1="126.848" y1="63.2164" x2="137.383" y2="3.58609" gradientUnits="userSpaceOnUse">
<stop stop-color="#311944"/>
<stop offset="1" stop-color="#893976"/>
</linearGradient>
<linearGradient id="paint11_linear_1_254" x1="-13181.1" y1="1877.09" x2="-13181.1" y2="281.684" gradientUnits="userSpaceOnUse">
<stop stop-color="#FFC444"/>
<stop offset="1" stop-color="#F36F56"/>
</linearGradient>
<linearGradient id="paint12_linear_1_254" x1="19715" y1="3236.7" x2="20512.9" y2="2446.93" gradientUnits="userSpaceOnUse">
<stop stop-color="#444B8C"/>
<stop offset="1" stop-color="#3E4177"/>
</linearGradient>
<linearGradient id="paint13_linear_1_254" x1="-7123.22" y1="679.513" x2="-6777.13" y2="-29.6596" gradientUnits="userSpaceOnUse">
<stop stop-color="#FFC444"/>
<stop offset="1" stop-color="#F36F56"/>
</linearGradient>
<linearGradient id="paint14_linear_1_254" x1="82823.7" y1="-29009.5" x2="67239.9" y2="-61617" gradientUnits="userSpaceOnUse">
<stop stop-color="#311944"/>
<stop offset="1" stop-color="#893976"/>
</linearGradient>
<linearGradient id="paint15_linear_1_254" x1="121.491" y1="155.92" x2="70.8747" y2="34.4419" gradientUnits="userSpaceOnUse">
<stop stop-color="#E38DDD"/>
<stop offset="1" stop-color="#9571F6"/>
</linearGradient>
<linearGradient id="paint16_linear_1_254" x1="61925.5" y1="228254" x2="358098" y2="228254" gradientUnits="userSpaceOnUse">
<stop stop-color="#E38DDD"/>
<stop offset="1" stop-color="#9571F6"/>
</linearGradient>
<linearGradient id="paint17_linear_1_254" x1="63.7446" y1="85.8251" x2="90.0539" y2="153.592" gradientUnits="userSpaceOnUse">
<stop stop-color="#FFC444"/>
<stop offset="0.31" stop-color="#FBA94A"/>
<stop offset="1" stop-color="#F36F56"/>
</linearGradient>
<linearGradient id="paint18_linear_1_254" x1="26074.4" y1="87381.4" x2="62940.5" y2="134828" gradientUnits="userSpaceOnUse">
<stop stop-color="#FFC444"/>
<stop offset="0.31" stop-color="#FBA94A"/>
<stop offset="1" stop-color="#F36F56"/>
</linearGradient>
<linearGradient id="paint19_linear_1_254" x1="25.7933" y1="191.876" x2="33.597" y2="191.876" gradientUnits="userSpaceOnUse">
<stop stop-color="#40447E"/>
<stop offset="1" stop-color="#3C3B6B"/>
</linearGradient>
<linearGradient id="paint20_linear_1_254" x1="3916.1" y1="15560.2" x2="4300.24" y2="15560.2" gradientUnits="userSpaceOnUse">
<stop stop-color="#40447E"/>
<stop offset="1" stop-color="#3C3B6B"/>
</linearGradient>
<linearGradient id="paint21_linear_1_254" x1="1732.47" y1="8371.97" x2="1828.14" y2="8647.81" gradientUnits="userSpaceOnUse">
<stop stop-color="#311944"/>
<stop offset="1" stop-color="#A03976"/>
</linearGradient>
<linearGradient id="paint22_linear_1_254" x1="2275.7" y1="6094.38" x2="2139.4" y2="6779.98" gradientUnits="userSpaceOnUse">
<stop stop-color="#311944"/>
<stop offset="1" stop-color="#A03976"/>
</linearGradient>
<linearGradient id="paint23_linear_1_254" x1="18732.9" y1="134565" x2="7505.35" y2="129347" gradientUnits="userSpaceOnUse">
<stop stop-color="#444B8C"/>
<stop offset="1" stop-color="#3E4177"/>
</linearGradient>
<linearGradient id="paint24_linear_1_254" x1="55.7421" y1="183.038" x2="35.7407" y2="163.036" gradientUnits="userSpaceOnUse">
<stop stop-color="#AB316D"/>
<stop offset="1" stop-color="#792D3D"/>
</linearGradient>
<linearGradient id="paint25_linear_1_254" x1="27834.8" y1="96918.1" x2="17039.8" y2="89184.1" gradientUnits="userSpaceOnUse">
<stop stop-color="#444B8C"/>
<stop offset="1" stop-color="#3E4177"/>
</linearGradient>
<linearGradient id="paint26_linear_1_254" x1="9890.53" y1="85800.6" x2="18770.7" y2="67749.5" gradientUnits="userSpaceOnUse">
<stop stop-color="#311944"/>
<stop offset="1" stop-color="#893976"/>
</linearGradient>
<linearGradient id="paint27_linear_1_254" x1="19638" y1="61211.6" x2="23565" y2="46819.9" gradientUnits="userSpaceOnUse">
<stop stop-color="#311944"/>
<stop offset="1" stop-color="#893976"/>
</linearGradient>
<linearGradient id="paint28_linear_1_254" x1="17335.3" y1="44456.8" x2="12792.5" y2="58628.9" gradientUnits="userSpaceOnUse">
<stop stop-color="#FF9085"/>
<stop offset="1" stop-color="#FB6FBB"/>
</linearGradient>
<linearGradient id="paint29_linear_1_254" x1="76463.3" y1="27362.7" x2="94994.8" y2="64082.3" gradientUnits="userSpaceOnUse">
<stop stop-color="#FF9085"/>
<stop offset="1" stop-color="#FB6FBB"/>
</linearGradient>
<linearGradient id="paint30_linear_1_254" x1="46710.9" y1="29387.2" x2="68929.2" y2="57984.4" gradientUnits="userSpaceOnUse">
<stop stop-color="#FF9085"/>
<stop offset="1" stop-color="#FB6FBB"/>
</linearGradient>
<linearGradient id="paint31_linear_1_254" x1="8144.84" y1="2786.46" x2="7870.07" y2="1978.3" gradientUnits="userSpaceOnUse">
<stop stop-color="#FFC444"/>
<stop offset="1" stop-color="#F36F56"/>
</linearGradient>
<linearGradient id="paint32_linear_1_254" x1="6324.08" y1="4196.28" x2="5574.96" y2="3225.76" gradientUnits="userSpaceOnUse">
<stop stop-color="#FFC444"/>
<stop offset="1" stop-color="#F36F56"/>
</linearGradient>
<linearGradient id="paint33_linear_1_254" x1="181.162" y1="176.495" x2="104.108" y2="176.495" gradientUnits="userSpaceOnUse">
<stop stop-color="#444B8C"/>
<stop offset="1" stop-color="#26264F"/>
</linearGradient>
<linearGradient id="paint34_linear_1_254" x1="38165.9" y1="23390.5" x2="41228.4" y2="23390.5" gradientUnits="userSpaceOnUse">
<stop stop-color="#444B8C"/>
<stop offset="1" stop-color="#26264F"/>
</linearGradient>
<linearGradient id="paint35_linear_1_254" x1="177.389" y1="173.967" x2="173.252" y2="173.967" gradientUnits="userSpaceOnUse">
<stop stop-color="#311944"/>
<stop offset="1" stop-color="#6B3976"/>
</linearGradient>
<linearGradient id="paint36_linear_1_254" x1="8514.51" y1="17730.6" x2="8761.58" y2="17730.6" gradientUnits="userSpaceOnUse">
<stop stop-color="#311944"/>
<stop offset="1" stop-color="#6B3976"/>
</linearGradient>
<linearGradient id="paint37_linear_1_254" x1="174.231" y1="174.246" x2="177.461" y2="173.811" gradientUnits="userSpaceOnUse">
<stop offset="0.01" stop-color="#D8DEE8"/>
<stop offset="1" stop-color="#F4F7FA"/>
</linearGradient>
<linearGradient id="paint38_linear_1_254" x1="9661.22" y1="19490.2" x2="9957.52" y2="19490.2" gradientUnits="userSpaceOnUse">
<stop stop-color="#311944"/>
<stop offset="1" stop-color="#6B3976"/>
</linearGradient>
<linearGradient id="paint39_linear_1_254" x1="9606.98" y1="19488.4" x2="9903.51" y2="19488.4" gradientUnits="userSpaceOnUse">
<stop stop-color="#311944"/>
<stop offset="1" stop-color="#6B3976"/>
</linearGradient>
<linearGradient id="paint40_linear_1_254" x1="4809.26" y1="10266.7" x2="4697.43" y2="10258.5" gradientUnits="userSpaceOnUse">
<stop offset="0.01" stop-color="#D8DEE8"/>
<stop offset="1" stop-color="#F4F7FA"/>
</linearGradient>
<linearGradient id="paint41_linear_1_254" x1="10895.2" y1="21307.6" x2="11248.8" y2="21307.6" gradientUnits="userSpaceOnUse">
<stop stop-color="#311944"/>
<stop offset="1" stop-color="#6B3976"/>
</linearGradient>
<linearGradient id="paint42_linear_1_254" x1="10821.8" y1="21305.8" x2="11175.3" y2="21305.8" gradientUnits="userSpaceOnUse">
<stop stop-color="#311944"/>
<stop offset="1" stop-color="#6B3976"/>
</linearGradient>
<linearGradient id="paint43_linear_1_254" x1="5401.51" y1="11218.3" x2="5268.43" y2="11208.6" gradientUnits="userSpaceOnUse">
<stop offset="0.01" stop-color="#D8DEE8"/>
<stop offset="1" stop-color="#F4F7FA"/>
</linearGradient>
<linearGradient id="paint44_linear_1_254" x1="15969" y1="27676.3" x2="16545.2" y2="27676.3" gradientUnits="userSpaceOnUse">
<stop stop-color="#311944"/>
<stop offset="1" stop-color="#6B3976"/>
</linearGradient>
<linearGradient id="paint45_linear_1_254" x1="15850.7" y1="27669.2" x2="16426.9" y2="27669.2" gradientUnits="userSpaceOnUse">
<stop stop-color="#311944"/>
<stop offset="1" stop-color="#6B3976"/>
</linearGradient>
<linearGradient id="paint46_linear_1_254" x1="7899.21" y1="14552" x2="7681.95" y2="14536.2" gradientUnits="userSpaceOnUse">
<stop offset="0.01" stop-color="#D8DEE8"/>
<stop offset="1" stop-color="#F4F7FA"/>
</linearGradient>
<linearGradient id="paint47_linear_1_254" x1="22688.1" y1="35761.3" x2="23628.5" y2="35761.3" gradientUnits="userSpaceOnUse">
<stop stop-color="#311944"/>
<stop offset="1" stop-color="#6B3976"/>
</linearGradient>
<linearGradient id="paint48_linear_1_254" x1="22491.7" y1="35763.1" x2="23432.1" y2="35763.1" gradientUnits="userSpaceOnUse">
<stop stop-color="#311944"/>
<stop offset="1" stop-color="#6B3976"/>
</linearGradient>
<linearGradient id="paint49_linear_1_254" x1="11223.3" y1="18795.8" x2="10868.8" y2="18770" gradientUnits="userSpaceOnUse">
<stop offset="0.01" stop-color="#D8DEE8"/>
<stop offset="1" stop-color="#F4F7FA"/>
</linearGradient>
<linearGradient id="paint50_linear_1_254" x1="-141129" y1="90649.9" x2="-86077" y2="135888" gradientUnits="userSpaceOnUse">
<stop stop-color="#FFC444"/>
<stop offset="0.31" stop-color="#FBA94A"/>
<stop offset="1" stop-color="#F36F56"/>
</linearGradient>
<linearGradient id="paint51_linear_1_254" x1="-106585" y1="83380.1" x2="-73729.5" y2="98660" gradientUnits="userSpaceOnUse">
<stop stop-color="#FFC444"/>
<stop offset="0.31" stop-color="#FBA94A"/>
<stop offset="1" stop-color="#F36F56"/>
</linearGradient>
<linearGradient id="paint52_linear_1_254" x1="-99594.5" y1="80814.8" x2="-139173" y2="80814.8" gradientUnits="userSpaceOnUse">
<stop stop-color="#FFC444"/>
<stop offset="1" stop-color="#F36F56"/>
</linearGradient>
<linearGradient id="paint53_linear_1_254" x1="57758.8" y1="78704.6" x2="64119.7" y2="78704.6" gradientUnits="userSpaceOnUse">
<stop offset="0.01" stop-color="#D8DEE8"/>
<stop offset="1" stop-color="#F4F7FA"/>
</linearGradient>
<linearGradient id="paint54_linear_1_254" x1="61672.8" y1="41153.7" x2="67417.8" y2="41153.7" gradientUnits="userSpaceOnUse">
<stop stop-color="#444B8C"/>
<stop offset="1" stop-color="#26264F"/>
</linearGradient>
<linearGradient id="paint55_linear_1_254" x1="-22699.3" y1="13113.3" x2="-22173.9" y2="15777.1" gradientUnits="userSpaceOnUse">
<stop stop-color="#FF9085"/>
<stop offset="1" stop-color="#FB6FBB"/>
</linearGradient>
<linearGradient id="paint56_linear_1_254" x1="-11465.2" y1="12088.2" x2="-10649.8" y2="14226.8" gradientUnits="userSpaceOnUse">
<stop stop-color="#FF9085"/>
<stop offset="1" stop-color="#FB6FBB"/>
</linearGradient>
<linearGradient id="paint57_linear_1_254" x1="86897.3" y1="27303.8" x2="99208.3" y2="27303.8" gradientUnits="userSpaceOnUse">
<stop stop-color="#444B8C"/>
<stop offset="1" stop-color="#26264F"/>
</linearGradient>
</defs>
</svg>
