<svg width="188" height="189" viewBox="0 0 188 189" fill="none" xmlns="http://www.w3.org/2000/svg">
<path d="M142.806 11.2929C149.12 20.3655 141.717 35.0734 151.086 41.8951C160.206 48.539 171.41 37.6504 180.005 43.3675C192.756 51.8489 190.426 90.6566 171.785 114.769C166.179 122.016 161.494 124.841 159.42 133.042C154.965 150.652 170.621 161.127 167.642 169.836C160.933 189.451 57.7597 205.903 16.3622 146.97C-2.97286 119.443 -5.8653 79.6962 11.4088 49.5081C42.6244 -5.041 128.639 -9.06089 142.806 11.2929Z" fill="#292A46"/>
<path d="M138.045 99.6292C135.474 100.636 131.146 102.333 126.073 101.123C116.849 98.9232 111.148 88.5459 109.765 80.1699C108.578 72.9751 111.131 65.6741 116.238 51.0663C121.047 37.3087 123.786 34.0009 121.652 29.6099C118.607 23.3532 109.965 23.7438 107.51 15.9094C107.216 14.9698 106.205 11.7405 107.732 9.01715C110.345 4.35434 118.56 4.44494 123.269 5.58044C127.811 6.67501 134.421 10.0265 135.968 15.7402C137.088 19.8796 134.599 21.7426 136.332 24.994C138.077 28.2657 141.122 27.3671 145.917 31.2279C147.832 32.7714 151.677 35.8659 152.584 40.4307C153.757 46.3324 148.955 49.3469 150.914 53.4762C152.329 56.4606 155.299 55.862 157.564 58.8209C160.546 62.7133 159.033 68.5001 157.71 73.2958C156.154 78.9431 151.949 94.1785 138.045 99.6292Z" fill="url(#paint0_linear_1_351)"/>
<g style="mix-blend-mode:screen" opacity="0.16">
<path d="M110.51 9.47618C109.658 12.6344 120.949 14.0068 126.334 23.823C132.128 34.3814 127.548 48.2691 125.431 54.6869C121.819 65.6372 117.796 67.3405 117.355 76.6319C117.18 80.3082 116.818 87.9674 122.288 93.5725C122.797 94.0932 128.55 99.8137 135.783 98.7332C143.985 97.5058 147.854 88.458 151.186 80.6618C153.2 75.9514 157.226 66.5412 153.455 63.083C151.151 60.9697 146.465 61.567 143.49 63.1018C139.242 65.2929 137.896 69.694 137.052 69.343C136.293 69.029 136.654 65.1554 138.26 61.1623C141.469 53.1762 146.37 52.8756 148.264 46.3619C148.494 45.5727 150.222 39.2912 146.675 34.9075C144.63 32.3795 140.776 30.4172 138.338 31.5997C135.581 32.9372 135.826 37.7194 134.887 37.6751C133.989 37.6329 133.222 33.2345 133.097 28.7764C132.914 22.2257 134.274 21.005 133.338 17.5462C131.912 12.2693 127.215 9.45135 126.535 9.05607C120.153 5.34555 111.24 6.77701 110.51 9.47618Z" fill="white"/>
</g>
<path d="M125.935 108.968C123.301 108.137 118.868 106.74 115.679 102.612C109.881 95.1074 111.962 83.451 116.149 76.0642C119.742 69.7189 126.315 65.6393 139.462 57.4794C151.839 49.7946 156.048 48.9376 157.146 44.1809C158.71 37.3994 151.736 32.2789 154.748 24.6418C155.109 23.7251 156.35 20.5776 159.248 19.4166C164.21 17.4288 170.546 22.658 173.498 26.4987C176.346 30.2032 179.385 36.9619 177.001 42.3797C175.274 46.3049 172.169 46.1915 171.473 49.8107C170.776 53.4515 173.711 54.6648 175.018 60.6826C175.541 63.0858 176.589 67.9097 174.428 72.0316C171.635 77.3608 166.005 76.6917 164.936 81.1357C164.164 84.3463 166.851 85.7455 166.755 89.4708C166.63 94.3752 161.821 97.9266 157.779 100.827C153.02 104.242 140.181 113.459 125.935 108.968Z" fill="url(#paint1_linear_1_351)"/>
<g style="mix-blend-mode:screen" opacity="0.16">
<path d="M161.121 21.5171C158.473 23.4385 166.4 31.599 164.428 42.6172C162.308 54.4722 150.021 62.4039 144.344 66.0688C134.657 72.3228 130.456 71.1222 124.278 78.0741C121.834 80.8256 116.741 86.5581 117.48 94.3563C117.547 95.0811 118.433 103.148 124.74 106.846C131.896 111.043 140.587 106.43 148.076 102.456C152.602 100.054 161.642 95.2569 160.88 90.1995C160.415 87.1078 156.393 84.6294 153.114 83.9583C148.432 82.9966 144.62 85.5757 144.183 84.7744C143.79 84.0522 146.504 81.2652 150.26 79.1653C157.773 74.9649 161.776 77.8083 167.34 73.9307C168.014 73.4609 173.304 69.6571 173.296 64.0179C173.292 60.7664 171.525 56.819 168.885 56.2083C165.9 55.5177 163.086 59.3933 162.384 58.7699C161.713 58.1733 163.876 54.2675 166.579 50.7167C170.55 45.5036 172.375 45.4076 173.819 42.1266C176.022 37.1235 174.137 31.9816 173.855 31.246C171.219 24.3599 163.384 19.8749 161.121 21.5171Z" fill="white"/>
</g>
<path d="M155.098 175.137L46.0276 181.267V53.6346L155.098 59.7631V175.137Z" fill="url(#paint2_linear_1_351)"/>
<path d="M46.0275 181.267L6.91504 172.532V61.7825L46.0275 53.6346V181.267Z" fill="url(#paint3_linear_1_351)"/>
<g style="mix-blend-mode:soft-light">
<path d="M80.9905 55.8043V75.7588L110.188 77.2413V57.8579L80.9905 55.8043Z" fill="white"/>
</g>
<g style="mix-blend-mode:soft-light">
<path d="M15.2847 60.039L31.6669 56.6258V76.2783L15.2847 78.344V60.039Z" fill="white"/>
</g>
<path d="M106.912 33.9714C106.912 46.9793 88.6874 70.7168 80.4403 80.7934C79.9589 81.3812 79.3531 81.8549 78.6664 82.1801C77.9798 82.5053 77.2295 82.674 76.4697 82.674C75.7099 82.674 74.9597 82.5053 74.273 82.1801C73.5864 81.8549 72.9805 81.3812 72.4992 80.7934C64.2513 70.7168 46.0276 46.9793 46.0276 33.9714C46.0276 17.1583 59.657 3.52893 76.4694 3.52893C93.2818 3.52893 106.912 17.1583 106.912 33.9714Z" fill="url(#paint4_linear_1_351)"/>
<path d="M88.4749 45.9769C95.1053 39.3465 95.1053 28.5965 88.4749 21.9661C81.8445 15.3357 71.0945 15.3357 64.4641 21.9661C57.8337 28.5965 57.8337 39.3465 64.4641 45.9769C71.0945 52.6073 81.8445 52.6073 88.4749 45.9769Z" fill="white"/>
<g style="mix-blend-mode:multiply" opacity="0.3">
<path style="mix-blend-mode:multiply" opacity="0.3" d="M76.3352 68.2942C78.2666 55.5755 86.6654 51.5039 85.2239 39.4939C83.5616 25.6437 71.2979 21.9547 71.0019 9.62994C70.9608 7.69409 71.2073 5.76285 71.7334 3.89941C57.1705 6.17444 46.0303 18.7723 46.0303 33.9741C46.0303 46.9821 64.254 70.7196 72.5018 80.7961C73.0662 81.4875 73.8016 82.0192 74.6349 82.3386C75.4683 82.658 76.3707 82.7539 77.2526 82.6168C75.7735 77.0413 75.7292 72.2859 76.3352 68.2942Z" fill="url(#paint5_linear_1_351)"/>
</g>
<path d="M99.3638 88.2125L107.591 180.532C107.716 181.93 106.745 183.173 105.431 183.294L60.9191 187.878C58.2555 188.02 56.8462 186.576 56.7268 185.123L48.8306 89.2728C48.7138 87.8581 50.0386 86.5213 52.6679 86.4273L96.7727 85.779C98.0766 85.7542 99.2423 86.8488 99.3638 88.2125Z" fill="url(#paint6_linear_1_351)"/>
<path d="M101.386 87.9836L109.688 180.855C109.813 182.265 108.837 183.512 107.517 183.634L61.3294 187.896C59.9134 188.027 58.6537 186.939 58.5329 185.48L50.5663 89.048C50.4488 87.6246 51.5058 86.4388 52.9104 86.4119L98.7788 85.5354C100.091 85.5106 101.263 86.6119 101.386 87.9836Z" fill="url(#paint7_linear_1_351)"/>
<path d="M77.3217 88.7688C77.3348 88.8795 77.3247 88.9918 77.292 89.0983C77.2592 89.2049 77.2046 89.3035 77.1316 89.3877C77.0585 89.472 76.9687 89.5401 76.8679 89.5877C76.7671 89.6353 76.6574 89.6613 76.5459 89.664C76.0762 89.6741 75.6587 89.2896 75.6171 88.8044C75.5755 88.3192 75.9238 87.9192 76.3949 87.9098C76.8661 87.9004 77.2801 88.2843 77.3217 88.7688Z" fill="url(#paint8_linear_1_351)"/>
<path d="M101.96 118.43L55.4691 120.531L54.2524 106.915L100.832 105.316L101.96 118.43Z" fill="white"/>
<path d="M107.401 181.646L61.3352 186.154L54.8423 113.516L101.378 111.674L107.401 181.646Z" fill="#D8DEE8"/>
<path d="M101.198 109.578L54.6478 111.341L52.7063 89.6165L99.3974 88.6561L101.198 109.578Z" fill="url(#paint9_linear_1_351)"/>
<path d="M95.666 99.528L78.8831 100.022L78.7341 98.3187L95.521 97.8476L95.666 99.528Z" fill="white"/>
<path d="M95.9431 102.74L79.1683 103.278L79.0193 101.575L95.7981 101.06L95.9431 102.74Z" fill="white"/>
<path d="M74.5484 95.951L60.8855 96.3074C60.3674 96.3208 59.9842 96.7664 60.0318 97.3013L60.7593 105.489C60.807 106.022 61.2667 106.442 61.7841 106.425L75.4275 105.958C75.9336 105.942 76.3067 105.498 76.2604 104.971L75.5504 96.8845C75.5041 96.357 75.0544 95.9383 74.5484 95.951ZM73.6183 96.9577L68.4897 101.106C68.4074 101.171 68.3067 101.206 68.2024 101.209C68.0981 101.211 67.9957 101.18 67.9106 101.12L62.1861 97.2644L73.6183 96.9577ZM61.7311 105.437L61.0392 97.6442L67.4106 101.93C67.6718 102.108 67.9824 102.2 68.2985 102.192C68.5976 102.184 68.8858 102.078 69.1185 101.89L74.6424 97.4154L75.3081 104.985L61.7311 105.437Z" fill="white"/>
<path d="M110.094 186.42C109.773 186.42 109.457 186.341 109.174 186.19C108.892 186.038 108.65 185.819 108.473 185.552L88.1424 155.006L68.4704 156.441L56.1282 181.929C55.8953 182.38 55.4955 182.722 55.0139 182.883C54.5323 183.043 54.0071 183.009 53.5503 182.788C53.0935 182.566 52.7412 182.175 52.5686 181.698C52.396 181.221 52.4167 180.695 52.6264 180.232L65.4572 153.735C65.6061 153.427 65.8334 153.164 66.1161 152.973C66.3988 152.781 66.7271 152.667 67.0678 152.642L88.992 151.042C89.3356 151.017 89.6797 151.084 89.9891 151.236C90.2985 151.387 90.5621 151.618 90.753 151.905L111.713 183.397C111.907 183.69 112.019 184.03 112.036 184.381C112.053 184.733 111.974 185.082 111.808 185.392C111.642 185.702 111.395 185.962 111.093 186.143C110.792 186.324 110.447 186.419 110.095 186.42H110.094Z" fill="white"/>
<path d="M81.9622 188.68C81.476 188.68 81.0077 188.497 80.6493 188.168C80.291 187.84 80.0687 187.389 80.0261 186.905L77.1578 154.276L54.0183 110.16C53.7932 109.704 53.7552 109.179 53.9123 108.695C54.0694 108.212 54.4093 107.81 54.8592 107.574C55.3091 107.338 55.8335 107.287 56.3202 107.433C56.807 107.578 57.2176 107.908 57.4644 108.352L80.7851 152.814C80.9052 153.041 80.9789 153.291 81.0019 153.547L83.9044 186.565C83.9494 187.079 83.7885 187.59 83.4571 187.985C83.1256 188.381 82.6507 188.628 82.1367 188.674C82.0756 188.678 82.0193 188.68 81.9622 188.68Z" fill="white"/>
<path d="M80.5918 172.512C80.2383 172.511 79.8988 172.374 79.6439 172.129C79.389 171.884 79.2383 171.55 79.2232 171.197C79.2081 170.844 79.3297 170.499 79.5627 170.233C79.7957 169.967 80.1223 169.801 80.4744 169.77L94.6252 168.537L89.6638 111.377C89.6391 111.018 89.7564 110.663 89.9905 110.39C90.2246 110.116 90.5568 109.945 90.9155 109.914C91.2742 109.883 91.6308 109.994 91.9085 110.223C92.1863 110.452 92.3629 110.781 92.4005 111.139L97.4801 169.667C97.5115 170.029 97.3976 170.39 97.1635 170.669C96.9293 170.948 96.5939 171.122 96.2312 171.154L80.712 172.507C80.6724 172.51 80.6321 172.512 80.5918 172.512Z" fill="white"/>
<path d="M105.939 157.775C105.834 157.775 105.73 157.754 105.632 157.714C105.535 157.674 105.446 157.615 105.372 157.54L79.473 131.602C78.1583 132.029 74.2774 133.28 70.4132 134.488C67.6294 135.352 65.3954 136.021 63.7733 136.475C62.7485 136.763 62.0056 136.961 61.456 137.079C62.4412 139.831 65.6994 148.4 67.9596 154.296C68.03 154.494 68.0205 154.71 67.9331 154.901C67.8457 155.091 67.6874 155.239 67.492 155.314C67.2966 155.389 67.0796 155.385 66.8874 155.302C66.6953 155.219 66.5432 155.064 66.4637 154.87C66.4463 154.825 64.7061 150.283 63.0029 145.791C62.0023 143.152 61.2104 141.046 60.6487 139.532C60.3131 138.63 60.0581 137.93 59.8883 137.451C59.5595 136.524 59.3783 136.012 60.0084 135.675C60.1881 135.579 60.3981 135.555 60.595 135.608C62.113 135.455 72.8761 132.072 79.4475 129.928C79.5882 129.881 79.7389 129.875 79.8829 129.91C80.0268 129.944 80.1584 130.018 80.2629 130.123L106.504 156.41C106.615 156.523 106.691 156.665 106.722 156.821C106.753 156.976 106.737 157.137 106.676 157.283C106.616 157.429 106.513 157.554 106.381 157.642C106.25 157.73 106.095 157.777 105.937 157.778L105.939 157.775ZM61.0184 135.888C61.0285 135.9 61.0379 135.913 61.0466 135.926C61.0379 135.912 61.0278 135.9 61.0184 135.888Z" fill="white"/>
<path d="M79.6919 131.491C79.4917 131.491 79.2989 131.416 79.1513 131.281C79.0038 131.145 78.9122 130.96 78.8946 130.76L76.8095 106.986C76.7972 106.88 76.8064 106.772 76.8364 106.669C76.8665 106.566 76.9169 106.47 76.9846 106.387C77.0523 106.304 77.1359 106.236 77.2306 106.186C77.3252 106.136 77.429 106.105 77.5357 106.096C77.6424 106.086 77.7498 106.099 77.8518 106.131C77.9537 106.164 78.048 106.217 78.129 106.287C78.2101 106.357 78.2763 106.443 78.3238 106.539C78.3713 106.635 78.399 106.739 78.4054 106.846L80.4911 130.62C80.5087 130.832 80.442 131.041 80.3057 131.204C80.1693 131.367 79.9743 131.469 79.763 131.488C79.7388 131.49 79.7154 131.491 79.6919 131.491Z" fill="white"/>
<path d="M107.814 181.508C107.72 181.508 107.627 181.485 107.544 181.44C107.461 181.396 107.39 181.332 107.338 181.253L105.302 178.208C105.221 178.082 105.193 177.929 105.224 177.782C105.254 177.636 105.341 177.507 105.466 177.423C105.591 177.34 105.743 177.309 105.89 177.337C106.038 177.364 106.168 177.449 106.254 177.572L108.289 180.617C108.346 180.703 108.379 180.803 108.385 180.907C108.39 181.01 108.367 181.113 108.318 181.205C108.269 181.296 108.196 181.372 108.108 181.426C108.019 181.479 107.917 181.507 107.814 181.508ZM103.744 175.417C103.65 175.417 103.557 175.394 103.474 175.35C103.391 175.306 103.32 175.241 103.268 175.163L101.233 172.118C101.191 172.056 101.162 171.986 101.147 171.912C101.133 171.838 101.133 171.763 101.147 171.689C101.162 171.615 101.191 171.545 101.233 171.483C101.274 171.42 101.328 171.367 101.391 171.325C101.453 171.283 101.523 171.254 101.597 171.239C101.67 171.225 101.746 171.225 101.82 171.239C101.893 171.254 101.964 171.283 102.026 171.325C102.088 171.367 102.142 171.42 102.184 171.483L104.219 174.527C104.277 174.613 104.31 174.714 104.315 174.817C104.32 174.921 104.297 175.023 104.248 175.115C104.2 175.206 104.127 175.283 104.038 175.336C103.949 175.389 103.848 175.417 103.744 175.417ZM99.6739 169.328C99.5797 169.328 99.4869 169.305 99.4038 169.26C99.3206 169.216 99.2497 169.152 99.1974 169.073L97.1626 166.029C97.0816 165.903 97.0533 165.75 97.0839 165.603C97.1145 165.456 97.2015 165.327 97.3262 165.244C97.4509 165.161 97.6033 165.13 97.7506 165.158C97.898 165.185 98.0286 165.27 98.1142 165.393L100.149 168.438C100.207 168.524 100.24 168.624 100.245 168.728C100.25 168.831 100.227 168.934 100.178 169.025C100.129 169.117 100.057 169.193 99.9679 169.247C99.8791 169.3 99.7775 169.328 99.6739 169.328V169.328ZM95.6043 163.238C95.5101 163.238 95.4172 163.215 95.3341 163.171C95.251 163.126 95.1801 163.062 95.1278 162.984L93.0931 159.938C93.0485 159.876 93.0169 159.805 93.0002 159.73C92.9834 159.656 92.9819 159.578 92.9957 159.503C93.0095 159.427 93.0383 159.355 93.0804 159.291C93.1226 159.227 93.1771 159.172 93.2409 159.13C93.3047 159.087 93.3764 159.058 93.4517 159.043C93.5271 159.029 93.6045 159.03 93.6795 159.046C93.7545 159.062 93.8254 159.093 93.8882 159.137C93.9509 159.181 94.0041 159.238 94.0447 159.303L96.0795 162.348C96.137 162.434 96.1701 162.534 96.1753 162.637C96.1804 162.741 96.1574 162.844 96.1086 162.935C96.0598 163.027 95.9872 163.103 95.8983 163.156C95.8095 163.21 95.7079 163.238 95.6043 163.238ZM91.5341 157.148C91.4399 157.148 91.3472 157.125 91.2642 157.081C91.1812 157.036 91.1104 156.972 91.0583 156.894L89.0228 153.849C88.9418 153.723 88.9136 153.57 88.9441 153.423C88.9747 153.276 89.0617 153.147 89.1864 153.064C89.3111 152.98 89.4635 152.949 89.6109 152.977C89.7582 153.005 89.8888 153.089 89.9745 153.213L92.0092 156.257C92.0668 156.343 92.0999 156.444 92.105 156.547C92.1102 156.651 92.0871 156.754 92.0384 156.845C91.9896 156.936 91.9169 157.013 91.8281 157.066C91.7393 157.12 91.6377 157.148 91.5341 157.148ZM78.955 154.084C78.8506 154.084 78.7483 154.055 78.659 154.001C78.5696 153.947 78.4968 153.87 78.4483 153.778L76.7471 150.534C76.6824 150.4 76.6722 150.247 76.7187 150.106C76.7653 149.964 76.8649 149.847 76.9965 149.778C77.1281 149.709 77.2814 149.694 77.4239 149.736C77.5665 149.778 77.6872 149.873 77.7604 150.003L79.4617 153.246C79.5074 153.333 79.5299 153.431 79.5269 153.529C79.5239 153.628 79.4956 153.724 79.4446 153.808C79.3937 153.892 79.3218 153.962 79.236 154.01C79.1502 154.058 79.0534 154.084 78.955 154.084ZM82.4843 154.038C82.3401 154.032 82.2033 153.972 82.1014 153.87C81.9994 153.768 81.9399 153.631 81.9346 153.487C81.9294 153.343 81.9788 153.202 82.073 153.092C82.1672 152.983 82.2993 152.913 82.4427 152.897L86.0955 152.629C86.2431 152.624 86.3868 152.677 86.4965 152.776C86.6062 152.874 86.6735 153.012 86.6842 153.159C86.695 153.307 86.6484 153.452 86.5542 153.566C86.46 153.68 86.3254 153.753 86.1787 153.77L82.5266 154.038C82.5118 154.04 82.4977 154.04 82.4843 154.04V154.038ZM75.5532 147.595C75.4487 147.596 75.3461 147.567 75.2566 147.513C75.1672 147.459 75.0943 147.381 75.0458 147.289L73.3446 144.046C73.3076 143.979 73.2843 143.906 73.2761 143.83C73.2679 143.754 73.2749 143.678 73.2968 143.604C73.3186 143.531 73.3549 143.463 73.4033 143.405C73.4518 143.346 73.5116 143.297 73.5791 143.262C73.6466 143.226 73.7205 143.205 73.7965 143.198C73.8725 143.192 73.949 143.2 74.0216 143.224C74.0941 143.247 74.1613 143.285 74.219 143.335C74.2768 143.385 74.324 143.446 74.3579 143.514L76.0592 146.757C76.0941 146.824 76.1156 146.897 76.1224 146.971C76.1292 147.046 76.1212 147.122 76.0988 147.193C76.0765 147.265 76.0402 147.332 75.992 147.389C75.9439 147.447 75.8848 147.495 75.8183 147.53C75.737 147.574 75.6459 147.598 75.5532 147.599V147.595ZM72.1507 141.109C72.0462 141.109 71.9438 141.081 71.8543 141.027C71.7649 140.972 71.692 140.895 71.6433 140.803L69.9428 137.559C69.8781 137.425 69.8679 137.272 69.9145 137.131C69.961 136.989 70.0606 136.872 70.1922 136.803C70.3238 136.734 70.4771 136.719 70.6196 136.761C70.7622 136.803 70.8829 136.898 70.9561 137.028L72.6574 140.271C72.7031 140.358 72.7255 140.456 72.7225 140.554C72.7195 140.653 72.6912 140.749 72.6403 140.833C72.5893 140.917 72.5175 140.987 72.4317 141.035C72.346 141.084 72.2492 141.109 72.1507 141.109ZM68.7482 134.622C68.6438 134.623 68.5413 134.594 68.452 134.54C68.3627 134.486 68.2899 134.408 68.2415 134.316L66.5403 131.073C66.4756 130.939 66.4654 130.785 66.512 130.644C66.5585 130.503 66.6581 130.386 66.7897 130.317C66.9213 130.248 67.0746 130.233 67.2172 130.274C67.3597 130.316 67.4804 130.412 67.5537 130.541L69.2549 133.784C69.3006 133.871 69.3231 133.969 69.3201 134.067C69.3171 134.166 69.2887 134.262 69.2378 134.346C69.1868 134.43 69.115 134.5 69.0293 134.548C68.9435 134.597 68.8467 134.622 68.7482 134.622ZM65.3464 128.136C65.2419 128.136 65.1394 128.108 65.05 128.054C64.9606 128 64.8876 127.922 64.8391 127.83L63.1378 124.586C63.0731 124.452 63.0629 124.299 63.1095 124.158C63.156 124.016 63.2556 123.899 63.3872 123.83C63.5188 123.761 63.6721 123.746 63.8147 123.788C63.9572 123.83 64.0779 123.925 64.1512 124.055L65.8524 127.298C65.8981 127.385 65.9206 127.483 65.9176 127.581C65.9146 127.679 65.8863 127.775 65.8355 127.86C65.7846 127.944 65.7129 128.014 65.6272 128.062C65.5415 128.111 65.4448 128.136 65.3464 128.136ZM61.9426 121.653C61.8381 121.653 61.7356 121.625 61.6461 121.571C61.5567 121.517 61.4837 121.439 61.4352 121.347L59.7347 118.104C59.6977 118.037 59.6744 117.964 59.6662 117.888C59.658 117.812 59.665 117.735 59.6869 117.662C59.7087 117.589 59.7449 117.521 59.7934 117.463C59.8419 117.404 59.9017 117.355 59.9692 117.32C60.0367 117.284 60.1106 117.263 60.1866 117.256C60.2626 117.25 60.3391 117.258 60.4117 117.282C60.4842 117.305 60.5513 117.343 60.6091 117.393C60.6669 117.443 60.7141 117.503 60.748 117.572L62.4493 120.815C62.5197 120.95 62.5338 121.106 62.4887 121.251C62.4435 121.396 62.3427 121.517 62.2083 121.588C62.1265 121.631 62.0352 121.654 61.9426 121.653ZM58.5408 115.167C58.4363 115.167 58.3337 115.139 58.2442 115.085C58.1548 115.031 58.0819 114.953 58.0334 114.861L57.3529 113.563L57.1046 111.158C57.0969 111.083 57.104 111.007 57.1256 110.935C57.1471 110.863 57.1827 110.796 57.2302 110.737C57.3261 110.62 57.465 110.544 57.6163 110.529C57.7676 110.513 57.9189 110.558 58.0369 110.654C58.1549 110.75 58.2299 110.889 58.2455 111.041L58.471 113.226L59.0495 114.329C59.0952 114.416 59.1176 114.514 59.1146 114.612C59.1117 114.71 59.0834 114.806 59.0325 114.891C58.9817 114.975 58.9099 115.045 58.8243 115.093C58.7386 115.141 58.6419 115.167 58.5435 115.167H58.5408ZM57.2966 108.029C57.1551 108.029 57.0187 107.976 56.9137 107.881C56.8087 107.786 56.7426 107.656 56.7281 107.515L56.3516 103.873C56.3439 103.798 56.3511 103.722 56.3726 103.65C56.3941 103.578 56.4297 103.51 56.4772 103.452C56.5247 103.394 56.5833 103.345 56.6495 103.309C56.7158 103.274 56.7885 103.251 56.8634 103.243C56.9383 103.236 57.014 103.243 57.0861 103.264C57.1583 103.286 57.2255 103.321 57.2839 103.369C57.3423 103.417 57.3908 103.475 57.4266 103.541C57.4624 103.608 57.4848 103.68 57.4925 103.755L57.8683 107.398C57.8761 107.473 57.8691 107.548 57.8477 107.62C57.8263 107.692 57.7909 107.759 57.7435 107.818C57.6962 107.876 57.6378 107.924 57.5717 107.96C57.5056 107.996 57.4331 108.018 57.3583 108.026C57.3375 108.028 57.3174 108.029 57.2979 108.029H57.2966Z" fill="url(#paint10_linear_1_351)"/>
<path d="M71.6524 137.098C72.8981 135.853 72.8981 133.833 71.6524 132.587C70.4068 131.342 68.3871 131.342 67.1415 132.587C65.8958 133.833 65.8958 135.853 67.1415 137.098C68.3871 138.344 70.4068 138.344 71.6524 137.098Z" fill="url(#paint11_linear_1_351)"/>
<g style="mix-blend-mode:soft-light" opacity="0.48">
<g style="mix-blend-mode:soft-light" opacity="0.48">
<path d="M90.2881 151.738C85.8105 136.094 72.7556 137.658 68.8511 123.522C65.6446 111.912 73.0381 105.792 68.5538 96.0744C66.4445 91.5028 62.7488 88.4118 58.9168 86.2998L52.9104 86.4146C51.5052 86.4414 50.4488 87.6272 50.5663 89.0506L58.5329 185.478C58.6537 186.939 59.9134 188.028 61.3294 187.894L99.1989 184.399C96.7769 181.327 94.4798 177.567 92.8852 173.052C89.5096 163.497 92.7644 160.392 90.2881 151.738Z" fill="white"/>
</g>
</g>
<path d="M142.877 113.037C147.958 110.554 157.866 119.542 162.688 128.149C164.61 131.579 166.865 135.606 166.312 140.393C165.33 148.881 155.915 156.326 142.957 158.812L141.863 154.902C143.279 153.426 145.399 151.296 148.104 148.855C152.265 145.106 153.118 144.855 153.318 143.672C153.971 139.794 144 136.548 140.453 129.73C137.402 123.868 138.972 114.943 142.877 113.037Z" fill="url(#paint12_linear_1_351)"/>
<path d="M149.548 181.253C149.548 181.253 148.714 183.311 149.129 184.116C149.544 184.921 151.545 184.413 154.363 184.844C157.182 185.274 159.132 185.935 159.289 185.35C159.445 184.766 153.598 181.68 153.13 181.253C152.662 180.826 149.548 181.253 149.548 181.253Z" fill="url(#paint13_linear_1_351)"/>
<path d="M150.296 178.176L152.269 181.252C152.269 181.252 151.359 182.149 149.814 181.815L147.642 178.902L150.296 178.176Z" fill="url(#paint14_linear_1_351)"/>
<path style="mix-blend-mode:multiply" opacity="0.3" d="M140.451 129.73C137.402 123.868 138.975 114.943 142.874 113.037C143.897 112.537 145.119 112.51 146.453 112.843C145.75 114.872 145.89 116.339 146.236 117.378C147.78 122.008 154.467 121.485 156.556 126.759C157.876 130.093 155.777 131.748 157.65 134.42C159.592 137.19 162.767 136.726 163.748 139.423C164.479 141.437 163.038 142.578 163.592 144.271C163.746 144.741 164.05 145.216 164.561 145.666C161.127 151.84 153.136 156.859 142.952 158.812L141.857 154.902C143.274 153.426 145.393 151.296 148.099 148.855C152.259 145.106 153.113 144.855 153.312 143.672C153.97 139.794 143.998 136.548 140.451 129.73Z" fill="url(#paint15_linear_1_351)"/>
<path d="M146.341 114.877C146.121 123.76 146.244 133.365 146.888 143.592C147.644 155.603 149.06 167.563 151.129 179.418L148.622 180.216C140.027 171.842 137.456 164.475 136.751 159.176C136.254 155.43 137.007 155.108 136.335 150.42C135.056 141.494 131.718 138.435 129.375 130.077C128.495 126.94 127.516 122.2 127.578 116.023L146.341 114.877Z" fill="url(#paint16_linear_1_351)"/>
<path d="M152.498 98.9634C152.342 98.9997 151.664 99.2245 151.396 102.055C150.75 108.881 154.304 111.644 153.428 115.343C152.589 118.896 148.305 120.619 143.899 122.394C140.953 123.579 131.839 127.246 126.539 123.122C124.309 121.387 124.065 119.292 122.474 111.59C118.431 92.0222 116.865 90.3411 118.565 86.1051C121.485 78.8304 129.302 75.8178 130.604 75.3165C144.474 69.9719 160.853 79.7948 167.326 91.0793C168.179 92.5651 173.268 101.44 169.692 105.649C167.528 108.195 162.557 108.606 159.276 106.87C154.89 104.552 153.958 98.6285 152.498 98.9634Z" fill="url(#paint17_linear_1_351)"/>
<path d="M167.657 104.14C167.702 104.14 167.746 104.13 167.787 104.112C167.862 104.077 167.921 104.014 167.95 103.937C167.979 103.859 167.976 103.773 167.942 103.697C167.822 103.437 164.959 97.2925 158.345 94.8678C158.268 94.8418 158.183 94.847 158.11 94.8824C158.036 94.9177 157.98 94.9803 157.952 95.0568C157.924 95.1334 157.927 95.2178 157.96 95.2922C157.993 95.3666 158.054 95.425 158.13 95.455C164.494 97.7871 167.346 103.895 167.374 103.957C167.399 104.011 167.439 104.057 167.489 104.09C167.539 104.122 167.598 104.139 167.657 104.14Z" fill="url(#paint18_linear_1_351)"/>
<path d="M127.631 83.6061C128.503 85.9891 125.879 88.0541 127.005 90.6419C128.616 94.3504 135.032 92.4471 137.325 96.114C140.042 100.461 133.82 107.59 136.385 110.029C137.555 111.141 138.907 109.717 142.327 110.499C147.197 111.612 148.66 115.461 150.926 114.877C151.638 114.693 152.502 114.047 153.229 112.059C153.545 113.164 153.698 114.212 153.43 115.347C152.59 118.9 148.307 120.623 143.9 122.398C140.953 123.584 131.841 127.25 126.541 123.126C124.31 121.391 124.067 119.296 122.475 111.594C118.432 92.0264 116.866 90.3453 118.566 86.1093C119.494 83.7993 120.915 81.9203 122.464 80.4143C125.801 81.1505 127.174 82.3585 127.631 83.6061Z" fill="url(#paint19_linear_1_351)"/>
<path d="M136.015 98.5568C135.641 98.897 131.847 102.239 127.282 101.098C123.307 100.104 120.866 96.2395 120.437 92.9873C119.42 85.2529 129.496 78.76 128.254 77.1957C127.516 76.2635 123.547 78.0681 120.906 79.6975C118.163 81.3873 110.754 85.9549 109.175 94.9181C109.041 95.6804 107.296 106.366 113.399 110.78C119.036 114.86 130.088 112.64 137.57 102.988L136.015 98.5568Z" fill="url(#paint20_linear_1_351)"/>
<path d="M160.48 91.4922L155.964 105.924C155.892 106.155 155.749 106.358 155.557 106.504C155.365 106.651 155.132 106.734 154.89 106.743L130.578 107.602C130.4 107.608 130.223 107.574 130.06 107.501C129.897 107.429 129.754 107.32 129.639 107.183C129.525 107.047 129.444 106.886 129.401 106.713C129.359 106.54 129.356 106.36 129.394 106.186L132.538 91.6949C132.593 91.44 132.732 91.211 132.932 91.0441C133.133 90.8773 133.383 90.7823 133.644 90.7741L159.331 89.9748C159.517 89.9693 159.702 90.0084 159.87 90.0888C160.038 90.1692 160.184 90.2886 160.297 90.4371C160.409 90.5856 160.485 90.7588 160.517 90.9424C160.549 91.1259 160.536 91.3144 160.48 91.4922Z" fill="#D8DEE8"/>
<path d="M160.264 91.9666L155.879 105.974C155.809 106.198 155.671 106.396 155.485 106.538C155.298 106.681 155.071 106.763 154.837 106.771L131.239 107.605C131.067 107.611 130.895 107.577 130.737 107.507C130.579 107.436 130.44 107.331 130.329 107.198C130.218 107.066 130.139 106.91 130.098 106.742C130.057 106.574 130.054 106.399 130.091 106.23L133.142 92.1659C133.196 91.9186 133.331 91.6963 133.525 91.5345C133.72 91.3727 133.963 91.2805 134.216 91.2726L159.146 90.4962C159.326 90.4907 159.506 90.5285 159.669 90.6063C159.832 90.6842 159.974 90.7998 160.083 90.9436C160.193 91.0874 160.266 91.2553 160.297 91.4332C160.329 91.6111 160.317 91.794 160.264 91.9666Z" fill="url(#paint21_linear_1_351)"/>
<path d="M130.091 106.228L133.003 92.8055C133.498 93.9739 134.135 94.5638 134.748 94.8651C136.504 95.7329 137.871 94.1699 141.706 94.3182C143.172 94.3752 146.17 94.4907 148.038 96.4288C149.794 98.2502 149.045 100.12 150.149 102.683C150.705 103.976 151.737 105.442 153.725 106.81L131.243 107.604C131.07 107.611 130.898 107.578 130.739 107.508C130.581 107.437 130.44 107.332 130.329 107.199C130.218 107.066 130.139 106.909 130.097 106.741C130.056 106.572 130.054 106.397 130.091 106.228Z" fill="url(#paint22_linear_1_351)"/>
<path d="M144.899 73.9288C144.837 74.1441 144.82 74.3697 144.848 74.5919C144.876 74.8141 144.948 75.0284 145.061 75.2219C145.174 75.4154 145.325 75.584 145.505 75.7177C145.684 75.8514 145.889 75.9473 146.107 75.9998C147.217 76.2682 148.57 76.6387 149.154 76.9729C150.228 77.5863 145.888 76.8776 141.896 76.7836C139.405 76.7252 137.543 76.4481 136.495 76.2468C136.435 76.2351 136.38 76.2036 136.339 76.1571C136.298 76.1106 136.274 76.0518 136.271 75.9901C136.267 75.9284 136.284 75.8673 136.32 75.8165C136.355 75.7658 136.406 75.7282 136.465 75.7099C137.462 75.3857 139.082 74.9046 140.454 74.7354C142.151 74.522 143.97 70.7759 143.97 70.7759L145.424 72.0967L144.899 73.9288Z" fill="url(#paint23_linear_1_351)"/>
<path d="M159.341 96.0919L159.065 95.6402C158.947 95.1873 158.668 94.7926 158.281 94.5296C157.894 94.2665 157.424 94.153 156.96 94.2101L155.51 94.3893C155.402 94.4026 155.299 94.438 155.206 94.4932C155.114 94.5485 155.033 94.6224 154.971 94.7102C154.908 94.7981 154.864 94.898 154.842 95.0037C154.82 95.1094 154.82 95.2185 154.842 95.3241C154.977 95.9711 155.324 96.7455 156.216 96.6851C157.728 96.5831 158.699 98.7884 158.699 98.7884L159.279 97.9703C159.472 97.6976 159.581 97.3743 159.592 97.0403C159.603 96.7064 159.516 96.3767 159.341 96.0919Z" fill="url(#paint24_linear_1_351)"/>
<path d="M148.14 72.0081C149.393 71.8222 150.798 70.7679 150.771 69.8968C150.733 68.7002 147.997 68.0445 146.615 67.7137C145.233 67.3828 144.641 67.5016 144.244 67.8036C143.848 68.1056 143.573 68.6646 143.485 69.1411C143.438 69.4002 143.436 69.7578 143.48 70.4692C143.52 71.1014 143.508 71.0732 143.524 71.2598C143.564 71.7081 143.686 72.4966 144.123 73.5892C144.345 73.3449 144.589 73.1204 144.85 72.9181C145.19 72.6541 145.562 72.4346 145.957 72.2651C146.861 71.902 147.379 72.1228 148.14 72.0081Z" fill="url(#paint25_linear_1_351)"/>
<path d="M143.456 72.373C143.456 72.373 143.537 74.1179 145.183 74.887C146.659 75.5735 148.613 72.4965 148.074 71.3214C147.895 70.9295 147.336 70.5033 146.77 70.3711C146.434 70.2933 146.268 70.3604 145.721 70.2221C145.216 70.0946 145.117 69.9772 144.923 70.0168C144.679 70.0658 144.369 70.3429 144.136 71.4261C144.016 71.0026 143.747 70.7181 143.457 70.7013C143.354 70.7005 143.254 70.7284 143.166 70.7818C142.767 71.0402 142.845 71.6878 143.456 72.373Z" fill="url(#paint26_linear_1_351)"/>
<defs>
<linearGradient id="paint0_linear_1_351" x1="150.636" y1="31.4458" x2="99.5496" y2="75.1385" gradientUnits="userSpaceOnUse">
<stop stop-color="#E38DDD"/>
<stop offset="1" stop-color="#9571F6"/>
</linearGradient>
<linearGradient id="paint1_linear_1_351" x1="178.578" y1="63.8543" x2="111.36" y2="65.8708" gradientUnits="userSpaceOnUse">
<stop stop-color="#FF9085"/>
<stop offset="1" stop-color="#FB6FBB"/>
</linearGradient>
<linearGradient id="paint2_linear_1_351" x1="134.505" y1="57.062" x2="43.9942" y2="209.925" gradientUnits="userSpaceOnUse">
<stop stop-color="#FFC444"/>
<stop offset="0.31" stop-color="#FBA94A"/>
<stop offset="1" stop-color="#F36F56"/>
</linearGradient>
<linearGradient id="paint3_linear_1_351" x1="152105" y1="129474" x2="29747.7" y2="192800" gradientUnits="userSpaceOnUse">
<stop stop-color="#FFC444"/>
<stop offset="0.31" stop-color="#FBA94A"/>
<stop offset="1" stop-color="#F36F56"/>
</linearGradient>
<linearGradient id="paint4_linear_1_351" x1="72.5421" y1="22.919" x2="103.2" y2="101.885" gradientUnits="userSpaceOnUse">
<stop stop-color="#AA80F9"/>
<stop offset="1" stop-color="#6165D7"/>
</linearGradient>
<linearGradient id="paint5_linear_1_351" x1="36152.9" y1="31912.2" x2="87834" y2="98419.2" gradientUnits="userSpaceOnUse">
<stop stop-color="#AA80F9"/>
<stop offset="1" stop-color="#6165D7"/>
</linearGradient>
<linearGradient id="paint6_linear_1_351" x1="47.0943" y1="135.658" x2="109.203" y2="137.968" gradientUnits="userSpaceOnUse">
<stop stop-color="#444B8C"/>
<stop offset="1" stop-color="#26264F"/>
</linearGradient>
<linearGradient id="paint7_linear_1_351" x1="79467.5" y1="227877" x2="97909.8" y2="198302" gradientUnits="userSpaceOnUse">
<stop stop-color="#444B8C"/>
<stop offset="1" stop-color="#26264F"/>
</linearGradient>
<linearGradient id="paint8_linear_1_351" x1="77.9166" y1="85.2829" x2="19.8801" y2="226.119" gradientUnits="userSpaceOnUse">
<stop stop-color="#FFC444"/>
<stop offset="1" stop-color="#F36F56"/>
</linearGradient>
<linearGradient id="paint9_linear_1_351" x1="38564.6" y1="23026.4" x2="47050.9" y2="54577.4" gradientUnits="userSpaceOnUse">
<stop stop-color="#FF9085"/>
<stop offset="1" stop-color="#FB6FBB"/>
</linearGradient>
<linearGradient id="paint10_linear_1_351" x1="51355.2" y1="118685" x2="103852" y2="203862" gradientUnits="userSpaceOnUse">
<stop stop-color="#AA80F9"/>
<stop offset="1" stop-color="#6165D7"/>
</linearGradient>
<linearGradient id="paint11_linear_1_351" x1="5803.35" y1="14475.7" x2="-376.142" y2="25442.1" gradientUnits="userSpaceOnUse">
<stop stop-color="#FFC444"/>
<stop offset="0.31" stop-color="#FBA94A"/>
<stop offset="1" stop-color="#F36F56"/>
</linearGradient>
<linearGradient id="paint12_linear_1_351" x1="166.394" y1="135.715" x2="138.847" y2="135.715" gradientUnits="userSpaceOnUse">
<stop stop-color="#444B8C"/>
<stop offset="1" stop-color="#3E4177"/>
</linearGradient>
<linearGradient id="paint13_linear_1_351" x1="159.295" y1="183.322" x2="149.013" y2="183.322" gradientUnits="userSpaceOnUse">
<stop stop-color="#311944"/>
<stop offset="1" stop-color="#6B3976"/>
</linearGradient>
<linearGradient id="paint14_linear_1_351" x1="147.597" y1="165.305" x2="151.193" y2="187.82" gradientUnits="userSpaceOnUse">
<stop stop-color="#311944"/>
<stop offset="1" stop-color="#A03976"/>
</linearGradient>
<linearGradient id="paint15_linear_1_351" x1="12950" y1="93522.6" x2="23504.6" y2="93522.6" gradientUnits="userSpaceOnUse">
<stop stop-color="#444B8C"/>
<stop offset="1" stop-color="#3E4177"/>
</linearGradient>
<linearGradient id="paint16_linear_1_351" x1="17220.3" y1="143770" x2="25487" y2="143770" gradientUnits="userSpaceOnUse">
<stop stop-color="#444B8C"/>
<stop offset="1" stop-color="#3E4177"/>
</linearGradient>
<linearGradient id="paint17_linear_1_351" x1="-50434.1" y1="52213.6" x2="-37781.2" y2="98900.8" gradientUnits="userSpaceOnUse">
<stop stop-color="#AA80F9"/>
<stop offset="1" stop-color="#6165D7"/>
</linearGradient>
<linearGradient id="paint18_linear_1_351" x1="-5411.71" y1="13676.5" x2="-5796.93" y2="15027.7" gradientUnits="userSpaceOnUse">
<stop stop-color="#AA80F9"/>
<stop offset="1" stop-color="#6165D7"/>
</linearGradient>
<linearGradient id="paint19_linear_1_351" x1="-39078.7" y1="47333.5" x2="-25427.7" y2="86204.7" gradientUnits="userSpaceOnUse">
<stop stop-color="#AA80F9"/>
<stop offset="1" stop-color="#6165D7"/>
</linearGradient>
<linearGradient id="paint20_linear_1_351" x1="-36134.2" y1="39615" x2="-25220.2" y2="70815.4" gradientUnits="userSpaceOnUse">
<stop stop-color="#AA80F9"/>
<stop offset="1" stop-color="#6165D7"/>
</linearGradient>
<linearGradient id="paint21_linear_1_351" x1="148.135" y1="92.5088" x2="137.815" y2="111.114" gradientUnits="userSpaceOnUse">
<stop offset="0.49" stop-color="#EBEFF2"/>
<stop offset="1" stop-color="white"/>
</linearGradient>
<linearGradient id="paint22_linear_1_351" x1="24139.1" y1="24856.9" x2="21834.1" y2="20899.3" gradientUnits="userSpaceOnUse">
<stop offset="0.49" stop-color="#EBEFF2"/>
<stop offset="1" stop-color="white"/>
</linearGradient>
<linearGradient id="paint23_linear_1_351" x1="11541.6" y1="6099.92" x2="11446.7" y2="7738.19" gradientUnits="userSpaceOnUse">
<stop stop-color="#311944"/>
<stop offset="1" stop-color="#A03976"/>
</linearGradient>
<linearGradient id="paint24_linear_1_351" x1="3013.13" y1="6697.7" x2="3351.64" y2="6697.7" gradientUnits="userSpaceOnUse">
<stop stop-color="#311944"/>
<stop offset="1" stop-color="#A03976"/>
</linearGradient>
<linearGradient id="paint25_linear_1_351" x1="-3458.75" y1="7321.34" x2="-2604.84" y2="6516.57" gradientUnits="userSpaceOnUse">
<stop stop-color="#311944"/>
<stop offset="1" stop-color="#6B3976"/>
</linearGradient>
<linearGradient id="paint26_linear_1_351" x1="4587.78" y1="4895.3" x2="4453.93" y2="5248.04" gradientUnits="userSpaceOnUse">
<stop stop-color="#311944"/>
<stop offset="1" stop-color="#A03976"/>
</linearGradient>
</defs>
</svg>
