<svg width="192" height="190" viewBox="0 0 192 190" fill="none" xmlns="http://www.w3.org/2000/svg">
<path d="M188.253 81.1543C183.074 47.2569 161.842 5.6096 119.894 1.25399C119.894 1.25399 88.0461 -2.62032 56.6502 3.25097C38.017 6.73765 21.6782 17.1088 11.3399 32.0174C1.00152 46.926 -2.45166 65.1067 1.73919 82.4354C4.46153 93.6919 6.30058 105.342 5.79604 116.906C4.91753 137.041 5.42276 155.832 24.9598 167.839C42.4041 178.559 64.3578 188.013 85.3018 189.67C99.5357 190.795 115.498 188.974 129.216 185.268C199.129 166.381 193.432 115.051 188.253 81.1543Z" fill="#292A46"/>
<path d="M111.395 38.4343L68.1453 39.066V30.3678C68.1453 27.8929 71.6162 26.4346 73.2392 28.0946L74.1444 30.0649C75.6485 31.6018 77.7726 32.0578 79.6492 31.2579L111.395 17.7214V38.4343Z" fill="#B2BCCC"/>
<path d="M115.607 38.3727L152.608 37.832L154.049 30.1538C154.049 28.0207 150.648 27.0698 149.416 28.5034L148.068 30.0758C146.906 31.4308 145.241 31.8444 143.752 31.1403L115.607 17.8157V38.3727Z" fill="#B2BCCC"/>
<path d="M112.873 38.7351L69.6228 39.3668V30.6686C69.6228 28.1938 72.2399 26.9085 73.8615 28.5677L75.6199 30.3657C77.1239 31.9026 79.2474 32.3586 81.1247 31.5581L112.871 18.0215L112.873 38.7351Z" fill="#D8DEE8"/>
<path d="M117.086 38.6736L154.086 38.1328V30.6358C154.086 28.5028 152.126 27.3706 150.894 28.8043L149.547 30.3767C148.385 31.7317 146.719 32.1453 145.23 31.4405L117.086 18.1172V38.6736Z" fill="#D8DEE8"/>
<path d="M107.738 103.176L69.6226 38.1698L31.5071 102.861L31.1816 102.621L69.6233 37.3774L69.7853 37.6543L108.064 102.938L107.738 103.176Z" fill="#B2BCCC"/>
<path d="M109.201 103.057C109.201 105.962 91.4812 117.223 69.6225 117.223C47.7638 117.223 30.0439 105.962 30.0439 103.057C30.0439 100.152 47.7638 97.798 69.6225 97.798C91.4812 97.798 109.201 100.153 109.201 103.057Z" fill="#D8DEE8"/>
<path d="M69.6225 108.115C91.4811 108.115 109.201 105.761 109.201 102.856C109.201 99.9521 91.4811 97.5977 69.6225 97.5977C47.7639 97.5977 30.0439 99.9521 30.0439 102.856C30.0439 105.761 47.7639 108.115 69.6225 108.115Z" fill="#E6EBF4"/>
<g style="mix-blend-mode:multiply" opacity="0.3">
<path d="M69.6227 106.471C90.7632 106.471 107.901 104.641 107.901 102.383C107.901 100.125 90.7632 98.2943 69.6227 98.2943C48.4822 98.2943 31.3445 100.125 31.3445 102.383C31.3445 104.641 48.4822 106.471 69.6227 106.471Z" fill="#D8DEE8"/>
</g>
<path d="M69.6226 42.9896C72.2026 42.9896 74.2941 40.6541 74.2941 37.7732C74.2941 34.8923 72.2026 32.5569 69.6226 32.5569C67.0427 32.5569 64.9512 34.8923 64.9512 37.7732C64.9512 40.6541 67.0427 42.9896 69.6226 42.9896Z" fill="#D8DEE8"/>
<path d="M187.361 93.2962L154.086 37.3842L120.811 93.0241L120.527 92.819L154.086 36.7026L154.228 36.9412L187.645 93.0911L187.361 93.2962Z" fill="#B2BCCC"/>
<path d="M188.639 93.1936C188.639 95.6917 173.169 105.377 154.086 105.377C135.004 105.377 119.533 95.6917 119.533 93.1936C119.533 90.6955 135.003 88.6712 154.086 88.6712C173.169 88.6712 188.639 90.6955 188.639 93.1936Z" fill="#D8DEE8"/>
<path d="M154.086 97.519C173.169 97.519 188.639 95.494 188.639 92.9959C188.639 90.4979 173.169 88.4728 154.086 88.4728C135.004 88.4728 119.534 90.4979 119.534 92.9959C119.534 95.494 135.004 97.519 154.086 97.519Z" fill="#E6EBF4"/>
<g style="mix-blend-mode:multiply" opacity="0.3">
<path d="M154.086 96.346C172.542 96.346 187.504 94.7244 187.504 92.724C187.504 90.7236 172.542 89.102 154.086 89.102C135.63 89.102 120.669 90.7236 120.669 92.724C120.669 94.7244 135.63 96.346 154.086 96.346Z" fill="#D8DEE8"/>
</g>
<path d="M154.086 41.5306C156.339 41.5306 158.164 39.5218 158.164 37.0438C158.164 34.5657 156.339 32.5569 154.086 32.5569C151.834 32.5569 150.008 34.5657 150.008 37.0438C150.008 39.5218 151.834 41.5306 154.086 41.5306Z" fill="#D8DEE8"/>
<path d="M118.615 4.38043L111.317 4.0427C109.66 3.96613 108.309 5.51667 108.309 7.50749V13.5627L110.257 41.6885C110.386 43.5481 111.684 44.9476 113.234 44.9079L116.733 44.819C118.256 44.7801 119.518 43.3382 119.643 41.5033L121.515 13.9517V8.03528C121.513 6.09095 120.218 4.45494 118.615 4.38043Z" fill="#B2BCCC"/>
<path d="M120.15 4.38043L112.852 4.0427C111.195 3.96613 109.844 5.51667 109.844 7.50749V13.5627L111.792 41.6885C111.921 43.5481 113.218 44.9476 114.769 44.9079L118.268 44.819C119.791 44.7801 121.053 43.3382 121.178 41.5033L123.049 13.9517V8.03528C123.05 6.09095 121.755 4.45494 120.15 4.38043Z" fill="#D8DEE8"/>
<g style="mix-blend-mode:multiply" opacity="0.3">
<g style="mix-blend-mode:multiply" opacity="0.3">
<path d="M118.627 31.5395C116.375 22.7244 112.319 19.0285 111.674 10.5436C111.516 8.42508 111.587 6.29573 111.885 4.19238C110.701 4.62036 109.844 5.92341 109.844 7.50746V13.5627L111.793 41.6885C111.921 43.5481 113.219 44.9475 114.77 44.9079L118.269 44.819C118.86 44.7966 119.427 44.5755 119.878 44.1914C120.112 38.8356 119.41 34.6085 118.627 31.5395Z" fill="#D8DEE8"/>
</g>
</g>
<path d="M51.2958 158.072C49.6913 160.732 46.8951 164.344 43.8679 168.532L94.3905 175.848C88.7387 160.462 80.7713 144.304 92.6711 117.587C98.2552 105.05 113.097 83.0071 106.988 68.307C100.028 51.5572 86.259 58.7918 82.7655 45.8254C77.3078 25.5596 60.057 11.4618 41.5256 21.5356C23.2349 31.4754 23.8489 67.7942 47.9521 107.525C62.0082 137.986 59.6755 144.185 51.2958 158.072Z" fill="url(#paint0_linear_1_404)"/>
<g style="mix-blend-mode:soft-light">
<g style="mix-blend-mode:soft-light">
<path d="M70.4129 169.386C70.7773 162.751 70.7855 156.474 70.7937 149.828V147.612C70.6002 144.412 70.497 141.254 70.3965 138.195C70.1702 131.29 69.9562 124.773 68.7885 117.852C68.7659 117.448 68.7632 117.055 68.7611 116.639C68.7536 115.154 68.7454 113.619 67.884 112.151L67.8642 112.09C64.3939 75.484 53.3124 38.9812 34.9294 3.59627L35.192 3.45953C53.5873 38.8678 64.679 75.3965 68.1609 112.029C69.0462 113.558 69.0544 115.194 69.062 116.638C69.062 117.048 69.0661 117.439 69.0866 117.82C70.2563 124.744 70.4703 131.273 70.6973 138.185C70.7978 141.24 70.9024 144.398 71.0945 147.604V149.829C71.0863 156.478 71.0781 162.759 70.713 169.403L70.4129 169.386Z" fill="#FCFDFE"/>
</g>
<g style="mix-blend-mode:soft-light">
<path d="M70.0751 136.926C69.7503 119.614 78.8813 99.0511 86.5985 84.8474C94.9556 69.465 103.5 58.0259 103.585 57.9111L103.823 58.0888C103.737 58.2023 95.2031 69.629 86.8562 84.9916C79.1575 99.1619 70.0477 119.673 70.3711 136.919L70.0751 136.926Z" fill="#FCFDFE"/>
</g>
<g style="mix-blend-mode:soft-light">
<path d="M58.4447 61.6891C57.0773 43.3382 59.8906 23.7622 60.8156 17.3297C60.9927 16.0991 61.1096 15.2862 61.1041 15.1283L61.4001 15.118C61.4063 15.2951 61.3147 15.9384 61.1089 17.3741C60.1853 23.8005 57.3747 43.3533 58.74 61.6692L58.4447 61.6891Z" fill="#FCFDFE"/>
</g>
<g style="mix-blend-mode:soft-light">
<path d="M65.0461 91.0333C58.8535 75.2236 26.478 61.2058 26.1519 61.0663L26.2681 60.7928C26.5956 60.9296 59.0839 75 65.3216 90.9246L65.0461 91.0333Z" fill="#FCFDFE"/>
</g>
</g>
<path d="M49.7705 102.228C50.0439 125.682 61.3579 117.952 71.7899 120.268C83.8285 137.687 84.9627 153.849 66.9878 167.806L46.9565 164.808C39.5244 164.466 30.8043 162.192 31.2966 152.297C31.8531 141.105 34.4995 133.997 21.8675 128.501C9.23547 123.004 3.80924 112.975 8.9244 101.568C14.3076 89.5634 1.681 73.3818 10.907 65.3385C26.9874 51.3234 49.4813 77.801 49.7705 102.228Z" fill="url(#paint1_linear_1_404)"/>
<g style="mix-blend-mode:soft-light">
<g style="mix-blend-mode:soft-light">
<path d="M54.7402 144.201C46.3662 135.036 39.135 124.889 33.2048 113.983C27.2276 102.987 22.671 91.3901 19.6629 79.5121C17.9443 72.7382 16.7349 65.8452 16.0449 58.8908L16.3464 58.8614C17.0354 65.8013 18.2425 72.6799 19.9575 79.4396C22.9595 91.2923 27.5065 102.866 33.4728 113.839C39.3916 124.724 46.6088 134.85 54.9665 143.996L54.7402 144.201Z" fill="#FCFDFE"/>
</g>
<g style="mix-blend-mode:soft-light">
<path d="M33.1831 157.083L33.0464 156.81C36.7662 154.915 41.1539 153.437 46.0886 152.417C48.3781 151.94 50.6978 151.622 53.0312 151.465L53.0524 151.773C50.7317 151.928 48.4245 152.244 46.1474 152.718C41.2414 153.732 36.879 155.2 33.1831 157.083Z" fill="#FCFDFE"/>
</g>
<g style="mix-blend-mode:soft-light">
<path d="M37.1051 120.678C26.7627 110.673 4.7467 111.585 4.52656 111.599L4.51221 111.296C4.73508 111.287 26.8789 110.364 37.3164 120.457L37.1051 120.678Z" fill="#FCFDFE"/>
</g>
<g style="mix-blend-mode:soft-light">
<path d="M24.3521 94.5671C21.2565 78.6063 33.2185 60.1625 33.3395 59.9772L33.5931 60.144C33.4721 60.3273 21.5778 78.6713 24.6495 94.5097L24.3521 94.5671Z" fill="#FCFDFE"/>
</g>
</g>
<path d="M185.196 169.801L12.5833 168.297V172.745C12.5833 173.952 13.3353 174.979 14.356 175.163L63.1653 183.922C63.7429 184.025 64.3315 184.053 64.9162 184.004L183.32 174.017C184.377 173.928 185.196 172.898 185.196 171.657V169.801Z" fill="url(#paint2_linear_1_404)"/>
<path d="M129.63 162.591L14.4833 170.726C12.4227 170.871 10.7471 169.324 10.7471 167.27V84.9568C10.7496 83.9681 11.1446 83.0209 11.8451 82.3233C12.5457 81.6257 13.4946 81.2347 14.4833 81.2363H129.63C131.327 81.2363 132.699 82.7404 132.699 84.5993V159.011C132.699 160.866 131.327 162.471 129.63 162.591Z" fill="url(#paint3_linear_1_404)"/>
<path d="M131.468 162.591L16.3215 170.726C14.2609 170.871 12.5859 169.324 12.5859 167.27V84.9568C12.5883 83.9682 12.9831 83.021 13.6836 82.3233C14.384 81.6257 15.3328 81.2347 16.3215 81.2363H131.468C133.165 81.2363 134.538 82.7404 134.538 84.5993V159.011C134.536 160.866 133.163 162.471 131.468 162.591Z" fill="url(#paint4_linear_1_404)"/>
<path d="M127.878 157.344L20.6314 164.413C18.955 164.524 17.5918 163.251 17.5918 161.576V89.5087C17.5931 88.702 17.9134 87.9285 18.4828 87.3572C19.0523 86.7858 19.8247 86.4629 20.6314 86.4589L127.878 86.0152C129.279 86.009 130.408 87.2458 130.408 88.771V154.411C130.411 155.939 129.28 157.252 127.878 157.344Z" fill="url(#paint5_linear_1_404)"/>
<path d="M128.592 162.222L12.5833 170.787L63.1653 179.864C63.7429 179.968 64.3315 179.996 64.9162 179.946L185.196 169.801L130.438 162.281C129.826 162.197 129.208 162.177 128.592 162.222Z" fill="url(#paint6_linear_1_404)"/>
<path style="mix-blend-mode:multiply" opacity="0.3" d="M29.5107 171.003L126.092 163.765L155.983 167.838L60.2338 175.574L29.5107 171.003Z" fill="url(#paint7_linear_1_404)"/>
<g style="mix-blend-mode:soft-light" opacity="0.48">
<path d="M103.723 140.014C94.8462 135.238 87.866 141.29 81.1299 135.319C77.0464 131.695 79.0516 128.999 74.0266 123.589C68.461 117.598 64.8375 119.612 59.2438 114.219C52.1713 107.401 55.7086 102.096 49.6172 97.1998C42.2261 91.2608 34.256 96.7575 27.2211 91.0619C24.187 88.6055 22.5223 85.0341 21.6527 81.2356H14.7668C14.1873 81.2356 13.6315 81.4656 13.2213 81.8749C12.8112 82.2843 12.5802 82.8397 12.5791 83.4192V168.747C12.5791 169.953 13.5588 170.861 14.7668 170.776L132.122 162.445C132.698 162.405 133.209 162.068 133.536 161.581C124.946 161.268 119.668 158.388 116.295 155.411C109.695 149.585 110.84 143.843 103.723 140.014Z" fill="white"/>
</g>
<path d="M75.0428 149.389C74.0343 149.421 73.0379 149.163 72.1714 148.646C69.5502 147.074 65.6766 144.476 62.1899 141.082C57.768 136.771 55.2268 132.389 54.6696 128.086L54.6608 128.018L54.5562 109.66C54.5562 106.031 56.9223 103.086 61.3661 101.15C65.0374 99.551 69.903 98.7573 75.0441 98.907C80.1244 99.054 84.826 100.103 88.3072 101.847C92.4433 103.923 94.614 106.837 94.614 110.301L94.5128 127.845L94.5046 127.913C93.9966 132.034 91.6592 136.293 87.5271 140.6C84.2134 144.055 80.4683 146.792 77.8964 148.488C77.0474 149.048 76.0592 149.36 75.0428 149.389Z" fill="#BFC8D6"/>
<path d="M76.0505 149.389C75.0539 149.421 74.0696 149.163 73.2167 148.646C70.6297 147.074 66.8067 144.476 63.3679 141.082C59.0041 136.771 56.4971 132.389 55.9488 128.086L55.9399 128.018L55.8333 109.66C55.8333 106.031 58.1686 103.086 62.5536 101.15C66.1771 99.551 70.9784 98.7573 76.0505 98.907C81.0645 99.054 85.7038 100.103 89.1372 101.847C93.2193 103.923 95.3585 106.837 95.3585 110.301L95.2641 127.845L95.2559 127.913C94.7548 132.034 92.4481 136.293 88.3708 140.6C85.1001 144.055 81.4049 146.792 78.8679 148.488C78.0322 149.048 77.0557 149.36 76.0505 149.389Z" fill="url(#paint8_linear_1_404)"/>
<path d="M57.0461 109.671L57.1542 127.939C58.3567 137.26 69.311 144.807 74.0816 147.673C75.449 148.494 77.1957 148.446 78.5528 147.553C83.2242 144.476 93.5783 136.741 94.6872 127.779L94.7856 110.284C94.7815 97.3037 57.0461 96.1169 57.0461 109.671Z" fill="url(#paint9_linear_1_404)"/>
<path d="M76.3212 144.858C76.1969 144.861 76.0743 144.828 75.9677 144.764C74.0036 143.575 70.1956 141.083 66.8832 137.829C63.305 134.314 61.241 130.897 60.7679 127.687L60.6626 109.722C60.6674 107.998 62.0299 106.523 64.7065 105.342C67.6927 104.024 71.9328 103.333 76.3219 103.437C80.6665 103.54 84.7829 104.415 87.6351 105.83C90.1578 107.082 91.4335 108.557 91.4376 110.221L91.3371 127.565C90.8955 130.671 88.958 134.019 85.5575 137.539C82.36 140.848 78.6244 143.472 76.6699 144.748C76.5659 144.816 76.4453 144.854 76.3212 144.858Z" fill="url(#paint10_linear_1_404)"/>
<path d="M75.8733 143.629C73.8907 142.408 70.3616 140.048 67.2837 137.02C63.9215 133.71 61.9751 130.535 61.5177 127.596L61.4138 109.735C61.4138 108.504 62.5494 107.371 64.772 106.385C67.601 105.132 71.6537 104.471 75.8733 104.567C80.0518 104.661 83.9911 105.487 86.6984 106.823C88.8013 107.864 89.8658 108.998 89.8685 110.201L89.7707 127.481C89.3414 130.331 87.5058 133.45 84.296 136.765C81.3159 139.849 77.8477 142.325 75.8733 143.629Z" fill="#F4F7FA"/>
<path d="M82.6506 117.561L82.3594 117.556L82.3881 114.65C82.4168 111.483 79.7054 108.81 76.4751 108.71C73.0486 108.603 70.102 111.276 70.0993 114.658L70.0945 117.324L69.9318 117.319C69.1244 117.305 68.4824 117.65 68.4824 118.436V129.704C68.4824 130.478 69.0649 131.276 69.8662 131.276H82.5139C83.2837 131.276 83.8696 130.5 83.8812 129.742L83.9981 118.712C84.0084 117.941 83.4273 117.575 82.6506 117.561ZM78.1569 128.33C78.0427 128.477 77.8636 128.711 77.6784 128.711L74.9198 128.702C74.7311 128.702 74.5527 128.463 74.4412 128.313C74.3854 128.226 74.3485 128.128 74.3329 128.026C74.3172 127.924 74.3231 127.82 74.3503 127.72L75.6014 123.643C75.2509 123.497 74.9517 123.25 74.7413 122.933C74.531 122.617 74.419 122.245 74.4193 121.866C74.4221 121.616 74.4744 121.369 74.5733 121.139C74.6722 120.909 74.8157 120.702 74.9955 120.528C75.1753 120.354 75.3878 120.218 75.6206 120.127C75.8535 120.036 76.1021 119.992 76.3521 119.998C77.4117 120.014 78.2622 120.865 78.2554 121.901C78.2521 122.274 78.1364 122.638 77.9235 122.944C77.7106 123.251 77.4103 123.486 77.0617 123.619L78.2602 127.738C78.2857 127.839 78.2897 127.943 78.2719 128.045C78.2541 128.147 78.2149 128.244 78.1569 128.33ZM80.7015 117.528L71.803 117.359L71.8098 114.699C71.8146 112.17 73.9066 110.171 76.4655 110.245C78.8454 110.313 80.7446 112.277 80.7254 114.614L80.7015 117.528Z" fill="url(#paint11_linear_1_404)"/>
<path d="M177.675 112.475V181.162C177.675 182.188 176.552 182.491 175.277 182.615L131.18 187.546L130.506 187.614C129.122 187.751 127.988 186.98 127.988 185.905V114.129C127.988 113.055 129.122 112.141 130.506 112.098L131.421 112.068L175.674 112.214C176.947 112.173 177.675 111.447 177.675 112.475Z" fill="url(#paint12_linear_1_404)"/>
<path d="M179.035 112.394V181.065C179.035 182.091 177.995 183.034 176.72 183.157L131.89 187.512C130.507 187.649 129.373 186.879 129.373 185.803V114.049C129.373 112.976 130.507 112.062 131.89 112.018L176.72 110.602C177.995 110.562 179.035 111.369 179.035 112.394Z" fill="url(#paint13_linear_1_404)"/>
<path d="M177.598 116.256V179.887C177.598 180.845 176.625 181.724 175.434 181.839L133.28 185.878C131.993 186.001 130.938 185.285 130.938 184.285V117.97C130.938 116.971 131.993 116.115 133.28 116.07L175.434 114.589C176.625 114.546 177.598 115.296 177.598 116.256Z" fill="url(#paint14_linear_1_404)"/>
<g style="mix-blend-mode:soft-light" opacity="0.48">
<g style="mix-blend-mode:soft-light" opacity="0.48">
<path d="M164.543 151.91C160.464 143.726 150.933 145.679 147.352 136.753C145.216 131.428 147.875 128.903 146.273 122.406C145.19 118.011 142.824 114.507 140.143 111.756L131.89 112.017C130.507 112.061 129.373 112.974 129.373 114.047V185.805C129.373 186.879 130.507 187.646 131.89 187.514L167.967 184.01C165.296 180.298 164.152 176.806 163.74 173.777C162.461 164.379 168.166 159.181 164.543 151.91Z" fill="white"/>
</g>
</g>
<path d="M155.487 167.049C154.783 167.072 154.087 166.889 153.485 166.522C151.668 165.411 149.001 163.587 146.618 161.21C143.617 158.217 141.904 155.176 141.53 152.176L141.524 152.129L141.449 139.282C141.449 136.739 143.046 134.598 146.066 133.089C148.58 131.831 151.942 131.094 155.529 131.014C159.116 130.934 162.456 131.519 164.952 132.66C167.941 134.027 169.517 136.083 169.51 138.608L169.408 151.392L169.402 151.439C169.025 154.444 167.321 157.562 164.337 160.711C161.963 163.215 159.302 165.189 157.487 166.405C156.894 166.803 156.201 167.027 155.487 167.049Z" fill="#BFC8D6"/>
<path d="M156.193 167.049C155.494 167.072 154.804 166.889 154.21 166.521C152.413 165.409 149.775 163.581 147.419 161.204C144.451 158.206 142.756 155.162 142.387 152.157L142.381 152.11L142.312 139.246C142.312 136.7 143.892 134.559 146.878 133.048C149.366 131.79 152.69 131.055 156.237 130.977C159.785 130.9 163.087 131.488 165.553 132.631C168.508 133.998 170.066 136.059 170.058 138.585L169.958 151.38L169.952 151.427C169.579 154.435 167.896 157.554 164.946 160.704C162.599 163.211 159.967 165.187 158.173 166.403C157.588 166.803 156.901 167.027 156.193 167.049Z" fill="url(#paint15_linear_1_404)"/>
<path d="M143.132 139.223L143.2 152.036C144.013 158.554 151.502 163.806 154.814 165.829C155.291 166.115 155.84 166.258 156.395 166.242C156.951 166.225 157.49 166.05 157.949 165.738C161.258 163.525 168.711 157.871 169.532 151.341L169.635 138.589C169.66 129.111 143.133 129.696 143.132 139.223Z" fill="url(#paint16_linear_1_404)"/>
<path d="M156.387 163.819C156.3 163.822 156.213 163.8 156.139 163.754C154.766 162.915 152.12 161.165 149.835 158.885C147.382 156.438 145.975 154.056 145.653 151.805L145.585 139.158C145.585 137.942 146.52 136.861 148.352 135.944C150.41 134.919 153.352 134.285 156.424 134.215C159.495 134.144 162.422 134.639 164.466 135.57C166.283 136.398 167.204 137.431 167.204 138.641L167.105 151.239C166.781 153.495 165.378 155.946 162.935 158.52C160.653 160.923 158.008 162.821 156.634 163.739C156.561 163.789 156.475 163.817 156.387 163.819Z" fill="url(#paint17_linear_1_404)"/>
<path d="M156.074 162.946C154.687 162.085 152.236 160.43 150.111 158.309C147.803 156.005 146.475 153.791 146.164 151.729L146.096 139.147C146.096 138.277 146.872 137.446 148.396 136.685C150.344 135.71 153.155 135.113 156.106 135.045C159.057 134.976 161.853 135.443 163.79 136.326C165.301 137.014 166.068 137.806 166.068 138.678L165.97 151.21C165.657 153.281 164.33 155.558 162.031 157.981C159.913 160.214 157.461 162.006 156.074 162.946Z" fill="#F4F7FA"/>
<path d="M160.885 144.184L160.68 144.188L160.704 142.095C160.728 139.814 158.808 137.968 156.529 137.993C154.129 138.016 152.076 140.005 152.072 142.41L152.067 144.304H151.987C151.428 144.312 151.016 144.571 151.015 145.129L151.009 153.119C151.009 153.666 151.345 154.277 151.897 154.266L160.773 154.102C161.32 154.092 161.739 153.501 161.747 152.956L161.844 144.997C161.853 144.435 161.438 144.173 160.885 144.184ZM157.693 152.001C157.612 152.108 157.488 152.274 157.351 152.28L155.415 152.315C155.283 152.315 155.158 152.15 155.078 152.045C155.039 151.983 155.014 151.913 155.003 151.841C154.992 151.768 154.996 151.694 155.015 151.623L155.895 148.693C155.648 148.592 155.438 148.42 155.29 148.198C155.143 147.976 155.066 147.715 155.069 147.448C155.072 147.088 155.216 146.743 155.469 146.487C155.722 146.23 156.065 146.083 156.425 146.075C156.601 146.071 156.775 146.103 156.938 146.168C157.101 146.233 157.25 146.33 157.374 146.453C157.499 146.577 157.598 146.724 157.664 146.886C157.731 147.049 157.764 147.223 157.762 147.398C157.759 147.666 157.678 147.928 157.528 148.15C157.379 148.373 157.167 148.547 156.92 148.651L157.76 151.578C157.778 151.648 157.781 151.722 157.769 151.794C157.758 151.867 157.732 151.936 157.693 151.997V152.001ZM159.502 144.204L153.252 144.288L153.259 142.394C153.265 140.593 154.726 139.108 156.52 139.088C156.917 139.084 157.31 139.16 157.678 139.31C158.045 139.461 158.379 139.683 158.659 139.965C158.939 140.247 159.159 140.581 159.308 140.95C159.456 141.318 159.529 141.713 159.522 142.11L159.502 144.204Z" fill="url(#paint18_linear_1_404)"/>
<path d="M14.015 161.472L14.0547 164.161C14.0663 164.95 14.7281 165.528 15.5321 165.453L16.9924 165.316C17.1889 166.559 17.5265 167.774 17.9987 168.94L16.7989 169.742C16.1091 170.203 15.8842 171.098 16.2957 171.742L17.6972 173.933C18.1074 174.576 19.9533 174.88 20.6431 174.418L20.8216 173.499C21.6534 174.439 22.5931 175.278 23.6212 175.998L22.9997 177.15C22.6107 177.871 22.863 178.716 23.5562 179.04L25.9265 180.138C26.6204 180.46 28.8204 180.412 29.2081 179.689L28.48 178.313C29.7266 178.67 31.0099 178.883 32.305 178.949L32.3228 180.141C32.3344 180.922 32.9839 181.491 33.7729 181.409L36.4583 181.136C37.2445 181.055 37.8721 180.358 37.8605 179.578L37.8427 178.391C39.1417 178.057 40.402 177.588 41.6028 176.991L42.2181 177.968C42.6188 178.602 44.9008 178.827 45.5715 178.37L46.4391 176.729C47.1077 176.273 47.3278 175.391 46.9265 174.758L46.288 173.745C47.268 172.835 48.1548 171.829 48.9351 170.743L50.0556 171.275C50.7332 171.596 52.6966 171.681 53.074 170.972L53.2497 168.161C53.6264 167.454 53.3864 166.62 52.7089 166.298L51.5303 165.736C51.9475 164.525 52.2374 163.274 52.3951 162.003L53.8014 161.871C54.1792 161.83 54.5287 161.652 54.783 161.37C55.0373 161.088 55.1783 160.721 55.179 160.341L55.14 157.709C55.1401 157.529 55.1022 157.351 55.0288 157.187C54.9555 157.023 54.8484 156.876 54.7145 156.756C54.5805 156.636 54.4228 156.545 54.2516 156.49C54.0804 156.436 53.8995 156.417 53.7208 156.437L52.2317 156.574C52.0077 155.385 51.6531 154.225 51.1741 153.114L52.5004 152.226C53.1643 151.78 53.381 150.903 52.9845 150.268L53.1171 147.643C52.7199 147.007 50.3735 147.307 49.7077 147.752L48.3123 148.684C47.5196 147.817 46.6334 147.039 45.67 146.366L46.4835 144.854C46.8629 144.15 46.6202 143.31 45.9366 142.978L44.8824 141.602C44.1987 141.269 42.0712 141.816 41.6904 142.522L40.8536 144.072C39.7011 143.739 38.5168 143.529 37.3204 143.445L37.2951 141.72C37.294 141.537 37.2546 141.357 37.1796 141.19C37.1046 141.024 36.9956 140.874 36.8595 140.753C36.7235 140.631 36.5634 140.538 36.3897 140.482C36.2159 140.426 36.0322 140.406 35.8505 140.425L33.1644 140.644C32.3755 140.709 31.7444 141.396 31.7561 142.177L31.7814 143.908C30.5646 144.198 29.3794 144.607 28.2427 145.129L28.6885 143.283C28.2783 142.637 26.0605 142.911 25.3775 143.361L23.0469 144.893C22.3632 145.344 22.1376 146.233 22.5471 146.88L23.4236 148.266C22.4582 149.114 21.5764 150.053 20.7901 151.069L20.8065 150.153C20.1071 149.819 17.7451 150.348 17.3547 151.064L16.0216 153.508C15.6298 154.226 15.8807 155.081 16.5822 155.41L17.9796 156.073C17.5231 157.27 17.1923 158.512 16.9924 159.778L15.4507 159.909C14.6467 159.985 14.0041 160.683 14.015 161.472ZM24.0068 162.168C23.9192 156.252 28.7035 151.035 34.6603 150.517C40.5808 150.002 45.4245 154.33 45.5113 160.181C45.5982 166.033 40.8959 171.242 34.9761 171.821C29.0207 172.404 24.0949 168.084 24.0074 162.168H24.0068Z" fill="url(#paint19_linear_1_404)"/>
<path d="M15.8178 161.362L15.8574 164.05C15.8691 164.839 16.5308 165.418 17.3341 165.342L18.7951 165.205C18.9911 166.447 19.3288 167.663 19.8015 168.828L18.601 169.631C17.9118 170.091 17.6862 170.987 18.0978 171.631L19.5 173.823C19.9102 174.465 20.7989 174.612 21.4888 174.15L22.6243 173.387C23.456 174.328 24.3957 175.167 25.4239 175.887L24.8018 177.039C24.4128 177.759 24.6651 178.606 25.359 178.928L27.7292 180.028C28.4231 180.35 29.3016 180.028 29.6859 179.309L30.2813 178.202C31.5291 178.559 32.8136 178.773 34.1098 178.839L34.1276 180.03C34.1392 180.812 34.7887 181.38 35.5777 181.298L38.2624 181.025C39.0493 180.944 39.6769 180.247 39.6653 179.468L39.6475 178.279C40.9464 177.946 42.2067 177.477 43.4076 176.881L44.0229 177.858C44.4242 178.491 45.2925 178.634 45.9632 178.177L48.2446 176.62C48.9125 176.164 49.1333 175.282 48.732 174.649L48.0928 173.636C49.073 172.726 49.9598 171.72 50.7399 170.634L51.8611 171.166C52.538 171.487 53.3925 171.173 53.7699 170.464L55.0545 168.053C55.4312 167.346 55.1912 166.512 54.5137 166.19L53.3358 165.627C53.7526 164.415 54.0417 163.163 54.1986 161.891L55.6055 161.76C55.9833 161.72 56.3328 161.541 56.5869 161.259C56.841 160.976 56.9819 160.61 56.9824 160.23L56.9435 157.597C56.9435 157.418 56.9056 157.24 56.8323 157.076C56.759 156.912 56.652 156.765 56.5181 156.645C56.3842 156.525 56.2266 156.435 56.0555 156.38C55.8843 156.325 55.7035 156.307 55.5249 156.326L54.0352 156.463C53.8118 155.274 53.4573 154.114 52.9782 153.004L54.3038 152.115C54.9684 151.669 55.1851 150.793 54.7886 150.157L53.4356 147.988C53.0384 147.352 52.177 147.196 51.5111 147.64L50.1157 148.574C49.3234 147.706 48.4375 146.928 47.4741 146.255L48.2876 144.743C48.6671 144.039 48.4244 143.199 47.7407 142.868L45.4162 141.736C44.7326 141.403 43.8725 141.706 43.4911 142.411L42.6604 143.956C41.5081 143.623 40.3238 143.413 39.1272 143.33L39.1019 141.604C39.1008 141.422 39.0615 141.241 38.9865 141.075C38.9115 140.908 38.8024 140.759 38.6664 140.637C38.5303 140.515 38.3703 140.423 38.1965 140.367C38.0227 140.31 37.8391 140.291 37.6574 140.31L34.9713 140.529C34.1816 140.594 33.5506 141.281 33.5622 142.061L33.5882 143.792C32.3714 144.082 31.1862 144.491 30.0496 145.014L29.1567 143.599C28.7465 142.953 27.8666 142.793 27.1843 143.242L24.8531 144.775C24.1694 145.226 23.9445 146.115 24.3533 146.762L25.227 148.15C24.2621 148.998 23.3805 149.937 22.5942 150.953L21.1319 150.255C20.4332 149.921 19.5492 150.231 19.1582 150.947L17.825 153.392C17.434 154.11 17.6883 154.965 18.3863 155.294L19.783 155.956C19.3272 157.154 18.9966 158.395 18.7965 159.661L17.2494 159.802C16.4488 159.874 15.8062 160.573 15.8178 161.362ZM25.8095 162.057C25.7213 156.141 30.5063 150.924 36.463 150.406C42.3835 149.891 47.2273 154.219 47.3141 160.07C47.4009 165.921 42.698 171.131 36.7809 171.71C30.8228 172.293 25.897 167.976 25.8095 162.057Z" fill="url(#paint20_linear_1_404)"/>
<defs>
<linearGradient id="paint0_linear_1_404" x1="123.942" y1="202.062" x2="-18.7337" y2="-44.649" gradientUnits="userSpaceOnUse">
<stop stop-color="#AA80F9"/>
<stop offset="1" stop-color="#6165D7"/>
</linearGradient>
<linearGradient id="paint1_linear_1_404" x1="16.6094" y1="80.7181" x2="92.593" y2="205.806" gradientUnits="userSpaceOnUse">
<stop stop-color="#E38DDD"/>
<stop offset="1" stop-color="#9571F6"/>
</linearGradient>
<linearGradient id="paint2_linear_1_404" x1="85.4937" y1="176.436" x2="73.3683" y2="181.53" gradientUnits="userSpaceOnUse">
<stop stop-color="#40447E"/>
<stop offset="1" stop-color="#3C3B6B"/>
</linearGradient>
<linearGradient id="paint3_linear_1_404" x1="123634" y1="161096" x2="102832" y2="173000" gradientUnits="userSpaceOnUse">
<stop stop-color="#40447E"/>
<stop offset="1" stop-color="#3C3B6B"/>
</linearGradient>
<linearGradient id="paint4_linear_1_404" x1="22459.1" y1="165013" x2="239999" y2="165013" gradientUnits="userSpaceOnUse">
<stop stop-color="#40447E"/>
<stop offset="1" stop-color="#3C3B6B"/>
</linearGradient>
<linearGradient id="paint5_linear_1_404" x1="91.2147" y1="91.4879" x2="-30.3055" y2="306.651" gradientUnits="userSpaceOnUse">
<stop stop-color="#FFC444"/>
<stop offset="1" stop-color="#F36F56"/>
</linearGradient>
<linearGradient id="paint6_linear_1_404" x1="31783.6" y1="44635" x2="467599" y2="44635" gradientUnits="userSpaceOnUse">
<stop stop-color="#40447E"/>
<stop offset="1" stop-color="#3C3B6B"/>
</linearGradient>
<linearGradient id="paint7_linear_1_404" x1="54622.4" y1="29470.7" x2="288585" y2="29470.7" gradientUnits="userSpaceOnUse">
<stop stop-color="#40447E"/>
<stop offset="1" stop-color="#3C3B6B"/>
</linearGradient>
<linearGradient id="paint8_linear_1_404" x1="63.7644" y1="100.03" x2="103.009" y2="164.217" gradientUnits="userSpaceOnUse">
<stop stop-color="white"/>
<stop offset="1" stop-color="#EBEFF2"/>
</linearGradient>
<linearGradient id="paint9_linear_1_404" x1="46743.8" y1="96472.3" x2="21205.4" y2="56298.9" gradientUnits="userSpaceOnUse">
<stop stop-color="white"/>
<stop offset="1" stop-color="#EBEFF2"/>
</linearGradient>
<linearGradient id="paint10_linear_1_404" x1="27368" y1="75336.3" x2="41221.4" y2="75336.3" gradientUnits="userSpaceOnUse">
<stop stop-color="#FFC444"/>
<stop offset="1" stop-color="#F36F56"/>
</linearGradient>
<linearGradient id="paint11_linear_1_404" x1="15610.7" y1="39721.2" x2="19132.2" y2="39721.2" gradientUnits="userSpaceOnUse">
<stop stop-color="#FFC444"/>
<stop offset="1" stop-color="#F36F56"/>
</linearGradient>
<linearGradient id="paint12_linear_1_404" x1="182.392" y1="174.569" x2="146.633" y2="144.066" gradientUnits="userSpaceOnUse">
<stop stop-color="#444B8C"/>
<stop offset="1" stop-color="#26264F"/>
</linearGradient>
<linearGradient id="paint13_linear_1_404" x1="279063" y1="92758.3" x2="281281" y2="425.475" gradientUnits="userSpaceOnUse">
<stop stop-color="#444B8C"/>
<stop offset="1" stop-color="#26264F"/>
</linearGradient>
<linearGradient id="paint14_linear_1_404" x1="113503" y1="126737" x2="13123.6" y2="279386" gradientUnits="userSpaceOnUse">
<stop stop-color="#FFC444"/>
<stop offset="1" stop-color="#F36F56"/>
</linearGradient>
<linearGradient id="paint15_linear_1_404" x1="60214.4" y1="69881.3" x2="76109" y2="89872.6" gradientUnits="userSpaceOnUse">
<stop stop-color="white"/>
<stop offset="1" stop-color="#EBEFF2"/>
</linearGradient>
<linearGradient id="paint16_linear_1_404" x1="63174.1" y1="79711.4" x2="50271.5" y2="59764.2" gradientUnits="userSpaceOnUse">
<stop stop-color="white"/>
<stop offset="1" stop-color="#EBEFF2"/>
</linearGradient>
<linearGradient id="paint17_linear_1_404" x1="46182.9" y1="64676.9" x2="53019.2" y2="64676.9" gradientUnits="userSpaceOnUse">
<stop stop-color="#FFC444"/>
<stop offset="1" stop-color="#F36F56"/>
</linearGradient>
<linearGradient id="paint18_linear_1_404" x1="24084.5" y1="34922.1" x2="25802.1" y2="34922.1" gradientUnits="userSpaceOnUse">
<stop stop-color="#FFC444"/>
<stop offset="1" stop-color="#F36F56"/>
</linearGradient>
<linearGradient id="paint19_linear_1_404" x1="55.9383" y1="123.08" x2="7.49516" y2="207.161" gradientUnits="userSpaceOnUse">
<stop stop-color="#311944"/>
<stop offset="1" stop-color="#893976"/>
</linearGradient>
<linearGradient id="paint20_linear_1_404" x1="56.7355" y1="123.56" x2="9.04636" y2="206.33" gradientUnits="userSpaceOnUse">
<stop stop-color="#FF9085"/>
<stop offset="1" stop-color="#FB6FBB"/>
</linearGradient>
</defs>
</svg>
