<svg width="28" height="27" viewBox="0 0 28 27" fill="none" xmlns="http://www.w3.org/2000/svg">
<path d="M25.8012 0H2.0982C0.994895 0 0.100586 0.870165 0.100586 1.94368V25.0068C0.100586 26.0803 0.994895 26.9504 2.0982 26.9504H25.8012C26.9045 26.9504 27.7988 26.0803 27.7988 25.0068V1.94368C27.7988 0.870165 26.9045 0 25.8012 0V0ZM20.273 10.5065C20.2792 10.6392 20.2821 10.7724 20.2821 10.9063C20.2821 14.9933 17.0849 19.7062 11.2378 19.7064H11.238H11.2378C9.44265 19.7064 7.77216 19.1944 6.3654 18.3171C6.61412 18.3456 6.86729 18.3598 7.12362 18.3598C8.61301 18.3598 9.98363 17.8655 11.0717 17.0359C9.68017 17.0108 8.50692 16.1166 8.10203 14.8876C8.29581 14.9238 8.49509 14.9435 8.69944 14.9435C8.98958 14.9435 9.27064 14.9055 9.53775 14.8345C8.08322 14.5512 6.98753 13.3005 6.98753 11.8027C6.98753 11.7888 6.98753 11.7762 6.98795 11.7633C7.4163 11.995 7.90614 12.1344 8.42768 12.15C7.57415 11.5959 7.0131 10.6486 7.0131 9.57552C7.0131 9.00884 7.17053 8.47794 7.44356 8.02086C9.01113 9.89237 11.3538 11.1232 13.9958 11.2525C13.9412 11.0259 13.9131 10.7899 13.9131 10.5473C13.9131 8.83983 15.3368 7.45459 17.0922 7.45459C18.0066 7.45459 18.8325 7.83066 19.4125 8.43188C20.1367 8.29289 20.8168 8.03546 21.4311 7.68118C21.1933 8.4031 20.6896 9.00884 20.0332 9.3919C20.6762 9.31706 21.2891 9.15113 21.8586 8.9048C21.4332 9.52514 20.8937 10.07 20.273 10.5065Z" fill="#707BFA" fill-opacity="0.71"/>
</svg>
