<svg width="28" height="27" viewBox="0 0 28 27" fill="none" xmlns="http://www.w3.org/2000/svg">
<path d="M14.1456 6.55151C10.3454 6.55151 7.25486 9.55746 7.25317 13.2524C7.25275 14.5186 7.61707 15.7517 8.30661 16.8187L8.47038 17.0722L7.77429 19.5452L10.3818 18.8798L10.6335 19.025C11.6911 19.6357 12.9037 19.9587 14.1399 19.9591H14.1427C17.9399 19.9591 21.0304 16.953 21.0321 13.2578C21.0328 11.467 20.3168 9.78344 19.0161 8.51682C17.7154 7.25021 15.9856 6.55213 14.1456 6.55151ZM18.1979 16.1336C18.0252 16.604 17.1979 17.0336 16.8 17.0916C16.4431 17.1434 15.9917 17.165 15.4955 17.0118C15.1946 16.9188 14.8089 16.7948 14.3147 16.5874C12.2372 15.7147 10.8803 13.6799 10.7767 13.5454C10.6732 13.411 9.93103 12.453 9.93103 11.4613C9.93103 10.4698 10.4661 9.98227 10.6559 9.78076C10.8458 9.57905 11.0703 9.52867 11.2083 9.52867C11.3462 9.52867 11.4844 9.52991 11.6051 9.53566C11.7323 9.54183 11.9031 9.48858 12.0711 9.88152C12.2437 10.2849 12.6579 11.2764 12.7097 11.3772C12.7615 11.4781 12.7959 11.5958 12.727 11.7302C12.6579 11.8647 12.3321 12.2698 12.2093 12.4193C12.1178 12.5303 11.9975 12.6288 12.1184 12.8305C12.2391 13.032 12.655 13.6918 13.2705 14.226C14.0617 14.9124 14.7291 15.125 14.9362 15.226C15.143 15.3267 15.2639 15.3099 15.3848 15.1756C15.5055 15.0411 15.9025 14.5873 16.0405 14.3856C16.1785 14.1839 16.3167 14.2176 16.5065 14.2848C16.6965 14.3519 17.7146 14.8394 17.9217 14.9402C18.1288 15.0411 18.2668 15.0915 18.3186 15.1756C18.3705 15.2597 18.3705 15.6629 18.1979 16.1336Z" fill="#707BFA" fill-opacity="0.71"/>
<path d="M25.7006 0H1.99761C0.894309 0 0 0.870165 0 1.94368V25.0068C0 26.0803 0.894309 26.9504 1.99761 26.9504H25.7006C26.8039 26.9504 27.6982 26.0803 27.6982 25.0068V1.94368C27.6982 0.870165 26.8039 0 25.7006 0V0ZM14.1426 21.3209C14.1424 21.3209 14.1428 21.3209 14.1426 21.3209H14.1393C12.7519 21.3203 11.3887 20.9818 10.178 20.3395L5.78406 21.4607L6.96006 17.2826C6.23459 16.06 5.85295 14.6729 5.85358 13.2519C5.85548 8.80652 9.57388 5.18994 14.1426 5.18994C16.3598 5.19077 18.4411 6.0305 20.0059 7.55432C21.571 9.07834 22.4323 11.1041 22.4315 13.2583C22.4296 17.7039 18.7108 21.3209 14.1426 21.3209Z" fill="#707BFA" fill-opacity="0.71"/>
</svg>
