<svg width="28" height="27" viewBox="0 0 28 27" fill="none" xmlns="http://www.w3.org/2000/svg">
<path d="M12.3251 15.9995L16.83 13.4752L12.3251 10.9509V15.9995Z" fill="#707BFA" fill-opacity="0.71"/>
<path d="M25.9018 0H2.19879C1.09548 0 0.201172 0.870165 0.201172 1.94368V25.0068C0.201172 26.0803 1.09548 26.9504 2.19879 26.9504H25.9018C27.0051 26.9504 27.8994 26.0803 27.8994 25.0068V1.94368C27.8994 0.870165 27.0051 0 25.9018 0V0ZM22.7039 13.489C22.7039 13.489 22.7039 16.2218 22.3476 17.5396C22.1479 18.2609 21.5634 18.8297 20.8221 19.0238C19.4677 19.3706 14.0503 19.3706 14.0503 19.3706C14.0503 19.3706 8.64703 19.3706 7.27851 19.01C6.5372 18.8159 5.95269 18.2469 5.75299 17.5256C5.39649 16.2218 5.39649 13.4752 5.39649 13.4752C5.39649 13.4752 5.39649 10.7426 5.75299 9.4248C5.95248 8.7035 6.55136 8.12079 7.27851 7.92669C8.63287 7.57981 14.0503 7.57981 14.0503 7.57981C14.0503 7.57981 19.4677 7.57981 20.8221 7.94046C21.5634 8.13456 22.1479 8.7035 22.3476 9.4248C22.7182 10.7426 22.7039 13.489 22.7039 13.489V13.489Z" fill="#707BFA" fill-opacity="0.71"/>
</svg>
